<svg width="55" height="31" viewBox="0 0 55 31" fill="none" xmlns="http://www.w3.org/2000/svg">
<path d="M15.0276 5.30957C14.9986 5.34672 14.9639 5.39134 14.9231 5.44338C14.5525 5.55783 14.1601 5.57146 13.7628 5.68986C13.831 6.02901 13.8935 6.36924 13.9508 6.71044C12.3835 7.18267 10.8267 7.68984 9.28206 8.23165C8.87512 8.37619 7.87774 8.7103 7.53049 8.89518C7.6777 8.94887 7.91969 8.97433 7.99752 9.02398C7.70391 9.05061 6.85777 9.17659 6.58392 9.27043C6.32944 9.39859 6.23627 9.43465 5.96202 9.5134C5.45789 9.78493 4.29353 10.2851 3.76399 10.49C3.42481 10.5641 3.1796 10.6473 2.8513 10.7572C2.54882 10.8751 2.39193 10.9396 2.28828 11.2755L2.28667 11.3426C2.26892 11.7209 2.22698 13.2597 2.32176 13.5641C1.96563 13.7169 1.45948 13.8425 1.41512 14.2725C1.43972 14.6628 1.46674 15.1579 1.55628 15.5402C1.8757 15.7602 2.76338 16.1998 3.13443 16.3288C3.22719 16.3591 3.32479 16.3945 3.42037 16.4113C3.55387 16.4243 3.60065 16.4226 3.72406 16.4701C4.14834 16.7767 5.12919 17.1635 5.63212 17.4551C5.71842 17.5813 5.78376 17.6937 5.89991 17.7928C6.03542 17.806 6.13182 17.7769 6.26491 17.7498C6.31532 19.2241 6.67063 20.296 7.77852 21.3506C8.83439 22.3555 9.91163 22.3345 11.2022 21.7981C11.685 21.5974 12.2113 21.4415 12.5827 21.037C12.7025 20.9076 12.8167 20.7369 12.9328 20.5969C14.1556 20.8038 15.8588 21.6751 17.0357 21.938C17.0566 22.0909 17.0579 22.1367 17.1301 22.2766L17.5092 22.6732C18.075 23.355 18.7263 23.378 19.4955 23.7418C19.8899 23.9106 20.1472 23.9706 20.5687 24.0616C21.0684 24.2602 21.5915 24.44 22.0992 24.6212C22.2351 24.681 22.3787 24.7488 22.5191 24.795C22.8962 24.9482 23.5552 25.1851 23.8984 25.3565C24.092 25.4522 24.3033 25.4866 24.515 25.5314C25.1458 25.7566 25.5907 25.8662 26.0311 25.2227L26.0936 25.0969C26.3703 25.0666 26.928 25.3279 27.2051 25.4168C27.3342 25.4747 27.6104 25.6066 27.733 25.642C27.8367 25.5969 28.0504 25.5306 28.1654 25.4914C28.3461 27.961 30.4389 30.5364 33.1265 29.3711C34.187 29.0366 35.1044 28.4785 35.4189 27.3485C35.6016 27.3861 35.8639 27.4165 35.9955 27.5429C36.1487 27.78 36.6077 27.8207 36.8647 27.8936C37.6307 28.1108 38.2538 28.3126 39.0375 28.0204C39.5586 27.8261 40.085 27.6358 40.6062 27.4376C42.226 26.8178 43.8396 26.1824 45.4471 25.5314C46.1296 25.2559 46.9648 24.851 47.6496 24.6311C49.3932 24.1928 50.2933 24.1474 51.6408 22.8394C52.1707 22.4507 53.1458 22.218 53.5783 21.7906C53.8546 21.5176 53.7866 20.5864 53.7549 20.1855C53.5851 20.0066 53.4563 19.9781 53.2267 19.9009L52.8715 19.7915C52.9917 19.3818 53.1311 17.7022 52.9132 17.3174C52.2016 16.5366 43.723 13.5369 42.1931 13.0432C41.5393 12.8322 39.767 12.3051 39.005 12.0416C38.6153 11.9204 38.4733 11.9113 38.1885 11.6118C38.5391 11.4577 38.7839 11.4209 39.1048 11.208C39.1116 10.8635 39.117 10.5582 39.1009 10.2139C38.6263 9.93278 37.8691 10.113 37.634 10.6204C37.6125 10.7693 37.64 10.7677 37.5542 10.8331C37.4228 10.7458 36.9134 10.1396 36.7779 9.98845C36.3862 9.55156 34.6875 7.67168 34.2818 7.55478C32.9698 7.01901 27.7613 5.32119 26.5534 5.39227C25.9678 5.42672 25.3693 5.64182 24.7982 5.77184C24.023 5.94829 23.2382 6.09367 22.4582 6.24826C22.2396 6.29808 21.6415 6.32107 21.5346 6.35928C21.1156 6.38546 20.6893 6.492 20.2997 6.49978C19.8451 6.5089 19.339 6.39066 18.8728 6.41132C18.5646 6.36565 18.3549 6.34068 18.0419 6.32196C17.2841 6.10275 16.2767 5.98891 15.5406 6.33217C15.4757 6.23394 15.1079 5.46508 15.0276 5.30957Z" fill="#BC3A3A"/>
<path d="M15.0276 5.30957C14.9986 5.34672 14.9639 5.39134 14.9232 5.44338C14.5525 5.55783 14.1601 5.57146 13.7628 5.68986C13.831 6.02901 13.8935 6.36924 13.9508 6.71044C12.3835 7.18267 10.8268 7.68984 9.28209 8.23165C8.87515 8.37619 7.87777 8.7103 7.53052 8.89518C7.67772 8.94887 7.91971 8.97433 7.99755 9.02398C8.25244 9.05041 8.39722 9.06945 8.64526 9.12665L8.69447 9.12157C8.91669 9.16671 9.85156 9.33594 9.98546 9.41517C10.5186 9.54729 11.6463 9.79349 12.1016 9.97405C12.2775 9.88934 12.5263 9.7592 12.7058 9.70409C12.5186 9.92859 12.2408 9.93924 12.1609 10.0832L12.0536 10.2209C12.2932 10.1817 12.7142 10.0287 12.9082 10.0688C13.0538 10.0392 13.2002 10.0105 13.3466 9.98276L13.6136 9.87614L13.637 9.9375C14.1291 9.64431 15.1732 9.34207 15.729 9.18648C16.0815 9.29048 16.4138 9.23541 16.6792 9.3094C17.2914 9.48016 17.9492 9.69126 18.5546 9.89167C19.7056 10.2729 20.8534 10.6627 21.9984 11.0613L23.1297 11.4698C23.2539 11.5158 23.4939 11.6284 23.5971 11.6528C23.6217 11.6365 23.7536 11.5466 23.7714 11.5385C23.8851 11.6696 23.9008 11.6908 24.0577 11.7616C24.8651 11.5114 25.9242 11.0286 26.7425 10.7208C27.2689 10.5228 28.1723 10.2113 28.6506 9.98861L28.6115 9.95275C28.6603 9.892 28.6639 9.90277 28.7434 9.86719L28.7022 9.77356C28.9934 9.61211 29.9982 9.25966 30.3534 9.12923C30.4886 9.08446 30.6217 9.02362 30.753 8.96735C31.0869 8.62598 34.0461 7.84027 34.2818 7.55478C32.9698 7.01901 27.7613 5.32119 26.5534 5.39227C25.9678 5.42672 25.3693 5.64182 24.7982 5.77184C24.023 5.94829 23.2382 6.09367 22.4582 6.24826C22.2396 6.29808 21.6415 6.32107 21.5346 6.35928C21.1156 6.38546 20.6893 6.492 20.2997 6.49978C19.8452 6.5089 19.339 6.39066 18.8728 6.41132C18.5646 6.36565 18.3549 6.34068 18.042 6.32196C17.2841 6.10275 16.2767 5.98891 15.5406 6.33217C15.4757 6.23394 15.1079 5.46508 15.0276 5.30957Z" fill="#FC6560"/>
<path d="M15.0276 5.30957C14.9986 5.34672 14.9639 5.39134 14.9232 5.44338C14.5525 5.55783 14.1601 5.57146 13.7628 5.68986C13.831 6.02901 13.8935 6.36924 13.9508 6.71044C12.3835 7.18267 10.8268 7.68984 9.28209 8.23165C8.87515 8.37619 7.87777 8.7103 7.53052 8.89518C7.67772 8.94887 7.91971 8.97433 7.99755 9.02399C8.25244 9.05041 8.39722 9.06945 8.64526 9.12665L8.69447 9.12157C8.91669 9.16671 9.85156 9.33594 9.98546 9.41517C10.5186 9.54729 11.6463 9.79349 12.1016 9.97405C12.2775 9.88934 12.5263 9.7592 12.7058 9.70409C12.5186 9.92859 12.2408 9.93924 12.1609 10.0832L12.0536 10.2209C12.2932 10.1817 12.7142 10.0287 12.9082 10.0688C13.0538 10.0392 13.2002 10.0105 13.3466 9.98276L13.6136 9.87614L14.0141 9.62385C14.3134 9.39169 14.6941 9.18612 15.0264 8.99466C15.5435 8.727 16.1698 8.46325 16.6546 8.1943L17.2402 7.95007C17.485 7.90316 19.5229 7.15278 19.6742 7.05568L19.6963 7.04648C20.2525 6.89674 21.4205 6.60035 21.9081 6.38663C21.831 6.3529 21.6318 6.36121 21.5346 6.35928C21.1156 6.38546 20.6893 6.492 20.2997 6.49978C19.8452 6.5089 19.339 6.39066 18.8728 6.41132C18.5646 6.36565 18.3549 6.34068 18.042 6.32196C17.2841 6.10275 16.2767 5.98891 15.5406 6.33217C15.4757 6.23394 15.1079 5.46508 15.0276 5.30957Z" fill="#EC504D"/>
<path d="M15.1664 7.57129C14.7102 7.76759 13.0825 8.20202 12.926 8.29484L12.8183 8.26789C12.6614 8.23086 12.6102 8.23732 12.4549 8.29888C12.2339 8.21948 11.996 8.15183 11.8161 8.00463C11.5233 8.11069 11.1293 8.26818 10.8413 8.35749C10.978 8.4199 11.0264 8.42817 11.1127 8.55286C11.1208 8.62233 11.1293 8.63564 11.1176 8.70107C10.9095 8.78559 10.0629 9.13768 9.98306 9.30764L10.0347 9.33834L9.98548 9.41523C10.5187 9.54734 11.6463 9.79354 12.1016 9.97411C12.2775 9.88939 12.5263 9.75925 12.7058 9.70415C12.5187 9.92864 12.2408 9.93929 12.1609 10.0833L12.0536 10.221C12.2932 10.1817 12.7143 10.0288 12.9083 10.0689C13.0539 10.0392 13.2003 10.0105 13.3467 9.98282L13.6137 9.8762L14.0141 9.62391C14.3134 9.39175 14.6941 9.18617 15.0264 8.99471C15.5435 8.72705 16.1698 8.4633 16.6546 8.19435L16.6098 8.18084L16.6542 8.11557L16.6356 8.04545C16.3146 7.85283 15.6536 7.82431 15.1664 7.57129Z" fill="#FDF4E6"/>
<path d="M15.1664 7.57129C14.7102 7.76759 13.0825 8.20202 12.926 8.29484L12.8183 8.26789L12.6485 8.29827L12.6465 8.3393C12.7695 8.3867 12.9446 8.43503 13.028 8.52184C13.3797 8.64286 14.2541 8.77518 14.6546 8.84206L14.707 8.80668L14.774 8.7423C14.9498 8.80632 14.8502 8.87881 15.0264 8.99471C15.5435 8.72705 16.1698 8.4633 16.6546 8.19435L16.6098 8.18084L16.6542 8.11557L16.6356 8.04545C16.3146 7.85283 15.6536 7.82431 15.1664 7.57129Z" fill="#FDF4E6"/>
<path d="M12.8183 8.26807L12.6485 8.29844L12.6465 8.33947C12.7695 8.38687 12.9445 8.4352 13.028 8.52201C13.3797 8.64303 14.2541 8.77535 14.6546 8.84224L14.707 8.80686L14.7167 8.65973C14.3493 8.62008 13.3486 8.38159 12.926 8.29501L12.8183 8.26807Z" fill="#CF3F3F"/>
<path d="M16.6098 8.18066C15.7532 8.42412 15.5991 8.76052 14.7167 8.65939L14.707 8.80651L14.774 8.74213C14.9498 8.80615 14.8502 8.87864 15.0264 8.99454C15.5435 8.72688 16.1698 8.46313 16.6546 8.19418L16.6098 8.18066Z" fill="#EC504D"/>
<path d="M15.0264 8.9946C14.8502 8.8787 14.9498 8.80621 14.774 8.74219L14.707 8.80657L14.6546 8.84195L14.7352 8.90367C14.7368 8.90214 12.9566 9.56473 12.7058 9.70403C12.5187 9.92853 12.2408 9.93918 12.1609 10.0832L12.0536 10.2208C12.2932 10.1816 12.7143 10.0287 12.9082 10.0688C13.0538 10.0391 13.2002 10.0104 13.3466 9.9827L13.6136 9.87609L14.0141 9.62379C14.3134 9.39163 14.6941 9.18606 15.0264 8.9946Z" fill="#EC504D"/>
<path d="M11.8161 8.00439C11.5233 8.11045 11.1293 8.26794 10.8413 8.35726C10.9781 8.41966 11.0265 8.42793 11.1128 8.55263C11.1208 8.62209 11.1293 8.6354 11.1176 8.70084C10.9095 8.78535 10.0629 9.13744 9.98309 9.3074L10.0347 9.3381C10.8643 9.06556 11.8214 8.6707 12.6752 8.47961C12.728 8.46779 12.9619 8.50894 13.0281 8.5216C12.9446 8.43479 12.7696 8.38646 12.6465 8.33906L12.6486 8.29803L12.8184 8.26766C12.6615 8.23063 12.6102 8.23708 12.455 8.29864C12.234 8.21925 11.996 8.1516 11.8161 8.00439Z" fill="#EC504D"/>
<path d="M11.8161 8.00439C11.5233 8.11045 11.1293 8.26794 10.8413 8.35726C10.978 8.41966 11.0264 8.42793 11.1127 8.55263C11.1208 8.62209 11.1293 8.6354 11.1176 8.70084C11.627 8.51636 11.9298 8.43015 12.455 8.29864C12.2339 8.21925 11.996 8.1516 11.8161 8.00439Z" fill="#FD8578"/>
<path d="M13.9508 6.71022C12.3836 7.18244 10.8268 7.68961 9.28214 8.23142C8.8752 8.37597 7.87782 8.71007 7.53058 8.89495C7.67778 8.94864 7.91977 8.9741 7.99761 9.02376C8.2525 9.05018 8.39728 9.06922 8.64532 9.12642L8.69452 9.12134C8.91675 9.16648 9.85162 9.33571 9.98552 9.41494L10.0347 9.33805L9.98309 9.30735C10.063 9.1374 10.9095 8.7853 11.1176 8.70079C11.1293 8.63536 11.1208 8.62204 11.1128 8.55258C11.0265 8.42788 10.9781 8.41961 10.8413 8.35721C11.1293 8.26789 11.5233 8.1104 11.8161 8.00435C12.1654 7.85291 12.9079 7.63083 13.2939 7.49061C13.7 7.34304 14.5804 6.99075 14.9656 6.91696L14.7538 6.8297C14.6603 6.81442 14.4066 6.73813 14.3037 6.70973C14.2243 6.70166 14.0388 6.70925 13.9508 6.71022Z" fill="#74646E"/>
<path d="M11.1175 8.701C11.1292 8.63557 11.1208 8.62226 11.1127 8.55279C11.0264 8.4281 10.978 8.41983 10.8413 8.35742C10.1198 8.59584 9.40428 8.85059 8.69446 9.12156C8.91668 9.1667 9.85155 9.33593 9.98545 9.41516L10.0347 9.33827L9.98303 9.30757C10.0629 9.13761 10.9094 8.78552 11.1175 8.701Z" fill="#F9BAA7"/>
<path d="M19.6742 7.0558C18.3199 6.82598 17.65 6.36851 16.3275 6.93961C16.0085 7.07734 15.3221 7.18686 15.1777 7.54674L15.1664 7.57135C15.6536 7.82437 16.3146 7.85289 16.6357 8.04552L16.6542 8.11563L16.6099 8.1809L16.6546 8.19441L17.2402 7.95019C17.485 7.90327 19.523 7.1529 19.6742 7.0558Z" fill="#626B74"/>
<path d="M15.1777 7.54639L15.1664 7.57099C15.6536 7.82401 16.3146 7.85253 16.6357 8.04516L16.6542 8.11527L16.6099 8.18054L16.6546 8.19406L17.2402 7.94983C16.8926 7.78319 15.6072 7.57539 15.1777 7.54639Z" fill="#E6D4CC"/>
<path d="M15.0277 5.30957C14.9986 5.34672 14.9639 5.39134 14.9232 5.44338C14.5526 5.55783 14.1601 5.57146 13.7629 5.68986C13.831 6.02901 13.8935 6.36924 13.9508 6.71044C14.0387 6.70948 14.2243 6.70189 14.3037 6.70996C14.4066 6.73836 14.6602 6.81464 14.7538 6.82993L14.9655 6.91719C15.22 6.89077 15.6903 6.77684 15.9553 6.71924L15.948 6.69084C15.8524 6.5889 15.7274 6.60189 15.5588 6.41692L15.5407 6.33217C15.4757 6.23394 15.1079 5.46508 15.0277 5.30957Z" fill="#3E3D4A"/>
<path d="M15.5588 6.4165C15.4064 6.44248 15.2079 6.48222 15.0579 6.4986C15.0652 6.66097 15.0922 6.66299 15.0152 6.78433C14.9151 6.80728 14.8554 6.8183 14.7538 6.82951L14.9655 6.91677C15.22 6.89035 15.6903 6.77642 15.9553 6.71882L15.948 6.69042C15.8524 6.58848 15.7274 6.60147 15.5588 6.4165Z" fill="#7E2025"/>
<path d="M15.0579 6.49902C14.8284 6.52666 14.44 6.53606 14.3037 6.70997C14.4066 6.73837 14.6602 6.81465 14.7538 6.82994C14.8554 6.81872 14.9151 6.80771 15.0151 6.78476C15.0922 6.66341 15.0652 6.66139 15.0579 6.49902Z" fill="#490E14"/>
<path d="M18.0421 6.32184C17.2842 6.10263 16.2768 5.98879 15.5407 6.33204L15.5589 6.4168C15.7275 6.60176 15.8525 6.58877 15.9481 6.69071L15.9553 6.71911C16.2788 6.70003 16.8591 6.52709 17.3088 6.50031C17.5419 6.42543 17.8009 6.32531 18.0421 6.32184Z" fill="#963739"/>
<path d="M18.042 6.32178C17.8008 6.32525 17.5419 6.42537 17.3088 6.50024C17.4322 6.5115 17.5733 6.4904 17.7052 6.49189C18.0807 6.49621 18.5344 6.60566 18.8728 6.41113C18.5647 6.36547 18.355 6.3405 18.042 6.32178Z" fill="#CF3F3F"/>
<path d="M30.753 8.96743C30.1563 8.47293 23.8279 6.54541 22.7192 6.50301C22.4961 6.4945 20.7091 7.16565 20.3142 7.3097C21.4959 7.46857 23.7 8.17812 24.8708 8.5405C25.8331 8.83834 27.5234 9.39105 28.4159 9.80785C28.5429 9.8519 28.5534 9.82027 28.7022 9.77364C28.9934 9.61219 29.9982 9.25974 30.3534 9.12931C30.4886 9.08454 30.6218 9.0237 30.753 8.96743Z" fill="#FDF4E6"/>
<path d="M19.6964 7.04688L19.6742 7.05607C19.523 7.15317 17.4851 7.90355 17.2403 7.95047L16.6547 8.19469C16.1699 8.46364 15.5435 8.72739 15.0265 8.99505C14.6942 9.18651 14.3135 9.39209 14.0142 9.62425L13.6137 9.87654L13.6371 9.9379C14.1291 9.6447 15.1733 9.34247 15.7291 9.18687C16.1021 9.09534 16.5038 8.84748 16.845 8.65562C17.2471 8.37465 17.619 8.05588 18.0445 7.76667L18.5083 7.60112L19.7912 7.12578L19.6964 7.04688Z" fill="#7A8489"/>
<path d="M19.6964 7.04688L19.6742 7.05607C19.523 7.15317 17.4851 7.90355 17.2403 7.95047L16.6547 8.19469C16.1699 8.46364 15.5435 8.72739 15.0265 8.99505C14.6942 9.18651 14.3135 9.39208 14.0142 9.62425L14.0364 9.64087C14.0932 9.63768 15.5395 8.82586 15.7444 8.72416C16.4941 8.3521 17.2487 8.02691 18.0445 7.76667L18.5083 7.60112L19.7912 7.12578L19.6964 7.04688Z" fill="#574C55"/>
<path d="M28.7022 9.77344C28.5534 9.82007 28.5429 9.8517 28.4159 9.80765C27.5274 10.0109 26.0129 10.7134 25.12 11.0342C24.6929 11.1876 24.2335 11.4262 23.7714 11.5384C23.8851 11.6695 23.9008 11.6907 24.0577 11.7615C24.8651 11.5113 25.9242 11.0285 26.7425 10.7207C27.2688 10.5227 28.1723 10.2112 28.6506 9.98849L28.6115 9.95263C28.6603 9.89188 28.6639 9.90265 28.7433 9.86707L28.7022 9.77344Z" fill="#CF3F3F"/>
<path d="M18.5082 7.60059L18.0444 7.76614C17.6189 8.05535 17.247 8.37412 16.8449 8.65509C17.1599 8.59071 17.8976 8.29884 18.1492 8.11134C18.0649 8.10549 17.9673 8.15055 17.8843 8.18065C17.8814 7.92606 18.2956 7.80862 18.5082 7.60059Z" fill="#B26C71"/>
<path d="M22.4582 6.24854C22.2396 6.29836 21.6415 6.32135 21.5346 6.35955C21.6318 6.36149 21.831 6.35318 21.9081 6.3869C21.4205 6.60063 20.2525 6.89701 19.6963 7.04676L19.7911 7.12566C20.1291 7.04575 22.2876 6.37218 22.4582 6.24854Z" fill="#963739"/>
<path d="M52.8715 19.7915C52.9917 19.3818 53.1311 17.7022 52.9132 17.3174C52.4121 17.4365 49.1588 18.5847 49.0219 18.7962C49.017 18.8037 49.0136 18.8119 49.0094 18.8197L48.9912 18.7934C48.3384 19.0152 46.9498 19.599 46.3272 19.8913C46.1319 19.9438 45.9293 19.9862 45.8048 20.1579L45.7744 20.1666C45.2079 20.3536 43.3493 21.2502 42.9572 21.3007L42.9501 21.3319C42.5512 21.4749 41.146 22.0471 40.8016 22.2619L40.6945 22.3521C40.6236 22.4312 40.2872 22.7488 40.1928 22.8183C39.8261 23.0885 38.8692 23.2732 38.6063 23.6183C38.5537 24.4048 38.5345 25.1931 38.5487 25.9812C38.3491 25.9898 41.4705 24.7433 41.5569 24.7126C44.9086 23.5217 48.1752 22.093 51.3699 20.5356C51.575 20.4356 52.4381 20.0759 52.6211 20.0349C52.1258 20.3378 51.5942 20.6371 51.0708 20.8907C50.7179 21.0616 50.5478 20.9962 50.2487 21.1828C49.6366 21.5649 48.8622 21.8527 48.1943 22.1435C46.4885 22.8862 44.7799 23.5861 43.0515 24.2754C42.3319 24.5623 41.5923 24.8808 40.8726 25.1754C40.7765 25.2147 40.7596 25.2446 40.7236 25.3224C40.1308 25.5595 38.707 26.1664 38.1771 26.2933L37.766 26.2966C37.2311 26.1888 36.6713 26.0409 36.1378 25.9529C36.071 26 35.9965 26.0437 35.9489 26.1082L35.9262 26.1021C35.9118 26.639 35.921 27.0081 35.9955 27.5429C36.1487 27.7799 36.6077 27.8207 36.8647 27.8936C37.6307 28.1108 38.2538 28.3125 39.0375 28.0203C39.5586 27.8261 40.085 27.6358 40.6062 27.4375C42.226 26.8178 43.8396 26.1823 45.4471 25.5313C46.1296 25.2558 46.9648 24.851 47.6496 24.631C49.3932 24.1927 50.2933 24.1473 51.6408 22.8393C52.1707 22.4506 53.1458 22.2179 53.5783 21.7906C53.8546 21.5176 53.7866 20.5864 53.7549 20.1854C53.5851 20.0066 53.4563 19.978 53.2267 19.9009L52.8715 19.7915Z" fill="#963739"/>
<path d="M52.8715 19.7915L52.7476 19.9757C52.6074 20.3514 52.3752 20.3846 51.9784 20.5658C51.0939 20.9659 50.207 21.3606 49.3177 21.75C46.4696 22.9804 43.6047 24.1713 40.7236 25.3224C40.1308 25.5595 38.707 26.1664 38.1771 26.2933L37.766 26.2966C37.2311 26.1888 36.6713 26.0409 36.1378 25.9529C36.071 26 35.9965 26.0437 35.9489 26.1083L35.9262 26.1021C35.9118 26.639 35.921 27.0081 35.9955 27.5429C36.1487 27.7799 36.6077 27.8207 36.8647 27.8936C37.6307 28.1108 38.2538 28.3125 39.0375 28.0203C39.5586 27.8261 40.085 27.6358 40.6062 27.4376C42.226 26.8178 43.8396 26.1823 45.4471 25.5313C46.1296 25.2558 46.9648 24.851 47.6496 24.6311C49.3932 24.1927 50.2933 24.1473 51.6408 22.8394C52.1707 22.4506 53.1458 22.2179 53.5783 21.7906C53.8546 21.5176 53.7866 20.5864 53.7549 20.1854C53.5851 20.0066 53.4563 19.978 53.2267 19.9009L52.8715 19.7915Z" fill="#BCB9BD"/>
<path d="M52.8716 19.7915L52.7477 19.9757C52.6074 20.3514 52.3753 20.3846 51.9784 20.5658C51.094 20.9659 50.207 21.3606 49.3178 21.75C46.4697 22.9804 43.6047 24.1713 40.7237 25.3224C40.1309 25.5595 38.7071 26.1664 38.1771 26.2933L37.7661 26.2966C37.9489 26.4294 38.2394 26.5418 38.4585 26.592C38.3863 26.7184 38.3135 26.7325 38.1638 26.7994L38.206 26.8009C38.8038 26.8197 39.8651 26.3358 40.4537 26.1188C41.8663 25.6048 43.2652 25.0537 44.6488 24.4659C46.9055 23.522 49.1966 22.6422 51.3961 21.5637C51.88 21.3265 53.3532 20.6949 53.6887 20.3804L53.7549 20.1854C53.5852 20.0066 53.4564 19.978 53.2268 19.9009L52.8716 19.7915Z" fill="#FDF4E6"/>
<path d="M49.3177 21.75C46.4696 22.9805 43.6047 24.1714 40.7236 25.3225C40.1308 25.5596 38.707 26.1664 38.177 26.2933L37.766 26.2967C37.9488 26.4294 38.2394 26.5418 38.4584 26.592C38.5412 26.5389 39.0102 26.4108 39.1625 26.3424C40.2284 25.8733 41.507 25.4908 42.5812 25.0579C44.3204 24.3569 46.1806 23.6535 47.885 22.8835C48.1101 22.6075 48.7489 22.4919 49.0244 22.2735C49.0361 22.2642 49.2482 21.8571 49.2968 21.7818L49.3177 21.75Z" fill="#A7A2A7"/>
<path d="M39.1625 26.3426C38.8087 26.3129 38.5318 26.2954 38.1771 26.2935L37.766 26.2968C37.9489 26.4296 38.2394 26.542 38.4585 26.5921C38.5412 26.539 39.0102 26.4109 39.1625 26.3426Z" fill="#E6D4CC"/>
<path d="M52.7476 19.9761C52.6074 20.3518 52.3752 20.3849 51.9784 20.5661C51.0939 20.9662 50.207 21.3609 49.3177 21.7503L49.2969 21.7821C49.2482 21.8574 49.0362 22.2645 49.0244 22.2738C48.749 22.4922 48.1102 22.6078 47.885 22.8838C48.8045 22.5276 49.6084 22.1726 50.3716 21.5537C50.5058 21.4449 50.6228 21.5022 50.7795 21.5387C51.173 21.4136 51.5895 21.2251 51.9704 21.0582C52.3525 20.8908 53.4617 20.4486 52.7476 19.9761Z" fill="#B9AFB1"/>
<path d="M51.6409 22.8394C51.2094 22.958 49.9538 23.5715 49.5053 23.7719C49.081 23.9615 48.0158 24.4119 47.6497 24.631C49.3932 24.1927 50.2934 24.1473 51.6409 22.8394Z" fill="#141429"/>
<path d="M36.1379 25.9531C36.071 26.0002 35.9965 26.0439 35.949 26.1085C35.9803 26.2467 36.0015 26.263 36.1497 26.318C36.7616 26.5455 37.4924 26.7587 38.1412 26.7985L38.1638 26.7996C38.3135 26.7327 38.3863 26.7186 38.4585 26.5922C38.2394 26.542 37.9489 26.4296 37.7661 26.2969C37.2311 26.189 36.6713 26.0411 36.1379 25.9531Z" fill="#FDF4E6"/>
<path d="M45.8048 20.1582L45.7744 20.1668C45.2079 20.3539 43.3493 21.2504 42.9572 21.301L42.9501 21.3321C42.9871 21.4841 42.9227 21.5441 43.0053 21.6808C43.3541 21.5872 45.4096 20.7349 45.7763 20.5508C45.84 20.4187 45.8154 20.3081 45.8048 20.1582Z" fill="#B9AFB1"/>
<path d="M49.0095 18.8198L48.9913 18.7935C48.3384 19.0153 46.9498 19.5991 46.3273 19.8914C46.3215 20.0361 46.3241 20.1087 46.3377 20.2529L46.392 20.2741C46.9383 20.0417 48.5923 19.41 48.9873 19.1715C49.0524 19.0702 49.0213 18.9487 49.0095 18.8198Z" fill="#B9AFB1"/>
<path d="M51.018 18.6177C50.4666 18.8797 49.9716 19.0603 49.4511 19.2988C48.6602 19.5261 47.9123 19.8947 47.158 20.2215C45.7967 20.8113 44.3994 21.3134 43.0513 21.9315C42.8714 22.0141 42.651 22.0871 42.4622 22.1543C42.2284 22.261 42.0968 22.3339 41.8771 22.4682C41.8219 23.0718 41.9182 23.4148 41.7952 24.0638C41.7314 24.2026 41.6674 24.2544 41.5581 24.3541C41.6068 24.4054 41.8846 24.4006 41.976 24.4044C42.1416 24.4302 42.2073 24.4008 42.3644 24.3552C43.0008 24.1452 43.6602 23.8349 44.2945 23.5886C45.4312 23.1508 46.5579 22.6877 47.6739 22.1995C48.1707 21.9841 48.6753 21.7616 49.1678 21.5357C49.3123 21.4694 49.4347 21.3002 49.6098 21.2204C50.0876 21.0027 50.6346 20.8109 51.0943 20.5637L51.3918 20.4232C51.4148 20.2721 51.318 20.2182 51.2221 20.1079L51.0943 20.0052L50.9371 19.7745C50.8697 19.5913 50.9162 18.7806 51.018 18.6177Z" fill="#282230"/>
<path d="M51.018 18.6177C50.4666 18.8797 49.9716 19.0603 49.4511 19.2988C48.6602 19.5261 47.9123 19.8947 47.158 20.2215C45.7967 20.8113 44.3994 21.3134 43.0513 21.9315C42.8713 22.0141 42.651 22.0871 42.4622 22.1543L42.356 22.339C42.3877 22.4029 42.3636 22.3829 42.4164 22.416C44.6201 21.5951 47.1249 20.5119 49.2884 19.5747C49.259 20.1762 49.2953 20.7185 49.2529 21.3244C48.2707 21.6733 47.2187 22.1863 46.2371 22.5839C45.4533 22.8962 44.6712 23.2125 43.8906 23.5328C43.4518 23.712 43.0395 23.858 42.6154 24.0755C42.499 24.2608 42.337 24.0905 42.3319 24.3033L42.3644 24.3552C43.0008 24.1452 43.6602 23.8349 44.2945 23.5886C45.4312 23.1508 46.5579 22.6877 47.6739 22.1995C48.1707 21.9841 48.6753 21.7616 49.1678 21.5357C49.3123 21.4694 49.4347 21.3002 49.6098 21.2204C50.0876 21.0027 50.6346 20.8109 51.0943 20.5637L51.3918 20.4232C51.4148 20.2721 51.318 20.2182 51.2221 20.1079L51.0943 20.0052L50.9371 19.7745C50.8697 19.5913 50.9162 18.7806 51.018 18.6177Z" fill="#3E3D4A"/>
<path d="M51.0181 18.6177C50.4666 18.8797 49.9716 19.0603 49.4511 19.2988C49.5438 19.3404 49.5868 19.3379 49.6862 19.3466L49.7883 19.4282C49.4839 19.766 49.3165 20.3233 49.5551 20.7363L49.82 20.8342C49.9805 20.8052 50.021 20.7644 50.1482 20.6699C50.319 20.5194 50.3468 20.4763 50.4749 20.2855C50.604 20.2316 50.6569 20.2501 50.7914 20.2797C50.9648 20.2184 50.9579 20.1715 51.0944 20.0052L50.9372 19.7745C50.8697 19.5913 50.9162 18.7806 51.0181 18.6177Z" fill="#E6D4CC"/>
<path d="M51.0181 18.6177C50.4666 18.8797 49.9716 19.0603 49.4511 19.2988C49.5438 19.3404 49.5868 19.3379 49.6862 19.3466L49.7883 19.4282C50.5886 18.7635 50.7238 19.6504 50.4749 20.2855C50.604 20.2316 50.6569 20.2501 50.7914 20.2797C50.9648 20.2184 50.9579 20.1715 51.0944 20.0052L50.9372 19.7745C50.8697 19.5913 50.9162 18.7806 51.0181 18.6177Z" fill="#3E3D4A"/>
<path d="M51.0943 20.0054C50.9579 20.1717 50.9648 20.2186 50.7914 20.2799C50.6569 20.2504 50.604 20.2318 50.4749 20.2857C50.3468 20.4765 50.319 20.5196 50.1482 20.6701C50.1541 20.6862 50.16 20.7024 50.166 20.7185C50.1823 20.7356 50.1986 20.7527 50.215 20.7698C50.573 20.652 50.7107 20.5176 51.0943 20.5639L51.3918 20.4234C51.4148 20.2723 51.318 20.2184 51.2221 20.1081L51.0943 20.0054Z" fill="#302F3F"/>
<path d="M49.5552 20.7363C49.458 20.8421 49.4448 20.8484 49.401 20.9809L49.4336 21.0543C49.6002 21.0894 49.6723 21.0696 49.8117 20.9564L49.82 20.8342L49.5552 20.7363Z" fill="#302F3F"/>
<path d="M42.4623 22.1548C42.2284 22.2615 42.0969 22.3344 41.8771 22.4687C41.822 23.0723 41.9182 23.4153 41.7953 24.0643C41.7315 24.2031 41.6674 24.2548 41.5582 24.3546C41.6068 24.4058 41.8847 24.4011 41.9761 24.4048C42.1416 24.4306 42.2073 24.4013 42.3645 24.3557L42.332 24.3038C42.3371 24.091 42.4991 24.2613 42.6155 24.076L42.4315 24.1079L42.3852 24.0753C42.3765 23.8994 42.3908 22.5049 42.4165 22.4165C42.3637 22.3834 42.3878 22.4034 42.3561 22.3395L42.4623 22.1548Z" fill="#312C39"/>
<path d="M41.8771 22.4678C41.5441 22.6069 41.1775 22.7441 40.8532 22.8835C40.7445 22.9221 40.5477 22.9853 40.4504 23.0324C40.0029 23.2204 39.5519 23.3997 39.0975 23.5702C38.906 23.6395 38.7904 23.6605 38.6989 23.8574C38.5697 24.1354 38.6177 24.6923 38.6417 25.0092L38.6223 25.5784L38.6406 25.7146L38.717 25.7468C38.9462 25.7173 39.2073 25.5682 39.4204 25.4632C39.6583 25.3911 40.2234 25.1338 40.4805 25.0245C40.9231 24.8364 41.5665 24.6202 41.976 24.4039C41.8846 24.4002 41.6068 24.4049 41.5581 24.3537C41.6674 24.2539 41.7314 24.2021 41.7952 24.0634C41.9182 23.4143 41.8219 23.0714 41.8771 22.4678Z" fill="#333443"/>
<path d="M41.8771 22.4678C41.5441 22.6069 41.1775 22.7441 40.8532 22.8835C40.7445 22.9221 40.5477 22.9853 40.4504 23.0324C40.2385 23.4815 40.2593 23.6869 40.3199 24.1783L40.3658 24.223C40.5139 24.457 40.5298 24.4953 40.8003 24.5885C41.0534 24.5304 41.1295 24.4439 41.3249 24.276C41.4821 24.2249 41.6452 24.1371 41.7952 24.0634C41.9182 23.4143 41.8219 23.0714 41.8771 22.4678Z" fill="#FDF4E6"/>
<path d="M41.8771 22.4678C41.5441 22.6069 41.1775 22.7441 40.8532 22.8835C40.7445 22.9221 40.5477 22.9853 40.4504 23.0324C40.2385 23.4815 40.2593 23.6869 40.3199 24.1783L40.3658 24.223C40.4254 24.0709 40.4409 23.7588 40.4565 23.5824C40.5846 23.4055 40.6573 23.3019 40.8104 23.1478C41.6775 22.5082 41.6816 23.6658 41.3249 24.276C41.4821 24.2249 41.6452 24.1371 41.7952 24.0634C41.9182 23.4143 41.8219 23.0714 41.8771 22.4678Z" fill="#48505D"/>
<path d="M39.0975 23.5713C38.906 23.6406 38.7904 23.6616 38.6989 23.8584C38.5697 24.1364 38.6177 24.6934 38.6417 25.0103L38.7287 24.895C38.8266 25.0887 38.8797 25.1198 39.0703 25.2261C39.131 25.2176 39.2765 25.1988 39.3322 25.176C39.8059 24.9816 40.2395 23.9476 39.6674 23.6487C39.5302 23.5771 39.3625 23.6617 39.2307 23.7304L39.0975 23.5713Z" fill="#FDF4E6"/>
<path d="M39.0975 23.5713C38.9061 23.6406 38.7904 23.6616 38.6989 23.8584C38.5697 24.1364 38.6177 24.6934 38.6417 25.0103L38.7287 24.895C38.7294 24.8701 38.7303 24.8453 38.7315 24.8204C38.7539 24.3441 38.8799 24.0494 39.2308 23.7304L39.0975 23.5713Z" fill="#48505D"/>
<path d="M41.7952 24.064C41.6452 24.1377 41.4821 24.2255 41.3249 24.2766C41.1295 24.4445 41.0534 24.531 40.8003 24.5891C40.6031 25.0473 39.6727 25.0013 39.4204 25.4638C39.6583 25.3917 40.2234 25.1344 40.4805 25.0251C40.9231 24.837 41.5665 24.6208 41.976 24.4045C41.8846 24.4008 41.6068 24.4055 41.5581 24.3543C41.6674 24.2545 41.7314 24.2027 41.7952 24.064Z" fill="#3E3D4A"/>
<path d="M38.7286 24.8945L38.6417 25.0098L38.6223 25.579C38.6604 25.6214 38.6463 25.6065 38.7036 25.6303C38.8827 25.557 39.193 25.4782 39.2344 25.2844L39.0703 25.2257C38.8797 25.1194 38.8266 25.0882 38.7286 24.8945Z" fill="#302F3F"/>
<path d="M52.6948 19.848C52.7138 19.5288 52.798 18.1458 52.6985 17.9296C52.5766 17.9128 52.5534 17.9471 52.428 18.0016C52.1208 18.1407 51.7801 18.2872 51.4808 18.4359L51.0181 18.6176C50.9162 18.7805 50.8697 19.5912 50.9372 19.7745L51.0944 20.0051L51.2222 20.1078C51.4637 20.1319 51.5351 20.1282 51.734 19.9944L51.9051 19.8437C52.1863 19.7096 52.2789 19.6135 52.4366 19.3542C52.4748 19.5298 52.5025 19.7264 52.4161 19.8898C52.3415 19.9264 52.343 19.924 52.2601 19.9362L52.2346 20.0673C52.3938 20.0209 52.5478 19.9276 52.6948 19.848Z" fill="#A7A2A7"/>
<path d="M52.6948 19.848C52.7138 19.5288 52.798 18.1458 52.6985 17.9296C52.5766 17.9128 52.5534 17.9471 52.428 18.0016C52.1208 18.1407 51.7801 18.2872 51.4808 18.4359L51.6942 18.5037C52.4876 18.6455 52.1947 19.3764 51.9051 19.8437C52.1863 19.7096 52.2789 19.6135 52.4366 19.3542C52.4748 19.5298 52.5025 19.7264 52.4161 19.8898C52.3415 19.9264 52.343 19.924 52.2601 19.9362L52.2346 20.0673C52.3938 20.0209 52.5478 19.9276 52.6948 19.848Z" fill="#3E3D4A"/>
<path d="M52.6948 19.848C52.7138 19.5288 52.798 18.1458 52.6985 17.9296C52.5766 17.9128 52.5534 17.9471 52.428 18.0016C52.5622 18.1631 52.4269 19.1093 52.4366 19.3542C52.4748 19.5298 52.5025 19.7264 52.4161 19.8898C52.3415 19.9264 52.343 19.924 52.2601 19.9362L52.2346 20.0673C52.3938 20.0209 52.5478 19.9276 52.6948 19.848Z" fill="#282230"/>
<path d="M51.4808 18.436L51.018 18.6178C50.9161 18.7807 50.8696 19.5914 50.9371 19.7747C51.0001 19.2401 51.1547 18.733 51.6941 18.5039L51.4808 18.436Z" fill="#48505D"/>
<path d="M51.9387 18.7526C51.4046 18.7353 51.3709 18.914 51.0619 19.3126C51.0548 19.5352 51.0584 19.6767 51.1131 19.8903L51.5876 19.9115C51.7049 19.7875 51.8298 19.6395 51.9442 19.5101C51.9754 19.2503 51.9915 19.0093 51.9387 18.7526Z" fill="#E8DCD2"/>
<path d="M52.4365 19.354C52.2788 19.6132 52.1863 19.7094 51.905 19.8435L51.7339 19.9942C51.535 20.128 51.4636 20.1317 51.2221 20.1076C51.318 20.2179 51.4148 20.2719 51.3918 20.423C51.656 20.3628 52.0016 20.204 52.2345 20.0671L52.2601 19.936C52.3429 19.9238 52.3414 19.9262 52.4161 19.8896C52.5024 19.7262 52.4747 19.5296 52.4365 19.354Z" fill="#302F3F"/>
<path d="M51.7339 19.9942C51.535 20.128 51.4636 20.1317 51.2221 20.1076C51.318 20.218 51.4148 20.2719 51.3918 20.423C51.656 20.3628 52.0016 20.2041 52.2345 20.0671L52.2601 19.936C52.1032 20.0027 51.981 20.0725 51.8135 20.0696C51.7901 20.0489 51.7504 20.0176 51.7339 19.9942Z" fill="#3E3D4A"/>
<path d="M37.634 10.6203C37.6126 10.7692 37.64 10.7676 37.5543 10.833C37.4229 10.7457 36.9134 10.1395 36.778 9.98836C36.3863 9.55147 34.6876 7.67159 34.2818 7.55469C34.0462 7.84018 31.0869 8.6259 30.753 8.96726C30.6218 9.02353 30.4886 9.08437 30.3534 9.12915C29.9982 9.25957 28.9935 9.61203 28.7023 9.77347L28.7434 9.8671C28.664 9.90268 28.6603 9.89191 28.6115 9.95266L28.6506 9.98853C28.1723 10.2112 27.2689 10.5227 26.7426 10.7208C25.9243 11.0286 24.8652 11.5113 24.0578 11.7615C24.38 12.5749 24.6829 13.4245 25.0156 14.2245C25.3742 15.0868 25.8166 15.9505 26.1844 16.8164L26.2675 17.0474C26.3691 16.9866 26.7672 16.8254 26.9148 16.7554L26.9967 16.726C28.0477 16.2699 29.3125 15.8026 30.3882 15.3773C31.2849 15.0222 32.1838 14.6724 33.0848 14.3281C33.3085 14.2292 33.5108 14.153 33.7389 14.0688C34.5413 13.722 35.4099 13.4477 36.248 13.0812C36.5503 13.0203 38.0784 12.361 38.4636 12.2076C38.6703 12.1958 38.8603 12.2022 39.0051 12.0415C38.6154 11.9203 38.4734 11.9112 38.1885 11.6117C38.5391 11.4576 38.7839 11.4208 39.1049 11.2079C39.1116 10.8634 39.1171 10.5581 39.101 10.2138C38.6264 9.93269 37.8692 10.1129 37.634 10.6203Z" fill="#5F6D79"/>
<path d="M37.634 10.6203C37.6126 10.7692 37.64 10.7676 37.5543 10.833C37.4229 10.7457 36.9134 10.1395 36.778 9.98836C36.3863 9.55147 34.6876 7.67159 34.2818 7.55469C34.0462 7.84018 31.0869 8.6259 30.753 8.96726C30.6218 9.02353 30.4886 9.08437 30.3534 9.12915C29.9982 9.25957 28.9935 9.61203 28.7023 9.77347L28.7434 9.8671C28.664 9.90268 28.6603 9.89191 28.6115 9.95266L28.6506 9.98853C29.2177 9.81752 30.0134 9.4783 30.6095 9.27365C31.363 8.99142 32.118 8.71299 32.8743 8.43839C33.2559 8.29845 33.8012 8.11647 34.1573 7.94511C34.2198 7.93857 34.2474 7.91654 34.2873 7.95624C35.5271 9.18708 36.7869 10.4718 37.9563 11.7662C38.1387 11.9396 38.2656 12.0534 38.4636 12.2076C38.6703 12.1958 38.8603 12.2022 39.0051 12.0415C38.6154 11.9203 38.4734 11.9112 38.1885 11.6117C38.5391 11.4576 38.7839 11.4208 39.1049 11.2079C39.1116 10.8634 39.1171 10.5581 39.101 10.2138C38.6264 9.93269 37.8692 10.1129 37.634 10.6203Z" fill="#CF3F3F"/>
<path d="M39.101 10.2136C38.6264 9.93247 37.8692 10.1127 37.634 10.6201C37.8142 10.6794 37.9649 10.7366 38.1586 10.6917C38.1263 10.8535 38.148 10.8796 38.0464 10.9893L37.8483 11.0432L37.8138 11.1064C37.9064 11.3074 38.1523 11.4887 38.1885 11.6115C38.5391 11.4574 38.7839 11.4206 39.1049 11.2076C39.1116 10.8632 39.1171 10.5579 39.101 10.2136Z" fill="#B73A3A"/>
<path d="M39.101 10.2136C38.6263 9.93247 37.8692 10.1127 37.634 10.6201C37.8142 10.6794 37.9649 10.7366 38.1586 10.6917C38.2992 10.5814 38.8926 10.3209 39.101 10.2136Z" fill="#FC6560"/>
<path d="M38.4635 12.2081C38.2655 12.0538 38.1387 11.94 37.9563 11.7666C37.9713 11.9166 37.9811 11.9813 38.0186 12.127L37.9798 12.1745L37.8842 12.1452C37.4834 12.3824 36.0294 12.9003 35.5421 13.093L28.9668 15.688C28.2912 15.9566 26.7397 16.4951 26.1844 16.8168L26.2674 17.0478C26.3691 16.987 26.7671 16.8259 26.9147 16.7559L26.9966 16.7265C28.0476 16.2703 29.3124 15.8031 30.3881 15.3777C31.2849 15.0226 32.1838 14.6729 33.0847 14.3285C33.3084 14.2296 33.5108 14.1534 33.7389 14.0692C34.5412 13.7224 35.4098 13.4481 36.248 13.0817C36.5503 13.0208 38.0783 12.3615 38.4635 12.2081Z" fill="#574C55"/>
<path d="M37.9563 11.7662C36.7868 10.4718 35.5271 9.18707 34.2873 7.95624C34.2473 7.91654 34.2198 7.93857 34.1573 7.9451C35.6118 9.2993 36.6221 10.6251 37.8842 12.1447L37.9798 12.1741L38.0186 12.1266C37.9811 11.9809 37.9713 11.9162 37.9563 11.7662Z" fill="#3E3D4A"/>
<path d="M15.7291 9.18652C15.1733 9.34212 14.1291 9.64435 13.6371 9.93755L13.6137 9.87619L13.3467 9.98281C13.2003 10.0105 13.0539 10.0392 12.9083 10.0689C12.6304 10.2298 12.0803 10.4466 11.9988 10.7003C11.8742 10.7842 11.7734 10.8151 11.6339 10.8685C11.4895 11.0305 11.4503 11.0399 11.3467 11.2414C11.1813 11.3225 10.9623 11.4402 10.7909 11.4856C10.5534 11.5916 10.4114 11.6349 10.1602 11.7087C10.5457 12.2706 12.0319 12.8253 12.6466 12.9627C13.2209 13.1656 15.7137 13.9838 16.0856 14.2199L16.2001 14.2496C17.5314 14.753 18.945 15.179 20.2772 15.6982C20.6547 15.8454 22.0336 16.2669 22.2675 16.4284C22.3054 16.5529 22.2812 16.6237 22.259 16.7526C22.2469 16.9509 22.2001 17.2156 22.2965 17.3758C22.4022 17.444 22.407 17.4454 22.5292 17.4697C22.8922 17.4829 23.4758 17.2683 23.6141 17.3345C23.7686 17.3013 23.8331 17.3166 23.986 17.3358L24.0961 17.4161C24.2352 17.5152 24.3724 17.592 24.422 17.7616C24.5422 17.8028 24.6466 17.8521 24.7704 17.8426L24.8297 17.9715C25.0152 18.0648 25.0479 18.0846 25.254 18.1098L25.3508 17.9357L25.3742 17.9043L25.404 17.9025C25.4069 17.7582 25.4064 17.6138 25.4028 17.4695C25.4936 17.298 25.4907 17.3318 25.713 17.2499C25.7807 17.2249 25.89 17.1966 25.9626 17.1754C26.1042 17.1345 26.1445 17.1267 26.2675 17.0475L26.1844 16.8165C25.8166 15.9507 25.3742 15.0869 25.0156 14.2247C24.6829 13.4246 24.38 12.575 24.0578 11.7617C23.9009 11.6908 23.8852 11.6696 23.7714 11.5386C23.7537 11.5466 23.6218 11.6365 23.5972 11.6528C23.494 11.6284 23.254 11.5158 23.1298 11.4699L21.9985 11.0614C20.8535 10.6628 19.7057 10.2729 18.5546 9.89172C17.9493 9.69131 17.2915 9.4802 16.6792 9.30944C16.4139 9.23546 16.0815 9.29052 15.7291 9.18652Z" fill="#515D68"/>
<path d="M15.7291 9.18652C15.1733 9.34212 14.1291 9.64435 13.6371 9.93755L13.6137 9.87619L13.3467 9.98281C13.2003 10.0105 13.0539 10.0392 12.9083 10.0689C12.6304 10.2298 12.0803 10.4466 11.9988 10.7003C11.8742 10.7842 11.7734 10.8151 11.6339 10.8685C11.4895 11.0305 11.4503 11.0399 11.3467 11.2414C11.1813 11.3225 10.9623 11.4402 10.7909 11.4856C10.5534 11.5916 10.4114 11.6349 10.1602 11.7087C10.5457 12.2706 12.0319 12.8253 12.6466 12.9627C12.6901 12.8128 12.7643 12.7309 12.866 12.6165C12.9345 12.6738 12.9966 12.7263 13.0684 12.7791C13.1362 12.878 13.2467 12.8842 13.3854 12.9301C13.5209 12.5933 13.6806 12.4646 13.9529 12.2213C14.2287 11.9628 14.7252 11.4812 15.035 11.2844C15.2753 11.0918 16.4449 10.1757 16.6579 10.1244L16.6716 10.0994C17.1217 10.1868 18.3014 10.468 18.6724 10.6624C19.9126 11.0071 21.7517 11.6484 22.9886 12.0951L23.3298 12.1848C23.5315 12.9744 24.1993 14.2436 24.4425 15.0425C24.4264 15.1519 24.4111 15.2641 24.3913 15.3727C24.4772 15.9185 24.8886 16.4551 25.0419 16.9811C25.0245 17.0088 25.0072 17.0364 24.9898 17.0641L25.2355 17.1295C25.2907 17.3283 25.3988 17.7194 25.273 17.9016L25.3742 17.9043L25.404 17.9025C25.4069 17.7582 25.4064 17.6138 25.4028 17.4695C25.4936 17.298 25.4907 17.3318 25.713 17.2499C25.7807 17.2249 25.89 17.1966 25.9626 17.1754C26.1042 17.1345 26.1445 17.1267 26.2675 17.0475L26.1844 16.8165C25.8166 15.9507 25.3742 15.0869 25.0156 14.2247C24.6829 13.4246 24.38 12.575 24.0578 11.7617C23.9009 11.6908 23.8852 11.6696 23.7714 11.5386C23.7537 11.5466 23.6218 11.6365 23.5972 11.6528C23.494 11.6284 23.254 11.5158 23.1298 11.4699L21.9985 11.0614C20.8535 10.6628 19.7057 10.2729 18.5546 9.89172C17.9493 9.69131 17.2915 9.4802 16.6792 9.30944C16.4139 9.23546 16.0815 9.29052 15.7291 9.18652Z" fill="#EC504D"/>
<path d="M16.4646 9.80957C15.6855 10.1493 13.5822 11.9757 12.8659 12.6166C12.9345 12.6739 12.9966 12.7264 13.0684 12.7793C13.1361 12.8781 13.2466 12.8843 13.3854 12.9302C13.5209 12.5934 13.6806 12.4647 13.9528 12.2214C14.2287 11.9629 14.7252 11.4813 15.0349 11.2845C15.2753 11.0919 16.4449 10.1758 16.6578 10.1245L16.6715 10.0995C17.1216 10.1869 18.3013 10.4681 18.6724 10.6625C19.9125 11.0072 21.7516 11.6485 22.9886 12.0952L23.3298 12.1849C23.3092 12.0835 23.2919 11.9476 23.1898 11.8979C22.8232 11.7195 22.4139 11.5963 22.0243 11.4691C20.5344 10.9821 19.0503 10.4634 17.5443 10.028C17.2083 9.93083 16.8111 9.82841 16.4646 9.80957Z" fill="#B73A3A"/>
<path d="M16.6715 10.0988C16.054 10.0812 14.4836 11.491 13.9746 11.9541L13.9528 12.2208C14.2287 11.9622 14.7251 11.4806 15.0349 11.2839C15.2753 11.0912 16.4449 10.1752 16.6578 10.1238L16.6715 10.0988Z" fill="#3E3D4A"/>
<path d="M13.9746 11.9546C13.6778 12.2264 13.3709 12.5156 13.0684 12.7791C13.1361 12.8779 13.2466 12.8842 13.3854 12.93C13.5209 12.5932 13.6806 12.4645 13.9528 12.2212L13.9746 11.9546Z" fill="#2F2A3C"/>
<path d="M24.4425 15.0425C24.4264 15.1519 24.411 15.2642 24.3913 15.3728C24.4772 15.9186 24.8886 16.4551 25.0418 16.9811C25.0245 17.0088 25.0071 17.0364 24.9898 17.0641L25.2354 17.1296C25.2431 16.9156 24.5655 15.3312 24.4425 15.0425Z" fill="#574C55"/>
<path d="M13.6137 9.87646L13.3467 9.98308C13.2003 10.0108 13.0539 10.0395 12.9083 10.0691C12.6304 10.2301 12.0803 10.4468 11.9988 10.7005L12.459 10.5541C12.6421 10.524 13.166 10.2519 13.3322 10.1444L13.6371 9.93782L13.6137 9.87646Z" fill="#FD8578"/>
<path d="M13.6137 9.87646L13.3467 9.98308L13.1721 10.1325C13.2366 10.1643 13.26 10.1529 13.3322 10.1444L13.6371 9.93782L13.6137 9.87646Z" fill="#B26C71"/>
<path d="M12.4589 10.5537L11.9987 10.7002C11.8741 10.7841 11.7733 10.815 11.6338 10.8684C11.4894 11.0305 11.4502 11.0398 11.3466 11.2413C11.6075 11.1543 12.2754 10.7601 12.4589 10.5537Z" fill="#EC504D"/>
<path d="M15.0349 11.2842C14.7251 11.4809 14.2287 11.9625 13.9528 12.2211C13.6806 12.4643 13.5208 12.593 13.3853 12.9298C14.2944 13.2443 15.2583 13.6118 16.1593 13.9093L16.2767 13.8707C16.4557 13.6692 16.8937 12.4995 17.02 12.1849C16.4577 11.997 15.8617 11.8359 15.3277 11.5792C15.1317 11.4851 15.0966 11.4632 15.0349 11.2842Z" fill="#48505D"/>
<path d="M16.6579 10.124C16.4449 10.1754 15.2753 11.0914 15.035 11.2841C15.0967 11.4631 15.1318 11.485 15.3278 11.5792C15.8618 11.8358 16.4578 11.9969 17.0201 12.1848C17.1128 11.8143 17.8005 10.7434 17.6871 10.421C17.3806 10.2619 16.9922 10.2519 16.6579 10.124Z" fill="#626B74"/>
<path d="M12.8659 12.6162C12.7643 12.7307 12.6901 12.8126 12.6465 12.9625C13.2209 13.1654 15.7137 13.9836 16.0856 14.2197L16.2001 14.2493C17.5314 14.7527 18.945 15.1787 20.2772 15.698C20.6547 15.8451 22.0336 16.2667 22.2675 16.4281C22.3054 16.5526 22.2812 16.6235 22.259 16.7523C22.2469 16.9506 22.2001 17.2153 22.2965 17.3755C22.4022 17.4437 22.407 17.4452 22.5292 17.4694L22.5167 17.4248C22.6196 17.0824 22.5974 16.6842 22.7184 16.3588C22.4159 16.2936 20.8006 15.7914 20.5954 15.6259L20.63 15.5447C20.5199 15.4902 20.361 15.4308 20.2425 15.3892C19.0757 14.9793 17.9061 14.5231 16.7171 14.1818C16.5699 14.1423 16.3094 14.1227 16.2211 14.0414C16.2138 13.9767 16.2001 13.9594 16.1594 13.9093C15.2584 13.6118 14.2945 13.2444 13.3854 12.9299C13.2467 12.884 13.1362 12.8778 13.0684 12.7789C12.9966 12.7261 12.9345 12.6735 12.8659 12.6162Z" fill="#CF3F3F"/>
<path d="M24.1856 16.7765C24.1102 16.5378 24.1481 16.295 24.0227 16C23.725 16.1599 23.1124 16.1772 22.7184 16.3588C22.5974 16.6842 22.6195 17.0824 22.5167 17.4248L22.5292 17.4695C22.8922 17.4827 23.4758 17.268 23.6141 17.3343C23.7686 17.301 23.8331 17.3163 23.986 17.3356L24.0961 17.4158C24.2352 17.515 24.3723 17.5918 24.4219 17.7614C24.5421 17.8025 24.6466 17.8519 24.7704 17.8424L24.8297 17.9713C25.0152 18.0646 25.0479 18.0843 25.254 18.1096L25.3508 17.9354L25.3741 17.9041L25.2729 17.9013C25.3987 17.7192 25.2907 17.3281 25.2354 17.1293L24.9898 17.0639C24.7301 16.9627 24.4538 16.8467 24.1856 16.7765Z" fill="#AD4041"/>
<path d="M24.1856 16.7764C24.2804 16.9939 24.4195 16.9694 24.6018 17.1656C24.7341 17.0931 24.7543 17.0785 24.8882 17.1922C24.8684 17.4761 24.8619 17.5739 24.7704 17.8422L24.8297 17.9711C25.0152 18.0644 25.0479 18.0842 25.254 18.1094L25.3508 17.9353L25.3741 17.9039L25.2729 17.9012C25.3987 17.719 25.2907 17.3279 25.2354 17.1291L24.9898 17.0637C24.7301 16.9625 24.4538 16.8466 24.1856 16.7764Z" fill="#FC6560"/>
<path d="M25.2729 17.9014C24.7547 17.7146 25.0007 17.6408 24.8882 17.1924C24.8684 17.4763 24.8619 17.5741 24.7704 17.8424L24.8297 17.9714C25.0152 18.0647 25.0479 18.0844 25.254 18.1096L25.3508 17.9355L25.3741 17.9042L25.2729 17.9014Z" fill="#CF3F3F"/>
<path d="M24.6018 17.1658C24.3687 17.1721 24.288 17.126 24.1174 16.9888C24.1662 17.1172 24.2287 17.2242 24.1908 17.3472L24.096 17.4159C24.2352 17.515 24.3723 17.5918 24.4219 17.7614C24.5421 17.8026 24.6465 17.8519 24.7704 17.8424C24.8619 17.5741 24.8684 17.4763 24.8881 17.1923C24.7542 17.0786 24.7341 17.0933 24.6018 17.1658Z" fill="#963739"/>
<path d="M24.1174 16.9888C23.9734 17.015 23.9254 17.0271 23.7883 17.0786L23.7548 17.146C23.7887 17.2332 23.9101 17.2758 23.9859 17.3356L24.096 17.4159L24.1908 17.3472C24.2287 17.2242 24.1662 17.1172 24.1174 16.9888Z" fill="#7E2025"/>
<path d="M16.6715 10.0996L16.6578 10.1246C16.9922 10.2525 17.3806 10.2625 17.6871 10.4216C17.8004 10.744 17.1128 11.8149 17.02 12.1854C16.8938 12.5 16.4558 13.6697 16.2767 13.8712L16.1593 13.9098C16.2001 13.9599 16.2138 13.9772 16.2211 14.0419C16.3094 14.1232 16.5699 14.1428 16.7171 14.1823C16.9551 14.0741 18.2457 11.0305 18.3372 10.6025C18.4453 10.6307 18.5615 10.6454 18.6724 10.6626C18.3013 10.4682 17.1216 10.1871 16.6715 10.0996Z" fill="#574C55"/>
<path d="M18.3372 10.6023L18.2799 10.5698C18.2077 10.662 16.7183 14.0933 16.7171 14.1821C16.955 14.0739 18.2456 11.0303 18.3372 10.6023Z" fill="#282230"/>
<path d="M23.3298 12.1844L22.9886 12.0947C23.1475 12.3325 23.6972 13.8362 23.8388 14.2088C23.9698 14.4585 24.1977 15.016 24.2909 15.2863L24.3913 15.3724C24.411 15.2638 24.4264 15.1515 24.4425 15.0421C24.1993 14.2432 23.5314 12.974 23.3298 12.1844Z" fill="#574C55"/>
<path d="M22.3973 16.1548L20.63 15.5449L20.5953 15.6262C20.8006 15.7916 22.4159 16.2939 22.7183 16.3591C23.1124 16.1774 23.725 16.1601 24.0226 16.0002C23.8887 15.9013 23.7294 15.8539 23.5717 15.7944C23.0833 15.8849 22.8397 15.9551 22.3973 16.1548Z" fill="#EC504D"/>
<path d="M23.8387 14.209L23.796 14.263C23.8807 14.4857 24.0739 15.1766 24.1981 15.2802L24.2908 15.2865C24.1977 15.0162 23.9698 14.4587 23.8387 14.209Z" fill="#626B74"/>
<path d="M11.034 16.9228C10.9159 16.8143 10.7795 16.6614 10.6719 16.539C9.89791 15.662 8.70614 14.7338 7.47 14.8189C7.6164 14.8681 7.75957 14.9175 7.9084 14.9596C8.08262 15.0214 8.24677 15.0537 8.41495 15.1079C8.19757 15.3093 8.00922 15.1583 7.79708 15.3721C7.09371 15.6125 6.79969 15.9729 6.46333 16.6286C6.35323 17.0593 6.27741 17.3008 6.26491 17.7496C6.31532 19.224 6.67064 20.2958 7.77853 21.3504C8.83439 22.3553 9.91163 22.3343 11.2022 21.7979C11.685 21.5972 12.2113 21.4413 12.5827 21.0368C12.7025 20.9075 12.8167 20.7367 12.9328 20.5967C14.1557 20.8036 15.8588 21.6749 17.0357 21.9378C17.0567 22.0907 17.0579 22.1365 17.1301 22.2764L17.5092 22.6731C18.075 23.3548 18.7263 23.3779 19.4955 23.7416C19.8899 23.9105 20.1472 23.9704 20.5687 24.0615C21.0684 24.26 21.5915 24.4398 22.0992 24.621C22.2351 24.6808 22.3787 24.7486 22.5191 24.7948C22.8962 24.948 23.5552 25.185 23.8984 25.3564C24.092 25.452 24.3033 25.4864 24.515 25.5312C25.1458 25.7564 25.5907 25.866 26.0311 25.2225L26.0936 25.0968C26.3703 25.0664 26.928 25.3278 27.2051 25.4166L27.2168 25.3652C27.3039 25.3765 27.3362 25.3856 27.4189 25.4078C27.5584 25.234 27.4729 24.3979 27.4495 24.1465C27.3951 24.1086 27.3402 24.0737 27.2846 24.0376L27.3435 23.9946C26.707 23.7168 25.9924 23.5508 25.3874 23.255C24.6748 23.0608 23.6088 22.6425 22.88 22.3945C21.8939 22.0646 20.9115 21.7239 19.933 21.3726C19.6443 21.2713 18.8385 21.015 18.6102 20.8735C17.9601 20.741 17.0087 20.3204 16.3533 20.1193C15.1514 19.7503 13.8995 19.3442 12.7267 18.8923C12.686 18.8019 12.692 18.7745 12.6908 18.6773C12.6868 18.5924 12.6924 18.6236 12.6553 18.5533C12.2702 17.8218 11.6511 16.2868 11.0857 15.7374C11.1937 16.1492 11.4999 16.383 11.5797 16.7474C11.5918 16.8031 11.5531 16.8189 11.5015 16.872C11.3377 16.9402 11.2115 16.9254 11.034 16.9228Z" fill="#962E31"/>
<path d="M9.81649 15.9133C9.43335 15.568 8.90461 15.2573 8.41499 15.1079C8.19761 15.3093 8.00927 15.1584 7.79713 15.3721C7.09376 15.6125 6.79974 15.9729 6.46338 16.6286C6.35328 17.0594 6.27746 17.3008 6.26496 17.7496C6.31537 19.224 6.67068 20.2959 7.77857 21.3504C8.83443 22.3554 9.91167 22.3343 11.2023 21.798C11.685 21.5972 12.2113 21.4414 12.5828 21.0368C12.7026 20.9075 12.8167 20.7368 12.9329 20.5968C12.784 20.5409 12.4924 20.4458 12.4013 20.3333C12.1331 20.001 11.9802 19.4175 11.8459 19.0022C11.5394 18.054 10.6743 16.4509 9.81649 15.9133Z" fill="#3E3D4A"/>
<path d="M9.81647 15.9133C9.43332 15.568 8.90459 15.2573 8.41497 15.1079C8.19758 15.3093 8.00924 15.1584 7.7971 15.3721C8.23792 15.3527 8.26938 15.3373 8.69527 15.4167C9.08527 15.4895 9.6374 15.9215 9.81647 15.9133Z" fill="#282230"/>
<path d="M9.48499 16.87C8.80662 16.2741 8.01735 16.1536 7.34503 16.8743C6.78282 17.4767 6.87236 19.1604 7.38859 19.7345C8.27345 21.6653 10.7598 21.6681 10.6687 19.2252C10.634 18.2914 10.1621 17.4959 9.48499 16.87Z" fill="#C3BAB8"/>
<path d="M9.48499 16.8701C9.53702 17.1266 9.59066 17.171 9.74593 17.3729C10.4312 18.2635 10.9248 19.6005 10.0194 20.5235C8.37549 21.089 8.50939 19.8976 8.01493 19.8135L7.99396 19.925C7.8532 19.9142 7.5237 19.8218 7.4382 19.7141L7.38859 19.7346C8.27345 21.6654 10.7598 21.6683 10.6687 19.2254C10.634 18.2915 10.1621 17.496 9.48499 16.8701Z" fill="#F0E6DE"/>
<path d="M8.99861 17.3503C7.55396 17.1506 7.55598 19.4193 8.98692 19.9519C10.5143 20.0639 10.3033 17.9893 8.99861 17.3503Z" fill="#3E3D4A"/>
<path d="M26.0937 25.0971C25.9844 24.8133 26.0308 24.5149 25.8186 24.2624C25.7545 24.1859 25.6839 24.1278 25.5944 24.0841C25.2439 23.9134 22.7023 22.949 22.3897 22.9274C22.1025 22.9076 21.8868 22.7679 21.6242 22.6653C20.9221 22.3912 18.8688 21.4402 18.2747 21.4573C18.1267 21.4615 17.971 21.4828 17.8743 21.5938L17.894 21.7322C17.4512 21.5852 17.2955 21.494 17.0358 21.9382C17.0567 22.0911 17.058 22.1368 17.1301 22.2768L17.5093 22.6734C18.0751 23.3551 18.7264 23.3782 19.4956 23.742C19.89 23.9108 20.1473 23.9707 20.5688 24.0618C21.0685 24.2604 21.5916 24.4401 22.0993 24.6213C22.2352 24.6812 22.3788 24.749 22.5192 24.7951C22.8963 24.9484 23.5553 25.1853 23.8985 25.3567C24.0921 25.4524 24.3034 25.4867 24.5151 25.5316C25.1459 25.7568 25.5908 25.8664 26.0312 25.2228L26.0937 25.0971Z" fill="#6F6772"/>
<path d="M21.3112 22.7735C20.8377 22.619 20.2747 22.3731 19.806 22.1821C19.6495 22.3866 19.589 22.4827 19.466 22.7093L19.4172 22.8666C19.2805 23.9819 20.165 23.5994 20.5687 24.0616C21.0684 24.2602 21.5915 24.44 22.0992 24.6212C21.8681 24.3249 21.7935 24.1034 21.7326 23.7394L21.7657 23.4801L21.8004 23.4675C21.8726 23.3507 21.8895 23.2805 21.9315 23.152L21.7939 23.0902C21.7496 22.9931 21.7117 22.9212 21.66 22.8277C21.5411 22.7544 21.4531 22.7717 21.3112 22.7735Z" fill="#FDF4E6"/>
<path d="M19.4172 22.8667C19.2805 23.982 20.165 23.5995 20.5687 24.0618C21.0684 24.2604 21.5915 24.4401 22.0992 24.6213C21.8681 24.3251 21.7935 24.1035 21.7326 23.7396L21.7657 23.4803L21.6645 23.4873C21.2579 24.1175 21.1757 23.6621 20.7889 23.8399C20.2513 23.736 19.5911 23.4216 19.4172 22.8667Z" fill="#A7A2A7"/>
<path d="M19.466 22.7095L19.4172 22.8668C19.5911 23.4216 20.2513 23.736 20.7889 23.8399C21.1757 23.6621 21.2579 24.1176 21.6645 23.4873L21.7657 23.4803L21.8004 23.4678C21.8726 23.3509 21.8895 23.2807 21.9315 23.1522L21.7939 23.0905C21.7496 22.9934 21.7117 22.9214 21.66 22.8279C21.5411 22.7546 21.4531 22.7719 21.3112 22.7737C21.3906 22.8389 21.5846 22.9515 21.6798 23.0104C21.5677 23.1921 21.4612 23.397 21.3588 23.5857C20.7982 23.3507 20.223 23.2078 19.6741 22.9628C19.5136 22.891 19.5092 22.8445 19.466 22.7095Z" fill="#E6D4CC"/>
<path d="M23.8831 23.9282C23.9061 23.8731 23.9263 23.8154 23.9469 23.7593C23.8081 23.6153 22.357 23.0829 22.0735 23.0616C22.0001 23.0561 21.9904 23.0923 21.9315 23.1516C21.8896 23.2802 21.8727 23.3503 21.8005 23.4672L21.7658 23.4798L21.7327 23.7391C21.7936 24.103 21.8682 24.3245 22.0993 24.6208C22.2352 24.6806 22.3788 24.7484 22.5192 24.7946C22.8962 24.9478 23.5553 25.1848 23.8985 25.3562C24.0921 25.4518 24.3034 25.4862 24.5151 25.531C24.1086 25.302 23.9888 25.3843 23.8279 24.8766C23.8005 24.6634 23.7952 24.6193 23.8227 24.4075L23.9924 23.9741L23.8831 23.9282Z" fill="#BCB9BD"/>
<path d="M23.8831 23.9282C23.9061 23.8731 23.9263 23.8154 23.9468 23.7593C23.8081 23.6153 22.357 23.0829 22.0735 23.0616C22.0001 23.0561 21.9904 23.0923 21.9315 23.1516C21.8896 23.2802 21.8726 23.3503 21.8004 23.4672L21.7657 23.4798L21.7327 23.7391C22.284 23.8901 22.824 24.2788 23.3576 24.3205C23.5451 24.0457 23.5278 23.9482 23.8831 23.9282Z" fill="#FDF4E6"/>
<path d="M23.8831 23.9287C23.5278 23.9486 23.5452 24.0462 23.3576 24.3209L23.4883 24.2842L23.5286 24.3263C23.4488 24.5239 23.3439 24.6594 23.2225 24.8345C22.9898 24.777 22.743 24.6921 22.5192 24.7951C22.8962 24.9483 23.5553 25.1852 23.8985 25.3567C24.0921 25.4523 24.3034 25.4867 24.5151 25.5315C24.1086 25.3025 23.9888 25.3848 23.8279 24.877C23.8005 24.6638 23.7952 24.6198 23.8227 24.408L23.9924 23.9746L23.8831 23.9287Z" fill="#A7A2A7"/>
<path d="M23.8831 23.9287C23.5597 24.5228 23.5609 24.7644 23.8985 25.3567C24.0921 25.4523 24.3034 25.4867 24.5151 25.5315C24.1086 25.3025 23.9888 25.3848 23.8279 24.877C23.8005 24.6638 23.7952 24.6198 23.8227 24.408L23.9924 23.9746L23.8831 23.9287Z" fill="#574C55"/>
<path d="M19.6351 22.06C19.2301 21.9694 18.0807 21.5345 17.8742 21.5933L17.894 21.7317C17.4512 21.5847 17.2955 21.4935 17.0357 21.9377C17.0567 22.0906 17.0579 22.1364 17.1301 22.2763L17.5092 22.6729C18.0751 23.3547 18.7264 23.3777 19.4955 23.7415C19.3027 23.3856 19.2539 23.2766 19.1999 22.8767C19.2749 22.5576 19.4342 22.3122 19.6351 22.06Z" fill="#FDF4E6"/>
<path d="M17.6508 22.3613C17.6056 22.5338 17.6274 22.5688 17.5092 22.6733C18.0751 23.355 18.7264 23.3781 19.4955 23.7419C19.3028 23.3859 19.254 23.277 19.1999 22.877L19.1846 22.8896C19.0309 22.9146 17.7867 22.4547 17.6508 22.3613Z" fill="#BCB9BD"/>
<path d="M17.894 21.7322C17.4511 21.5852 17.2955 21.494 17.0357 21.9382C17.0567 22.0911 17.0579 22.1368 17.1301 22.2768C17.3427 22.1374 17.3241 22.0076 17.3386 21.7736C17.4616 21.775 17.6169 21.8345 17.7347 21.8739C17.8585 21.8389 17.8141 21.8675 17.894 21.7322Z" fill="#E6D4CC"/>
<path d="M17.3387 21.7734C17.3241 22.0075 17.3427 22.1373 17.1301 22.2766L17.5093 22.6733C17.6274 22.5688 17.6056 22.5338 17.6508 22.3613C17.5617 22.0716 17.3754 22.1145 17.3387 21.7734Z" fill="#B9AFB1"/>
<path d="M25.1895 24.2279C24.9273 24.0966 24.4937 23.8628 24.1989 23.8427C24.1037 23.8362 24.067 23.9026 23.9924 23.9744L23.8226 24.4078C23.9352 24.5737 24.553 24.8175 24.7644 24.8869C24.9374 24.6979 24.9563 24.465 25.1895 24.2279Z" fill="#FDF4E6"/>
<path d="M25.2487 24.939C24.6893 24.8943 24.9874 25.0332 24.7607 25.255C24.436 25.2892 24.1501 25.0305 23.8508 24.8878L23.8279 24.877C23.9888 25.3847 24.1086 25.3024 24.5151 25.5314C25.1459 25.7566 25.5907 25.8662 26.0311 25.2227C25.7335 25.1641 25.798 25.3965 25.3205 25.2812C25.2346 25.1262 25.2261 25.1184 25.2487 24.939Z" fill="#A7A2A7"/>
<path d="M25.3205 25.2812C25.5681 25.2499 25.9896 25.1513 25.8395 24.8228C25.7238 24.7166 25.6427 24.721 25.4891 24.7026L25.354 24.8117L25.2487 24.939C25.2261 25.1183 25.2346 25.1262 25.3205 25.2812Z" fill="#282230"/>
<path d="M25.4891 24.7024C25.4286 24.5841 25.4169 24.5741 25.2968 24.5171C25.1072 24.5312 25.0278 24.6367 25.087 24.8249C25.1959 24.8758 25.2395 24.8676 25.354 24.8114L25.4891 24.7024Z" fill="#B9AFB1"/>
<path d="M12.7268 18.8921L12.6639 18.9464C12.7365 19.0427 21.2523 21.9891 22.1053 22.3073C22.8962 22.6038 23.6911 22.8899 24.4897 23.1655C24.6837 23.2331 25.1822 23.4336 25.3524 23.4555C25.7093 23.5819 26.9773 24.0666 27.2846 24.0374L27.3435 23.9944C26.7071 23.7166 25.9924 23.5506 25.3875 23.2548C24.6748 23.0606 23.6089 22.6423 22.8801 22.3943C21.894 22.0644 20.9115 21.7237 19.9331 21.3724C19.6443 21.2711 18.8385 21.0148 18.6103 20.8733C17.9601 20.7408 17.0087 20.3202 16.3533 20.1191C15.1515 19.7501 13.8996 19.344 12.7268 18.8921Z" fill="#B73A3A"/>
<path d="M39.0051 12.0415C38.8603 12.2022 38.6703 12.1958 38.4635 12.2076C38.0784 12.361 36.5503 13.0203 36.248 13.0812C35.4099 13.4476 34.5413 13.7219 33.7389 14.0687C34.0144 14.2895 35.7568 14.9014 36.2386 15.1007C39.22 16.3198 42.147 17.6679 45.0112 19.1415C45.3066 19.2964 46.1394 19.6983 46.3273 19.8912C46.9498 19.5989 48.3384 19.0151 48.9913 18.7933L49.0095 18.8196C49.0136 18.8118 49.0171 18.8036 49.0219 18.7962C49.1588 18.5846 52.4122 17.4364 52.9132 17.3173C52.2017 16.5365 43.723 13.5367 42.1932 13.0431C41.5394 12.8321 39.767 12.305 39.0051 12.0415Z" fill="#FC6560"/>
<path d="M48.9913 18.7936C48.7196 18.5282 47.5129 17.9544 47.0938 17.7453C44.7217 16.5683 42.3085 15.4764 39.8587 14.4716C38.7132 14.0062 37.3499 13.5581 36.2481 13.0815C35.4099 13.448 34.5413 13.7223 33.739 14.069C34.0145 14.2899 35.7568 14.9017 36.2387 15.101C39.22 16.3201 42.147 17.6683 45.0112 19.1418C45.3066 19.2968 46.1395 19.6987 46.3274 19.8916C46.9499 19.5993 48.3385 19.0154 48.9913 18.7936Z" fill="#FDF4E6"/>
<path d="M38.6714 12.5459L38.6262 12.5544L38.6168 12.5923C38.7814 12.6942 39.2785 12.8428 39.4844 12.9109L39.5298 12.8722C39.4697 12.7944 38.8134 12.5935 38.6714 12.5459Z" fill="#CF3F3F"/>
<path d="M50.0651 17.4856C49.9521 17.4726 49.4323 17.5006 49.3587 17.5588C49.7293 17.6764 49.7486 17.6974 50.0651 17.4856Z" fill="#CF3F3F"/>
<path d="M30.3368 22.3962C29.8875 22.1653 29.4842 22.1768 29.0031 22.3359C28.6196 22.4622 28.2715 22.6772 27.9872 22.9633C27.7279 23.3034 27.496 23.7153 27.4496 24.1469C27.473 24.3983 27.5585 25.2344 27.419 25.4082C27.3363 25.386 27.304 25.3769 27.2169 25.3656L27.2052 25.417C27.3343 25.475 27.6105 25.6068 27.7331 25.6422C27.8368 25.5971 28.0505 25.5308 28.1655 25.4917C28.3462 27.9612 30.439 30.5366 33.1265 29.3713C34.187 29.0368 35.1045 28.4787 35.4189 27.3487L35.1955 27.2962C34.9143 27.2585 34.8244 27.2042 34.5954 27.0549C34.4499 26.7759 34.2785 26.3406 34.2036 26.0307C34.2249 25.7272 34.0079 25.2184 33.8757 24.9453C33.451 24.3768 32.6988 23.3366 32.0163 23.1255C31.6649 22.9018 31.4095 22.7307 31.0074 22.6005C30.7467 22.4964 30.6115 22.4608 30.3368 22.3962Z" fill="#3E3D4A"/>
<path d="M30.3368 22.3962C29.8875 22.1653 29.4842 22.1768 29.0031 22.3359C28.6196 22.4622 28.2715 22.6772 27.9872 22.9633C27.7279 23.3034 27.496 23.7153 27.4496 24.1469C27.473 24.3983 27.5585 25.2344 27.4189 25.4082C27.3363 25.386 27.304 25.3769 27.2169 25.3656L27.2052 25.417C27.3342 25.475 27.6105 25.6068 27.7331 25.6422C27.8368 25.5971 28.0505 25.5308 28.1655 25.4917C28.1776 25.0554 28.2151 24.7875 28.2909 24.3665C28.3752 24.0504 28.4954 23.8525 28.6482 23.5674C28.6244 23.2625 28.6224 23.1581 28.6571 22.8554L28.77 22.6908C29.3787 22.3313 29.6542 22.3443 30.3368 22.3962Z" fill="#490E14"/>
<path d="M30.3368 22.3962C29.8875 22.1653 29.4842 22.1768 29.0031 22.3359C28.6196 22.4622 28.2715 22.6772 27.9872 22.9633C27.7279 23.3034 27.496 23.7153 27.4496 24.1469C27.473 24.3983 27.5585 25.2344 27.4189 25.4082C27.3363 25.386 27.304 25.3769 27.2169 25.3656L27.2052 25.417C27.3342 25.475 27.6105 25.6068 27.7331 25.6422C27.7452 25.5172 27.7166 25.2676 27.6984 25.1382C27.5734 24.2508 27.8271 23.059 28.77 22.6908C29.3787 22.3313 29.6542 22.3443 30.3368 22.3962Z" fill="#7E2025"/>
<path d="M28.657 22.8555C28.2586 23.2522 28.2195 23.8361 28.2908 24.3665C28.3751 24.0504 28.4953 23.8525 28.6482 23.5674C28.6244 23.2626 28.6224 23.1581 28.657 22.8555Z" fill="#32050C"/>
<path d="M32.0163 23.1251C31.6649 22.9014 31.4095 22.7303 31.0074 22.6001C30.898 22.6898 30.8531 22.6809 30.7086 22.6854C32.2305 23.123 33.5468 24.471 33.8634 26.0382C33.9907 26.4051 34.0203 26.9888 34.0018 27.3825C34.109 27.0197 33.9563 26.3968 34.0209 26.0102L34.0632 25.9967C34.2312 26.2834 34.3434 26.7364 34.5663 27.1402L34.6086 27.1641C34.7897 27.2649 35.2408 27.383 35.286 27.4361C35.2294 27.8118 34.8063 28.3526 34.4996 28.595C34.1767 28.8501 33.275 29.1643 33.1265 29.3709C34.187 29.0364 35.1045 28.4783 35.4189 27.3484L35.1955 27.2958C34.9143 27.2581 34.8244 27.2038 34.5954 27.0545C34.4499 26.7755 34.2785 26.3402 34.2036 26.0303C34.2249 25.7268 34.0079 25.2181 33.8757 24.9449C33.451 24.3765 32.6988 23.3362 32.0163 23.1251Z" fill="#282230"/>
<path d="M33.8757 24.9448C33.4509 24.3763 32.6987 23.3361 32.0162 23.125C33.1586 24.0747 33.5878 24.6869 34.2036 26.0302C34.2248 25.7267 34.0078 25.2179 33.8757 24.9448Z" fill="#B73A3A"/>
<path d="M30.3368 22.3959C29.6542 22.344 29.3787 22.3309 28.77 22.6905L28.6571 22.8551C28.6224 23.1578 28.6244 23.2622 28.6482 23.5671C29.1943 22.8987 29.8277 22.4921 30.7085 22.6854C30.8531 22.681 30.898 22.6898 31.0074 22.6001C30.7466 22.496 30.6115 22.4604 30.3368 22.3959Z" fill="#10020A"/>
<path d="M34.0017 27.3829C34.0203 26.9892 33.9906 26.4055 33.8634 26.0386C33.8147 26.7923 33.8727 27.4649 33.6122 28.1913C33.4984 28.5086 33.1895 28.9214 33.1391 29.201L33.1843 29.2235C33.5946 28.857 33.9875 27.9214 34.0017 27.3829Z" fill="#302F3F"/>
<path d="M29.2177 26.8469C29.4075 27.2311 29.571 27.5059 29.8585 27.8186C31.1813 29.118 32.7747 28.8397 32.9758 26.8375C33.1418 25.1841 30.949 22.7305 29.5135 24.1103C28.7591 24.6197 28.8833 26.1313 29.2177 26.8469Z" fill="#C1B8B5"/>
<path d="M29.2177 26.8469C29.4075 27.2311 29.571 27.5059 29.8585 27.8186C31.1813 29.118 32.7747 28.8397 32.9758 26.8375C33.1418 25.1841 30.949 22.7305 29.5135 24.1103C29.7425 24.0903 29.8043 23.9066 30.003 23.8908L30.0423 23.9383L29.8832 24.0505C30.1073 24.0709 30.3481 23.9804 30.5739 23.9563C30.9666 23.9144 31.3368 24.1411 31.6303 24.377C32.6317 25.1814 33.3705 27.052 32.1752 28.0072C32.1298 28.0434 32.0841 28.0792 32.038 28.1144C30.6365 28.3052 30.7156 27.6387 29.7965 26.9023C29.5361 26.6937 29.4803 26.969 29.206 26.4123L29.1745 26.4104C29.1898 26.5734 29.2306 26.6982 29.2177 26.8469Z" fill="#EDE1DA"/>
<path d="M31.1466 24.6896C29.35 24.5951 29.7842 27.1104 31.1515 27.386C32.1252 27.4796 32.5059 26.6678 32.2234 25.8314C32.019 25.2263 31.6982 24.9593 31.1466 24.6896Z" fill="#3E3D4A"/>
<path d="M33.739 14.0688C33.5109 14.1531 33.3085 14.2293 33.0848 14.3282C32.1839 14.6725 31.285 15.0223 30.3882 15.3774C31.736 16.0109 33.54 16.7116 34.9374 17.3114C36.945 18.1774 38.9203 19.1164 40.8595 20.1265C41.292 20.3528 42.6625 21.0529 42.9572 21.3008C43.3493 21.2502 45.208 20.3537 45.7744 20.1666L45.8048 20.158C45.9294 19.9863 46.132 19.9439 46.3273 19.8914C46.1394 19.6985 45.3066 19.2966 45.0112 19.1416C42.147 17.6681 39.22 16.3199 36.2386 15.1008C35.7568 14.9015 34.0144 14.2897 33.739 14.0688Z" fill="#FDF4E6"/>
<path d="M33.739 14.0688C33.5109 14.1531 33.3085 14.2293 33.0848 14.3282C33.5228 14.4761 34.0297 14.7037 34.435 14.8322L34.6067 14.9087C35.9802 15.3563 45.2077 19.4398 45.7744 20.1666L45.8048 20.158C45.9294 19.9863 46.132 19.9439 46.3273 19.8914C46.1394 19.6985 45.3066 19.2966 45.0112 19.1416C42.147 17.6681 39.22 16.3199 36.2386 15.1008C35.7568 14.9015 34.0144 14.2897 33.739 14.0688Z" fill="#FC6560"/>
<path d="M34.6068 14.9086L34.435 14.832C34.2672 15.0462 32.5548 15.4349 32.0997 15.7138L32.1035 15.7476C32.4126 15.7056 34.4609 15.0436 34.6068 14.9086Z" fill="#E6D4CC"/>
<path d="M30.3882 15.3774C29.3125 15.8028 28.0477 16.27 26.9967 16.7262C27.4145 17.016 29.2475 17.6102 29.8716 17.85C31.9366 18.64 33.9901 19.4596 36.0317 20.3083C36.7342 20.6056 37.4341 20.9093 38.1311 21.2194C38.6897 21.4695 40.2329 22.2233 40.8016 22.262C41.1461 22.0471 42.5512 21.475 42.9502 21.3319L42.9572 21.3008C42.6625 21.0529 41.292 20.3528 40.8595 20.1265C38.9203 19.1164 36.945 18.1775 34.9374 17.3114C33.54 16.7116 31.7359 16.011 30.3882 15.3774Z" fill="#FC6560"/>
<path d="M26.9967 16.7261L26.9148 16.7555C26.7672 16.8255 26.3691 16.9866 26.2675 17.0474C26.1445 17.1266 26.1041 17.1344 25.9626 17.1754C25.89 17.1965 25.7807 17.2248 25.7129 17.2498C25.4907 17.3318 25.4935 17.2979 25.4028 17.4694C25.4064 17.6137 25.4068 17.7581 25.404 17.9024C25.8476 18.0724 26.2961 18.2504 26.749 18.3934L27.2899 18.5816C27.5883 18.7431 28.3493 19.0163 28.6918 19.1522C29.424 19.4474 30.1535 19.7495 30.8802 20.0582C33.3939 21.1265 35.8941 22.2262 38.3803 23.3571C38.4666 23.3117 38.4997 23.2951 38.5917 23.2635L38.5976 23.3312C38.5725 23.5713 38.4067 23.6483 38.2413 23.796L38.2394 23.8314C38.2896 24.2142 38.2533 25.5158 38.2117 25.8946L38.2049 25.9515L38.2022 26.0082L38.2401 26.0364C38.3203 25.9205 38.3418 24.0757 38.3413 23.8168L38.6064 23.6183C38.8693 23.2732 39.8262 23.0885 40.1929 22.8183C40.2873 22.7488 40.6236 22.4312 40.6946 22.3521L40.8016 22.2619C40.2329 22.2232 38.6897 21.4694 38.1311 21.2193C37.4341 20.9092 36.7342 20.6056 36.0317 20.3083C33.9901 19.4595 31.9365 18.64 29.8716 17.8499C29.2475 17.6101 27.4145 17.0159 26.9967 16.7261Z" fill="#FF7167"/>
<path d="M26.9966 16.7261L26.9148 16.7555L26.9612 16.7779C28.3489 17.4598 30.5498 18.1847 32.0589 18.7817C33.7001 19.4318 35.334 20.1001 36.9603 20.7865C37.7929 21.1425 38.6308 21.5098 39.4552 21.8843C39.6969 21.9941 40.5677 22.2333 40.6542 22.3405C39.9713 22.6575 39.2703 22.9443 38.5917 23.2635L38.5976 23.3312C38.5725 23.5713 38.4067 23.6483 38.2413 23.796L38.2394 23.8314C38.2896 24.2142 38.2533 25.5158 38.2117 25.8946L38.2049 25.9515L38.2022 26.0082L38.2401 26.0364C38.3203 25.9205 38.3418 24.0757 38.3413 23.8168L38.6064 23.6183C38.8693 23.2732 39.8262 23.0885 40.1929 22.8183C40.2873 22.7488 40.6236 22.4312 40.6946 22.3521L40.8016 22.2619C40.2329 22.2232 38.6897 21.4694 38.1311 21.2193C37.4341 20.9092 36.7342 20.6056 36.0317 20.3083C33.9901 19.4595 31.9365 18.64 29.8716 17.8499C29.2475 17.6101 27.4145 17.0159 26.9966 16.7261Z" fill="#AD4041"/>
<path d="M25.7129 17.25C25.4907 17.3319 25.4935 17.2981 25.4028 17.4696C25.4064 17.6139 25.4068 17.7583 25.404 17.9026C25.8476 18.0725 26.2961 18.2506 26.749 18.3936C26.5853 17.7298 25.8359 17.6163 25.7129 17.25Z" fill="#FD8578"/>
<path d="M25.9625 17.1753C25.8899 17.1964 25.7806 17.2248 25.7129 17.2498C25.8359 17.6161 26.5852 17.7295 26.749 18.3934L27.2898 18.5816C27.3959 17.9725 26.3755 17.4758 25.9625 17.1753Z" fill="#F9BAA7"/>
<path d="M7.99761 9.02441C7.704 9.05104 6.85786 9.17702 6.58401 9.27086C6.32952 9.39902 6.23636 9.43508 5.96211 9.51383C5.45797 9.78536 4.29362 10.2855 3.76408 10.4904C4.09318 10.6383 5.22527 10.9159 5.59954 10.8937C5.49266 11.0903 5.364 11.2171 5.17969 11.3457L5.17122 11.3747C5.32932 11.4509 5.94073 11.6224 6.09803 11.6185C8.38398 12.2125 10.6102 12.6749 12.8196 13.5772C14.0311 14.0721 14.4606 13.9136 15.0922 15.2337C15.1402 15.245 15.2265 15.2757 15.2507 15.2529C15.3822 15.1291 16.0404 14.3233 16.0856 14.2203C15.7137 13.9842 13.2209 13.166 12.6466 12.9631C12.0319 12.8257 10.5457 12.271 10.1602 11.7091C10.4114 11.6353 10.5534 11.592 10.7909 11.486C10.9623 11.4406 11.1813 11.3229 11.3467 11.2417C11.4503 11.0403 11.4895 11.0309 11.6338 10.8689C11.7734 10.8155 11.8742 10.7846 11.9988 10.7007C12.0803 10.447 12.6304 10.2302 12.9083 10.0692C12.7143 10.0291 12.2933 10.1821 12.0537 10.2213L12.161 10.0836C12.2408 9.93967 12.5187 9.92902 12.7058 9.70452C12.5264 9.75962 12.2775 9.88976 12.1017 9.97448C11.6463 9.79391 10.5187 9.54772 9.98552 9.4156C9.85162 9.33637 8.91675 9.16714 8.69453 9.122L8.64532 9.12708C8.39729 9.06988 8.2525 9.05084 7.99761 9.02441Z" fill="#FC6560"/>
<path d="M6.58399 9.27002C6.3295 9.39818 6.23634 9.43425 5.96209 9.51299C5.45795 9.78453 4.2936 10.2847 3.76405 10.4896C4.09315 10.6374 5.22524 10.9151 5.59951 10.8929L5.73381 10.7707C5.76971 10.7124 5.7927 10.6897 5.83666 10.6384L5.95806 10.6299C6.17826 10.5322 6.85985 10.3015 6.88647 10.0173C6.90502 9.81829 7.0119 9.81361 7.16919 9.7314C6.79936 9.76081 6.64448 9.6059 6.58399 9.27002Z" fill="#963739"/>
<path d="M5.73378 10.771L5.59948 10.8932C5.49261 11.0898 5.36395 11.2166 5.17964 11.3452L5.17117 11.3741C5.32927 11.4503 5.94068 11.6218 6.09797 11.618C6.51741 11.493 6.87837 11.4836 7.04211 11.0309C6.62146 10.9 6.17702 10.8893 5.73378 10.771Z" fill="#EC504D"/>
<path d="M7.99755 9.02441C7.70394 9.05104 6.8578 9.17702 6.58395 9.27086C6.64445 9.60673 6.79932 9.76164 7.16915 9.73223C7.64909 9.5317 8.16129 9.31124 8.64526 9.12708C8.39723 9.06988 8.25244 9.05084 7.99755 9.02441Z" fill="#7E2025"/>
<path d="M5.95805 10.6304L5.83666 10.6388C5.79269 10.6902 5.7697 10.7129 5.73381 10.7712C6.17705 10.8894 6.62149 10.9002 7.04214 11.0311C7.68381 11.1467 8.35411 11.2778 8.97883 11.4605C9.14903 11.5103 9.31842 11.5204 9.49426 11.535L9.47652 11.4868L9.49224 11.4902L9.47047 11.5321L9.45514 11.4794C8.75943 11.3255 6.48719 10.8678 5.95805 10.6304Z" fill="#B73A3A"/>
<path d="M12.1609 10.083C11.8887 10.1485 11.6253 10.2957 11.3805 10.4319C11.6487 10.4121 11.804 10.2762 12.0536 10.2207L12.1609 10.083Z" fill="#CF3F3F"/>
<path d="M25.404 17.9023L25.3741 17.9042L25.3508 17.9355L25.254 18.1097C25.0479 18.0844 25.0152 18.0647 24.8297 17.9714C24.8152 18.3084 24.7958 18.6452 24.7712 18.9817L24.7409 19.1445C24.8551 19.1886 25.087 19.2715 25.1806 19.3286L25.2221 19.3697L25.2544 19.3686C25.3165 19.3683 32.8579 22.0336 33.5786 22.2879C34.4649 22.6069 35.355 22.9152 36.2487 23.213C36.5833 23.3272 37.1283 23.5433 37.4427 23.6182L37.3681 23.6799L37.4076 23.7304C37.6895 23.8056 37.948 23.8836 38.2394 23.8313L38.2414 23.7959C38.4067 23.6482 38.5725 23.5713 38.5976 23.3312L38.5917 23.2635C38.4997 23.2951 38.4666 23.3116 38.3803 23.3571C35.8941 22.2261 33.3939 21.1264 30.8802 20.0582C30.1535 19.7494 29.424 19.4474 28.6918 19.1521C28.3494 19.0163 27.5883 18.743 27.2899 18.5816L26.749 18.3934C26.2961 18.2504 25.8476 18.0723 25.404 17.9023Z" fill="#EC504D"/>
<path d="M25.254 18.1095C25.0479 18.0842 25.0152 18.0645 24.8297 17.9712C24.8152 18.3082 24.7958 18.645 24.7712 18.9815L24.7409 19.1443C24.8551 19.1884 25.087 19.2713 25.1806 19.3285C25.2035 19.0038 25.2983 18.3904 25.254 18.1095Z" fill="#EC504D"/>
<path d="M38.5976 23.3315C38.448 23.3978 38.3427 23.5433 38.249 23.677C37.9355 23.6698 37.7562 23.6603 37.4427 23.6186L37.3681 23.6802L37.4076 23.7308C37.6895 23.806 37.948 23.884 38.2394 23.8317L38.2414 23.7963C38.4067 23.6486 38.5725 23.5717 38.5976 23.3315Z" fill="#B73A3A"/>
<path d="M25.3507 17.9355L25.2539 18.1097C25.2983 18.3906 25.2035 19.0041 25.1805 19.3287L25.2221 19.3697L25.2543 19.3686C25.2931 18.987 25.3782 18.2878 25.3507 17.9355Z" fill="#B73A3A"/>
<path d="M16.0855 14.2202C16.0403 14.3232 15.3821 15.129 15.2507 15.2528C15.2265 15.2756 15.1402 15.245 15.0922 15.2336C15.3108 15.4757 16.1718 15.6148 16.2549 15.8144C16.1823 15.8409 16.1436 15.8571 16.0657 15.8707C16.2618 15.8884 16.4763 16.0086 16.6574 16.0961C16.9998 16.2615 17.3386 16.3195 17.6866 16.4367C17.9145 16.4517 18.8143 16.8293 19.0833 16.9356L22.3404 18.2037C22.5796 18.297 23.6016 18.7206 23.7827 18.7693L23.8403 18.6702C24.1557 18.7711 24.4598 18.8677 24.7712 18.9821C24.7958 18.6457 24.8151 18.3089 24.8297 17.9718L24.7704 17.8429C24.6465 17.8524 24.5421 17.8031 24.4219 17.7619C24.3723 17.5923 24.2352 17.5155 24.096 17.4164L23.9859 17.3361C23.8331 17.3169 23.7685 17.3016 23.6141 17.3348C23.4757 17.2686 22.8922 17.4832 22.5292 17.47C22.407 17.4457 22.4021 17.4443 22.2965 17.3761C22.2001 17.2159 22.2469 16.9512 22.259 16.7528C22.2811 16.624 22.3053 16.5532 22.2674 16.4287C22.0335 16.2672 20.6546 15.8457 20.2771 15.6985C18.945 15.1793 17.5314 14.7533 16.2 14.2499L16.0855 14.2202Z" fill="#EC504D"/>
<path d="M16.2 14.2495L16.0601 14.4333L16.0722 14.4887C16.4061 14.672 16.9058 14.8157 17.2728 14.9496C18.9175 15.5492 20.5904 16.2306 22.2589 16.7525C22.2811 16.6237 22.3053 16.5528 22.2674 16.4283C22.0335 16.2669 20.6546 15.8453 20.2771 15.6981C18.9449 15.1789 17.5313 14.7529 16.2 14.2495Z" fill="#FD8578"/>
<path d="M24.2533 17.7305C24.1134 17.9848 23.9206 18.3887 23.8403 18.6699C24.1557 18.7707 24.4598 18.8673 24.7712 18.9818C24.7958 18.6453 24.8151 18.3085 24.8297 17.9715L24.7704 17.8425C24.6465 17.8521 24.5421 17.8027 24.4219 17.7615L24.2533 17.7305Z" fill="#AD4041"/>
<path d="M23.986 17.3357C23.8331 17.3165 23.7686 17.3012 23.6141 17.3344C23.8291 17.4985 24.019 17.5994 24.2534 17.7305L24.4219 17.7615C24.3723 17.592 24.2352 17.5151 24.0961 17.416L23.986 17.3357Z" fill="#CF3F3F"/>
<path d="M2.32179 13.564C1.96566 13.7168 1.45951 13.8424 1.41515 14.2724C1.43975 14.6627 1.46677 15.1577 1.55631 15.5401C1.87573 15.7601 2.76341 16.1997 3.13446 16.3287C3.22722 16.359 3.32482 16.3944 3.4204 16.4111C3.5539 16.4242 3.60068 16.4224 3.72409 16.47C4.14837 16.7765 5.12922 17.1634 5.63215 17.455C5.71845 17.5811 5.78379 17.6936 5.89994 17.7927C6.03546 17.8059 6.13185 17.7767 6.26494 17.7496C6.27744 17.3008 6.35326 17.0594 6.46336 16.6286C6.79972 15.9729 7.09374 15.6125 7.79711 15.3722C8.00925 15.1584 8.19759 15.3093 8.41498 15.1079C8.2468 15.0537 8.08265 15.0214 7.90842 14.9596C7.7596 14.9176 7.61643 14.8682 7.47003 14.819L7.30063 14.8497C6.9183 14.8964 6.68277 14.9765 6.36012 15.1892C6.2476 15.2958 6.03344 15.4876 5.95842 15.6073C5.87816 15.7353 5.87776 15.8157 5.7725 15.9505L5.71724 15.8703L5.73418 15.8211C5.76 15.712 5.77976 15.6564 5.77532 15.5456L5.67207 15.7518L5.62166 15.7553C5.58052 15.7238 5.39621 15.5866 5.36233 15.5791C4.8457 15.465 4.0544 14.9394 3.59261 14.8244L3.65996 14.7746C4.21895 14.9668 4.76261 15.2488 5.31636 15.4668L5.36072 15.4452C5.05864 15.0727 2.99249 14.5719 2.49601 14.183L2.46536 14.249L2.39478 14.2173C2.3363 14.0177 2.41011 13.8003 2.32179 13.564Z" fill="#963739"/>
<path d="M2.32178 13.564C1.96566 13.7168 1.4595 13.8424 1.41514 14.2724C1.43974 14.6627 1.46676 15.1577 1.5563 15.5401C1.87572 15.7601 2.7634 16.1997 3.13445 16.3287C3.18042 16.1963 3.04854 15.3688 3.04814 15.037C3.15219 14.9572 3.30424 14.8599 3.41595 14.7839C3.12275 14.6772 2.94287 14.6332 2.7263 14.4123C2.59401 14.3548 2.57142 14.3458 2.46535 14.249L2.39477 14.2173C2.33629 14.0177 2.4101 13.8003 2.32178 13.564Z" fill="#BCB9BD"/>
<path d="M2.32178 13.564C1.96566 13.7168 1.4595 13.8424 1.41514 14.2724C1.69746 14.4402 2.7759 14.9886 3.04814 15.037C3.15219 14.9572 3.30424 14.8599 3.41595 14.7839C3.12275 14.6772 2.94287 14.6332 2.7263 14.4123C2.59401 14.3548 2.57142 14.3458 2.46535 14.249L2.39477 14.2173C2.33629 14.0177 2.4101 13.8003 2.32178 13.564Z" fill="#FDF4E6"/>
<path d="M7.90842 14.9597C7.46236 14.9561 6.96831 14.9949 6.63518 15.3366C6.4061 15.8774 6.37907 16.0378 6.46337 16.6287C6.79972 15.973 7.09374 15.6126 7.79711 15.3722C8.00925 15.1584 8.19759 15.3094 8.41498 15.108C8.2468 15.0538 8.08265 15.0215 7.90842 14.9597Z" fill="#10020A"/>
<path d="M6.63525 15.3364C6.43602 15.3921 6.17871 15.6677 6.0799 15.8409C5.69393 16.5182 5.88107 17.1295 5.90002 17.7926C6.03553 17.8058 6.13193 17.7767 6.26502 17.7496C6.27752 17.3008 6.35334 17.0593 6.46344 16.6285C6.37915 16.0376 6.40617 15.8773 6.63525 15.3364Z" fill="#490E14"/>
<path d="M7.47005 14.8193L7.30066 14.8501C6.91832 14.8967 6.68279 14.9768 6.36014 15.1895C6.24762 15.2961 6.03346 15.488 5.95844 15.6076C5.87819 15.7357 5.87778 15.8161 5.77252 15.9509L5.71727 15.8707C5.41075 15.6601 3.90762 15.0052 3.50754 14.872C4.04313 15.3722 4.98163 15.6032 5.62733 15.9427C5.77494 16.0204 5.7576 17.3084 5.63217 17.4554C5.71848 17.5815 5.78381 17.6939 5.89997 17.7931C5.88101 17.1299 5.69387 16.5187 6.07984 15.8413C6.17865 15.6681 6.43596 15.3926 6.6352 15.3369C6.96833 14.9952 7.46239 14.9564 7.90845 14.96C7.75963 14.9179 7.61645 14.8686 7.47005 14.8193Z" fill="#B73A3A"/>
<path d="M3.48816 14.9189L3.51599 14.802C3.42968 14.6233 2.93321 14.4861 2.72631 14.4126C2.94289 14.6335 3.12277 14.6775 3.41597 14.7842C3.30425 14.8602 3.15221 14.9575 3.04815 15.0373C3.04856 15.3691 3.18044 16.1966 3.13446 16.329C3.22722 16.3593 3.32482 16.3947 3.42041 16.4114L3.49018 16.3769C3.52406 16.2827 3.48009 15.1322 3.48816 14.9189Z" fill="#B9AFB1"/>
<path d="M3.48819 14.9185C3.48013 15.1317 3.52409 16.2823 3.49021 16.3764L3.42044 16.411C3.55393 16.4241 3.60072 16.4223 3.72413 16.4698C3.74389 16.4022 3.7693 16.3024 3.76325 16.2013C3.74389 15.8527 3.74349 15.3992 3.63823 15.0664C3.5745 15.0035 3.52449 14.9542 3.48819 14.9185Z" fill="#7E2025"/>
<path d="M31.2471 21.6812C30.8622 21.4244 29.8728 21.4145 29.4237 21.5265C29.1684 21.6911 28.5449 21.8168 28.4433 22.0487C28.3465 22.2703 27.8375 22.7729 27.9871 22.963C28.2715 22.6769 28.6195 22.462 29.0031 22.3356C29.4841 22.1766 29.8874 22.1651 30.3367 22.396C30.6115 22.4605 30.7466 22.4961 31.0074 22.6002C31.4094 22.7304 31.6648 22.9016 32.0162 23.1253C32.6987 23.3363 33.4509 24.3766 33.8757 24.945C34.0065 25.0213 34.2562 25.0894 34.3974 25.0126C34.6319 24.325 32.7381 22.5828 32.187 22.1705C32.0958 22.0929 31.9494 21.9951 31.8483 21.9227C31.649 21.8395 31.4486 21.759 31.2471 21.6812Z" fill="#FA5F54"/>
<path d="M31.8484 21.9226C31.6491 21.8395 31.4486 21.759 31.2472 21.6812L31.2306 21.7798C31.415 21.9249 31.9542 22.1951 32.187 22.1705C32.0958 22.0928 31.9495 21.995 31.8484 21.9226Z" fill="#FD8578"/>
<path d="M8.69494 14.0918C7.74272 13.7205 6.32872 14.23 6.02543 15.2495C5.95969 15.4699 5.85362 15.6291 5.73424 15.8209L5.7173 15.8701L5.77255 15.9503C5.87782 15.8156 5.87822 15.7351 5.95848 15.6071C6.0335 15.4874 6.24766 15.2956 6.36018 15.189C6.68283 14.9763 6.91836 14.8962 7.30069 14.8496L7.47009 14.8188C8.70623 14.7337 9.898 15.6619 10.672 16.5389C10.7796 16.6613 10.916 16.8142 11.0341 16.9227C11.2116 16.9253 11.3378 16.9401 11.5016 16.8718C11.5532 16.8188 11.5919 16.803 11.5798 16.7472C11.4999 16.3829 11.1938 16.1491 11.0857 15.7372C10.8518 15.4139 9.85606 14.469 9.47977 14.4156C9.20956 14.2781 8.97806 14.1965 8.69494 14.0918Z" fill="#EC504D"/>
<path d="M7.35266 14.2646C7.06591 14.3841 6.38633 14.8334 6.30648 15.1413L6.36012 15.1892C6.68277 14.9765 6.9183 14.8964 7.30063 14.8497L7.35266 14.2646Z" fill="#FC6560"/>
<path d="M8.6949 14.0918L8.62149 14.1731C8.77314 14.2965 9.30228 14.5384 9.47974 14.4156C9.20952 14.278 8.97802 14.1965 8.6949 14.0918Z" fill="#FD8578"/>
<path d="M36.1378 25.9531C35.9168 25.8914 35.0031 25.66 34.8461 25.562C34.837 25.4847 34.8434 25.468 34.8576 25.3938L34.8622 25.3705C34.4895 24.5923 34.4682 24.4006 33.9053 23.6538C33.5196 23.142 32.4832 22.0083 31.8483 21.9229C31.9494 21.9953 32.0958 22.093 32.187 22.1707C32.7381 22.583 34.6319 24.3251 34.3974 25.0127C34.2562 25.0896 34.0065 25.0215 33.8757 24.9452C34.0078 25.2184 34.2248 25.7271 34.2035 26.0306C34.2784 26.3406 34.4498 26.7758 34.5953 27.0548C34.8244 27.2041 34.9143 27.2584 35.1954 27.2961L35.4189 27.3487C35.6016 27.3863 35.8639 27.4166 35.9955 27.5431C35.921 27.0083 35.9118 26.6392 35.9262 26.1023L35.9489 26.1084C35.9965 26.0439 36.071 26.0002 36.1378 25.9531Z" fill="#AE3636"/>
<path d="M35.9263 26.1016C35.7861 25.9961 35.0516 25.7639 34.8245 25.6724C34.9343 26.0356 35.2909 26.9836 35.1955 27.2955L35.4189 27.348C35.6016 27.3856 35.8639 27.416 35.9955 27.5424C35.921 27.0077 35.9118 26.6385 35.9263 26.1016Z" fill="#963739"/>
<path d="M3.76409 10.4897C3.42491 10.5639 3.17969 10.6471 2.8514 10.757C2.54892 10.8748 2.39203 10.9394 2.28838 11.2753C2.56424 11.2789 2.94134 11.544 3.20187 11.6733C3.68665 11.9081 4.18756 12.1071 4.70138 12.2687C5.09057 11.8781 4.95788 11.5264 5.17123 11.374L5.1797 11.3451C5.36401 11.2164 5.49267 11.0897 5.59955 10.8931C5.22528 10.9153 4.09319 10.6376 3.76409 10.4897Z" fill="#AD4041"/>
<path d="M3.76409 10.4897C3.42491 10.5639 3.17969 10.6471 2.8514 10.757C3.08451 10.98 4.83205 11.3207 5.1797 11.3451C5.36401 11.2164 5.49267 11.0897 5.59955 10.8931C5.22528 10.9153 4.09319 10.6376 3.76409 10.4897Z" fill="#B26C71"/>
<path d="M37.4075 23.7305C37.3421 24.0139 37.3062 25.3927 37.3678 25.6654C37.6556 25.6517 37.9664 25.7464 38.2117 25.8945C38.2533 25.5158 38.2896 24.2142 38.2394 23.8314C37.948 23.8836 37.6895 23.8057 37.4075 23.7305Z" fill="#EC504D"/>
<path d="M2.28672 11.3423C2.26898 11.7206 2.22703 13.2594 2.32181 13.5638C2.41013 13.8001 2.33633 14.0175 2.39481 14.2171C2.39602 14.0552 2.35811 13.8054 2.50612 13.7241C2.60775 13.7694 2.61058 13.7713 2.71947 13.7907C2.80296 13.6379 2.68519 11.9938 2.67511 11.7103L2.28672 11.3423Z" fill="#EC504D"/>
<path d="M16.0658 15.8706C15.9146 15.9213 15.9154 16.0053 15.917 16.1596C15.9331 16.1932 15.9525 16.2335 15.9747 16.2804C16.3514 16.448 16.9664 16.6731 17.3274 16.8166C17.454 16.618 17.4842 16.5516 17.6867 16.4366C17.3387 16.3194 16.9999 16.2614 16.6575 16.096C16.4764 16.0085 16.2618 15.8883 16.0658 15.8706Z" fill="#FDF4E6"/>
<path d="M29.4238 21.526C28.6511 21.4739 28.0066 22.4298 27.5678 22.8836C27.5226 23.2431 27.4839 23.6619 27.3435 23.9942L27.2847 24.0372C27.3403 24.0733 27.3952 24.1082 27.4496 24.1461C27.496 23.7145 27.7279 23.3026 27.9872 22.9625C27.8376 22.7723 28.3466 22.2697 28.4434 22.0482C28.545 21.8162 29.1685 21.6905 29.4238 21.526Z" fill="#CF3F3F"/>
<path d="M18.6102 20.8734C18.43 20.6775 14.8546 19.5661 14.3251 19.3405C13.9609 19.1855 13.0175 19.1137 12.6909 18.6772C12.6921 18.7744 12.686 18.8019 12.7268 18.8922C13.8996 19.3442 15.1515 19.7503 16.3533 20.1192C17.0087 20.3204 17.9601 20.741 18.6102 20.8734Z" fill="#AD4041"/>
<path d="M37.3678 25.6659L37.3015 25.7284C37.4583 25.9137 37.8533 25.9236 38.1072 25.9447C38.1397 25.9474 38.1723 25.9498 38.2049 25.9519L38.2117 25.895C37.9664 25.7468 37.6556 25.6522 37.3678 25.6659Z" fill="#CF3F3F"/>
<path d="M23.8404 18.6699L23.7827 18.769L24.741 19.1446L24.7712 18.9818C24.4599 18.8674 24.1558 18.7707 23.8404 18.6699Z" fill="#B26C71"/>
<path d="M24.0348 22.5259C24.2941 22.6136 25.0104 22.9607 25.2048 22.9311L25.2584 22.8568L25.2298 22.7742C25.1286 22.6987 24.6164 22.5576 24.4764 22.5123C23.8436 22.3076 20.0731 20.7932 19.696 21.0584C19.8214 21.2319 21.4443 21.5955 21.7533 21.69C22.0634 22.035 23.5682 22.4934 24.0348 22.5259Z" fill="#AD4041"/>
<path d="M24.0348 22.5264C23.5924 22.2968 22.2631 21.8509 21.7533 21.6904C22.0634 22.0355 23.5682 22.4939 24.0348 22.5264Z" fill="#B73A3A"/>
<path d="M12.6505 15.3354L12.6283 15.356L12.638 15.4184C12.7638 15.5265 13.4007 15.7955 13.6031 15.8939L13.6366 15.851C13.5426 15.661 12.8981 15.4397 12.6505 15.3354Z" fill="#7E2025"/>
<path d="M18.7288 3.58733C18.6941 3.50612 18.6393 3.40636 18.5804 3.34641C18.1678 2.92643 15.6822 2.02812 15.268 2C15.0301 2.15769 15.0732 2.28089 15.1075 2.55614L15.0978 2.65703C14.0791 3.09892 12.1004 3.71146 10.9861 4.09094C8.64849 4.87626 6.31777 5.68089 3.9935 6.50477C3.27198 6.75694 2.48875 6.99209 1.78014 7.25273C1.42241 7.11638 0.886408 6.84856 0.544402 6.88446C0.40526 7.11872 0.507703 7.68595 0.561746 7.94865C0.658943 8.42503 1.07475 9.08311 1.51355 9.31257C2.04108 9.58846 3.3603 10.0836 3.91163 9.8019C4.20967 9.60859 4.17943 9.32862 4.2 9.00848C4.73962 8.83376 5.26877 8.63033 5.81162 8.45573L5.84993 8.49962C5.88744 8.83296 5.93181 9.18078 5.96205 9.51355C6.2363 9.4348 6.32947 9.39874 6.58395 9.27057C6.8578 9.17674 7.70395 9.05076 7.99755 9.02413C7.91972 8.97447 7.67773 8.94902 7.53052 8.89532C7.44018 8.77249 7.31959 8.38259 7.13528 8.11025L7.08446 8.06531C7.08809 8.05813 7.09092 8.05047 7.09535 8.04381C7.20868 7.87337 13.0643 5.92338 13.7629 5.69001C14.1601 5.57161 14.5525 5.55797 14.9232 5.44353C14.9639 5.39149 14.9986 5.34687 15.0276 5.30972L15.0502 5.25687C15.1986 5.17566 16.6554 4.65224 16.8046 4.66652C17.2636 4.71041 17.8298 4.89251 18.3602 4.92176C18.8542 4.63159 18.9563 4.08949 18.7288 3.58733Z" fill="#6F6772"/>
<path d="M18.7288 3.58733C18.6941 3.50612 18.6393 3.40636 18.5804 3.34641C18.1678 2.92643 15.6822 2.02812 15.268 2C15.0301 2.15769 15.0732 2.28089 15.1075 2.55614L15.0978 2.65703C15.166 2.762 15.3108 3.0441 15.4055 3.10747C15.9105 3.44367 16.6788 3.66188 17.2563 3.85386C17.4551 3.9199 17.7068 3.84305 17.8335 3.95713L17.8415 3.98267C16.782 4.3279 15.7314 4.7182 14.6759 5.07941L6.56661 7.87991L6.5525 7.96732C6.69527 8.00141 6.94734 8.07399 7.08446 8.06531C7.08809 8.05813 7.09092 8.05047 7.09535 8.04381C7.20868 7.87337 13.0643 5.92338 13.7629 5.69001C14.1601 5.57161 14.5525 5.55797 14.9232 5.44353C14.9639 5.39149 14.9986 5.34687 15.0276 5.30972L15.0502 5.25687C15.1986 5.17566 16.6554 4.65224 16.8046 4.66652C17.2636 4.71041 17.8298 4.89251 18.3602 4.92176C18.8542 4.63159 18.9563 4.08949 18.7288 3.58733Z" fill="#322735"/>
<path d="M18.3246 3.76673C17.6003 3.54329 16.7985 3.16779 16.0814 2.90457C15.7584 2.78597 15.4438 2.6332 15.1075 2.55566L15.0978 2.65656C15.1659 2.76152 15.3107 3.04363 15.4055 3.107C15.9104 3.4432 16.6787 3.6614 17.2563 3.85339C17.4551 3.91942 17.7068 3.84257 17.8334 3.95666L17.8415 3.98219C18.0351 3.93899 18.1516 3.8627 18.3246 3.76673Z" fill="#574C55"/>
<path d="M18.7288 3.58733C18.6941 3.50612 18.6393 3.40636 18.5804 3.34641C18.1678 2.92643 15.6822 2.02812 15.268 2C15.6641 2.32555 17.1954 2.79919 17.7581 3.05584C18.0577 3.19255 18.5538 3.5889 18.6522 3.60948L18.7288 3.58733Z" fill="#6F6772"/>
<path d="M0.544451 6.88428C0.40531 7.11854 0.507752 7.68577 0.561796 7.94847C0.658993 8.42485 1.0748 9.08293 1.5136 9.31239C2.04113 9.58828 3.36035 10.0834 3.91168 9.80172C3.98548 9.46774 3.99597 9.262 4.00686 8.92346L4.26538 8.70183L4.14076 8.60949L3.96451 8.64705C3.80198 8.59166 3.84796 8.60489 3.72898 8.44853C3.19661 7.84499 0.792083 7.23734 0.544451 6.88428Z" fill="#3E3D4A"/>
<path d="M7.13528 8.10986C7.06349 8.1895 6.98929 8.26735 6.91346 8.34336L6.82474 8.34654C6.7953 8.3056 6.72956 8.18671 6.68318 8.18829C6.55775 8.19244 5.91084 8.40855 5.84994 8.49923C5.88745 8.83257 5.93181 9.18039 5.96206 9.51316C6.23631 9.43441 6.32947 9.39835 6.58396 9.27018C6.85781 9.17635 7.70395 9.05037 7.99756 9.02374C7.91972 8.97408 7.67774 8.94863 7.53053 8.89493C7.44019 8.7721 7.3196 8.3822 7.13528 8.10986Z" fill="#3E3D4A"/>
<path d="M6.56659 7.87988C5.95154 8.09938 4.83558 8.45409 4.26531 8.70199L4.00679 8.92362C3.9959 9.26216 3.98541 9.4679 3.9116 9.80188C4.20965 9.60856 4.1794 9.3286 4.19997 9.00845C4.7396 8.83374 5.26874 8.6303 5.8116 8.45571L5.84991 8.4996C5.91081 8.40891 6.55772 8.19281 6.68315 8.18865C6.72953 8.18708 6.79527 8.30596 6.82471 8.34691L6.91343 8.34372C6.98926 8.26772 7.06346 8.18986 7.13525 8.11023L7.08444 8.06529C6.94731 8.07396 6.69525 8.00139 6.55247 7.9673L6.56659 7.87988Z" fill="#282230"/>
<path d="M4.14075 8.60932C4.09921 8.47809 4.10082 8.4618 4.00402 8.37163C3.83988 8.35832 3.90401 8.35271 3.72897 8.44836C3.84795 8.60472 3.80197 8.59149 3.9645 8.64688L4.14075 8.60932Z" fill="#574C55"/>
</svg>
