<svg width="78" height="41" viewBox="0 0 78 41" fill="none" xmlns="http://www.w3.org/2000/svg">
<path d="M21.2858 4.84082C21.2433 4.89516 21.1926 4.96042 21.133 5.03653C20.5909 5.20393 20.0169 5.22387 19.4359 5.39705C19.5356 5.89309 19.627 6.39073 19.7108 6.88978C17.4184 7.58047 15.1415 8.32226 12.8822 9.11474C12.287 9.32615 10.8282 9.81482 10.3203 10.0852C10.5356 10.1638 10.8895 10.201 11.0034 10.2736C10.5739 10.3126 9.33633 10.4968 8.9358 10.6341C8.56358 10.8215 8.42732 10.8743 8.02619 10.9895C7.28882 11.3866 5.58581 12.1181 4.81128 12.4178C4.31518 12.5262 3.95653 12.6479 3.47636 12.8087C3.03394 12.9811 2.80447 13.0755 2.65286 13.5667L2.65051 13.6649C2.62455 14.2182 2.56321 16.4689 2.70183 16.9141C2.18096 17.1377 1.44064 17.3213 1.37576 17.9503C1.41174 18.5211 1.45126 19.2452 1.58222 19.8044C2.04941 20.1262 3.34776 20.7692 3.89046 20.9579C4.02614 21.0022 4.16889 21.054 4.30869 21.0785C4.50395 21.0976 4.57238 21.095 4.75288 21.1646C5.37345 21.6129 6.80806 22.1787 7.54365 22.6052C7.66989 22.7897 7.76545 22.9542 7.93534 23.0992C8.13355 23.1185 8.27453 23.0759 8.4692 23.0362C8.54293 25.1927 9.06262 26.7604 10.6831 28.3029C12.2274 29.7727 13.803 29.7419 15.6906 28.9574C16.3967 28.6638 17.1665 28.4359 17.7098 27.8442C17.885 27.655 18.052 27.4053 18.2219 27.2005C20.0104 27.5031 22.5015 28.7775 24.2228 29.1621C24.2535 29.3857 24.2553 29.4526 24.3609 29.6573L24.9154 30.2374C25.743 31.2345 26.6957 31.2683 27.8206 31.8004C28.3975 32.0473 28.7738 32.1349 29.3903 32.2681C30.1212 32.5586 30.8862 32.8215 31.6289 33.0865C31.8277 33.174 32.0377 33.2732 32.243 33.3407C32.7945 33.5649 33.7584 33.9114 34.2604 34.1621C34.5436 34.302 34.8527 34.3523 35.1624 34.4179C36.085 34.7472 36.7356 34.9075 37.3798 33.9663L37.4712 33.7824C37.8759 33.738 38.6917 34.1203 39.0969 34.2502C39.2857 34.335 39.6898 34.5279 39.8691 34.5797C40.0207 34.5137 40.3333 34.4166 40.5015 34.3594C40.7657 37.9714 43.8267 41.7383 47.7577 40.0338C49.3088 39.5446 50.6507 38.7283 51.1106 37.0756C51.3778 37.1306 51.7616 37.175 51.954 37.36C52.178 37.7067 52.8494 37.7663 53.2253 37.8729C54.3457 38.1906 55.257 38.4856 56.4033 38.0583C57.1655 37.7742 57.9355 37.4958 58.6978 37.2059C61.0669 36.2994 63.4271 35.37 65.7782 34.4178C66.7765 34.0148 67.998 33.4227 68.9997 33.101C71.5498 32.4599 72.8664 32.3935 74.8373 30.4804C75.6123 29.9119 77.0385 29.5715 77.6711 28.9465C78.0752 28.5472 77.9758 27.1852 77.9294 26.5987C77.681 26.3372 77.4927 26.2954 77.1568 26.1826L76.6373 26.0226C76.8132 25.4233 77.017 22.9666 76.6983 22.4039C75.6576 21.2619 63.2564 16.8743 61.0188 16.1523C60.0626 15.8437 57.4703 15.0727 56.3558 14.6873C55.7858 14.51 55.5781 14.4967 55.1615 14.0586C55.6743 13.8333 56.0324 13.7794 56.5018 13.468C56.5117 12.9641 56.5196 12.5177 56.4961 12.0141C55.8019 11.6029 54.6944 11.8665 54.3505 12.6086C54.3191 12.8264 54.3593 12.824 54.2338 12.9197C54.0417 12.792 53.2965 11.9054 53.0984 11.6843C52.5255 11.0453 50.041 8.29571 49.4475 8.12472C47.5285 7.3411 39.9104 4.85781 38.1437 4.96178C37.2872 5.01217 36.4118 5.32677 35.5765 5.51694C34.4427 5.77502 33.2948 5.98767 32.1539 6.21377C31.8342 6.28664 30.9594 6.32027 30.8031 6.37615C30.1902 6.41444 29.5667 6.57027 28.9968 6.58166C28.332 6.59499 27.5917 6.42206 26.9098 6.45227C26.4591 6.38547 26.1524 6.34895 25.6946 6.32157C24.5862 6.00095 23.1127 5.83444 22.0361 6.3365C21.9411 6.19283 21.4031 5.06828 21.2858 4.84082Z" fill="#BC3A3A"/>
<path d="M21.2858 4.84082C21.2433 4.89516 21.1926 4.96042 21.133 5.03653C20.5909 5.20393 20.0169 5.22387 19.4359 5.39705C19.5356 5.89309 19.627 6.39073 19.7108 6.88978C17.4185 7.58047 15.1415 8.32226 12.8822 9.11474C12.287 9.32615 10.8282 9.81482 10.3203 10.0852C10.5356 10.1638 10.8896 10.201 11.0034 10.2736C11.3762 10.3123 11.588 10.3401 11.9508 10.4238L12.0227 10.4164C12.3478 10.4824 13.7151 10.7299 13.911 10.8458C14.6908 11.039 16.3402 11.3991 17.0061 11.6632C17.2633 11.5393 17.6273 11.349 17.8898 11.2684C17.6161 11.5967 17.2097 11.6123 17.0929 11.8229L16.9359 12.0243C17.2863 11.9669 17.9022 11.7432 18.1859 11.8018C18.3989 11.7585 18.613 11.7165 18.8271 11.676L19.2176 11.52L19.2519 11.6098C19.9715 11.1809 21.4988 10.7389 22.3116 10.5113C22.8272 10.6634 23.3133 10.5829 23.7014 10.6911C24.5969 10.9408 25.559 11.2496 26.4444 11.5427C28.128 12.1003 29.8068 12.6705 31.4815 13.2535L33.1361 13.851C33.3178 13.9182 33.6688 14.0829 33.8198 14.1186C33.8558 14.0948 34.0487 13.9632 34.0746 13.9515C34.241 14.1431 34.264 14.1742 34.4935 14.2778C35.6744 13.9118 37.2235 13.2057 38.4204 12.7555C39.1902 12.4658 40.5115 12.0103 41.2112 11.6845L41.1539 11.6321C41.2253 11.5432 41.2306 11.559 41.3468 11.5069L41.2867 11.37C41.7126 11.1338 43.1822 10.6183 43.7017 10.4276C43.8994 10.3621 44.0942 10.2731 44.2861 10.1908C44.7745 9.6915 49.1028 8.54229 49.4475 8.12472C47.5285 7.3411 39.9104 4.85781 38.1437 4.96178C37.2872 5.01217 36.4118 5.32677 35.5765 5.51694C34.4427 5.77502 33.2948 5.98767 32.154 6.21377C31.8342 6.28664 30.9594 6.32027 30.8031 6.37615C30.1902 6.41444 29.5667 6.57027 28.9969 6.58166C28.3321 6.595 27.5917 6.42206 26.9098 6.45227C26.4592 6.38547 26.1524 6.34895 25.6947 6.32157C24.5863 6.00095 23.1127 5.83444 22.0361 6.3365C21.9412 6.19283 21.4032 5.06828 21.2858 4.84082Z" fill="#FC6560"/>
<path d="M21.2858 4.84082C21.2433 4.89516 21.1926 4.96042 21.133 5.03653C20.5909 5.20393 20.017 5.22387 19.4359 5.39705C19.5356 5.89309 19.627 6.39073 19.7108 6.88978C17.4185 7.58047 15.1415 8.32226 12.8822 9.11474C12.287 9.32615 10.8282 9.81482 10.3203 10.0852C10.5356 10.1638 10.8896 10.201 11.0034 10.2736C11.3762 10.3123 11.588 10.3401 11.9508 10.4238L12.0228 10.4164C12.3478 10.4824 13.7152 10.7299 13.911 10.8458C14.6908 11.039 16.3402 11.3991 17.0062 11.6632C17.2634 11.5393 17.6273 11.349 17.8898 11.2684C17.6161 11.5967 17.2097 11.6123 17.0929 11.8229L16.936 12.0243C17.2864 11.9669 17.9022 11.7432 18.1859 11.8018C18.3989 11.7585 18.613 11.7165 18.8272 11.676L19.2177 11.52L19.8034 11.151C20.2411 10.8114 20.798 10.5108 21.2841 10.2307C22.0403 9.83925 22.9564 9.45348 23.6654 9.0601L24.522 8.7029C24.88 8.63427 27.8607 7.53675 28.082 7.39473L28.1144 7.38128C28.9279 7.16226 30.6362 6.72876 31.3494 6.41616C31.2367 6.36683 30.9453 6.37898 30.8031 6.37615C30.1902 6.41444 29.5667 6.57027 28.9969 6.58166C28.3321 6.595 27.5918 6.42206 26.9098 6.45227C26.4592 6.38547 26.1524 6.34895 25.6947 6.32157C24.5863 6.00095 23.1127 5.83444 22.0362 6.3365C21.9412 6.19283 21.4032 5.06828 21.2858 4.84082Z" fill="#EC504D"/>
<path d="M21.4887 8.14893C20.8215 8.43604 18.4407 9.07145 18.2119 9.20721L18.0544 9.1678C17.8249 9.11363 17.75 9.12307 17.5229 9.21311C17.1996 9.097 16.8516 8.99805 16.5885 8.78274C16.1602 8.93786 15.5839 9.16821 15.1627 9.29885C15.3627 9.39012 15.4335 9.40222 15.5597 9.5846C15.5715 9.6862 15.5839 9.70568 15.5668 9.80138C15.2624 9.92499 14.0242 10.44 13.9074 10.6886L13.9829 10.7335L13.911 10.8459C14.6908 11.0392 16.3401 11.3993 17.0061 11.6634C17.2633 11.5394 17.6273 11.3491 17.8898 11.2685C17.6161 11.5969 17.2096 11.6124 17.0928 11.823L16.9359 12.0244C17.2863 11.967 17.9022 11.7433 18.1859 11.802C18.3989 11.7586 18.613 11.7166 18.8271 11.6761L19.2176 11.5202L19.8034 11.1511C20.2411 10.8116 20.7979 10.5109 21.284 10.2309C22.0403 9.83938 22.9564 9.45361 23.6654 9.06024L23.5999 9.04047L23.6648 8.945L23.6377 8.84245C23.1681 8.56071 22.2013 8.519 21.4887 8.14893Z" fill="#FDF4E6"/>
<path d="M21.4887 8.14893C20.8215 8.43604 18.4407 9.07145 18.2119 9.20721L18.0544 9.1678L17.806 9.21223L17.8031 9.27223C17.983 9.34156 18.239 9.41225 18.3611 9.53923C18.8755 9.71624 20.1544 9.90977 20.7401 10.0076L20.8168 9.95585L20.9147 9.86168C21.1719 9.95532 21.0262 10.0613 21.284 10.2309C22.0403 9.83938 22.9564 9.45361 23.6654 9.06024L23.5999 9.04047L23.6648 8.945L23.6377 8.84245C23.1681 8.56071 22.2013 8.519 21.4887 8.14893Z" fill="#FDF4E6"/>
<path d="M18.0543 9.16797L17.806 9.2124L17.803 9.2724C17.9829 9.34173 18.239 9.41242 18.3611 9.5394C18.8754 9.71641 20.1543 9.90994 20.7401 10.0078L20.8168 9.95602L20.8309 9.74083C20.2935 9.68283 18.83 9.334 18.2118 9.20738L18.0543 9.16797Z" fill="#CF3F3F"/>
<path d="M23.5999 9.04004C22.347 9.39613 22.1217 9.88815 20.831 9.74023L20.8168 9.95542L20.9147 9.86125C21.1719 9.95489 21.0262 10.0609 21.284 10.2304C22.0403 9.83895 22.9564 9.45318 23.6654 9.0598L23.5999 9.04004Z" fill="#EC504D"/>
<path d="M21.284 10.2305C21.0262 10.061 21.1719 9.95497 20.9147 9.86133L20.8168 9.9555L20.7401 10.0072L20.8581 10.0975C20.8604 10.0953 18.2567 11.0644 17.8898 11.2681C17.6161 11.5965 17.2096 11.6121 17.0928 11.8227L16.9359 12.024C17.2863 11.9667 17.9021 11.743 18.1859 11.8016C18.3988 11.7582 18.613 11.7163 18.8271 11.6757L19.2176 11.5198L19.8034 11.1508C20.2411 10.8112 20.7979 10.5105 21.284 10.2305Z" fill="#EC504D"/>
<path d="M16.5886 8.78223C16.1603 8.93735 15.584 9.1677 15.1628 9.29833C15.3628 9.38961 15.4336 9.4017 15.5598 9.58408C15.5716 9.68569 15.584 9.70516 15.5669 9.80086C15.2625 9.92448 14.0243 10.4395 13.9075 10.688L13.983 10.7329C15.1964 10.3343 16.5963 9.75679 17.8451 9.47729C17.9223 9.46 18.2645 9.52018 18.3612 9.53871C18.2391 9.41174 17.9831 9.34105 17.8032 9.27172L17.8061 9.21171L18.0545 9.16728C17.825 9.11312 17.7501 9.12256 17.523 9.2126C17.1997 9.09648 16.8517 8.99753 16.5886 8.78223Z" fill="#EC504D"/>
<path d="M16.5886 8.78223C16.1603 8.93735 15.584 9.1677 15.1628 9.29833C15.3628 9.38961 15.4336 9.4017 15.5598 9.58408C15.5716 9.68569 15.584 9.70516 15.5669 9.80086C16.3119 9.53104 16.7549 9.40495 17.5229 9.2126C17.1997 9.09648 16.8517 8.99753 16.5886 8.78223Z" fill="#FD8578"/>
<path d="M19.7109 6.88939C17.4186 7.58008 15.1416 8.32187 12.8823 9.11435C12.2871 9.32576 10.8283 9.81443 10.3204 10.0848C10.5357 10.1634 10.8897 10.2006 11.0035 10.2732C11.3763 10.3119 11.5881 10.3397 11.9509 10.4234L12.0229 10.416C12.3479 10.482 13.7152 10.7295 13.9111 10.8454L13.9831 10.7329L13.9075 10.688C14.0243 10.4395 15.2625 9.92447 15.5669 9.80086C15.584 9.70515 15.5716 9.68568 15.5598 9.58408C15.4336 9.4017 15.3628 9.3896 15.1628 9.29832C15.584 9.16769 16.1603 8.93734 16.5886 8.78222C17.0995 8.56072 18.1854 8.23591 18.75 8.03081C19.344 7.81498 20.6317 7.2997 21.1951 7.19178L20.8854 7.06415C20.7485 7.04179 20.3775 6.93022 20.2271 6.88868C20.1108 6.87688 19.8395 6.88797 19.7109 6.88939Z" fill="#74646E"/>
<path d="M15.5668 9.80136C15.5839 9.70566 15.5715 9.68619 15.5597 9.58458C15.4335 9.4022 15.3627 9.39011 15.1627 9.29883C14.1074 9.64754 13.0609 10.0201 12.0227 10.4165C12.3477 10.4825 13.7151 10.73 13.911 10.8459L13.9829 10.7334L13.9074 10.6885C14.0242 10.44 15.2624 9.92497 15.5668 9.80136Z" fill="#F9BAA7"/>
<path d="M28.082 7.39474C26.1011 7.0586 25.1213 6.38949 23.1871 7.22481C22.7204 7.42625 21.7165 7.58644 21.5053 8.11281L21.4888 8.1488C22.2013 8.51887 23.1682 8.56059 23.6377 8.84233L23.6649 8.94488L23.6 9.04035L23.6655 9.06011L24.522 8.70291C24.88 8.63428 27.8608 7.53676 28.082 7.39474Z" fill="#626B74"/>
<path d="M21.5053 8.11182L21.4887 8.14781C22.2013 8.51788 23.1682 8.55959 23.6377 8.84134L23.6649 8.94388L23.6 9.03935L23.6654 9.05912L24.522 8.70191C24.0135 8.45817 22.1335 8.15424 21.5053 8.11182Z" fill="#E6D4CC"/>
<path d="M21.2858 4.84082C21.2434 4.89516 21.1926 4.96042 21.133 5.03653C20.5909 5.20393 20.017 5.22387 19.4359 5.39705C19.5356 5.89309 19.6271 6.39073 19.7108 6.88978C19.8394 6.88836 20.1108 6.87727 20.227 6.88907C20.3774 6.93061 20.7484 7.04218 20.8853 7.06455L21.195 7.19217C21.5672 7.15352 22.255 6.9869 22.6426 6.90264L22.632 6.8611C22.4922 6.712 22.3093 6.731 22.0627 6.46047L22.0362 6.3365C21.9412 6.19283 21.4032 5.06828 21.2858 4.84082Z" fill="#3E3D4A"/>
<path d="M22.0627 6.45996C21.8397 6.49796 21.5495 6.55608 21.3301 6.58003C21.3407 6.81752 21.3802 6.82047 21.2675 6.99795C21.1213 7.03153 21.0339 7.04763 20.8853 7.06404L21.195 7.19166C21.5672 7.15302 22.255 6.98639 22.6426 6.90213L22.632 6.86059C22.4922 6.71149 22.3093 6.73049 22.0627 6.45996Z" fill="#7E2025"/>
<path d="M21.3301 6.58057C20.9944 6.62098 20.4264 6.63473 20.227 6.8891C20.3774 6.93063 20.7484 7.04221 20.8853 7.06457C21.0339 7.04817 21.1212 7.03206 21.2675 6.99849C21.3802 6.82101 21.3407 6.81806 21.3301 6.58057Z" fill="#490E14"/>
<path d="M25.6948 6.32119C24.5864 6.00057 23.1128 5.83406 22.0363 6.33612L22.0628 6.46009C22.3094 6.73062 22.4922 6.71162 22.632 6.86072L22.6427 6.90226C23.1158 6.87435 23.9646 6.6214 24.6223 6.58222C24.9633 6.47271 25.342 6.32627 25.6948 6.32119Z" fill="#963739"/>
<path d="M25.6947 6.32129C25.3419 6.32636 24.9632 6.47281 24.6223 6.58232C24.8028 6.59878 25.0092 6.56792 25.2021 6.57011C25.7513 6.57642 26.4149 6.7365 26.9099 6.45198C26.4592 6.38519 26.1524 6.34867 25.6947 6.32129Z" fill="#CF3F3F"/>
<path d="M44.2862 10.1906C43.4134 9.46732 34.1573 6.64807 32.5357 6.58605C32.2095 6.57361 29.5957 7.55525 29.0182 7.76595C30.7465 7.99831 33.9703 9.03612 35.6827 9.56615C37.0902 10.0018 39.5625 10.8102 40.8679 11.4198C41.0537 11.4842 41.069 11.438 41.2867 11.3698C41.7126 11.1336 43.1822 10.6181 43.7017 10.4274C43.8995 10.3619 44.0942 10.2729 44.2862 10.1906Z" fill="#FDF4E6"/>
<path d="M28.1145 7.38184L28.082 7.39529C27.8608 7.53731 24.8801 8.63483 24.5221 8.70346L23.6655 9.06066C22.9565 9.45404 22.0404 9.8398 21.2841 10.2313C20.7981 10.5113 20.2412 10.812 19.8035 11.1516L19.2177 11.5206L19.252 11.6103C19.9716 11.1815 21.4989 10.7394 22.3117 10.5119C22.8574 10.378 23.4449 10.0155 23.944 9.73484C24.5321 9.32388 25.076 8.85763 25.6983 8.43464L26.3767 8.19249L28.2531 7.49725L28.1145 7.38184Z" fill="#7A8489"/>
<path d="M28.1145 7.38184L28.082 7.39529C27.8608 7.53731 24.8801 8.63483 24.5221 8.70346L23.6655 9.06066C22.9565 9.45404 22.0404 9.8398 21.2841 10.2313C20.7981 10.5113 20.2412 10.812 19.8035 11.1516L19.836 11.1759C19.9191 11.1712 22.0345 9.98383 22.3341 9.83508C23.4307 9.2909 24.5344 8.81527 25.6983 8.43464L26.3767 8.19249L28.2531 7.49725L28.1145 7.38184Z" fill="#574C55"/>
<path d="M41.2866 11.3696C41.0689 11.4378 41.0536 11.4841 40.8677 11.4197C39.5682 11.7169 37.3532 12.7444 36.0472 13.2137C35.4225 13.438 34.7506 13.7869 34.0746 13.9511C34.2409 14.1428 34.2639 14.1738 34.4934 14.2774C35.6743 13.9115 37.2234 13.2053 38.4203 12.7551C39.1901 12.4655 40.5115 12.0099 41.2111 11.6842L41.1538 11.6317C41.2252 11.5429 41.2305 11.5586 41.3467 11.5066L41.2866 11.3696Z" fill="#CF3F3F"/>
<path d="M26.3765 8.19141L25.6982 8.43356C25.0758 8.85655 24.5319 9.3228 23.9438 9.73376C24.4045 9.63959 25.4834 9.2127 25.8515 8.93845C25.7282 8.92989 25.5855 8.9958 25.464 9.03982C25.4598 8.66745 26.0657 8.49569 26.3765 8.19141Z" fill="#B26C71"/>
<path d="M32.154 6.21436C31.8343 6.28722 30.9595 6.32086 30.8031 6.37673C30.9453 6.37956 31.2367 6.36741 31.3494 6.41674C30.6362 6.72934 28.9279 7.16284 28.1144 7.38186L28.253 7.49727C28.7474 7.38038 31.9045 6.3952 32.154 6.21436Z" fill="#963739"/>
<path d="M76.6373 26.0225C76.8132 25.4233 77.017 22.9666 76.6983 22.4038C75.9654 22.578 71.207 24.2574 71.0068 24.5668C70.9997 24.5777 70.9946 24.5897 70.9885 24.6011L70.9619 24.5626C70.0071 24.887 67.9761 25.741 67.0655 26.1685C66.7798 26.2453 66.4835 26.3074 66.3013 26.5585L66.2568 26.5711C65.4283 26.8446 62.7098 28.156 62.1363 28.2299L62.126 28.2755C61.5425 28.4848 59.4873 29.3216 58.9835 29.6358L58.8269 29.7677C58.7232 29.8834 58.2312 30.3479 58.0932 30.4496C57.5568 30.8448 56.1572 31.115 55.7727 31.6197C55.6957 32.77 55.6676 33.9231 55.6883 35.0757C55.3964 35.0883 59.9619 33.2651 60.0882 33.2203C64.9905 31.4784 69.7683 29.3888 74.4411 27.1108C74.741 26.9646 76.0034 26.4385 76.2711 26.3786C75.5466 26.8215 74.7691 27.2594 74.0035 27.6302C73.4874 27.8802 73.2387 27.7845 72.8011 28.0575C71.9058 28.6164 70.7732 29.0373 69.7964 29.4626C67.3014 30.5489 64.8023 31.5727 62.2743 32.5807C61.2218 33.0005 60.1401 33.4663 59.0874 33.8971C58.9469 33.9546 58.9221 33.9984 58.8694 34.1122C58.0024 34.459 55.9199 35.3466 55.1448 35.5322L54.5436 35.5371C53.7612 35.3793 52.9424 35.163 52.1621 35.0343C52.0644 35.1033 51.9555 35.1672 51.8859 35.2616L51.8527 35.2525C51.8315 36.0378 51.845 36.5778 51.954 37.3599C52.178 37.7066 52.8494 37.7662 53.2253 37.8728C54.3457 38.1906 55.257 38.4856 56.4033 38.0582C57.1655 37.7741 57.9355 37.4958 58.6978 37.2058C61.0669 36.2993 63.4271 35.3699 65.7782 34.4178C66.7765 34.0148 67.998 33.4227 68.9997 33.101C71.5498 32.4598 72.8664 32.3935 74.8373 30.4804C75.6123 29.9118 77.0385 29.5714 77.6711 28.9464C78.0752 28.5471 77.9758 27.1851 77.9294 26.5987C77.681 26.3371 77.4927 26.2953 77.1568 26.1825L76.6373 26.0225Z" fill="#963739"/>
<path d="M76.6373 26.0225L76.4561 26.2919C76.251 26.8414 75.9115 26.8899 75.331 27.155C74.0373 27.7401 72.7401 28.3175 71.4394 28.887C67.2737 30.6867 63.0834 32.4285 58.8694 34.1121C58.0024 34.459 55.9199 35.3466 55.1448 35.5322L54.5436 35.5371C53.7612 35.3793 52.9424 35.163 52.1621 35.0343C52.0644 35.1032 51.9555 35.1671 51.8859 35.2615L51.8527 35.2525C51.8315 36.0378 51.845 36.5777 51.954 37.3599C52.178 37.7066 52.8494 37.7662 53.2253 37.8728C54.3457 38.1905 55.257 38.4855 56.4033 38.0582C57.1655 37.7741 57.9355 37.4958 58.6978 37.2058C61.0669 36.2993 63.4271 35.3699 65.7782 34.4177C66.7765 34.0147 67.998 33.4226 68.9997 33.1009C71.5498 32.4598 72.8664 32.3934 74.8373 30.4804C75.6123 29.9118 77.0385 29.5714 77.6711 28.9464C78.0752 28.5471 77.9758 27.1851 77.9294 26.5986C77.681 26.3371 77.4927 26.2953 77.1568 26.1825L76.6373 26.0225Z" fill="#BCB9BD"/>
<path d="M76.6374 26.0225L76.4562 26.2919C76.2511 26.8414 75.9115 26.8899 75.3311 27.155C74.0374 27.7401 72.7402 28.3175 71.4395 28.887C67.2738 30.6867 63.0835 32.4285 58.8695 34.1121C58.0025 34.459 55.92 35.3466 55.1449 35.5322L54.5437 35.5371C54.8111 35.7313 55.236 35.8956 55.5565 35.969C55.4509 36.1539 55.3444 36.1745 55.1254 36.2724L55.1872 36.2746C56.0614 36.3022 57.6137 35.5944 58.4746 35.2769C60.5408 34.5252 62.5868 33.7191 64.6105 32.8594C67.9113 31.4788 71.2623 30.1919 74.4794 28.6145C75.1872 28.2675 77.3418 27.3438 77.8326 26.8837L77.9294 26.5986C77.6811 26.3371 77.4928 26.2953 77.1569 26.1825L76.6374 26.0225Z" fill="#FDF4E6"/>
<path d="M71.4394 28.8867C67.2737 30.6864 63.0833 32.4283 58.8694 34.1119C58.0024 34.4587 55.9199 35.3463 55.1448 35.5319L54.5436 35.5368C54.8109 35.731 55.2359 35.8954 55.5563 35.9688C55.6774 35.891 56.3634 35.7038 56.5861 35.6037C58.1451 34.9176 60.0153 34.3581 61.5864 33.7249C64.1302 32.6996 66.851 31.6709 69.3439 30.5445C69.6732 30.1409 70.6075 29.9719 71.0104 29.6525C71.0276 29.6388 71.3378 29.0434 71.4089 28.9332L71.4394 28.8867Z" fill="#A7A2A7"/>
<path d="M56.5862 35.6045C56.0687 35.5612 55.6636 35.5356 55.1448 35.5327L54.5436 35.5376C54.811 35.7318 55.236 35.8962 55.5564 35.9696C55.6775 35.8918 56.3634 35.7045 56.5862 35.6045Z" fill="#E6D4CC"/>
<path d="M76.4561 26.2925C76.251 26.842 75.9115 26.8905 75.331 27.1555C74.0373 27.7407 72.7401 28.318 71.4394 28.8875L71.4089 28.934C71.3378 29.0442 71.0276 29.6396 71.0105 29.6533C70.6076 29.9727 69.6732 30.1417 69.344 30.5453C70.6887 30.0245 71.8646 29.5052 72.9809 28.6C73.1771 28.4408 73.3483 28.5246 73.5774 28.578C74.153 28.395 74.7622 28.1194 75.3193 27.8753C75.8781 27.6303 77.5005 26.9836 76.4561 26.2925Z" fill="#B9AFB1"/>
<path d="M74.8373 30.48C74.2063 30.6535 72.3698 31.5508 71.7139 31.8439C71.0932 32.1213 69.5352 32.78 68.9997 33.1006C71.5499 32.4594 72.8665 32.3931 74.8373 30.48Z" fill="#141429"/>
<path d="M52.1622 35.0347C52.0645 35.1036 51.9555 35.1675 51.886 35.2619C51.9318 35.4641 51.9628 35.4879 52.1796 35.5684C53.0745 35.9011 54.1434 36.2129 55.0923 36.2711L55.1254 36.2728C55.3444 36.1749 55.4509 36.1543 55.5565 35.9694C55.236 35.896 54.8111 35.7316 54.5437 35.5374C53.7612 35.3797 52.9425 35.1634 52.1622 35.0347Z" fill="#FDF4E6"/>
<path d="M66.3013 26.5586L66.2568 26.5712C65.4283 26.8448 62.7098 28.1561 62.1363 28.23L62.126 28.2756C62.1801 28.4979 62.0859 28.5857 62.2067 28.7856C62.717 28.6487 65.7234 27.4021 66.2596 27.1329C66.3528 26.9396 66.3169 26.7779 66.3013 26.5586Z" fill="#B9AFB1"/>
<path d="M70.9886 24.601L70.962 24.5625C70.0071 24.8869 67.9761 25.7409 67.0655 26.1684C67.0571 26.38 67.0609 26.4862 67.0807 26.6972L67.1602 26.7282C67.9592 26.3882 70.3784 25.4642 70.9562 25.1154C71.0514 24.9673 71.0059 24.7895 70.9886 24.601Z" fill="#B9AFB1"/>
<path d="M73.9264 24.3052C73.1199 24.6884 72.3958 24.9526 71.6345 25.3015C70.4778 25.6339 69.3839 26.1729 68.2806 26.6509C66.2895 27.5136 64.2458 28.248 62.2741 29.1521C62.0109 29.2729 61.6885 29.3797 61.4124 29.478C61.0704 29.634 60.878 29.7406 60.5566 29.9371C60.4759 30.8199 60.6167 31.3216 60.4369 32.2709C60.3435 32.4739 60.2499 32.5496 60.0901 32.6955C60.1613 32.7704 60.5676 32.7635 60.7013 32.7689C60.9435 32.8067 61.0395 32.7638 61.2694 32.697C62.2002 32.3899 63.1647 31.9361 64.0923 31.5758C65.7549 30.9355 67.4029 30.2581 69.0352 29.5441C69.7618 29.229 70.4999 28.9036 71.2202 28.5732C71.4315 28.4762 71.6106 28.2287 71.8667 28.112C72.5655 27.7935 73.3656 27.5131 74.038 27.1515L74.4731 26.946C74.5067 26.725 74.3652 26.6461 74.2249 26.4848L74.038 26.3345L73.8081 25.9972C73.7094 25.7292 73.7774 24.5434 73.9264 24.3052Z" fill="#282230"/>
<path d="M73.9264 24.3052C73.1199 24.6884 72.3958 24.9526 71.6345 25.3015C70.4778 25.6339 69.3839 26.1729 68.2806 26.6509C66.2895 27.5136 64.2458 28.248 62.2741 29.1521C62.0109 29.2729 61.6885 29.3797 61.4124 29.478L61.2571 29.7481C61.3035 29.8416 61.2682 29.8123 61.3455 29.8607C64.5686 28.6601 68.2322 27.0757 71.3966 25.705C71.3537 26.5847 71.4067 27.378 71.3448 28.2641C69.9081 28.7745 68.3694 29.5247 66.9337 30.1062C65.7873 30.5631 64.6433 31.0257 63.5017 31.4942C62.8598 31.7563 62.2568 31.9699 61.6365 32.288C61.4663 32.5589 61.2293 32.3099 61.2218 32.6212L61.2694 32.697C62.2002 32.3899 63.1647 31.9361 64.0923 31.5758C65.7549 30.9355 67.4029 30.2581 69.0352 29.5441C69.7618 29.229 70.4999 28.9036 71.2202 28.5732C71.4315 28.4762 71.6106 28.2287 71.8667 28.112C72.5655 27.7935 73.3656 27.5131 74.038 27.1515L74.4731 26.946C74.5067 26.725 74.3652 26.6461 74.2249 26.4848L74.038 26.3345L73.8081 25.9972C73.7094 25.7292 73.7774 24.5434 73.9264 24.3052Z" fill="#3E3D4A"/>
<path d="M73.9264 24.3052C73.1199 24.6884 72.3958 24.9526 71.6345 25.3015C71.7702 25.3622 71.8331 25.3586 71.9785 25.3713L72.1277 25.4907C71.6825 25.9847 71.4377 26.7998 71.7867 27.4039L72.1741 27.5471C72.4088 27.5046 72.4681 27.445 72.6541 27.3068C72.904 27.0867 72.9446 27.0236 73.132 26.7446C73.3208 26.6657 73.3982 26.6929 73.5949 26.7361C73.8486 26.6464 73.8385 26.5778 74.038 26.3345L73.8081 25.9972C73.7094 25.7292 73.7774 24.5434 73.9264 24.3052Z" fill="#E6D4CC"/>
<path d="M73.9264 24.3052C73.1199 24.6884 72.3958 24.9526 71.6345 25.3015C71.7702 25.3622 71.8331 25.3586 71.9785 25.3713L72.1277 25.4907C73.2982 24.5185 73.496 25.8156 73.132 26.7446C73.3208 26.6657 73.3982 26.6929 73.5949 26.7361C73.8486 26.6464 73.8385 26.5778 74.038 26.3345L73.8081 25.9972C73.7094 25.7292 73.7774 24.5434 73.9264 24.3052Z" fill="#3E3D4A"/>
<path d="M74.038 26.3354C73.8385 26.5787 73.8486 26.6473 73.5949 26.737C73.3982 26.6938 73.3208 26.6666 73.132 26.7455C72.9446 27.0245 72.904 27.0876 72.6541 27.3077C72.6628 27.3313 72.6715 27.3549 72.6802 27.3785C72.7041 27.4035 72.7279 27.4285 72.7518 27.4535C73.2755 27.2812 73.4769 27.0846 74.038 27.1524L74.4731 26.9469C74.5067 26.7259 74.3652 26.647 74.2249 26.4857L74.038 26.3354Z" fill="#302F3F"/>
<path d="M71.7867 27.4038C71.6445 27.5585 71.6253 27.5677 71.5612 27.7615L71.6088 27.8689C71.8526 27.9202 71.9581 27.8912 72.162 27.7257L72.1741 27.5469L71.7867 27.4038Z" fill="#302F3F"/>
<path d="M61.4125 29.479C61.0705 29.6351 60.8781 29.7417 60.5567 29.9382C60.476 30.821 60.6168 31.3226 60.4369 32.2719C60.3436 32.4749 60.2499 32.5506 60.0902 32.6965C60.1613 32.7715 60.5677 32.7646 60.7014 32.77C60.9435 32.8077 61.0396 32.7648 61.2694 32.6981L61.2219 32.6222C61.2294 32.3109 61.4664 32.56 61.6366 32.289L61.3675 32.3357L61.2998 32.288C61.2871 32.0307 61.3079 29.9911 61.3455 29.8618C61.2683 29.8134 61.3036 29.8426 61.2572 29.7492L61.4125 29.479Z" fill="#312C39"/>
<path d="M60.5566 29.937C60.0695 30.1406 59.5334 30.3412 59.059 30.545C58.9001 30.6015 58.6122 30.694 58.4699 30.7628C57.8154 31.0378 57.1557 31.3001 56.4911 31.5495C56.211 31.6508 56.0419 31.6816 55.9081 31.9694C55.7191 32.3761 55.7893 33.1907 55.8244 33.6542L55.7961 34.4867L55.8229 34.686L55.9346 34.733C56.2697 34.6899 56.6517 34.4718 56.9634 34.3183C57.3114 34.2128 58.1379 33.8364 58.5139 33.6765C59.1612 33.4015 60.1024 33.0852 60.7013 32.7688C60.5676 32.7634 60.1612 32.7703 60.0901 32.6954C60.2498 32.5494 60.3435 32.4737 60.4368 32.2708C60.6167 31.3215 60.4759 30.8198 60.5566 29.937Z" fill="#333443"/>
<path d="M60.5566 29.937C60.0695 30.1406 59.5334 30.3412 59.059 30.545C58.9 30.6015 58.6122 30.694 58.4698 30.7628C58.1599 31.4198 58.1904 31.7201 58.2791 32.4388L58.3461 32.5043C58.5627 32.8465 58.586 32.9026 58.9817 33.0388C59.3519 32.9539 59.4632 32.8274 59.7489 32.5818C59.9789 32.507 60.2174 32.3786 60.4368 32.2708C60.6167 31.3215 60.4759 30.8198 60.5566 29.937Z" fill="#FDF4E6"/>
<path d="M60.5566 29.937C60.0695 30.1406 59.5334 30.3412 59.059 30.545C58.9 30.6015 58.6122 30.694 58.4698 30.7628C58.1599 31.4198 58.1904 31.7201 58.2791 32.4388L58.3461 32.5043C58.4333 32.2818 58.4559 31.8254 58.4788 31.5673C58.6662 31.3086 58.7725 31.1571 58.9964 30.9317C60.2646 29.9962 60.2706 31.6892 59.7489 32.5818C59.9789 32.507 60.2174 32.3786 60.4368 32.2708C60.6167 31.3215 60.4759 30.8198 60.5566 29.937Z" fill="#48505D"/>
<path d="M56.4911 31.5503C56.2111 31.6516 56.042 31.6823 55.9081 31.9702C55.7191 32.3769 55.7894 33.1915 55.8245 33.655L55.9516 33.4864C56.0949 33.7697 56.1726 33.8152 56.4514 33.9707C56.5401 33.9582 56.753 33.9307 56.8344 33.8973C57.5273 33.6131 58.1614 32.1007 57.3247 31.6636C57.124 31.5588 56.8788 31.6825 56.686 31.7831L56.4911 31.5503Z" fill="#FDF4E6"/>
<path d="M56.4911 31.5503C56.2111 31.6516 56.042 31.6823 55.9081 31.9702C55.7191 32.3769 55.7894 33.1915 55.8245 33.655L55.9517 33.4864C55.9527 33.45 55.9541 33.4136 55.9558 33.3772C55.9885 32.6807 56.1728 32.2497 56.686 31.7831L56.4911 31.5503Z" fill="#48505D"/>
<path d="M60.4368 32.2715C60.2175 32.3793 59.9789 32.5077 59.7489 32.5826C59.4632 32.8281 59.3519 32.9546 58.9817 33.0395C58.6932 33.7097 57.3324 33.6424 56.9634 34.319C57.3114 34.2135 58.1379 33.8371 58.5139 33.6772C59.1612 33.4022 60.1024 33.0859 60.7013 32.7695C60.5676 32.7641 60.1612 32.771 60.0901 32.6961C60.2498 32.5502 60.3435 32.4745 60.4368 32.2715Z" fill="#3E3D4A"/>
<path d="M55.9516 33.4863L55.8244 33.655L55.7961 34.4874C55.8518 34.5495 55.8312 34.5277 55.915 34.5626C56.1769 34.4553 56.6308 34.34 56.6914 34.0565L56.4514 33.9707C56.1725 33.8152 56.0948 33.7697 55.9516 33.4863Z" fill="#302F3F"/>
<path d="M76.3788 26.1047C76.4067 25.6378 76.5298 23.615 76.3842 23.2988C76.206 23.2742 76.1721 23.3244 75.9886 23.4041C75.5393 23.6075 75.0409 23.8218 74.6033 24.0393L73.9265 24.3051C73.7774 24.5434 73.7094 25.7291 73.8081 25.9972L74.0381 26.3345L74.2249 26.4847C74.5782 26.5199 74.6826 26.5145 74.9735 26.3189L75.2238 26.0984C75.6352 25.9022 75.7705 25.7616 76.0012 25.3825C76.057 25.6393 76.0975 25.9269 75.9713 26.1658C75.8621 26.2194 75.8643 26.2158 75.7431 26.2337L75.7057 26.4255C75.9386 26.3575 76.1639 26.2211 76.3788 26.1047Z" fill="#A7A2A7"/>
<path d="M76.3788 26.1047C76.4067 25.6378 76.5298 23.615 76.3842 23.2988C76.206 23.2742 76.1721 23.3244 75.9886 23.4041C75.5393 23.6075 75.0409 23.8218 74.6033 24.0393L74.9153 24.1385C76.0758 24.3458 75.6475 25.4149 75.2238 26.0984C75.6352 25.9022 75.7705 25.7616 76.0012 25.3825C76.057 25.6393 76.0975 25.9269 75.9713 26.1658C75.8621 26.2194 75.8643 26.2158 75.7431 26.2337L75.7057 26.4255C75.9386 26.3575 76.1639 26.2211 76.3788 26.1047Z" fill="#3E3D4A"/>
<path d="M76.3788 26.1047C76.4067 25.6378 76.5298 23.615 76.3842 23.2988C76.206 23.2742 76.1721 23.3244 75.9886 23.4041C76.1849 23.6403 75.9871 25.0242 76.0012 25.3825C76.057 25.6393 76.0975 25.9269 75.9713 26.1658C75.8621 26.2194 75.8643 26.2158 75.7431 26.2337L75.7057 26.4255C75.9386 26.3575 76.1639 26.2211 76.3788 26.1047Z" fill="#282230"/>
<path d="M74.6032 24.04L73.9264 24.3059C73.7774 24.5442 73.7094 25.7299 73.8081 25.998C73.9001 25.216 74.1264 24.4744 74.9152 24.1393L74.6032 24.04Z" fill="#48505D"/>
<path d="M75.273 24.5027C74.4917 24.4773 74.4424 24.7387 73.9905 25.3217C73.9801 25.6473 73.9854 25.8543 74.0654 26.1667L74.7594 26.1976C74.931 26.0163 75.1137 25.7998 75.281 25.6106C75.3266 25.2306 75.3502 24.878 75.273 24.5027Z" fill="#E8DCD2"/>
<path d="M76.0011 25.3823C75.7704 25.7615 75.6351 25.9021 75.2237 26.0983L74.9734 26.3187C74.6826 26.5144 74.5781 26.5197 74.2249 26.4846C74.3651 26.6459 74.5067 26.7248 74.473 26.9458C74.8595 26.8578 75.365 26.6256 75.7057 26.4253L75.743 26.2336C75.8642 26.2157 75.862 26.2192 75.9712 26.1657C76.0975 25.9267 76.0569 25.6391 76.0011 25.3823Z" fill="#302F3F"/>
<path d="M74.9734 26.319C74.6825 26.5147 74.5781 26.5201 74.2248 26.4849C74.3651 26.6463 74.5066 26.7251 74.473 26.9461C74.8595 26.8581 75.365 26.6259 75.7056 26.4256L75.743 26.2339C75.5136 26.3314 75.3348 26.4334 75.0898 26.4292C75.0555 26.3989 74.9976 26.3531 74.9734 26.319Z" fill="#3E3D4A"/>
<path d="M54.3506 12.6084C54.3193 12.8261 54.3594 12.8238 54.234 12.9195C54.0418 12.7917 53.2966 11.9052 53.0985 11.6841C52.5256 11.0451 50.0411 8.2955 49.4476 8.12451C49.1029 8.54208 44.7746 9.69129 44.2862 10.1906C44.0943 10.2729 43.8995 10.3619 43.7018 10.4274C43.1822 10.6181 41.7126 11.1336 41.2867 11.3698L41.3469 11.5067C41.2307 11.5588 41.2254 11.543 41.154 11.6319L41.2112 11.6843C40.5116 12.0101 39.1903 12.4656 38.4205 12.7553C37.2236 13.2055 35.6745 13.9116 34.4935 14.2776C34.9649 15.4672 35.4079 16.7098 35.8945 17.88C36.419 19.1412 37.0661 20.4045 37.604 21.6709L37.7256 22.0088C37.8742 21.9198 38.4564 21.6842 38.6723 21.5818L38.7921 21.5388C40.3293 20.8716 42.1792 20.1882 43.7526 19.5661C45.0642 19.0467 46.379 18.5352 47.6967 18.0314C48.0239 17.8869 48.3199 17.7754 48.6535 17.6522C49.8271 17.145 51.0975 16.7437 52.3234 16.2078C52.7656 16.1187 55.0005 15.1544 55.5639 14.93C55.8663 14.9127 56.1442 14.9221 56.3559 14.6871C55.7859 14.5098 55.5782 14.4965 55.1616 14.0584C55.6744 13.833 56.0325 13.7792 56.5019 13.4678C56.5118 12.9639 56.5197 12.5174 56.4962 12.0138C55.802 11.6027 54.6946 11.8663 54.3506 12.6084Z" fill="#5F6D79"/>
<path d="M54.3506 12.6084C54.3193 12.8261 54.3594 12.8238 54.234 12.9195C54.0418 12.7917 53.2966 11.9052 53.0985 11.6841C52.5256 11.0451 50.0411 8.2955 49.4476 8.12451C49.1029 8.54208 44.7746 9.69129 44.2862 10.1906C44.0943 10.2729 43.8995 10.3619 43.7018 10.4274C43.1822 10.6181 41.7126 11.1336 41.2867 11.3698L41.3469 11.5067C41.2307 11.5588 41.2254 11.543 41.154 11.6319L41.2112 11.6843C42.0406 11.4342 43.2044 10.938 44.0763 10.6387C45.1784 10.2259 46.2826 9.81868 47.3889 9.41704C47.947 9.21236 48.7446 8.9462 49.2655 8.69555C49.3569 8.68599 49.3972 8.65377 49.4556 8.71183C51.2689 10.5121 53.1115 12.3911 54.822 14.2844C55.0888 14.538 55.2743 14.7045 55.5639 14.93C55.8663 14.9127 56.1442 14.9221 56.3559 14.6871C55.7859 14.5098 55.5782 14.4965 55.1616 14.0584C55.6744 13.833 56.0325 13.7792 56.5019 13.4678C56.5118 12.9639 56.5197 12.5174 56.4962 12.0138C55.802 11.6027 54.6946 11.8663 54.3506 12.6084Z" fill="#CF3F3F"/>
<path d="M56.4962 12.0132C55.802 11.602 54.6946 11.8656 54.3506 12.6077C54.6142 12.6945 54.8346 12.7781 55.1179 12.7125C55.0706 12.9491 55.1023 12.9872 54.9538 13.1478L54.6639 13.2266L54.6136 13.3191C54.749 13.6131 55.1086 13.8781 55.1616 14.0577C55.6744 13.8324 56.0325 13.7786 56.5019 13.4671C56.5118 12.9633 56.5197 12.5168 56.4962 12.0132Z" fill="#B73A3A"/>
<path d="M56.4961 12.0132C55.8019 11.602 54.6944 11.8656 54.3505 12.6077C54.614 12.6945 54.8345 12.7781 55.1178 12.7125C55.3234 12.5511 56.1914 12.1701 56.4961 12.0132Z" fill="#FC6560"/>
<path d="M55.5637 14.9308C55.2741 14.7053 55.0886 14.5388 54.8218 14.2852C54.8439 14.5046 54.8581 14.5992 54.913 14.8124L54.8563 14.8818L54.7165 14.8388C54.1302 15.1859 52.0035 15.9434 51.2908 16.2252L41.6735 20.0207C40.6855 20.4136 38.4162 21.2011 37.6039 21.6717L37.7254 22.0096C37.8741 21.9206 38.4563 21.685 38.6722 21.5826L38.7919 21.5396C40.3292 20.8724 42.1791 20.189 43.7524 19.5669C45.0641 19.0475 46.3788 18.5359 47.6966 18.0322C48.0237 17.8877 48.3197 17.7762 48.6534 17.653C49.8269 17.1458 51.0974 16.7445 52.3232 16.2086C52.7654 16.1195 55.0004 15.1552 55.5637 14.9308Z" fill="#574C55"/>
<path d="M54.8219 14.2841C53.1114 12.3908 51.2689 10.5118 49.4555 8.71156C49.3971 8.65351 49.3568 8.68572 49.2654 8.69528C51.3928 10.676 52.8705 12.6151 54.7165 14.8378L54.8563 14.8807L54.9131 14.8113C54.8582 14.5981 54.8439 14.5035 54.8219 14.2841Z" fill="#3E3D4A"/>
<path d="M22.3117 10.5112C21.4989 10.7388 19.9716 11.1809 19.252 11.6097L19.2177 11.52L18.8272 11.6759C18.6131 11.7164 18.399 11.7584 18.186 11.8018C17.7796 12.0372 16.975 12.3542 16.8558 12.7253C16.6735 12.848 16.5261 12.8932 16.322 12.9714C16.1108 13.2083 16.0536 13.222 15.902 13.5167C15.6601 13.6354 15.3398 13.8075 15.0891 13.874C14.7417 14.029 14.534 14.0923 14.1665 14.2003C14.7304 15.0221 16.9042 15.8335 17.8032 16.0344C18.6432 16.3312 22.2893 17.5279 22.8332 17.8732L23.0007 17.9166C24.948 18.6529 27.0155 19.276 28.9639 20.0354C29.5161 20.2506 31.5329 20.8672 31.875 21.1034C31.9305 21.2855 31.8951 21.3891 31.8627 21.5775C31.845 21.8676 31.7765 22.2548 31.9175 22.4891C32.0721 22.5888 32.0791 22.5909 32.2579 22.6264C32.7888 22.6458 33.6424 22.3318 33.8447 22.4287C34.0706 22.3801 34.165 22.4024 34.3886 22.4306L34.5496 22.548C34.7531 22.693 34.9537 22.8054 35.0262 23.0534C35.202 23.1136 35.3548 23.1858 35.5359 23.1719L35.6226 23.3604C35.894 23.4969 35.9418 23.5258 36.2432 23.5627L36.3848 23.308L36.419 23.2621L36.4626 23.2595C36.4668 23.0484 36.4662 22.8372 36.4609 22.6262C36.5936 22.3753 36.5895 22.4248 36.9145 22.305C37.0136 22.2685 37.1734 22.227 37.2796 22.1961C37.4867 22.1362 37.5457 22.1247 37.7256 22.009L37.6041 21.671C37.0661 20.4046 36.419 19.1413 35.8946 17.8802C35.4079 16.71 34.9649 15.4674 34.4936 14.2777C34.2641 14.1741 34.2411 14.1431 34.0747 13.9514C34.0488 13.9632 33.8559 14.0947 33.8199 14.1185C33.6689 14.0828 33.3179 13.9182 33.1362 13.8509L31.4816 13.2534C29.8069 12.6705 28.1281 12.1003 26.4445 11.5427C25.5591 11.2495 24.597 10.9408 23.7015 10.691C23.3134 10.5828 22.8273 10.6633 22.3117 10.5112Z" fill="#515D68"/>
<path d="M22.3117 10.5112C21.4989 10.7388 19.9716 11.1809 19.252 11.6097L19.2177 11.52L18.8272 11.6759C18.6131 11.7164 18.399 11.7584 18.186 11.8018C17.7796 12.0372 16.975 12.3542 16.8558 12.7253C16.6735 12.848 16.5261 12.8932 16.322 12.9714C16.1108 13.2083 16.0536 13.222 15.902 13.5167C15.6601 13.6354 15.3398 13.8075 15.0891 13.874C14.7417 14.029 14.534 14.0923 14.1665 14.2003C14.7304 15.0221 16.9042 15.8335 17.8032 16.0344C17.8669 15.8152 17.9754 15.6953 18.1241 15.5279C18.2244 15.6118 18.3152 15.6887 18.4202 15.7659C18.5193 15.9105 18.6809 15.9196 18.8839 15.9867C19.0821 15.494 19.3157 15.3058 19.7138 14.95C20.1173 14.5719 20.8435 13.8675 21.2965 13.5797C21.6481 13.2979 23.3588 11.9581 23.6702 11.8829L23.6903 11.8464C24.3486 11.9743 26.0741 12.3855 26.6168 12.6699C28.4307 13.1741 31.1206 14.1121 32.9298 14.7654L33.4288 14.8965C33.7238 16.0514 34.7006 17.9079 35.0563 19.0763C35.0327 19.2363 35.0103 19.4005 34.9814 19.5594C35.1071 20.3577 35.7087 21.1425 35.9329 21.9118C35.9075 21.9523 35.8822 21.9927 35.8568 22.0332L36.2161 22.1289C36.2969 22.4196 36.455 22.9917 36.2709 23.2581L36.419 23.2621L36.4626 23.2595C36.4668 23.0484 36.4662 22.8372 36.4609 22.6262C36.5936 22.3753 36.5895 22.4248 36.9145 22.305C37.0136 22.2685 37.1734 22.227 37.2796 22.1961C37.4867 22.1362 37.5457 22.1247 37.7256 22.009L37.6041 21.671C37.0661 20.4046 36.419 19.1413 35.8946 17.8802C35.4079 16.71 34.9649 15.4674 34.4936 14.2777C34.2641 14.1741 34.2411 14.1431 34.0747 13.9514C34.0488 13.9632 33.8559 14.0947 33.8199 14.1185C33.6689 14.0828 33.3179 13.9182 33.1362 13.8509L31.4816 13.2534C29.8069 12.6705 28.1281 12.1003 26.4445 11.5427C25.5591 11.2495 24.597 10.9408 23.7015 10.691C23.3134 10.5828 22.8273 10.6633 22.3117 10.5112Z" fill="#EC504D"/>
<path d="M23.3876 11.4224C22.248 11.9192 19.1717 14.5906 18.124 15.5279C18.2243 15.6118 18.3152 15.6887 18.4202 15.7659C18.5193 15.9105 18.6809 15.9196 18.8838 15.9867C19.082 15.494 19.3156 15.3058 19.7138 14.95C20.1173 14.5719 20.8434 13.8675 21.2965 13.5797C21.6481 13.2979 23.3587 11.9581 23.6702 11.8829L23.6903 11.8464C24.3486 11.9743 26.074 12.3855 26.6167 12.6699C28.4306 13.1741 31.1205 14.1121 32.9297 14.7654L33.4288 14.8966C33.3987 14.7483 33.3733 14.5495 33.2241 14.4769C32.6879 14.2159 32.0891 14.0357 31.5193 13.8496C29.3402 13.1373 27.1694 12.3787 24.9668 11.7418C24.4754 11.5997 23.8944 11.4499 23.3876 11.4224Z" fill="#B73A3A"/>
<path d="M23.6902 11.8455C22.7871 11.8197 20.49 13.8818 19.7456 14.5591L19.7137 14.9491C20.1172 14.5709 20.8434 13.8666 21.2964 13.5788C21.648 13.297 23.3587 11.9571 23.6701 11.882L23.6902 11.8455Z" fill="#3E3D4A"/>
<path d="M19.7456 14.5601C19.3114 14.9576 18.8625 15.3807 18.4201 15.766C18.5192 15.9106 18.6809 15.9197 18.8838 15.9868C19.082 15.4941 19.3156 15.3059 19.7138 14.9501L19.7456 14.5601Z" fill="#2F2A3C"/>
<path d="M35.0562 19.0767C35.0326 19.2367 35.0102 19.4009 34.9813 19.5597C35.107 20.358 35.7087 21.1428 35.9328 21.9121C35.9075 21.9526 35.8821 21.9931 35.8567 22.0336L36.216 22.1293C36.2272 21.8163 35.2362 19.4989 35.0562 19.0767Z" fill="#574C55"/>
<path d="M19.2177 11.5205L18.8272 11.6765C18.6131 11.717 18.399 11.7589 18.186 11.8023C17.7796 12.0377 16.975 12.3548 16.8558 12.7258L17.5289 12.5116C17.7967 12.4676 18.563 12.0697 18.806 11.9125L19.252 11.6103L19.2177 11.5205Z" fill="#FD8578"/>
<path d="M19.2177 11.5205L18.8272 11.6765L18.5718 11.895C18.6662 11.9415 18.7004 11.9248 18.806 11.9125L19.252 11.6103L19.2177 11.5205Z" fill="#B26C71"/>
<path d="M17.5287 12.5107L16.8556 12.725C16.6733 12.8477 16.5259 12.8929 16.3218 12.9711C16.1106 13.208 16.0534 13.2217 15.9018 13.5164C16.2834 13.3891 17.2603 12.8127 17.5287 12.5107Z" fill="#EC504D"/>
<path d="M21.2964 13.5796C20.8433 13.8674 20.1172 14.5717 19.7137 14.9499C19.3155 15.3057 19.0819 15.4939 18.8837 15.9866C20.2133 16.4466 21.6232 16.984 22.941 17.4191L23.1127 17.3627C23.3746 17.068 24.0152 15.3571 24.1998 14.897C23.3775 14.6222 22.5057 14.3865 21.7246 14.0111C21.438 13.8734 21.3866 13.8414 21.2964 13.5796Z" fill="#48505D"/>
<path d="M23.6702 11.8823C23.3588 11.9574 21.6481 13.2973 21.2965 13.5791C21.3868 13.8409 21.4381 13.8729 21.7248 14.0106C22.5058 14.386 23.3777 14.6217 24.2 14.8965C24.3356 14.3546 25.3414 12.7882 25.1756 12.3167C24.7273 12.0841 24.1593 12.0694 23.6702 11.8823Z" fill="#626B74"/>
<path d="M18.124 15.5278C17.9754 15.6952 17.8668 15.8151 17.8031 16.0343C18.6431 16.331 22.2893 17.5278 22.8331 17.8731L23.0007 17.9165C24.9479 18.6528 27.0155 19.2759 28.9639 20.0353C29.516 20.2505 31.5328 20.8671 31.875 21.1033C31.9304 21.2853 31.895 21.389 31.8626 21.5774C31.8449 21.8675 31.7765 22.2546 31.9175 22.489C32.072 22.5887 32.0791 22.5908 32.2578 22.6263L32.2395 22.5611C32.39 22.0602 32.3575 21.4777 32.5345 21.0019C32.0921 20.9065 29.7296 20.1719 29.4293 19.9299L29.48 19.8111C29.319 19.7314 29.0866 19.6446 28.9131 19.5836C27.2066 18.9841 25.4959 18.3169 23.7569 17.8178C23.5416 17.76 23.1605 17.7313 23.0313 17.6124C23.0207 17.5178 23.0007 17.4924 22.9411 17.4191C21.6233 16.984 20.2134 16.4466 18.8838 15.9866C18.6809 15.9195 18.5193 15.9104 18.4202 15.7658C18.3152 15.6886 18.2243 15.6117 18.124 15.5278Z" fill="#CF3F3F"/>
<path d="M34.6805 21.6128C34.5702 21.2636 34.6256 20.9085 34.4422 20.4771C34.0068 20.7109 33.1108 20.7362 32.5345 21.0019C32.3575 21.4778 32.3899 22.0602 32.2395 22.5611L32.2578 22.6263C32.7887 22.6457 33.6423 22.3317 33.8446 22.4286C34.0705 22.38 34.1649 22.4023 34.3885 22.4305L34.5495 22.5479C34.753 22.6929 34.9536 22.8053 35.0262 23.0533C35.2019 23.1135 35.3547 23.1857 35.5358 23.1717L35.6225 23.3603C35.8939 23.4968 35.9417 23.5256 36.2431 23.5626L36.3847 23.3079L36.4189 23.262L36.2708 23.258C36.4549 22.9916 36.2968 22.4195 36.216 22.1288L35.8567 22.0331C35.4768 21.8851 35.0728 21.7155 34.6805 21.6128Z" fill="#AD4041"/>
<path d="M34.6805 21.6123C34.8191 21.9305 35.0226 21.8947 35.2892 22.1816C35.4827 22.0755 35.5122 22.0542 35.7081 22.2205C35.6792 22.6358 35.6697 22.7788 35.5358 23.1712L35.6225 23.3598C35.8939 23.4963 35.9417 23.5251 36.2431 23.5621L36.3847 23.3074L36.4189 23.2615L36.2708 23.2575C36.4549 22.9911 36.2968 22.419 36.216 22.1283L35.8567 22.0326C35.4768 21.8846 35.0728 21.715 34.6805 21.6123Z" fill="#FC6560"/>
<path d="M36.2708 23.2577C35.5128 22.9844 35.8726 22.8765 35.7081 22.2207C35.6792 22.636 35.6697 22.7791 35.5358 23.1715L35.6225 23.3601C35.8939 23.4965 35.9417 23.5254 36.2431 23.5623L36.3847 23.3076L36.4189 23.2618L36.2708 23.2577Z" fill="#CF3F3F"/>
<path d="M35.2892 22.1818C34.9483 22.191 34.8303 22.1236 34.5808 21.9229C34.6522 22.1107 34.7436 22.2672 34.6881 22.447L34.5495 22.5475C34.753 22.6925 34.9536 22.8049 35.0262 23.0529C35.2019 23.1131 35.3547 23.1853 35.5358 23.1714C35.6697 22.7789 35.6792 22.6359 35.7081 22.2206C35.5122 22.0543 35.4827 22.0757 35.2892 22.1818Z" fill="#963739"/>
<path d="M34.5807 21.9229C34.3701 21.9611 34.2999 21.9788 34.0994 22.0542L34.0504 22.1528C34.1 22.2804 34.2775 22.3427 34.3884 22.4301L34.5495 22.5475L34.6881 22.447C34.7435 22.2672 34.6521 22.1107 34.5807 21.9229Z" fill="#7E2025"/>
<path d="M23.6902 11.8467L23.6702 11.8833C24.1592 12.0704 24.7273 12.085 25.1756 12.3176C25.3414 12.7891 24.3356 14.3556 24.1999 14.8974C24.0153 15.3576 23.3747 17.0684 23.1127 17.3632L22.9411 17.4196C23.0007 17.4928 23.0207 17.5182 23.0313 17.6128C23.1605 17.7317 23.5416 17.7604 23.7569 17.8182C24.1049 17.6599 25.9926 13.2082 26.1265 12.5823C26.2846 12.6235 26.4545 12.645 26.6167 12.6702C26.074 12.3859 24.3486 11.9746 23.6902 11.8467Z" fill="#574C55"/>
<path d="M26.1264 12.5817L26.0426 12.5342C25.937 12.6691 23.7586 17.6878 23.7568 17.8176C24.1048 17.6593 25.9925 13.2076 26.1264 12.5817Z" fill="#282230"/>
<path d="M33.4287 14.8963L32.9297 14.7651C33.1621 15.1128 33.9661 17.3123 34.1731 17.8572C34.3649 18.2225 34.6981 19.0378 34.8344 19.4332L34.9813 19.5591C35.0102 19.4003 35.0326 19.2361 35.0562 19.0761C34.7005 17.9076 33.7237 16.0512 33.4287 14.8963Z" fill="#574C55"/>
<path d="M32.0649 20.703L29.48 19.811L29.4292 19.9299C29.7295 20.1719 32.092 20.9065 32.5344 21.0018C33.1108 20.7362 34.0068 20.7108 34.4421 20.477C34.2463 20.3323 34.0133 20.2629 33.7826 20.176C33.0683 20.3083 32.712 20.411 32.0649 20.703Z" fill="#EC504D"/>
<path d="M34.1731 17.8569L34.1106 17.9359C34.2345 18.2616 34.517 19.2723 34.6987 19.4238L34.8344 19.4329C34.6981 19.0375 34.3649 18.2222 34.1731 17.8569Z" fill="#626B74"/>
<path d="M15.4447 21.8269C15.2718 21.6681 15.0724 21.4446 14.9149 21.2656C13.7829 19.9828 12.0398 18.6252 10.2318 18.7497C10.4459 18.8216 10.6553 18.8939 10.873 18.9554C11.1278 19.0458 11.3679 19.0931 11.6139 19.1723C11.2959 19.4668 11.0205 19.2461 10.7102 19.5588C9.68141 19.9104 9.25138 20.4375 8.75941 21.3965C8.59837 22.0265 8.48747 22.3797 8.46919 23.0361C8.54292 25.1926 9.06261 26.7603 10.683 28.3028C12.2274 29.7726 13.803 29.7418 15.6906 28.9574C16.3967 28.6638 17.1665 28.4358 17.7098 27.8441C17.885 27.6549 18.052 27.4052 18.2219 27.2004C20.0104 27.503 22.5015 28.7774 24.2228 29.162C24.2535 29.3856 24.2553 29.4525 24.3609 29.6572L24.9154 30.2373C25.743 31.2344 26.6956 31.2682 27.8206 31.8003C28.3975 32.0472 28.7738 32.1348 29.3903 32.2681C30.1211 32.5585 30.8862 32.8214 31.6289 33.0865C31.8277 33.174 32.0377 33.2731 32.243 33.3406C32.7945 33.5648 33.7584 33.9113 34.2604 34.162C34.5436 34.3019 34.8527 34.3522 35.1624 34.4178C36.0849 34.7472 36.7356 34.9075 37.3798 33.9662L37.4712 33.7823C37.8759 33.7379 38.6917 34.1202 39.0969 34.2502L39.114 34.1749C39.2415 34.1915 39.2886 34.2047 39.4096 34.2373C39.6137 33.983 39.4886 32.7601 39.4544 32.3925C39.3748 32.337 39.2945 32.286 39.2131 32.2332L39.2993 32.1702C38.3684 31.7639 37.3231 31.5212 36.4383 31.0885C35.396 30.8044 33.8369 30.1927 32.7709 29.8299C31.3287 29.3473 29.8917 28.8491 28.4606 28.3352C28.0382 28.187 26.8596 27.8122 26.5258 27.6053C25.5749 27.4115 24.1833 26.7963 23.2247 26.5021C21.4669 25.9625 19.6358 25.3685 17.9204 24.7075C17.8608 24.5753 17.8697 24.5352 17.8679 24.393C17.862 24.2688 17.8703 24.3145 17.816 24.2117C17.2527 23.1418 16.3472 20.8966 15.5202 20.093C15.6782 20.6954 16.126 21.0373 16.2428 21.5703C16.2605 21.6518 16.2038 21.6749 16.1283 21.7525C15.8888 21.8524 15.7042 21.8306 15.4447 21.8269Z" fill="#962E31"/>
<path d="M13.6638 20.3499C13.1034 19.8448 12.3301 19.3904 11.614 19.1719C11.296 19.4664 11.0205 19.2457 10.7103 19.5583C9.68148 19.9099 9.25145 20.437 8.75948 21.3961C8.59844 22.0261 8.48754 22.3793 8.46926 23.0357C8.54299 25.1922 9.06268 26.7599 10.6831 28.3024C12.2274 29.7722 13.803 29.7414 15.6907 28.957C16.3968 28.6634 17.1666 28.4354 17.7099 27.8437C17.8851 27.6545 18.052 27.4048 18.2219 27.2C18.0043 27.1184 17.5778 26.9792 17.4444 26.8147C17.0522 26.3287 16.8286 25.4752 16.6322 24.8678C16.1839 23.4808 14.9185 21.1361 13.6638 20.3499Z" fill="#3E3D4A"/>
<path d="M13.6638 20.3499C13.1034 19.8448 12.33 19.3904 11.6139 19.1719C11.2959 19.4664 11.0205 19.2457 10.7102 19.5583C11.3549 19.5298 11.4009 19.5074 12.0239 19.6235C12.5943 19.7299 13.4018 20.3619 13.6638 20.3499Z" fill="#282230"/>
<path d="M13.1789 21.7497C12.1867 20.8781 11.0323 20.7018 10.049 21.756C9.22664 22.6371 9.3576 25.0998 10.1127 25.9394C11.4069 28.7634 15.0436 28.7676 14.9102 25.1945C14.8595 23.8287 14.1693 22.6652 13.1789 21.7497Z" fill="#C3BAB8"/>
<path d="M13.1789 21.7495C13.255 22.1247 13.3335 22.1896 13.5606 22.4849C14.5628 23.7875 15.2848 25.743 13.9605 27.0931C11.5561 27.9202 11.752 26.1776 11.0288 26.0546L10.9981 26.2177C10.7922 26.2018 10.3103 26.0667 10.1852 25.9093L10.1127 25.9392C11.4069 28.7633 15.0436 28.7675 14.9102 25.1944C14.8595 23.8285 14.1693 22.665 13.1789 21.7495Z" fill="#F0E6DE"/>
<path d="M12.4676 22.4518C10.3546 22.1596 10.3575 25.4779 12.4505 26.257C14.6844 26.4207 14.3759 23.3863 12.4676 22.4518Z" fill="#3E3D4A"/>
<path d="M37.4714 33.7826C37.3115 33.3675 37.3794 32.9311 37.0691 32.5617C36.9753 32.4498 36.872 32.3648 36.7411 32.3009C36.2285 32.0512 32.511 30.6407 32.0538 30.6091C31.6338 30.5801 31.3182 30.3758 30.9342 30.2257C29.9072 29.8248 26.9041 28.4339 26.0352 28.4588C25.8187 28.465 25.591 28.4962 25.4494 28.6586L25.4783 28.8609C24.8306 28.6459 24.6029 28.5126 24.223 29.1623C24.2537 29.3859 24.2555 29.4528 24.361 29.6575L24.9155 30.2376C25.7432 31.2347 26.6958 31.2685 27.8208 31.8005C28.3977 32.0475 28.774 32.1351 29.3905 32.2683C30.1213 32.5587 30.8864 32.8217 31.6291 33.0867C31.8279 33.1742 32.0379 33.2734 32.2432 33.3409C32.7947 33.5651 33.7586 33.9116 34.2606 34.1623C34.5437 34.3022 34.8529 34.3525 35.1625 34.4181C36.0851 34.7474 36.7358 34.9077 37.3799 33.9665L37.4714 33.7826Z" fill="#6F6772"/>
<path d="M30.4763 30.384C29.7837 30.158 28.9602 29.7983 28.2748 29.519C28.0459 29.8181 27.9574 29.9586 27.7775 30.29L27.7061 30.5201C27.5062 32.1514 28.7998 31.592 29.3903 32.2681C30.1211 32.5585 30.8862 32.8214 31.6289 33.0865C31.2909 32.6531 31.1818 32.3291 31.0927 31.7968L31.1411 31.4175L31.1918 31.3991C31.2974 31.2282 31.3222 31.1256 31.3835 30.9376L31.1824 30.8473C31.1175 30.7053 31.062 30.6 30.9865 30.4632C30.8125 30.3561 30.6839 30.3813 30.4763 30.384Z" fill="#FDF4E6"/>
<path d="M27.7061 30.52C27.5062 32.1513 28.7998 31.5919 29.3903 32.268C30.1211 32.5584 30.8862 32.8213 31.6289 33.0864C31.2909 32.6531 31.1818 32.329 31.0927 31.7967L31.1411 31.4175L30.993 31.4277C30.3984 32.3495 30.2781 31.6833 29.7124 31.9434C28.926 31.7914 27.9604 31.3316 27.7061 30.52Z" fill="#A7A2A7"/>
<path d="M27.7775 30.2905L27.7062 30.5206C27.9604 31.3322 28.9261 31.792 29.7124 31.944C30.2781 31.6839 30.3984 32.3501 30.993 31.4282L31.1411 31.418L31.1918 31.3996C31.2974 31.2287 31.3222 31.1261 31.3835 30.9381L31.1824 30.8478C31.1175 30.7057 31.0621 30.6005 30.9865 30.4637C30.8125 30.3566 30.6839 30.3818 30.4763 30.3845C30.5925 30.4798 30.8762 30.6445 31.0155 30.7306C30.8515 30.9964 30.6957 31.2961 30.5459 31.5721C29.726 31.2284 28.8848 31.0193 28.0819 30.661C27.8471 30.556 27.8407 30.4881 27.7775 30.2905Z" fill="#E6D4CC"/>
<path d="M34.2381 32.0726C34.2717 31.992 34.3012 31.9076 34.3313 31.8255C34.1284 31.615 32.006 30.8362 31.5913 30.805C31.4839 30.7969 31.4698 30.85 31.3836 30.9367C31.3223 31.1247 31.2975 31.2273 31.1919 31.3982L31.1412 31.4166L31.0928 31.7959C31.1819 32.3282 31.291 32.6522 31.629 33.0856C31.8278 33.1731 32.0378 33.2722 32.2431 33.3397C32.7946 33.5639 33.7585 33.9104 34.2605 34.1611C34.5437 34.301 34.8528 34.3513 35.1625 34.4169C34.5679 34.0819 34.3927 34.2023 34.1573 33.4596C34.1172 33.1478 34.1095 33.0834 34.1496 32.7736L34.398 32.1397L34.2381 32.0726Z" fill="#BCB9BD"/>
<path d="M34.238 32.0726C34.2717 31.992 34.3012 31.9076 34.3312 31.8255C34.1283 31.615 32.0059 30.8362 31.5912 30.805C31.4838 30.7969 31.4697 30.85 31.3836 30.9367C31.3222 31.1247 31.2974 31.2273 31.1918 31.3982L31.1411 31.4166L31.0927 31.7959C31.8991 32.0169 32.689 32.5854 33.4694 32.6463C33.7437 32.2445 33.7183 32.1017 34.238 32.0726Z" fill="#FDF4E6"/>
<path d="M34.2381 32.0737C33.7184 32.1029 33.7438 32.2456 33.4695 32.6474L33.6606 32.5936L33.7196 32.6553C33.6028 32.9442 33.4494 33.1424 33.2719 33.3986C32.9315 33.3144 32.5705 33.1903 32.2431 33.3409C32.7946 33.565 33.7585 33.9116 34.2605 34.1623C34.5437 34.3022 34.8528 34.3524 35.1625 34.4181C34.5679 34.083 34.3927 34.2034 34.1573 33.4608C34.1172 33.149 34.1095 33.0845 34.1496 32.7748L34.398 32.1409L34.2381 32.0737Z" fill="#A7A2A7"/>
<path d="M34.2381 32.0737C33.765 32.9427 33.7668 33.296 34.2605 34.1623C34.5437 34.3022 34.8528 34.3524 35.1625 34.4181C34.5679 34.083 34.3927 34.2034 34.1573 33.4608C34.1172 33.149 34.1095 33.0845 34.1496 32.7748L34.398 32.1409L34.2381 32.0737Z" fill="#574C55"/>
<path d="M28.0247 29.3404C27.4325 29.208 25.7513 28.5718 25.4493 28.6579L25.4782 28.8603C24.8305 28.6452 24.6028 28.5119 24.2229 29.1616C24.2535 29.3852 24.2553 29.4521 24.3609 29.6568L24.9154 30.2369C25.743 31.234 26.6957 31.2678 27.8206 31.7999C27.5386 31.2792 27.4673 31.1199 27.3882 30.5349C27.4979 30.0683 27.731 29.7094 28.0247 29.3404Z" fill="#FDF4E6"/>
<path d="M25.1225 29.7812C25.0564 30.0335 25.0883 30.0846 24.9155 30.2375C25.7431 31.2346 26.6958 31.2684 27.8207 31.8005C27.5387 31.2798 27.4673 31.1205 27.3883 30.5356L27.3659 30.5539C27.1411 30.5905 25.3213 29.9178 25.1225 29.7812Z" fill="#BCB9BD"/>
<path d="M25.4782 28.8603C24.8305 28.6453 24.6028 28.512 24.2229 29.1617C24.2536 29.3853 24.2554 29.4522 24.361 29.6569C24.6718 29.453 24.6447 29.2632 24.6659 28.9209C24.8458 28.923 25.073 29.01 25.2452 29.0676C25.4263 29.0165 25.3614 29.0584 25.4782 28.8603Z" fill="#E6D4CC"/>
<path d="M24.666 28.9214C24.6447 29.2637 24.6719 29.4535 24.361 29.6574L24.9155 30.2375C25.0883 30.0846 25.0565 30.0335 25.1226 29.7812C24.9922 29.3575 24.7197 29.4203 24.666 28.9214Z" fill="#B9AFB1"/>
<path d="M36.1488 32.5107C35.7654 32.3187 35.1312 31.9768 34.7 31.9474C34.5608 31.9379 34.5071 32.0349 34.398 32.14L34.1497 32.7739C34.3142 33.0166 35.218 33.3731 35.5271 33.4747C35.7801 33.1982 35.8078 32.8576 36.1488 32.5107Z" fill="#FDF4E6"/>
<path d="M36.2355 33.5513C35.4173 33.4859 35.8532 33.6889 35.5217 34.0134C35.0469 34.0634 34.6286 33.6851 34.1909 33.4763L34.1573 33.4604C34.3927 34.2031 34.5679 34.0827 35.1625 34.4177C36.0851 34.7471 36.7357 34.9074 37.3799 33.9661C36.9445 33.8804 37.0389 34.2204 36.3405 34.0517C36.2148 33.825 36.2025 33.8135 36.2355 33.5513Z" fill="#A7A2A7"/>
<path d="M36.3404 34.0518C36.7026 34.0059 37.319 33.8619 37.0996 33.3813C36.9303 33.2259 36.8117 33.2325 36.587 33.2056L36.3893 33.3651L36.2354 33.5513C36.2023 33.8136 36.2147 33.825 36.3404 34.0518Z" fill="#282230"/>
<path d="M36.5871 33.2051C36.4986 33.032 36.4815 33.0175 36.3057 32.9341C36.0285 32.9548 35.9123 33.1091 35.999 33.3843C36.1582 33.4587 36.222 33.4467 36.3895 33.3646L36.5871 33.2051Z" fill="#B9AFB1"/>
<path d="M17.9205 24.7065L17.8285 24.786C17.9347 24.9269 30.3902 29.2362 31.6379 29.7018C32.7946 30.1355 33.9573 30.5539 35.1253 30.957C35.409 31.0559 36.1381 31.349 36.3871 31.3811C36.9091 31.566 38.7638 32.2749 39.2132 32.2323L39.2994 32.1693C38.3685 31.763 37.3232 31.5203 36.4384 31.0875C35.3961 30.8035 33.837 30.1918 32.771 29.829C31.3288 29.3464 29.8918 28.8481 28.4607 28.3343C28.0383 28.1861 26.8597 27.8112 26.5259 27.6043C25.575 27.4106 24.1834 26.7954 23.2248 26.5012C21.467 25.9615 19.6359 25.3676 17.9205 24.7065Z" fill="#B73A3A"/>
<path d="M56.3558 14.687C56.1441 14.922 55.8662 14.9126 55.5638 14.9299C55.0005 15.1543 52.7655 16.1186 52.3233 16.2077C51.0974 16.7436 49.827 17.1449 48.6535 17.6521C49.0564 17.975 51.6048 18.8699 52.3095 19.1615C56.6702 20.9445 60.9513 22.9164 65.1406 25.0716C65.5726 25.2983 66.7907 25.8861 67.0656 26.1683C67.9761 25.7407 70.0071 24.8868 70.962 24.5624L70.9886 24.6008C70.9946 24.5895 70.9997 24.5774 71.0068 24.5666C71.207 24.2571 75.9655 22.5778 76.6983 22.4036C75.6576 21.2615 63.2565 16.874 61.0189 16.152C60.0626 15.8434 57.4703 15.0724 56.3558 14.687Z" fill="#FC6560"/>
<path d="M70.9621 24.5627C70.5647 24.1745 68.7997 23.3352 68.1867 23.0293C64.7173 21.3079 61.1877 19.7108 57.6044 18.2411C55.9291 17.5604 53.935 16.9051 52.3234 16.208C51.0976 16.7439 49.8271 17.1452 48.6536 17.6524C49.0565 17.9753 51.6049 18.8702 52.3097 19.1618C56.6703 20.9448 60.9514 22.9167 65.1407 25.0719C65.5727 25.2986 66.7909 25.8864 67.0657 26.1686C67.9762 25.741 70.0072 24.8871 70.9621 24.5627Z" fill="#FDF4E6"/>
<path d="M55.8678 15.4248L55.8018 15.4373L55.788 15.4927C56.0288 15.6418 56.7558 15.8591 57.057 15.9587L57.1234 15.9021C57.0354 15.7882 56.0755 15.4944 55.8678 15.4248Z" fill="#CF3F3F"/>
<path d="M72.5325 22.6496C72.3673 22.6306 71.6071 22.6716 71.4995 22.7567C72.0414 22.9288 72.0696 22.9595 72.5325 22.6496Z" fill="#CF3F3F"/>
<path d="M43.6774 29.8321C43.0202 29.4944 42.4304 29.5112 41.7268 29.7438C41.1658 29.9286 40.6567 30.243 40.2409 30.6615C39.8616 31.1589 39.5224 31.7615 39.4545 32.3928C39.4887 32.7603 39.6138 33.9833 39.4097 34.2375C39.2888 34.205 39.2416 34.1918 39.1142 34.1752L39.0971 34.2504C39.2858 34.3351 39.6899 34.528 39.8692 34.5798C40.0208 34.5139 40.3335 34.4168 40.5016 34.3596C40.7659 37.9716 43.8269 41.7385 47.7578 40.034C49.3089 39.5448 50.6508 38.7285 51.1107 37.0758L50.7839 36.9989C50.3726 36.9438 50.2412 36.8644 49.9062 36.646C49.6934 36.238 49.4426 35.6013 49.3331 35.148C49.3642 34.704 49.0469 33.9599 48.8536 33.5604C48.2323 32.729 47.1321 31.2075 46.1339 30.8988C45.6199 30.5716 45.2464 30.3213 44.6583 30.1309C44.2769 29.9786 44.0793 29.9265 43.6774 29.8321Z" fill="#3E3D4A"/>
<path d="M43.6774 29.8321C43.0202 29.4944 42.4303 29.5112 41.7267 29.7438C41.1657 29.9286 40.6567 30.243 40.2408 30.6615C39.8615 31.1589 39.5223 31.7615 39.4545 32.3928C39.4887 32.7603 39.6137 33.9833 39.4096 34.2375C39.2887 34.205 39.2415 34.1918 39.1141 34.1752L39.097 34.2504C39.2857 34.3351 39.6898 34.528 39.8691 34.5798C40.0207 34.5139 40.3334 34.4168 40.5015 34.3596C40.5192 33.7215 40.5741 33.3297 40.685 32.7138C40.8083 32.2516 40.984 31.962 41.2076 31.5451C41.1728 31.0992 41.1699 30.9465 41.2206 30.5038L41.3858 30.263C42.2761 29.7371 42.679 29.7562 43.6774 29.8321Z" fill="#490E14"/>
<path d="M43.6774 29.8321C43.0202 29.4944 42.4303 29.5112 41.7267 29.7438C41.1657 29.9286 40.6567 30.243 40.2408 30.6615C39.8615 31.1589 39.5223 31.7615 39.4545 32.3928C39.4887 32.7603 39.6137 33.9833 39.4096 34.2375C39.2887 34.205 39.2415 34.1918 39.1141 34.1752L39.097 34.2504C39.2857 34.3351 39.6898 34.528 39.8691 34.5798C39.8868 34.397 39.845 34.0318 39.8184 33.8426C39.6355 32.5446 40.0066 30.8015 41.3858 30.263C42.2761 29.7371 42.679 29.7562 43.6774 29.8321Z" fill="#7E2025"/>
<path d="M41.2206 30.5039C40.6378 31.0841 40.5806 31.9382 40.685 32.714C40.8082 32.2517 40.984 31.9622 41.2076 31.5453C41.1728 31.0994 41.1699 30.9466 41.2206 30.5039Z" fill="#32050C"/>
<path d="M46.1339 30.8983C45.6199 30.5711 45.2464 30.3208 44.6583 30.1304C44.4983 30.2616 44.4326 30.2486 44.2212 30.2551C46.4472 30.8952 48.3724 32.8668 48.8355 35.159C49.0217 35.6957 49.065 36.5494 49.0379 37.1253C49.1948 36.5946 48.9714 35.6835 49.0659 35.1181L49.1278 35.0984C49.3735 35.5177 49.5376 36.1802 49.8637 36.7709L49.9254 36.8059C50.1904 36.9533 50.8502 37.126 50.9162 37.2037C50.8335 37.7532 50.2147 38.5442 49.7661 38.8986C49.2938 39.2718 47.9749 39.7314 47.7578 40.0335C49.3089 39.5443 50.6508 38.728 51.1107 37.0753L50.7839 36.9984C50.3726 36.9433 50.2412 36.8639 49.9062 36.6455C49.6934 36.2375 49.4426 35.6008 49.3331 35.1475C49.3642 34.7036 49.0469 33.9595 48.8536 33.56C48.2323 32.7285 47.1321 31.207 46.1339 30.8983Z" fill="#282230"/>
<path d="M48.8534 33.5596C48.2322 32.7282 47.132 31.2067 46.1337 30.8979C47.8046 32.287 48.4324 33.1824 49.333 35.1471C49.3641 34.7032 49.0467 33.9591 48.8534 33.5596Z" fill="#B73A3A"/>
<path d="M43.6773 29.8318C42.679 29.7559 42.276 29.7368 41.3857 30.2627L41.2206 30.5035C41.1698 30.9462 41.1728 31.0989 41.2076 31.5448C42.0063 30.5673 42.9328 29.9725 44.2211 30.2553C44.4325 30.2488 44.4982 30.2618 44.6582 30.1306C44.2768 29.9783 44.0792 29.9262 43.6773 29.8318Z" fill="#10020A"/>
<path d="M49.0378 37.126C49.065 36.55 49.0216 35.6964 48.8355 35.1597C48.7643 36.2621 48.8491 37.2459 48.4681 38.3083C48.3017 38.7724 47.8498 39.3762 47.7762 39.7851L47.8423 39.8181C48.4424 39.282 49.017 37.9135 49.0378 37.126Z" fill="#302F3F"/>
<path d="M42.0405 36.3414C42.3181 36.9033 42.5573 37.3054 42.9778 37.7627C44.9125 39.6632 47.2431 39.2562 47.5372 36.3276C47.7801 33.9093 44.5728 30.3206 42.4732 32.3388C41.3698 33.0839 41.5515 35.2948 42.0405 36.3414Z" fill="#C1B8B5"/>
<path d="M42.0405 36.3414C42.3181 36.9033 42.5573 37.3054 42.9778 37.7627C44.9125 39.6632 47.2431 39.2562 47.5372 36.3276C47.7801 33.9093 44.5728 30.3206 42.4732 32.3388C42.8081 32.3095 42.8985 32.0408 43.1891 32.0178L43.2466 32.0871L43.014 32.2514C43.3417 32.2811 43.6939 32.1488 44.0241 32.1136C44.5985 32.0522 45.1399 32.3839 45.5693 32.7288C47.0339 33.9055 48.1145 36.6413 46.3663 38.0385C46.2999 38.0914 46.233 38.1437 46.1656 38.1954C44.1158 38.4743 44.2315 37.4995 42.8872 36.4225C42.5062 36.1173 42.4246 36.52 42.0234 35.7057L41.9774 35.703C41.9998 35.9414 42.0594 36.124 42.0405 36.3414Z" fill="#EDE1DA"/>
<path d="M44.8619 33.1869C42.2341 33.0486 42.8692 36.7276 44.8691 37.1308C46.2932 37.2677 46.85 36.0803 46.4368 34.8569C46.1378 33.9718 45.6687 33.5814 44.8619 33.1869Z" fill="#3E3D4A"/>
<path d="M48.6535 17.6523C48.3199 17.7756 48.0239 17.8871 47.6967 18.0316C46.379 18.5353 45.0642 19.0469 43.7526 19.5663C45.7239 20.4929 48.3625 21.5177 50.4064 22.3949C53.3427 23.6617 56.2319 25.035 59.0682 26.5124C59.7008 26.8434 61.7053 27.8674 62.1364 28.23C62.7099 28.156 65.4284 26.8447 66.2569 26.5711L66.3014 26.5585C66.4836 26.3074 66.7799 26.2453 67.0656 26.1686C66.7908 25.8864 65.5727 25.2986 65.1406 25.0719C60.9513 22.9167 56.6703 20.9448 52.3096 19.1618C51.6049 18.8702 49.0564 17.9753 48.6535 17.6523Z" fill="#FDF4E6"/>
<path d="M48.6535 17.6523C48.3199 17.7756 48.0239 17.8871 47.6967 18.0316C48.3373 18.248 49.0788 18.5809 49.6715 18.7688L49.9227 18.8808C51.9316 19.5354 65.4281 25.508 66.2569 26.5711L66.3014 26.5585C66.4836 26.3074 66.7799 26.2453 67.0656 26.1686C66.7908 25.8864 65.5727 25.2986 65.1406 25.0719C60.9513 22.9167 56.6703 20.9448 52.3096 19.1618C51.6049 18.8702 49.0564 17.9753 48.6535 17.6523Z" fill="#FC6560"/>
<path d="M49.9227 18.8805L49.6715 18.7686C49.426 19.0817 46.9214 19.6504 46.2559 20.0583L46.2614 20.1077C46.7135 20.0463 49.7094 19.078 49.9227 18.8805Z" fill="#E6D4CC"/>
<path d="M43.7526 19.5659C42.1792 20.188 40.3293 20.8714 38.7921 21.5386C39.4032 21.9625 42.0842 22.8316 42.997 23.1823C46.0173 24.3379 49.0209 25.5365 52.0069 26.778C53.0345 27.2128 54.0581 27.657 55.0777 28.1105C55.8946 28.4763 58.1518 29.5789 58.9836 29.6354C59.4874 29.3212 61.5426 28.4844 62.1261 28.2751L62.1364 28.2296C61.7053 27.8671 59.7008 26.8431 59.0682 26.512C56.2319 25.0347 53.3427 23.6613 50.4064 22.3945C48.3625 21.5173 45.7239 20.4925 43.7526 19.5659Z" fill="#FC6560"/>
<path d="M38.7921 21.5386L38.6723 21.5816C38.4564 21.684 37.8742 21.9196 37.7256 22.0086C37.5456 22.1244 37.4866 22.1358 37.2796 22.1957C37.1734 22.2266 37.0136 22.2681 36.9145 22.3046C36.5894 22.4245 36.5936 22.3749 36.4608 22.6258C36.4661 22.8369 36.4667 23.048 36.4626 23.2591C37.1115 23.5077 37.7674 23.7681 38.4299 23.9773L39.2209 24.2526C39.6574 24.4887 40.7706 24.8884 41.2714 25.087C42.3423 25.5189 43.4094 25.9607 44.4723 26.4123C48.1489 27.9747 51.8057 29.5832 55.4421 31.2373C55.5684 31.1709 55.6168 31.1467 55.7513 31.1005L55.7599 31.1995C55.7233 31.5506 55.4808 31.6632 55.2389 31.8792L55.2361 31.931C55.3094 32.4909 55.2564 34.3947 55.1956 34.9487L55.1856 35.0319L55.1817 35.1149L55.2371 35.1561C55.3543 34.9867 55.3858 32.2884 55.3851 31.9096L55.7728 31.6194C56.1573 31.1146 57.5569 30.8444 58.0933 30.4492C58.2313 30.3476 58.7233 29.883 58.827 29.7674L58.9836 29.6354C58.1518 29.5789 55.8946 28.4763 55.0777 28.1105C54.0582 27.657 53.0345 27.2128 52.0069 26.778C49.0209 25.5365 46.0173 24.3379 42.997 23.1823C42.0843 22.8316 39.4032 21.9625 38.7921 21.5386Z" fill="#FF7167"/>
<path d="M38.7921 21.5386L38.6723 21.5816L38.7402 21.6144C40.77 22.6117 43.989 23.672 46.1963 24.5452C48.5967 25.496 50.9865 26.4735 53.3652 27.4774C54.5829 27.9981 55.8086 28.5353 57.0144 29.0832C57.3678 29.2438 58.6415 29.5936 58.768 29.7503C57.7691 30.214 56.7438 30.6335 55.7513 31.1005L55.7599 31.1995C55.7233 31.5506 55.4808 31.6632 55.2389 31.8792L55.2361 31.931C55.3094 32.4909 55.2564 34.3947 55.1956 34.9487L55.1856 35.0319L55.1817 35.1149L55.2371 35.1561C55.3543 34.9867 55.3858 32.2884 55.3851 31.9096L55.7728 31.6194C56.1573 31.1146 57.5569 30.8444 58.0933 30.4492C58.2313 30.3476 58.7233 29.883 58.827 29.7674L58.9836 29.6354C58.1518 29.5789 55.8946 28.4763 55.0777 28.1105C54.0582 27.657 53.0345 27.2128 52.0069 26.778C49.0209 25.5365 46.0173 24.3379 42.997 23.1823C42.0843 22.8316 39.4032 21.9625 38.7921 21.5386Z" fill="#AD4041"/>
<path d="M36.9144 22.3052C36.5894 22.425 36.5935 22.3755 36.4608 22.6264C36.4661 22.8374 36.4667 23.0486 36.4625 23.2597C37.1114 23.5083 37.7674 23.7687 38.4298 23.9779C38.1903 23.0069 37.0943 22.841 36.9144 22.3052Z" fill="#FD8578"/>
<path d="M37.2795 22.1958C37.1733 22.2267 37.0134 22.2682 36.9143 22.3047C37.0943 22.8405 38.1903 23.0065 38.4298 23.9774L39.2208 24.2527C39.376 23.3618 37.8835 22.6353 37.2795 22.1958Z" fill="#F9BAA7"/>
<path d="M11.0034 10.2739C10.574 10.3129 9.33641 10.4971 8.93587 10.6344C8.56365 10.8218 8.42739 10.8746 8.02627 10.9898C7.2889 11.3869 5.58589 12.1184 4.81136 12.4181C5.29271 12.6344 6.94854 13.0405 7.49596 13.008C7.33963 13.2956 7.15146 13.481 6.88188 13.6691L6.86949 13.7115C7.10073 13.8229 7.995 14.0738 8.22506 14.0681C11.5686 14.9369 14.8248 15.6132 18.0562 16.933C19.8282 17.6569 20.4565 17.4249 21.3802 19.3557C21.4504 19.3724 21.5767 19.4172 21.6121 19.3838C21.8044 19.2028 22.7671 18.0242 22.8331 17.8736C22.2893 17.5283 18.6431 16.3315 17.8031 16.0348C16.9041 15.8338 14.7304 15.0224 14.1664 14.2007C14.5339 14.0927 14.7416 14.0293 15.089 13.8743C15.3397 13.8079 15.6601 13.6358 15.9019 13.5171C16.0535 13.2224 16.1107 13.2087 16.3219 12.9717C16.526 12.8936 16.6735 12.8484 16.8558 12.7256C16.9749 12.3546 17.7795 12.0375 18.186 11.8021C17.9022 11.7435 17.2864 11.9672 16.936 12.0246L17.0929 11.8232C17.2097 11.6126 17.6161 11.597 17.8898 11.2687C17.6273 11.3493 17.2634 11.5396 17.0062 11.6635C16.3402 11.3994 14.6909 11.0393 13.911 10.8461C13.7152 10.7302 12.3478 10.4827 12.0228 10.4167L11.9508 10.4241C11.588 10.3404 11.3763 10.3126 11.0034 10.2739Z" fill="#FC6560"/>
<path d="M8.93588 10.6333C8.56365 10.8208 8.42739 10.8735 8.02627 10.9887C7.2889 11.3858 5.58589 12.1174 4.81136 12.417C5.29271 12.6333 6.94854 13.0394 7.49596 13.007L7.69239 12.8282C7.74489 12.743 7.77851 12.7098 7.84281 12.6347L8.02037 12.6223C8.34245 12.4794 9.33936 12.142 9.37829 11.7262C9.40543 11.4352 9.56175 11.4284 9.79181 11.3081C9.25088 11.3511 9.02436 11.1246 8.93588 10.6333Z" fill="#963739"/>
<path d="M7.69235 12.8286L7.49592 13.0073C7.3396 13.2949 7.15142 13.4803 6.88184 13.6684L6.86946 13.7108C7.1007 13.8222 7.99497 14.0731 8.22503 14.0674C8.83851 13.8846 9.36646 13.8709 9.60596 13.2088C8.9907 13.0173 8.34064 13.0016 7.69235 12.8286Z" fill="#EC504D"/>
<path d="M11.0034 10.2739C10.574 10.3129 9.33641 10.4971 8.93587 10.6344C9.02436 11.1256 9.25087 11.3522 9.7918 11.3092C10.4938 11.0159 11.2429 10.6934 11.9508 10.4241C11.588 10.3404 11.3763 10.3126 11.0034 10.2739Z" fill="#7E2025"/>
<path d="M8.0204 12.623L7.84285 12.6354C7.77855 12.7105 7.74492 12.7437 7.69242 12.829C8.34071 13.002 8.99077 13.0177 9.60602 13.2091C10.5445 13.3783 11.5249 13.5699 12.4387 13.8373C12.6876 13.9101 12.9354 13.9248 13.1926 13.9461L13.1666 13.8757L13.1896 13.8807L13.1578 13.9419L13.1353 13.8649C12.1178 13.6397 8.79434 12.9703 8.0204 12.623Z" fill="#B73A3A"/>
<path d="M17.0928 11.8228C16.6947 11.9185 16.3095 12.1338 15.9514 12.3331C16.3437 12.3042 16.5708 12.1054 16.9359 12.0241L17.0928 11.8228Z" fill="#CF3F3F"/>
<path d="M36.4625 23.2593L36.4189 23.2619L36.3847 23.3078L36.2431 23.5625C35.9417 23.5256 35.8939 23.4967 35.6225 23.3602C35.6013 23.8532 35.573 24.3458 35.537 24.8379L35.4928 25.0761C35.6597 25.1405 35.9989 25.2618 36.1357 25.3454L36.1965 25.4055L36.2437 25.4038C36.3345 25.4034 47.3648 29.3017 48.4189 29.6738C49.7153 30.1403 51.0172 30.5913 52.3244 31.0267C52.8137 31.1938 53.6109 31.5099 54.0707 31.6194L53.9616 31.7096L54.0193 31.7836C54.4317 31.8936 54.8098 32.0076 55.236 31.9311L55.2388 31.8793C55.4808 31.6634 55.7233 31.5508 55.7599 31.1996L55.7512 31.1006C55.6167 31.1468 55.5684 31.1711 55.442 31.2375C51.8057 29.5833 48.1488 27.9749 44.4722 26.4124C43.4093 25.9608 42.3423 25.5191 41.2713 25.0872C40.7705 24.8885 39.6574 24.4889 39.2209 24.2527L38.4298 23.9775C37.7674 23.7683 37.1114 23.5079 36.4625 23.2593Z" fill="#EC504D"/>
<path d="M36.2431 23.5621C35.9416 23.5252 35.8938 23.4963 35.6225 23.3599C35.6013 23.8528 35.5729 24.3455 35.537 24.8375L35.4927 25.0757C35.6597 25.1402 35.9988 25.2614 36.1357 25.345C36.1693 24.8702 36.3079 23.973 36.2431 23.5621Z" fill="#EC504D"/>
<path d="M55.7599 31.2002C55.5411 31.2971 55.3871 31.51 55.25 31.7054C54.7915 31.695 54.5292 31.681 54.0707 31.62L53.9616 31.7102L54.0193 31.7842C54.4317 31.8942 54.8098 32.0082 55.236 31.9317L55.2388 31.8799C55.4808 31.664 55.7233 31.5514 55.7599 31.2002Z" fill="#B73A3A"/>
<path d="M36.3846 23.3081L36.2431 23.5628C36.3079 23.9737 36.1693 24.8709 36.1357 25.3457L36.1965 25.4058L36.2437 25.4041C36.3003 24.846 36.4247 23.8233 36.3846 23.3081Z" fill="#B73A3A"/>
<path d="M22.8331 17.8735C22.767 18.0242 21.8043 19.2027 21.612 19.3838C21.5766 19.4171 21.4504 19.3723 21.3802 19.3557C21.6999 19.7098 22.9593 19.9133 23.0808 20.2052C22.9746 20.2441 22.918 20.2677 22.8042 20.2876C23.0909 20.3135 23.4047 20.4893 23.6695 20.6173C24.1703 20.8592 24.6659 20.9441 25.1749 21.1155C25.5082 21.1373 26.8243 21.6897 27.2177 21.8451L31.9817 23.6999C32.3315 23.8364 33.8263 24.456 34.0911 24.5271L34.1755 24.3823C34.6368 24.5297 35.0816 24.671 35.537 24.8384C35.5729 24.3463 35.6013 23.8537 35.6225 23.3607L35.5358 23.1722C35.3547 23.1861 35.2019 23.1139 35.0261 23.0537C34.9536 22.8057 34.753 22.6933 34.5495 22.5483L34.3884 22.4309C34.1649 22.4028 34.0705 22.3804 33.8446 22.429C33.6422 22.3321 32.7887 22.6461 32.2578 22.6267C32.079 22.5912 32.0719 22.5892 31.9174 22.4894C31.7764 22.2551 31.8448 21.8679 31.8625 21.5778C31.895 21.3894 31.9304 21.2858 31.8749 21.1037C31.5328 20.8676 29.5159 20.251 28.9638 20.0357C27.0154 19.2763 24.9478 18.6532 23.0006 17.9169L22.8331 17.8735Z" fill="#EC504D"/>
<path d="M23.0006 17.916L22.7959 18.1848L22.8136 18.2659C23.302 18.534 24.0329 18.7441 24.5697 18.94C26.9753 19.817 29.4222 20.8136 31.8625 21.5769C31.895 21.3885 31.9304 21.2849 31.8749 21.1028C31.5328 20.8667 29.516 20.2501 28.9638 20.0348C27.0154 19.2754 24.9478 18.6523 23.0006 17.916Z" fill="#FD8578"/>
<path d="M34.7795 23.0078C34.5748 23.3798 34.2929 23.9706 34.1755 24.3818C34.6368 24.5293 35.0816 24.6706 35.537 24.838C35.5729 24.3459 35.6013 23.8533 35.6225 23.3603L35.5358 23.1717C35.3547 23.1856 35.2019 23.1135 35.0261 23.0532L34.7795 23.0078Z" fill="#AD4041"/>
<path d="M34.3885 22.4303C34.1649 22.4022 34.0706 22.3798 33.8446 22.4284C34.159 22.6683 34.4369 22.8159 34.7796 23.0077L35.0262 23.0531C34.9536 22.8051 34.7531 22.6927 34.5496 22.5477L34.3885 22.4303Z" fill="#CF3F3F"/>
<path d="M2.70188 16.9141C2.181 17.1376 1.44069 17.3212 1.3758 17.9502C1.41179 18.5211 1.45131 19.2452 1.58226 19.8043C2.04946 20.1262 3.34781 20.7692 3.89051 20.9578C4.02618 21.0022 4.16894 21.0539 4.30874 21.0784C4.50399 21.0975 4.57242 21.0949 4.75293 21.1645C5.3735 21.6129 6.80811 22.1787 7.5437 22.6052C7.66994 22.7897 7.7655 22.9541 7.93539 23.0991C8.13359 23.1185 8.27458 23.0758 8.46925 23.0362C8.48753 22.3797 8.59843 22.0265 8.75947 21.3965C9.25144 20.4375 9.68147 19.9104 10.7102 19.5588C11.0205 19.2461 11.296 19.4669 11.614 19.1723C11.368 19.0931 11.1279 19.0458 10.8731 18.9554C10.6554 18.8939 10.446 18.8216 10.2318 18.7497L9.98408 18.7947C9.42487 18.8629 9.08037 18.98 8.60846 19.2911C8.44388 19.447 8.13064 19.7276 8.02092 19.9027C7.90353 20.0899 7.90295 20.2076 7.74898 20.4047L7.66817 20.2874L7.69295 20.2154C7.7307 20.0559 7.75961 19.9746 7.75312 19.8125L7.6021 20.1141L7.52836 20.1192C7.4682 20.0731 7.19862 19.8724 7.14907 19.8615C6.39342 19.6945 5.23605 18.9258 4.56063 18.7576L4.65913 18.6848C5.47672 18.9659 6.2719 19.3784 7.08182 19.6971L7.14671 19.6656C6.70488 19.1209 3.68286 18.3883 2.95671 17.8194L2.91188 17.9161L2.80864 17.8697C2.72311 17.5777 2.83106 17.2597 2.70188 16.9141Z" fill="#963739"/>
<path d="M2.70187 16.9141C2.181 17.1376 1.44068 17.3212 1.3758 17.9502C1.41178 18.5211 1.4513 19.2452 1.58226 19.8043C2.04945 20.1262 3.3478 20.7692 3.8905 20.9578C3.95775 20.7642 3.76486 19.5539 3.76427 19.0686C3.91646 18.9519 4.13885 18.8095 4.30225 18.6983C3.8734 18.5423 3.61031 18.478 3.29353 18.1548C3.10005 18.0707 3.06701 18.0576 2.91187 17.9161L2.80864 17.8697C2.7231 17.5777 2.83106 17.2597 2.70187 16.9141Z" fill="#BCB9BD"/>
<path d="M2.70187 16.9141C2.181 17.1376 1.44068 17.3212 1.3758 17.9502C1.78872 18.1957 3.36609 18.9978 3.76427 19.0686C3.91646 18.9519 4.13885 18.8095 4.30225 18.6983C3.8734 18.5423 3.61031 18.478 3.29353 18.1548C3.10005 18.0707 3.06701 18.0576 2.91187 17.9161L2.80864 17.8697C2.7231 17.5777 2.83106 17.2597 2.70187 16.9141Z" fill="#FDF4E6"/>
<path d="M10.8731 18.9549C10.2206 18.9496 9.49801 19.0064 9.01076 19.5061C8.6757 20.2972 8.63618 20.5317 8.75947 21.396C9.25144 20.437 9.68147 19.9099 10.7102 19.5583C11.0205 19.2456 11.296 19.4663 11.614 19.1718C11.368 19.0926 11.1279 19.0453 10.8731 18.9549Z" fill="#10020A"/>
<path d="M9.01086 19.5063C8.71946 19.5878 8.34311 19.9909 8.19858 20.2442C7.63406 21.2349 7.90777 22.1289 7.93549 23.0988C8.1337 23.1182 8.27468 23.0755 8.46935 23.0359C8.48763 22.3795 8.59853 22.0263 8.75957 21.3962C8.63628 20.5319 8.67581 20.2975 9.01086 19.5063Z" fill="#490E14"/>
<path d="M10.2319 18.7495L9.98414 18.7945C9.42492 18.8627 9.08043 18.9799 8.60851 19.291C8.44393 19.4469 8.1307 19.7275 8.02098 19.9025C7.90359 20.0898 7.903 20.2074 7.74904 20.4046L7.66822 20.2873C7.21991 19.9792 5.02139 19.0213 4.43621 18.8266C5.21959 19.5581 6.59226 19.896 7.53668 20.3925C7.75258 20.5063 7.72721 22.3901 7.54376 22.605C7.66999 22.7895 7.76556 22.954 7.93545 23.099C7.90772 22.1291 7.63401 21.235 8.19854 20.2443C8.34306 19.991 8.71941 19.588 9.01082 19.5065C9.49807 19.0067 10.2207 18.9499 10.8731 18.9553C10.6554 18.8937 10.446 18.8215 10.2319 18.7495Z" fill="#B73A3A"/>
<path d="M4.40784 18.8953L4.44855 18.7243C4.32231 18.463 3.59616 18.2622 3.29354 18.1548C3.61031 18.4779 3.8734 18.5423 4.30226 18.6983C4.13886 18.8094 3.91647 18.9518 3.76427 19.0685C3.76486 19.5538 3.95776 20.7641 3.89051 20.9577C4.02619 21.0021 4.16894 21.0539 4.30874 21.0784L4.41079 21.0278C4.46034 20.8901 4.39604 19.2073 4.40784 18.8953Z" fill="#B9AFB1"/>
<path d="M4.40782 18.895C4.39603 19.207 4.46033 20.8898 4.41078 21.0275L4.30873 21.078C4.50398 21.0971 4.57241 21.0946 4.75292 21.1641C4.78182 21.0652 4.81898 20.9192 4.81013 20.7714C4.78182 20.2614 4.78123 19.5981 4.62727 19.1114C4.53407 19.0194 4.46091 18.9473 4.40782 18.895Z" fill="#7E2025"/>
<path d="M45.0089 28.7862C44.4459 28.4106 42.9988 28.3961 42.3419 28.5599C41.9686 28.8006 41.0566 28.9845 40.9079 29.3237C40.7664 29.6478 40.0219 30.3829 40.2408 30.661C40.6566 30.2425 41.1657 29.9282 41.7267 29.7434C42.4303 29.5107 43.0202 29.4939 43.6774 29.8316C44.0792 29.926 44.2768 29.9781 44.6582 30.1304C45.2463 30.3208 45.6198 30.5711 46.1338 30.8983C47.1321 31.207 48.2323 32.7285 48.8535 33.56C49.0449 33.6715 49.4101 33.7712 49.6166 33.6587C49.9596 32.653 47.1897 30.1049 46.3835 29.5019C46.2502 29.3883 46.0361 29.2453 45.8883 29.1393C45.5968 29.0177 45.3036 28.9 45.0089 28.7862Z" fill="#FA5F54"/>
<path d="M45.8883 29.1393C45.5968 29.0177 45.3036 28.9 45.009 28.7861L44.9847 28.9304C45.2545 29.1426 46.0431 29.5379 46.3836 29.5018C46.2502 29.3883 46.0362 29.2452 45.8883 29.1393Z" fill="#FD8578"/>
<path d="M12.0234 17.686C10.6307 17.1428 8.56251 17.8881 8.11891 19.3792C8.02276 19.7016 7.86762 19.9345 7.69301 20.2149L7.66823 20.287L7.74905 20.4043C7.90301 20.2071 7.9036 20.0895 8.02099 19.9022C8.13071 19.7272 8.44395 19.4466 8.60853 19.2907C9.08044 18.9796 9.42493 18.8624 9.98415 18.7942L10.2319 18.7492C12.0399 18.6248 13.783 19.9823 14.915 21.2651C15.0725 21.4441 15.2719 21.6677 15.4448 21.8264C15.7043 21.8302 15.889 21.8519 16.1285 21.7521C16.204 21.6744 16.2606 21.6514 16.2429 21.5698C16.1261 21.0369 15.6784 20.695 15.5203 20.0925C15.1781 19.6197 13.7217 18.2376 13.1713 18.1595C12.7761 17.9583 12.4375 17.8391 12.0234 17.686Z" fill="#EC504D"/>
<path d="M10.0601 17.9385C9.64071 18.1132 8.64674 18.7704 8.52994 19.2207L8.6084 19.2907C9.08031 18.9796 9.4248 18.8625 9.98402 18.7943L10.0601 17.9385Z" fill="#FC6560"/>
<path d="M12.0234 17.686L11.916 17.8049C12.1378 17.9855 12.9118 18.3393 13.1713 18.1596C12.7761 17.9584 12.4375 17.8391 12.0234 17.686Z" fill="#FD8578"/>
<path d="M52.1622 35.0344C51.8389 34.9442 50.5025 34.6057 50.2729 34.4624C50.2595 34.3494 50.2689 34.3248 50.2896 34.2164L50.2963 34.1823C49.7512 33.0441 49.7201 32.7636 48.8969 31.6714C48.3327 30.9229 46.8168 29.2647 45.8883 29.1396C46.0361 29.2456 46.2502 29.3886 46.3835 29.5022C47.1897 30.1052 49.9596 32.6533 49.6166 33.659C49.4101 33.7715 49.0449 33.6718 48.8535 33.5603C49.0468 33.9598 49.3641 34.7039 49.3331 35.1478C49.4425 35.6011 49.6933 36.2378 49.9061 36.6458C50.2411 36.8642 50.3726 36.9436 50.7838 36.9987L51.1106 37.0756C51.3779 37.1306 51.7616 37.175 51.9541 37.36C51.845 36.5778 51.8315 36.0379 51.8527 35.2526L51.8859 35.2616C51.9555 35.1672 52.0644 35.1033 52.1622 35.0344Z" fill="#AE3636"/>
<path d="M51.8527 35.2519C51.6477 35.0975 50.5735 34.758 50.2413 34.624C50.4018 35.1554 50.9234 36.5419 50.7838 36.998L51.1106 37.0749C51.3778 37.1299 51.7616 37.1743 51.954 37.3593C51.845 36.5771 51.8315 36.0372 51.8527 35.2519Z" fill="#963739"/>
<path d="M4.81138 12.4175C4.31528 12.5259 3.95662 12.6476 3.47645 12.8083C3.03403 12.9807 2.80456 13.0751 2.65296 13.5664C3.05644 13.5717 3.60799 13.9595 3.98906 14.1486C4.69811 14.492 5.43076 14.7831 6.18228 15.0195C6.75153 14.4481 6.55746 13.9338 6.86951 13.7108L6.88189 13.6685C7.15147 13.4804 7.33965 13.295 7.49597 13.0074C6.94855 13.0399 5.29273 12.6338 4.81138 12.4175Z" fill="#AD4041"/>
<path d="M4.81138 12.4175C4.31528 12.5259 3.95662 12.6476 3.47645 12.8083C3.81741 13.1346 6.37341 13.6329 6.88189 13.6685C7.15147 13.4804 7.33965 13.295 7.49597 13.0074C6.94855 13.0399 5.29273 12.6338 4.81138 12.4175Z" fill="#B26C71"/>
<path d="M54.0193 31.7837C53.9236 32.1983 53.871 34.2149 53.9611 34.6138C54.3821 34.5937 54.8367 34.7322 55.1955 34.9489C55.2563 34.395 55.3094 32.4911 55.236 31.9313C54.8098 32.0077 54.4317 31.8937 54.0193 31.7837Z" fill="#EC504D"/>
<path d="M2.65058 13.6646C2.62463 14.2178 2.56328 16.4685 2.7019 16.9138C2.83109 17.2594 2.72314 17.5774 2.80867 17.8694C2.81044 17.6325 2.75499 17.2672 2.97148 17.1482C3.12013 17.2146 3.12426 17.2173 3.28354 17.2457C3.40564 17.0221 3.2334 14.6175 3.21865 14.2028L2.65058 13.6646Z" fill="#EC504D"/>
<path d="M22.8043 20.2876C22.5831 20.3618 22.5842 20.4846 22.5866 20.7102C22.6102 20.7594 22.6385 20.8183 22.671 20.887C23.2219 21.1322 24.1215 21.4614 24.6495 21.6712C24.8347 21.3807 24.8789 21.2837 25.175 21.1155C24.666 20.9441 24.1705 20.8592 23.6696 20.6173C23.4048 20.4893 23.091 20.3135 22.8043 20.2876Z" fill="#FDF4E6"/>
<path d="M42.342 28.5591C41.2118 28.483 40.2692 29.8811 39.6274 30.5448C39.5613 31.0707 39.5047 31.6831 39.2994 32.1692L39.2133 32.2322C39.2947 32.285 39.3749 32.336 39.4545 32.3915C39.5224 31.7602 39.8615 31.1577 40.2408 30.6603C40.022 30.3821 40.7664 29.647 40.908 29.3229C41.0567 28.9837 41.9686 28.7998 42.342 28.5591Z" fill="#CF3F3F"/>
<path d="M26.5258 27.6048C26.2621 27.3183 21.0328 25.6927 20.2582 25.3627C19.7256 25.136 18.3458 25.031 17.868 24.3926C17.8698 24.5347 17.8609 24.5748 17.9205 24.707C19.6359 25.368 21.4669 25.962 23.2248 26.5017C24.1834 26.7959 25.5749 27.411 26.5258 27.6048Z" fill="#AD4041"/>
<path d="M53.9612 34.6142L53.8643 34.7057C54.0936 34.9767 54.6713 34.9912 55.0427 35.0221C55.0903 35.026 55.1379 35.0296 55.1856 35.0326L55.1956 34.9494C54.8368 34.7326 54.3822 34.5942 53.9612 34.6142Z" fill="#CF3F3F"/>
<path d="M34.1756 24.3823L34.0912 24.5272L35.4928 25.0766L35.537 24.8385C35.0817 24.6711 34.6369 24.5298 34.1756 24.3823Z" fill="#B26C71"/>
<path d="M34.46 30.0219C34.8393 30.1502 35.8869 30.6579 36.1712 30.6145L36.2497 30.5059L36.2078 30.3851C36.0598 30.2746 35.3106 30.0683 35.1059 30.0021C34.1804 29.7026 28.6655 27.4876 28.1139 27.8755C28.2974 28.1293 30.6711 28.6611 31.1229 28.7993C31.5766 29.3039 33.7775 29.9744 34.46 30.0219Z" fill="#AD4041"/>
<path d="M34.4599 30.022C33.8128 29.6863 31.8685 29.0341 31.1229 28.7993C31.5765 29.304 33.7774 29.9745 34.4599 30.022Z" fill="#B73A3A"/>
<path d="M17.8089 19.5049L17.7765 19.5349L17.7906 19.6262C17.9747 19.7844 18.9061 20.1777 19.2023 20.3217L19.2512 20.2589C19.1138 19.9811 18.1711 19.6573 17.8089 19.5049Z" fill="#7E2025"/>
<path d="M26.6993 2.32167C26.6485 2.2029 26.5683 2.05698 26.4822 1.9693C25.8787 1.35502 22.2432 0.0411255 21.6374 0C21.2894 0.230645 21.3525 0.410842 21.4026 0.813423L21.3885 0.960992C19.8984 1.60732 17.0044 2.50323 15.3745 3.05827C11.9555 4.20689 8.54653 5.38378 5.14699 6.58881C4.09167 6.95764 2.9461 7.30157 1.90966 7.68279C1.38643 7.48336 0.602464 7.09164 0.102236 7.14415C-0.101277 7.48678 0.0485588 8.31643 0.127604 8.70066C0.269768 9.39743 0.877944 10.36 1.51975 10.6956C2.29132 11.0991 4.22086 11.8233 5.02724 11.4113C5.46317 11.1285 5.41893 10.7191 5.44901 10.2508C6.23829 9.99526 7.01223 9.6977 7.80622 9.44234L7.86226 9.50653C7.91712 9.99408 7.98201 10.5028 8.02625 10.9895C8.42738 10.8744 8.56364 10.8216 8.93586 10.6341C9.33639 10.4969 10.574 10.3126 11.0034 10.2737C10.8896 10.2011 10.5356 10.1638 10.3203 10.0853C10.1882 9.90563 10.0118 9.33536 9.74224 8.93703L9.66791 8.8713C9.67322 8.8608 9.67735 8.84959 9.68384 8.83985C9.8496 8.59056 18.4142 5.73845 19.4359 5.39711C20.017 5.22394 20.5909 5.20399 21.133 5.0366C21.1926 4.96049 21.2433 4.89523 21.2858 4.84089L21.3189 4.76359C21.5359 4.64482 23.6666 3.87925 23.8849 3.90013C24.5562 3.96433 25.3844 4.23067 26.1601 4.27345C26.8827 3.84904 27.032 3.05615 26.6993 2.32167Z" fill="#6F6772"/>
<path d="M26.6993 2.32167C26.6485 2.2029 26.5683 2.05698 26.4822 1.9693C25.8787 1.35502 22.2432 0.0411255 21.6374 0C21.2894 0.230645 21.3525 0.410842 21.4026 0.813423L21.3885 0.960992C21.4882 1.11452 21.6999 1.52713 21.8386 1.61982C22.5771 2.11156 23.7008 2.43071 24.5456 2.71151C24.8364 2.8081 25.2045 2.6957 25.3897 2.86256L25.4015 2.89991C23.8518 3.40486 22.3152 3.97572 20.7714 4.50403L8.91049 8.60012L8.88985 8.72798C9.09867 8.77784 9.46735 8.88399 9.66791 8.8713C9.67322 8.8608 9.67735 8.84959 9.68384 8.83985C9.8496 8.59056 18.4142 5.73845 19.4359 5.39711C20.017 5.22394 20.5909 5.20399 21.133 5.0366C21.1926 4.96049 21.2433 4.89523 21.2858 4.84089L21.3189 4.76359C21.5359 4.64482 23.6666 3.87925 23.8849 3.90013C24.5562 3.96433 25.3844 4.23067 26.1601 4.27345C26.8827 3.84904 27.032 3.05615 26.6993 2.32167Z" fill="#322735"/>
<path d="M26.1081 2.58384C25.0486 2.25702 23.8759 1.70782 22.8271 1.32282C22.3546 1.14935 21.8945 0.925905 21.4025 0.8125L21.3884 0.960068C21.4881 1.1136 21.6998 1.52621 21.8385 1.6189C22.577 2.11064 23.7007 2.42979 24.5455 2.71058C24.8363 2.80717 25.2044 2.69477 25.3896 2.86163L25.4014 2.89898C25.6846 2.83579 25.855 2.72421 26.1081 2.58384Z" fill="#574C55"/>
<path d="M26.6993 2.32167C26.6485 2.2029 26.5683 2.05698 26.4822 1.9693C25.8787 1.35502 22.2432 0.0411255 21.6374 0C22.2167 0.476159 24.4565 1.16892 25.2794 1.5443C25.7177 1.74426 26.4433 2.32397 26.5872 2.35406L26.6993 2.32167Z" fill="#6F6772"/>
<path d="M0.102279 7.14355C-0.101234 7.48619 0.0486021 8.31584 0.127647 8.70007C0.269811 9.39684 0.877988 10.3594 1.51979 10.695C2.29137 11.0985 4.2209 11.8227 5.02728 11.4107C5.13523 10.9222 5.15057 10.6213 5.1665 10.1261L5.54462 9.80196L5.36234 9.6669L5.10456 9.72183C4.86683 9.64082 4.93408 9.66017 4.76007 9.43148C3.98141 8.54872 0.464472 7.65995 0.102279 7.14355Z" fill="#3E3D4A"/>
<path d="M9.74223 8.93652C9.63723 9.053 9.52869 9.16687 9.41779 9.27804L9.28802 9.2827C9.24495 9.22281 9.1488 9.04893 9.08096 9.05123C8.89751 9.0573 7.95132 9.37339 7.86225 9.50603C7.91711 9.99357 7.982 10.5023 8.02624 10.989C8.42736 10.8738 8.56362 10.8211 8.93585 10.6336C9.33638 10.4964 10.574 10.3121 11.0034 10.2732C10.8896 10.2006 10.5356 10.1633 10.3203 10.0848C10.1882 9.90513 10.0118 9.33486 9.74223 8.93652Z" fill="#3E3D4A"/>
<path d="M8.91044 8.6001C8.01086 8.92114 6.37863 9.43995 5.54452 9.80253L5.16641 10.1267C5.15048 10.6219 5.13513 10.9228 5.02718 11.4113C5.46311 11.1285 5.41887 10.719 5.44896 10.2508C6.23823 9.99524 7.01217 9.69768 7.80617 9.44231L7.8622 9.50651C7.95128 9.37387 8.89747 9.05779 9.08092 9.05171C9.14876 9.04941 9.24491 9.22329 9.28797 9.28318L9.41775 9.27852C9.52865 9.16736 9.63719 9.05348 9.74219 8.93701L9.66786 8.87128C9.4673 8.88396 9.09862 8.77782 8.8898 8.72796L8.91044 8.6001Z" fill="#282230"/>
<path d="M5.3623 9.66703C5.30155 9.47509 5.3039 9.45126 5.16233 9.31938C4.92225 9.29991 5.01604 9.29171 4.76003 9.43161C4.93405 9.66031 4.8668 9.64095 5.10452 9.72196L5.3623 9.66703Z" fill="#574C55"/>
</svg>
