<svg width="54" height="48" viewBox="0 0 54 48" fill="none" xmlns="http://www.w3.org/2000/svg">
<path d="M20.7526 0.242365C20.9645 0.0659739 21.3853 -0.0340829 21.6568 0.0106204C22.8377 0.205157 23.4925 0.856555 24.1117 1.78719C24.5797 1.9985 24.8968 2.24867 25.2391 2.62567C25.3835 2.78492 25.4658 2.99203 25.6586 3.05209C26.4528 3.19489 27.0282 3.59342 27.2676 4.38181C27.4061 4.42395 27.508 4.449 27.6373 4.51743C28.2474 4.77171 28.5312 5.19753 28.7857 5.78631C29.8107 6.1927 30.2416 6.82266 30.1146 7.93325C30.1758 8.23201 30.4646 8.44935 30.5473 8.84035C30.7699 9.88987 30.7128 10.86 29.7609 11.5555L29.8139 11.7604C29.8436 11.8893 29.8738 11.9986 29.8824 12.1312C33.1498 13.2619 36.4081 14.4188 39.6572 15.6016C40.4514 15.8921 42.4192 16.4837 43.0717 16.8131C43.3893 17.628 43.6507 18.8724 43.8842 19.7389L45.8515 27.3046C45.9744 27.7663 46.223 28.9975 46.4351 29.2936C46.93 29.3433 50.2152 30.8064 50.5205 31.0918C50.6411 31.3046 50.7604 31.9356 50.8202 32.2067L51.3512 34.6834C51.4143 34.98 51.5377 35.6357 51.6222 35.9002C51.8526 36.0035 52.7921 36.3812 52.9082 36.4538C52.9845 36.6682 53.0151 37.2434 53.037 37.4977C52.0207 38.0754 50.0064 39.0223 49.1605 39.6131C48.5637 40.3257 47.2631 41.212 46.3455 41.2879C46.2039 41.2988 46.0617 41.3029 45.9192 41.3007C45.0943 41.6449 43.9473 42.2857 43.133 42.709L38.6025 45.0561C38.1483 45.2933 36.4273 46.2176 36.0621 46.3158C35.389 46.0425 34.7186 45.7628 34.0514 45.4766C33.5314 46.4246 33.1055 46.5741 32.1157 47.0458C31.5134 47.2881 30.4975 47.7808 29.8527 47.6944C27.885 47.4302 26.2225 45.739 25.5869 43.9084C25.3346 43.1811 25.3282 42.5837 25.3926 41.8195C25.2423 41.7834 24.3676 41.4021 24.1725 41.3203L21.3058 40.1226L11.3518 36.0004C10.6984 36.7496 9.8624 37.2366 8.9255 37.5646C8.63962 37.7612 7.92454 37.986 7.58614 37.9598C5.07811 37.7661 3.19976 34.9061 3.18888 32.5768C2.1552 32.1023 1.07207 31.6472 0.0281483 31.1842L0 30.2761C0.342779 30.0431 0.639173 29.9301 1.02052 29.7671C1.034 29.1138 0.930315 27.3665 1.09021 26.8852C1.02788 26.2278 1.13152 20.8585 1.29082 20.3461C0.89065 20.1246 0.559523 19.8705 0.410228 19.4263L0.399398 19.3934C0.308414 19.1224 0.33743 18.7716 0.344239 18.4803C0.504913 18.2174 1.10703 17.5867 1.34086 17.3497C1.25568 16.6609 1.31756 13.6898 1.59892 13.1354C1.68017 12.9905 1.77865 12.8521 1.92936 12.7778C2.77399 12.3612 3.655 11.9579 4.51014 11.5664C6.47181 10.674 8.44101 9.79813 10.4175 8.93903C11.7127 8.36465 13.5567 7.42918 14.897 6.99636C15.1831 6.90393 17.2815 7.72363 17.85 7.8864C17.8154 7.43032 17.7523 7.16896 18.0911 6.82038C18.3743 6.47002 18.6165 6.55124 18.8509 6.32645C18.7673 5.97435 18.6485 5.19927 18.8818 4.90431L18.918 4.76334C19.0897 4.6083 19.2637 4.45577 19.4398 4.30579C19.5551 4.1012 19.6298 4.04379 19.8013 3.88491C19.7029 2.74941 20.2045 2.9891 20.3792 2.52877C20.4584 2.40206 20.5853 2.29858 20.6802 2.17814C21.0549 1.70258 20.9927 1.37019 20.9475 0.825381C20.8612 0.541026 20.6985 0.570006 20.7526 0.242365Z" fill="#FCFAF6"/>
<path d="M1.59895 13.1353C1.8731 13.1659 2.01737 13.3091 2.25445 13.414C5.87073 15.0138 9.76083 16.3325 13.424 17.7893C13.6437 17.8706 13.9022 17.974 14.1237 18.0378C14.3116 18.1767 14.5314 18.1635 14.6839 18.2281C14.9648 18.347 16.2485 18.7671 16.401 18.8812C16.8126 19.1372 18.9699 19.929 19.5769 20.1617L24.9439 22.2265C26.1125 22.6717 27.5561 23.1786 28.6661 23.7032C28.7164 24.1771 28.8727 24.5734 28.9586 25.0221C29.0934 25.7288 29.235 26.4079 29.3927 27.1103C29.8981 29.4347 30.4282 31.7535 30.983 34.0665C31.0868 34.5135 31.53 36.7456 31.6552 36.9951L31.6027 37.1414L31.6415 37.1299C32.1762 37.416 34.8363 38.6784 35.1571 38.9701C35.2408 39.6222 35.2769 40.3881 35.3523 41.0598C35.4569 41.9863 35.7759 43.7137 35.7087 44.6014L35.5789 44.5849C35.0027 44.6224 34.6732 44.5428 34.1074 44.4432C34.5813 44.6379 35.653 45.0539 36.0597 45.2897C36.0588 45.6317 36.0597 45.974 36.0629 46.3164C35.3897 46.043 34.7193 45.7633 34.0521 45.4772C33.5321 46.4252 33.1062 46.5746 32.1163 47.0464C31.514 47.2886 30.4982 47.7814 29.8533 47.695C27.8856 47.4308 26.223 45.7395 25.5874 43.9088C25.3351 43.1816 25.3287 42.5842 25.3932 41.8199C25.2428 41.7838 24.3681 41.4026 24.173 41.3208L21.3062 40.123L11.3521 36.0007C10.6986 36.75 9.8626 37.237 8.92568 37.565C8.63979 37.7616 7.9247 37.9864 7.5863 37.9602C5.07822 37.7665 3.19982 34.9064 3.18894 32.5771C2.15524 32.1025 1.07209 31.6474 0.0281489 31.1844L0 30.2763C0.342786 30.0433 0.639186 29.9303 1.02054 29.7673C1.03402 29.114 0.930333 27.3667 1.09023 26.8853C1.0279 26.228 1.13155 20.8585 1.29085 20.3462C0.890668 20.1247 0.559534 19.8706 0.410237 19.4263L0.399406 19.3934C0.30842 19.1224 0.337437 18.7716 0.344246 18.4802C0.504923 18.2174 1.10705 17.5867 1.34089 17.3497C1.25571 16.6608 1.31758 13.6897 1.59895 13.1353Z" fill="#CBC3C2"/>
<path d="M13.1269 23.4282C13.4936 23.5774 15.2589 24.3208 15.5644 24.3932L15.5659 24.4156C15.5184 24.6006 15.5024 24.9039 15.5309 25.0907C15.7637 25.3846 15.8822 25.6721 16.1327 25.9619C16.0293 26.1401 16.0055 26.1735 15.8694 26.328L15.9191 26.7114C15.7839 26.9776 15.6969 26.9409 15.4101 26.9876C15.1959 26.9802 15.0937 26.9933 14.9199 26.8694C14.6729 26.9328 14.3416 27.04 14.1178 27.1624C14.0554 27.2768 14.0375 27.323 13.948 27.4154C13.8166 27.285 13.342 27.0496 13.1626 26.9551C13.1807 26.6957 13.2856 26.4882 13.2548 26.2619L13.1534 26.1997C13.162 26.024 13.0912 25.612 13.0324 25.4378C12.9857 25.2994 12.9848 25.3255 12.8647 25.2732C12.8522 25.0222 12.7313 24.9908 12.5294 24.7911L12.5868 24.6892C12.6396 24.5651 13.009 24.2485 13.1277 24.1391C13.15 23.945 13.1324 23.6338 13.1269 23.4282Z" fill="#5D4A5D"/>
<path d="M13.127 23.4282C13.4937 23.5774 15.259 24.3208 15.5645 24.3932L15.5659 24.4156C15.5185 24.6006 15.5024 24.9039 15.531 25.0907C15.382 25.6032 14.8743 25.6753 14.4463 25.4688C13.8157 25.1645 13.3897 24.7941 13.1277 24.1391C13.15 23.945 13.1325 23.6338 13.127 23.4282Z" fill="#C5BEBC"/>
<path d="M15.8695 26.3271L15.9192 26.7106C15.784 26.9768 15.697 26.9401 15.4101 26.9868C15.196 26.9793 15.0938 26.9925 14.92 26.8686C15.3809 26.7589 15.6359 26.7695 15.8695 26.3271Z" fill="#4C334F"/>
<path d="M1.09023 26.8853L1.22527 26.9261C1.39605 27.1933 5.49462 28.7503 6.13322 29.0066L15.238 32.6592C16.7027 33.2546 18.1712 33.8406 19.6434 34.4172C20.1376 34.6139 21.3936 35.1497 21.857 35.2697C21.8319 35.702 21.8547 36.1197 21.8341 36.5148C21.9292 36.3872 21.9201 35.8386 21.9557 35.601L21.9795 35.4492C22.2445 35.3454 23.2709 35.8608 23.5533 36.0001C24.0272 36.193 24.5043 36.3794 24.9837 36.5592C25.6993 36.7743 26.4026 37.0976 27.1192 37.3298C28.524 37.7851 30.086 37.8392 31.546 37.7457C31.5565 37.7395 31.5671 37.7332 31.5771 37.7269C31.573 37.4918 31.5702 37.3732 31.6027 37.1414L31.6415 37.1298C32.1762 37.416 34.8363 38.6783 35.1571 38.97C35.2408 39.6222 35.2769 40.388 35.3523 41.0597C35.4569 41.9862 35.7759 43.7136 35.7087 44.6013L35.5789 44.5848C35.0027 44.6223 34.6732 44.5428 34.1074 44.4431C34.5813 44.6379 35.653 45.0538 36.0597 45.2897C36.0588 45.6316 36.0597 45.974 36.0629 46.3163C35.3897 46.043 34.7193 45.7632 34.0521 45.4771C33.5321 46.4251 33.1062 46.5746 32.1163 47.0463C31.514 47.2886 30.4982 47.7813 29.8533 47.6949C27.8856 47.4307 26.223 45.7395 25.5874 43.9088C25.3351 43.1815 25.3287 42.5841 25.3932 41.8198C25.2428 41.7837 24.3681 41.4025 24.173 41.3207L21.3062 40.123L11.3521 36.0007C10.6986 36.7499 9.8626 37.2369 8.92568 37.5649C8.63979 37.7615 7.9247 37.9863 7.5863 37.9602C5.07822 37.7664 3.19982 34.9063 3.18894 32.577C2.15524 32.1025 1.07209 31.6474 0.0281489 31.1844L0 30.2762C0.342786 30.0433 0.639186 29.9302 1.02054 29.7672C1.03402 29.1139 0.930333 27.3666 1.09023 26.8853Z" fill="#C5BEBC"/>
<path d="M1.09 26.8853L1.22504 26.9261C1.39582 27.1933 5.4944 28.7503 6.13299 29.0066L15.2378 32.6592C16.7025 33.2546 18.171 33.8406 19.6432 34.4172C20.1374 34.6139 21.3933 35.1497 21.8568 35.2697C21.8316 35.702 21.8545 36.1197 21.8339 36.5148C21.7887 37.2171 21.8033 37.9026 21.8243 38.6055C21.6587 38.716 21.6562 38.6499 21.4558 38.6881L21.4112 38.6661C21.0287 38.579 20.3214 38.2271 19.9276 38.0733C19.3556 37.85 18.7748 37.6096 18.2077 37.3741C15.8976 36.4394 13.5951 35.486 11.3005 34.5138L4.37048 31.6445C3.50984 31.2872 1.8917 30.683 1.124 30.2813L1.10993 30.2738C1.03941 30.1685 1.03366 29.9074 1.02031 29.7672C1.03379 29.1139 0.930105 27.3666 1.09 26.8853Z" fill="#679EBB"/>
<path d="M1.12415 30.2818C1.47918 30.1986 3.14521 30.9554 3.59635 31.1109C4.96567 31.5828 6.26264 32.2268 7.58087 32.7823L14.2436 35.5284C14.6241 35.6856 15.1305 35.8048 15.4805 35.9648C16.7029 36.5238 17.9365 36.9397 19.1559 37.5039C19.7738 37.7898 20.4323 37.9126 21.032 38.3509C21.1716 38.4529 21.314 38.4954 21.4114 38.6666C21.0288 38.5795 20.3216 38.2276 19.9277 38.0738C19.3557 37.8505 18.775 37.6101 18.2079 37.3746C15.8977 36.4399 13.5952 35.4865 11.3006 34.5143L4.37062 31.645C3.50998 31.2877 1.89184 30.6835 1.12415 30.2818Z" fill="#648CA7"/>
<path d="M21.955 35.6025L21.9788 35.4507C22.2438 35.3469 23.2702 35.8623 23.5526 36.0016C24.0265 36.1945 24.5036 36.3809 24.983 36.5607C25.6986 36.7758 26.402 37.0991 27.1185 37.3313C28.5233 37.7866 30.0853 37.8407 31.5453 37.7472C31.5558 37.741 31.5664 37.7347 31.5764 37.7284C31.5723 37.4933 31.5696 37.3747 31.602 37.1429L31.6408 37.1313C32.1755 37.4175 34.8356 38.6798 35.1564 38.9715C35.2401 39.6237 35.2762 40.3895 35.3516 41.0612C35.4562 41.9877 35.7752 43.7151 35.708 44.6028L35.5782 44.5863L35.5618 44.5365L35.5284 44.4405L35.4325 44.3976C35.0143 43.8833 33.4076 43.3668 32.7372 43.0802C30.7904 42.2492 28.8336 41.4433 26.8662 40.6618C26.5943 40.5558 26.0921 40.4279 25.8664 40.3241C25.5638 40.1848 25.1297 39.8238 24.7467 39.7612L24.4401 39.5446C23.7656 39.2781 22.571 38.8656 21.9632 38.5795L21.8239 38.607C21.8028 37.9041 21.7882 37.2186 21.8335 36.5163C21.9285 36.3887 21.9194 35.8401 21.955 35.6025Z" fill="#679EBB"/>
<path d="M21.9635 38.5792C22.0174 38.4904 22.0256 38.4341 22.0563 38.334C22.5343 38.5591 24.3439 39.1791 24.5816 39.416L24.6021 39.4793C24.5487 39.5014 24.4943 39.5231 24.4404 39.5444C23.7659 39.2778 22.5713 38.8653 21.9635 38.5792Z" fill="#6A849D"/>
<path d="M21.8335 36.5158C21.9285 36.3882 21.9194 35.8396 21.955 35.6021C21.9733 35.9118 22.0217 38.2504 22.056 38.3338C22.0254 38.4339 22.0172 38.4902 21.9632 38.579L21.8239 38.6065C21.8028 37.9036 21.7882 37.2181 21.8335 36.5158Z" fill="#6A849D"/>
<path d="M24.9831 36.561C24.7235 36.6746 23.6204 36.2449 23.4814 36.0628L23.5527 36.002C24.0266 36.1948 24.5037 36.3813 24.9831 36.561Z" fill="#829FA6"/>
<path d="M25.3926 41.8213C25.6979 41.9456 26.0356 42.0928 26.3436 42.1998L27.1259 42.5389L27.4472 42.6715C28.2675 43.0248 29.1531 43.4079 29.9853 43.7269C30.334 43.8778 30.6662 44.0199 31.0062 44.1904L31.2831 44.2873C31.7845 44.5109 32.3479 44.7321 32.8314 44.9629C33.1362 45.0873 33.7865 45.3327 34.0516 45.4785C33.5315 46.4266 33.1056 46.576 32.1158 47.0477C31.5135 47.29 30.4976 47.7828 29.8528 47.6964C27.885 47.4322 26.2225 45.7409 25.5868 43.9102C25.3345 43.183 25.3282 42.5856 25.3926 41.8213Z" fill="#4C334F"/>
<path d="M26.3437 42.1987L27.126 42.5379L27.4473 42.6705C28.2676 43.0238 29.1532 43.4068 29.9854 43.7259C30.3341 43.8767 30.6663 44.0189 31.0063 44.1894C30.9291 44.4399 31.0017 44.7534 30.9542 44.9427C30.8834 45.2265 30.6768 45.6631 30.5644 45.9515C29.1884 47.7708 25.8167 45.0099 26.3437 42.1987Z" fill="#CBADAB"/>
<path d="M27.1258 42.5386L27.4471 42.6711C28.2673 43.0245 29.153 43.4075 29.9852 43.7266C30.0894 44.3656 30.1817 44.9539 29.5588 45.3671C28.6535 45.3264 28.3089 45.0074 27.751 44.3213C27.4653 44.1896 27.3173 43.7956 27.0344 43.5122C26.9485 43.2453 26.9608 42.7731 27.1258 42.5386Z" fill="#4C334F"/>
<path d="M27.1258 42.5386L27.4471 42.6711C27.1057 43.0734 27.5257 43.946 27.751 44.3213C27.4653 44.1896 27.3173 43.7956 27.0344 43.5122C26.9485 43.2453 26.9608 42.7731 27.1258 42.5386Z" fill="#9E858A"/>
<path d="M27.0345 43.5112C27.3174 43.7946 27.4654 44.1886 27.751 44.3203C28.309 45.0064 28.6536 45.3255 29.5589 45.3661C28.7057 46.0737 27.2502 44.313 27.0345 43.5112Z" fill="#B38B8D"/>
<path d="M32.8312 44.9604C33.1361 45.0848 33.7863 45.3302 34.0514 45.4761C33.5313 46.4241 33.1054 46.5735 32.1156 47.0453C32.1439 46.7299 32.5465 46.0877 32.6736 45.7636C32.7741 45.5067 32.7165 45.1762 32.8312 44.9604Z" fill="#382745"/>
<path d="M30.5641 45.9516C30.6765 45.6631 30.8831 45.2266 30.9539 44.9428C31.0014 44.7535 30.9288 44.4399 31.006 44.1895L31.2829 44.2864L31.2683 44.3467C31.133 44.9162 31.1701 45.6019 30.5641 45.9516Z" fill="#9E858A"/>
<path d="M3.18878 32.5786C3.46777 32.6915 3.77085 32.808 4.04559 32.9261C4.19269 32.981 4.62523 33.1389 4.73993 33.2206L5.10086 33.3561C5.81042 33.6797 6.97048 34.0822 7.59267 34.4008C7.88162 34.5123 8.38463 34.6869 8.6261 34.846C8.8004 34.9198 9.70637 35.291 9.81308 35.361C10.3272 35.5719 10.8402 35.7857 11.3519 36.0023C10.6984 36.7515 9.86243 37.2385 8.92552 37.5666C8.63963 37.7632 7.92453 37.9879 7.58614 37.9618C5.07806 37.7681 3.19966 34.9079 3.18878 32.5786Z" fill="#4C334F"/>
<path d="M4.04569 32.9258C4.19279 32.9806 4.62533 33.1385 4.74003 33.2202L5.10096 33.3557C5.81053 33.6793 6.97059 34.0818 7.59277 34.4004C7.88173 34.512 8.38473 34.6866 8.6262 34.8456C8.62291 34.8936 8.61875 34.9933 8.60623 35.0356C7.67224 38.1909 5.09402 36.6192 4.25065 34.3478C4.05149 33.8114 4.03596 33.5057 4.04569 32.9258Z" fill="#CBADAB"/>
<path d="M5.10089 33.355C5.81046 33.6786 6.97052 34.0811 7.59271 34.3997C7.63466 35.0868 7.6231 35.4208 6.98153 35.7962C6.014 35.534 4.85682 34.4097 5.10089 33.355Z" fill="#4C334F"/>
<path d="M4.73998 33.2207L5.10091 33.3562C4.85683 34.4109 6.01401 35.5352 6.98154 35.7974C6.12328 36.3115 4.51752 34.3523 4.73998 33.2207Z" fill="#B38B8D"/>
<path d="M8.92554 37.5644C9.03165 37.305 9.45514 36.7342 9.56975 36.3455C9.65831 36.0452 9.68075 35.5159 9.8131 35.3589C10.3272 35.5698 10.8402 35.7835 11.3519 36.0001C10.6985 36.7494 9.86245 37.2364 8.92554 37.5644Z" fill="#382745"/>
<path d="M21.8242 38.6066L21.9635 38.5791C22.5713 38.8652 23.7659 39.2777 24.4404 39.5443L24.747 39.7608C25.13 39.8234 25.5641 40.1844 25.8667 40.3237C26.0924 40.4276 26.5946 40.5555 26.8665 40.6614C28.8339 41.443 30.7907 42.2488 32.7375 43.0798C33.4079 43.3664 35.0146 43.883 35.4328 44.3972L35.5287 44.4402L35.5621 44.5361C35.3469 44.4973 33.8653 43.8546 33.5628 43.7257C30.6403 42.5725 27.5561 41.2396 24.6383 40.0319C23.6777 39.6612 22.4288 39.1028 21.4557 38.6893C21.656 38.651 21.6585 38.7171 21.8242 38.6066Z" fill="#648CA7"/>
<path d="M5.38268 20.4814C6.3439 20.7039 7.17909 21.2245 8.00619 21.4697C8.00606 21.6531 8.01675 22.0194 8.00002 22.188C8.16294 22.5315 8.268 22.7203 8.5262 23.0039L8.77274 23.2149L8.90856 23.293C9.4914 23.5172 9.95757 23.8978 10.4149 23.1466C10.5983 23.3428 10.7296 23.5679 10.8863 23.7845C11.2053 24.2254 12.0451 24.6617 12.587 24.6899L12.5295 24.7917C12.7315 24.9914 12.8524 25.0228 12.8649 25.2738C12.985 25.3262 12.9858 25.3001 13.0325 25.4384C13.0914 25.6126 13.1621 26.0246 13.1536 26.2003L13.255 26.2626C13.2858 26.4889 13.1808 26.6964 13.1627 26.9557C13.3422 27.0502 13.8168 27.2857 13.9482 27.416L14.1118 27.5816C14.2191 27.6316 14.4078 27.7292 14.5141 27.7532C14.6363 27.8563 14.7351 27.9563 14.8827 28.0136C15.1222 28.0911 16.0003 28.4317 16.1674 28.58L16.2886 28.5829L16.4677 28.6962L16.5806 28.7495C16.9463 28.8683 17.1936 28.9804 17.5349 29.1552C17.7954 29.2538 18.3346 29.5649 18.5343 29.4771L18.5842 29.3998C18.7129 29.3833 18.7085 29.3775 18.8195 29.4378C18.7036 29.4836 18.6064 29.4936 18.5663 29.5955C18.43 29.9426 18.6027 30.9589 18.4508 31.2281C18.5045 31.2325 18.6936 31.1883 18.7562 31.1757C19.1563 31.2417 19.9505 31.1865 20.2361 31.3203C20.2285 31.7927 20.2274 32.2828 20.194 32.7524C20.0566 32.6645 19.9796 32.5938 19.8192 32.5895C19.6839 32.5167 19.6028 32.4722 19.4578 32.417C19.3433 32.2405 18.8215 31.9899 18.6143 31.9063C15.8083 30.7742 13.0042 29.659 10.1831 28.5658C8.52222 27.9222 6.98565 27.2417 5.28538 26.6483L5.15021 26.6382C5.17383 26.4405 5.29882 26.241 5.3065 25.947C5.3389 24.7082 5.2549 23.3185 5.17319 22.0846L5.17598 21.4213L5.35165 21.1167C5.32057 20.9283 5.33543 20.6676 5.38268 20.4814Z" fill="#7A6776"/>
<path d="M5.38268 20.4814C6.3439 20.7039 7.17909 21.2245 8.00619 21.4697C8.00606 21.6531 8.01675 22.0194 8.00002 22.188C8.16294 22.5315 8.268 22.7203 8.5262 23.0039L8.77274 23.2149L8.90856 23.293C8.92643 23.4492 8.94388 23.5926 8.95028 23.7504C8.99758 23.9924 9.08747 24.2715 9.04424 24.4997L9.06974 24.6708C9.06466 24.9127 9.16794 25.4069 9.27113 25.619C9.26163 26.1465 9.247 26.6667 9.3394 27.1878C9.09227 27.108 8.96856 27.0443 8.74002 26.9215C8.68454 26.9445 8.6287 26.9666 8.57249 26.9879C8.38951 27.0564 8.28761 27.0925 8.1076 27.0111C7.96922 26.8478 8.0093 26.8964 7.9642 26.6701C7.57484 26.7276 7.4255 26.7657 7.05913 26.645C6.97555 26.6009 6.97436 26.5666 6.91431 26.4761C6.46405 26.4519 5.85676 26.563 5.4345 26.5329L5.38958 26.5304L5.28538 26.6483L5.15021 26.6382C5.17383 26.4405 5.29882 26.241 5.3065 25.947C5.3389 24.7082 5.2549 23.3185 5.17319 22.0846L5.17598 21.4213L5.35165 21.1167C5.32057 20.9283 5.33543 20.6676 5.38268 20.4814Z" fill="#6A5E6E"/>
<path d="M5.38257 20.4814C6.3438 20.7039 7.17899 21.2245 8.00609 21.4697C8.00595 21.6531 8.01664 22.0194 7.99992 22.188L7.9608 22.2013C7.77001 22.51 7.38947 22.7166 7.01964 22.6024C6.15726 22.3362 5.79893 21.8455 5.35154 21.1167C5.32047 20.9283 5.33532 20.6676 5.38257 20.4814Z" fill="#C75E7B"/>
<path d="M7.88147 24.9519C8.63742 25.1737 8.70162 25.2015 9.04414 24.5L9.06964 24.6711C9.06456 24.913 9.16784 25.4072 9.27103 25.6193C9.26153 26.1468 9.2469 26.667 9.3393 27.1881C9.09216 27.1083 8.96846 27.0446 8.73992 26.9218C8.68444 26.9448 8.6286 26.9669 8.57239 26.9882C8.38941 27.0567 8.2875 27.0928 8.1075 27.0114C7.96912 26.8481 8.0092 26.8967 7.96409 26.6704C7.98827 26.4456 7.89938 25.2438 7.88147 24.9519Z" fill="#B4775B"/>
<path d="M8.73993 26.9196C8.80747 26.3733 8.9023 25.0879 9.06964 24.6689C9.06457 24.9108 9.16785 25.405 9.27104 25.6171C9.26153 26.1446 9.24691 26.6648 9.33931 27.1859C9.09217 27.1061 8.96847 27.0424 8.73993 26.9196Z" fill="#4C334F"/>
<path d="M6.65765 24.1782C6.92248 24.3415 7.14183 24.4586 7.45107 24.5247L7.55527 24.49L7.63314 24.3982L7.83472 24.4053C7.84125 24.5264 7.85098 24.8535 7.88169 24.9502C7.89961 25.2422 7.98849 26.4439 7.96432 26.6688C7.57496 26.7263 7.42562 26.7643 7.05925 26.6436C6.97567 26.5996 6.97448 26.5652 6.91444 26.4747L6.93555 26.3164C6.93751 25.9061 6.84968 25.4764 6.77985 25.071C6.78301 24.9706 6.7098 24.5356 6.69088 24.4107L6.65765 24.1782Z" fill="#A76753"/>
<path d="M7.63303 24.3989L7.8346 24.406C7.84114 24.5271 7.85087 24.8542 7.88158 24.9509C7.89949 25.2429 7.98838 26.4446 7.96421 26.6695C7.57485 26.727 7.42551 26.7651 7.05914 26.6443C7.126 26.5385 7.28997 26.5246 7.35257 26.4466C7.70011 26.0139 7.53317 25.0353 7.55323 24.5313L7.55516 24.4907L7.63303 24.3989Z" fill="#915348"/>
<path d="M6.65765 24.1782C6.92248 24.3415 7.14183 24.4586 7.45107 24.5247C7.33029 24.6284 7.241 24.676 7.08763 24.695C6.91393 24.6646 6.81486 24.5365 6.69088 24.4107L6.65765 24.1782Z" fill="#B07354"/>
<path d="M8.52626 23.0034L8.7728 23.2144L8.90862 23.2925C8.92649 23.4487 8.94395 23.5921 8.95034 23.7499C8.99764 23.9918 9.08753 24.2709 9.0443 24.4992C8.70179 25.2006 8.63758 25.1729 7.88163 24.9511C7.85092 24.8544 7.84119 24.5272 7.83466 24.4061C7.86267 24.2116 7.87199 23.9778 7.88479 23.7786L7.89987 23.4757C7.94337 23.3181 8.01361 23.1925 8.086 23.0461C8.22273 22.9964 8.30453 23.1053 8.52626 23.0034Z" fill="#967F80"/>
<path d="M8.52612 23.0034L8.77266 23.2144L8.90848 23.2925C8.92634 23.4487 8.9438 23.5921 8.9502 23.7499C8.53311 23.8259 8.30644 23.8257 7.88464 23.7786L7.89972 23.4757C7.94323 23.3181 8.01347 23.1925 8.08586 23.0461C8.22259 22.9964 8.30439 23.1053 8.52612 23.0034Z" fill="#915348"/>
<path d="M8.52611 23.0034L8.77266 23.2144C8.61207 23.4233 8.38613 23.5188 8.12885 23.5545C8.08091 23.5607 8.03275 23.5652 7.98449 23.5679C7.93737 23.5254 7.93002 23.5283 7.89972 23.4757C7.94322 23.3181 8.01346 23.1925 8.08585 23.0461C8.22258 22.9964 8.30438 23.1053 8.52611 23.0034Z" fill="#A76753"/>
<path d="M7.65768 23.0679L8.08588 23.0464C8.01349 23.1927 7.94325 23.3184 7.89975 23.476L7.88466 23.7789C7.87187 23.978 7.86255 24.2119 7.83453 24.4064L7.63296 24.3994L7.55509 24.4911L7.45089 24.5259C7.14165 24.4597 6.9223 24.3426 6.65747 24.1794C6.59208 23.9147 6.47847 23.4244 6.84543 23.3921C7.12163 23.4781 7.32824 23.4684 7.61655 23.4452L7.5342 23.3625C7.61225 23.2476 7.63437 23.205 7.65768 23.0679Z" fill="#928080"/>
<path d="M7.65784 23.0679L8.08604 23.0464C8.01365 23.1927 7.94341 23.3184 7.89991 23.476L7.88483 23.7789C7.87203 23.978 7.86271 24.2119 7.8347 24.4064L7.63312 24.3994C7.74083 24.2214 7.78822 23.7346 7.73119 23.5283C7.71821 23.4813 7.66552 23.4715 7.61671 23.4452L7.53436 23.3625C7.61242 23.2476 7.63454 23.205 7.65784 23.0679Z" fill="#634C5F"/>
<path d="M5.38959 26.5302C5.41888 26.2095 6.54599 25.9447 6.73592 25.695C6.85281 25.5412 6.63337 25.3225 6.77974 25.0723C6.84957 25.4777 6.9374 25.9073 6.93544 26.3177L6.91432 26.4759C6.46405 26.4517 5.85676 26.5628 5.43451 26.5327L5.38959 26.5302Z" fill="#5D4A5D"/>
<path d="M5.43451 26.5328C5.91576 26.2748 6.2708 26.1591 6.80565 26.1719L6.93544 26.3177L6.91432 26.476C6.46406 26.4518 5.85677 26.5629 5.43451 26.5328Z" fill="#634C5F"/>
<path d="M6.8457 23.392C7.21166 23.1147 7.12113 22.9477 7.65795 23.0678C7.63465 23.2049 7.61253 23.2474 7.53447 23.3623L7.61682 23.445C7.32851 23.4683 7.12191 23.478 6.8457 23.392Z" fill="#915348"/>
<path d="M10.4148 23.146C10.5982 23.3423 10.7296 23.5673 10.8863 23.7839C11.2053 24.2249 12.045 24.6611 12.5869 24.6893L12.5295 24.7912C12.7315 24.9908 12.8523 25.0222 12.8648 25.2732C12.9849 25.3256 12.9858 25.2995 13.0325 25.4378C13.0913 25.6121 13.1621 26.0241 13.1536 26.1998L13.255 26.262C13.2858 26.4883 13.1808 26.6958 13.1627 26.9551L13.0148 27.7086C12.9664 27.8421 12.759 28.3903 12.7396 28.4857L12.4381 28.6064L12.3594 28.6096L12.2731 28.569C12.1396 28.3091 12.0325 28.4177 11.8271 28.2815L11.8032 28.3088C11.6716 28.1934 11.4733 28.2147 11.302 28.2146C11.1019 28.2495 10.8512 28.1032 10.6702 28.016C10.6664 27.6964 10.6599 27.4948 10.6149 27.1796L10.5591 27.2799C10.3968 27.2895 10.0303 27.3072 9.88687 27.2524L9.87965 27.1804C9.9067 26.8995 9.91872 26.7548 9.90506 26.4752C9.84172 26.6844 9.75704 27.1045 9.65573 27.247C9.53618 27.2836 9.47147 27.2476 9.33935 27.1872C9.24695 26.6662 9.26158 26.146 9.27108 25.6184C9.16789 25.4063 9.06461 24.9121 9.06969 24.6703L9.04419 24.4991C9.08742 24.2709 8.99753 23.9918 8.95023 23.7499C8.94383 23.592 8.92638 23.4487 8.90851 23.2924C9.49135 23.5166 9.95752 23.8972 10.4148 23.146Z" fill="#5D4A5D"/>
<path d="M12.8649 25.2729C12.985 25.3253 12.9859 25.2992 13.0326 25.4376C13.0914 25.6118 13.1622 26.0238 13.1537 26.1995L13.2551 26.2617C13.2859 26.488 13.1809 26.6955 13.1628 26.9548L13.0149 27.7083C12.9665 27.8418 12.7591 28.39 12.7397 28.4854L12.4382 28.6061L12.3595 28.6093L12.2732 28.5687C12.1397 28.3088 12.0326 28.4174 11.8272 28.2812C11.8236 27.594 11.8242 26.9132 11.7919 26.2264C11.8098 26.1183 11.8326 26.0066 11.8529 25.8984C11.9495 25.7336 12.0248 25.573 12.1077 25.4013C12.3555 25.3758 12.6355 25.3616 12.8649 25.2729Z" fill="#AB6E55"/>
<path d="M12.8649 25.2729C12.985 25.3253 12.9859 25.2992 13.0326 25.4376C13.0914 25.6118 13.1622 26.0238 13.1537 26.1995C12.8431 26.8216 12.1756 26.6776 11.7919 26.2264C11.8098 26.1183 11.8326 26.0066 11.8529 25.8984C11.9495 25.7336 12.0248 25.573 12.1077 25.4013C12.3555 25.3758 12.6355 25.3616 12.8649 25.2729Z" fill="#917F7E"/>
<path d="M10.3922 25.562C10.6835 25.9179 10.7727 25.8828 11.22 26.0138L11.6031 25.8971L11.8004 25.8786L11.8529 25.8996C11.8325 26.0077 11.8098 26.1194 11.7919 26.2275C11.8241 26.9143 11.8235 27.5952 11.8272 28.2823L11.8033 28.3096C11.6716 28.1943 11.4733 28.2156 11.302 28.2154C11.1019 28.2503 10.8513 28.1041 10.6702 28.0169C10.6664 27.6972 10.6599 27.4957 10.6149 27.1804L10.4836 26.3361C10.5011 26.195 10.4172 25.7276 10.3922 25.562Z" fill="#A76B52"/>
<path d="M11.603 25.8949L11.8003 25.8765L11.8528 25.8974C11.8325 26.0056 11.8097 26.1173 11.7918 26.2254C11.824 26.9122 11.8235 27.5931 11.8271 28.2802L11.8032 28.3075C11.6716 28.1921 11.4732 28.2134 11.3019 28.2133L11.3238 28.1519C11.6832 27.942 11.6515 26.2879 11.603 25.8949Z" fill="#915348"/>
<path d="M10.3922 25.5609C10.3965 25.3418 10.384 24.9891 10.4535 24.7958L10.5306 24.7754C10.7658 24.8864 11.0853 25.0525 11.3334 24.8816C11.6502 24.9893 11.7018 25.0719 11.7579 25.3957C11.7812 25.5644 11.8077 25.7066 11.8004 25.8775L11.6031 25.8959L11.22 26.0126C10.7727 25.8816 10.6835 25.9167 10.3922 25.5609Z" fill="#908485"/>
<path d="M9.27104 25.6179C9.35513 25.4518 9.38341 25.3899 9.40475 25.1993C9.47577 25.1124 9.50278 25.0657 9.62849 25.0649C10.1171 25.0619 9.87349 26.17 9.90502 26.4747C9.84168 26.6839 9.757 27.104 9.65569 27.2465C9.53614 27.2832 9.47143 27.2471 9.33931 27.1868C9.24691 26.6657 9.26153 26.1455 9.27104 25.6179Z" fill="#90726F"/>
<path d="M10.4836 26.3354L10.615 27.1798L10.5593 27.2801C10.3969 27.2897 10.0304 27.3074 9.88698 27.2527L9.87976 27.1806C10.2018 26.7461 10.3791 26.8627 10.4836 26.3354Z" fill="#4C334F"/>
<path d="M12.5295 24.7905C12.7315 24.9902 12.8523 25.0216 12.8648 25.2726C12.6354 25.3613 12.3554 25.3754 12.1076 25.4009L12.157 25.1592C12.2286 25.0103 12.4007 24.8895 12.5295 24.7905Z" fill="#A76753"/>
<path d="M10.5305 24.7757C10.7769 24.6409 11.0117 24.4208 11.3176 24.4424L11.3864 24.5077C11.3873 24.6376 11.3758 24.6474 11.3162 24.7677L11.3333 24.8819C11.0852 25.0529 10.7657 24.8867 10.5305 24.7757Z" fill="#A76753"/>
<path d="M11.7578 25.3949C11.7686 25.3059 11.7828 25.221 11.7972 25.1327L11.8713 25.0869L12.157 25.1588L12.1076 25.4005C12.0247 25.5722 11.9493 25.7328 11.8528 25.8977L11.8003 25.8767C11.8076 25.7058 11.7811 25.5636 11.7578 25.3949Z" fill="#382745"/>
<path d="M9.16309 23.9795L9.3058 24.0192C9.4302 24.1308 9.45812 24.2359 9.52388 24.3906C9.37526 24.4018 9.28949 24.4238 9.15696 24.3593C9.09801 24.2011 9.1337 24.1617 9.16309 23.9795Z" fill="#382745"/>
<path d="M14.1117 27.5806C14.219 27.6305 14.4078 27.7281 14.5141 27.7522C14.6362 27.8553 14.7351 27.9553 14.8826 28.0125C15.1221 28.09 16.0002 28.4307 16.1674 28.579L16.2885 28.5819L16.4676 28.6952L16.5805 28.7485C16.9462 28.8673 17.1935 28.9793 17.5348 29.1541C17.7953 29.2527 18.3346 29.5639 18.5343 29.4761L18.5842 29.3988C18.7128 29.3823 18.7084 29.3765 18.8194 29.4368C18.7035 29.4826 18.6063 29.4926 18.5663 29.5945C18.4299 29.9416 18.6026 30.9579 18.4507 31.227C17.4602 30.6801 16.1075 30.3649 15.0918 29.8186C14.9629 29.7493 14.9867 29.7101 14.9605 29.5777C14.988 29.4486 14.938 29.3166 14.9046 29.1835C14.5224 29.1594 14.4069 29.2128 14.2579 28.8637L14.2251 28.6286L14.1745 28.3258L14.1117 27.5806Z" fill="#B88B6A"/>
<path d="M14.1117 27.5806C14.219 27.6305 14.4078 27.7281 14.5141 27.7522C14.6362 27.8553 14.7351 27.9553 14.8826 28.0125C14.8775 28.414 14.8666 28.783 14.9046 29.1835C14.5224 29.1594 14.4069 29.2128 14.2579 28.8637L14.2251 28.6286L14.1745 28.3258L14.1117 27.5806Z" fill="#9D7F77"/>
<path d="M16.5805 28.7495C16.9462 28.8683 17.1935 28.9803 17.5348 29.1551C17.3405 29.1697 17.1874 29.1254 17.0192 29.2097C16.9535 29.3871 17.1056 29.715 16.8901 29.9438C16.7124 29.8176 16.9196 29.7934 16.5867 29.5176C16.6478 29.4409 16.6981 29.3681 16.7539 29.2881C16.7733 29.1295 16.6432 28.9188 16.5805 28.7495Z" fill="#B07354"/>
<path d="M16.4675 28.6953L16.5804 28.7487C16.643 28.9179 16.7732 29.1286 16.7538 29.2872C16.6979 29.3672 16.6477 29.44 16.5866 29.5168L16.503 29.4988C16.3944 29.4065 16.3944 29.286 16.3658 29.1373C16.4203 29.018 16.4437 28.8297 16.4675 28.6953Z" fill="#B87C57"/>
<path d="M16.1671 28.5791L16.2883 28.582L16.4674 28.6953C16.4436 28.8296 16.4203 29.0179 16.3658 29.1372C16.2838 28.9625 16.2072 28.8274 16.1116 28.6607L16.1671 28.5791Z" fill="#B07354"/>
<path d="M13.1626 26.9551C13.3421 27.0496 13.8167 27.2851 13.9481 27.4154L14.1117 27.581L14.1745 28.3262L14.225 28.6291C13.9034 28.5637 13.2033 28.6278 12.8499 28.6435L12.8469 28.5325L12.7395 28.4856C12.759 28.3903 12.9664 27.8421 13.0147 27.7086L13.1626 26.9551Z" fill="#382745"/>
<path d="M13.0147 27.708C13.0093 27.8481 12.986 28.1315 13.0228 28.2502C13.3728 28.3999 13.7739 28.3285 14.095 28.4088L14.1745 28.3256L14.225 28.6285C13.9034 28.5631 13.2033 28.6272 12.8499 28.6429L12.8469 28.532L12.7395 28.4851C12.759 28.3897 12.9664 27.8415 13.0147 27.708Z" fill="#4C334F"/>
<path d="M14.2578 28.8638C14.4067 29.2128 14.5223 29.1594 14.9045 29.1835C14.9379 29.3166 14.9879 29.4486 14.9604 29.5777C14.7678 29.5384 14.2713 29.4596 14.1552 29.3541C14.1324 29.0899 14.201 29.1359 14.2509 28.8981L14.2578 28.8638Z" fill="#876F75"/>
<path d="M11.827 28.2798C12.0324 28.416 12.1395 28.3074 12.273 28.5673L12.3593 28.6078C12.1765 28.6416 12.0918 28.6053 11.9162 28.5566C11.8615 28.4798 11.8366 28.3957 11.8031 28.3071L11.827 28.2798Z" fill="#A76753"/>
<path d="M11.9163 28.5576C12.0919 28.6063 12.1766 28.6426 12.3594 28.6089L12.4381 28.6057C12.2893 28.6958 12.3525 28.7481 12.169 28.7367C12.0312 28.728 11.9107 28.7155 11.8112 28.6184L11.9163 28.5576Z" fill="#6F6278"/>
<path d="M7.87382 17.7617L7.91147 17.7559C8.62245 18.0351 9.80513 18.5225 10.5008 18.7283L11.0131 18.2241C11.8141 18.5046 12.718 18.9172 13.4926 19.1546C13.1377 19.5057 12.7868 19.8607 12.44 20.2197L12.4237 20.2081C12.0099 20.6943 10.7442 21.9993 10.4582 22.396C10.422 22.685 10.3962 22.8505 10.4149 23.1455C9.95763 23.8967 9.49146 23.5161 8.90862 23.2919L8.7728 23.2138L8.52625 23.0028C8.26806 22.7192 8.163 22.5304 8.00008 22.1869C8.01681 22.0183 8.00611 21.652 8.00625 21.4686C7.17915 21.2234 6.34396 20.7028 5.38274 20.4803L5.37323 20.4512C6.19421 19.5431 7.0278 18.6465 7.87382 17.7617Z" fill="#FCFAF6"/>
<path d="M7.87382 17.7617L7.91147 17.7559C8.62245 18.0351 9.80513 18.5225 10.5008 18.7283L10.5015 18.7518C9.99396 19.3268 8.33313 20.9361 8.00625 21.4686C7.17915 21.2234 6.34396 20.7028 5.38274 20.4803L5.37323 20.4512C6.19421 19.5431 7.0278 18.6465 7.87382 17.7617Z" fill="#FEA3AD"/>
<path d="M8.00623 21.4683C8.66978 21.6548 9.95395 22.2877 10.4582 22.3956C10.422 22.6846 10.3961 22.8501 10.4149 23.1451C9.95761 23.8963 9.49144 23.5157 8.9086 23.2915L8.77278 23.2135L8.52623 23.0025C8.26804 22.7188 8.16298 22.5301 8.00006 22.1865C8.01679 22.0179 8.00609 21.6516 8.00623 21.4683Z" fill="#C5BEBC"/>
<path d="M11.013 18.2241C11.814 18.5047 12.7178 18.9173 13.4924 19.1547C13.1376 19.5057 12.7867 19.8608 12.4399 20.2197L12.4236 20.2082C12.3552 20.1222 12.2382 20.0895 12.1693 20.0365C11.7 19.6748 10.9825 20.038 10.5507 19.8951L10.5224 19.8164L10.601 19.7208C11.1221 19.5666 10.8659 19.5236 11.2851 19.0831L10.5014 18.7519L10.5007 18.7283L11.013 18.2241Z" fill="#C5BEBC"/>
<path d="M15.5302 20.7563C16.1491 20.9833 17.4683 21.3239 18.0338 21.6633L18.1119 21.6399C18.562 21.9183 19.6592 22.1537 20.0742 22.3759L20.0213 22.5027C19.9512 22.9267 19.8813 23.4169 19.7796 23.828C19.2977 24.4843 18.5888 25.1903 18.0518 25.9108L17.9814 26.0453C17.8079 26.2284 17.342 26.5167 17.0897 26.4726C16.9641 26.4961 16.8611 26.5121 16.7386 26.5537C16.4499 26.6776 16.2203 26.8538 15.9192 26.7109L15.8695 26.3275C16.0055 26.173 16.0293 26.1396 16.1327 25.9614C15.8823 25.6716 15.7637 25.3841 15.531 25.0902C15.5024 24.9034 15.5185 24.6001 15.5659 24.4151L15.5645 24.3927C15.259 24.3203 13.4937 23.5769 13.127 23.4277C13.3094 23.0957 15.1849 21.1118 15.5302 20.7563Z" fill="#FEA3AD"/>
<path d="M15.5302 20.7563C16.1491 20.9833 17.4683 21.3239 18.0338 21.6633C17.2479 22.5903 16.3293 23.4685 15.5645 24.3927C15.259 24.3203 13.4937 23.5769 13.127 23.4277C13.3094 23.0957 15.1849 21.1118 15.5302 20.7563Z" fill="#FCFAF6"/>
<path d="M15.566 24.415C16.0799 24.5515 16.9844 24.9316 17.5038 25.143C17.7414 25.3613 17.42 25.7548 17.5859 25.9866C17.788 26.0391 17.8109 25.9828 18.0519 25.9107L17.9815 26.0453C17.808 26.2283 17.3421 26.5166 17.0898 26.4725C16.9642 26.496 16.8612 26.512 16.7387 26.5537C16.45 26.6775 16.2204 26.8537 15.9193 26.7109L15.8696 26.3274C16.0056 26.1729 16.0294 26.1395 16.1328 25.9614C15.8824 25.6716 15.7638 25.384 15.5311 25.0902C15.5025 24.9033 15.5186 24.6001 15.566 24.415Z" fill="#C75E7B"/>
<path d="M16.1327 25.9619C16.4406 26.2392 16.6995 26.3331 17.0896 26.4731C16.964 26.4966 16.861 26.5126 16.7385 26.5542C16.4498 26.6781 16.2202 26.8543 15.9191 26.7114L15.8694 26.328C16.0054 26.1735 16.0292 26.1401 16.1327 25.9619Z" fill="#634C5F"/>
<path d="M17.5036 25.1442C17.8092 25.0161 19.6189 22.9083 20.0212 22.5039C19.9511 22.9279 19.8812 23.4181 19.7795 23.8292C19.2976 24.4855 18.5887 25.1915 18.0517 25.9119C17.8107 25.9841 17.7878 26.0403 17.5857 25.9878C17.4198 25.7561 17.7411 25.3625 17.5036 25.1442Z" fill="#DE86A4"/>
<path d="M17.9816 26.0459C18.1973 26.0898 20.2384 26.8276 20.2914 26.8921L20.3364 27.177L20.3145 28.0255C20.3089 28.2438 20.2893 28.5799 20.2979 28.7887L20.2872 29.0064C19.9189 29.0869 19.0335 29.4262 18.8195 29.4372C18.7085 29.377 18.7129 29.3827 18.5843 29.3993L18.5344 29.4765C18.3347 29.5644 17.7954 29.2532 17.5349 29.1546C17.1936 28.9798 16.9463 28.8677 16.5806 28.7489L16.4677 28.6956L16.2886 28.5823L16.1675 28.5795C16.0003 28.4311 15.1222 28.0905 14.8827 28.013C14.7352 27.9557 14.6363 27.8557 14.5142 27.7527C14.4079 27.7286 14.2191 27.631 14.1118 27.581L13.9482 27.4154C14.0377 27.3231 14.0556 27.2769 14.1181 27.1625C14.3418 27.04 14.6731 26.9329 14.9201 26.8695C15.094 26.9933 15.1961 26.9802 15.4103 26.9877C15.6971 26.9409 15.7841 26.9776 15.9194 26.7115C16.2204 26.8543 16.4501 26.6782 16.7388 26.5543C16.8613 26.5126 16.9643 26.4966 17.0899 26.4732C17.3421 26.5172 17.8081 26.229 17.9816 26.0459Z" fill="#5D4A5D"/>
<path d="M17.9814 26.0459C18.1972 26.0898 20.2383 26.8276 20.2912 26.8921L20.3363 27.177L20.3144 28.0255C20.0141 28.0707 19.3709 27.6188 19.0414 27.489C18.2696 27.1848 17.4385 27.0035 16.7386 26.5543C16.8612 26.5126 16.9642 26.4966 17.0897 26.4732C17.342 26.5172 17.808 26.229 17.9814 26.0459Z" fill="#4C334F"/>
<path d="M16.3791 28.3271C17.0796 28.6292 17.7926 28.901 18.5163 29.1418L18.5841 29.3989L18.5342 29.4761C18.3345 29.564 17.7952 29.2528 17.5347 29.1542C17.1934 28.9794 16.9461 28.8673 16.5804 28.7485L16.4675 28.6952L16.2884 28.5819L16.3791 28.3271Z" fill="#AAA3A2"/>
<path d="M14.987 27.7339L16.3791 28.3277L16.2883 28.5825L16.1672 28.5796C16 28.4313 15.122 28.0907 14.8824 28.0132C14.7349 27.9559 14.6361 27.8559 14.5139 27.7528C14.6333 27.7247 14.8562 27.7338 14.987 27.7339Z" fill="#C5BEBC"/>
<path d="M18.5162 29.1421L18.6431 29.144L18.6919 29.2446C18.7937 29.2603 20.1384 28.857 20.2977 28.7886L20.287 29.0063C19.9186 29.0868 19.0333 29.4261 18.8193 29.4371C18.7083 29.3769 18.7126 29.3826 18.584 29.3992L18.5162 29.1421Z" fill="#6F6278"/>
<path d="M14.1181 27.1626L14.2673 27.2851C14.4818 27.3959 14.8432 27.5548 14.9873 27.7339C14.8564 27.7337 14.6336 27.7247 14.5142 27.7528C14.4079 27.7287 14.2191 27.6311 14.1118 27.5812L13.9482 27.4156C14.0377 27.3232 14.0556 27.277 14.1181 27.1626Z" fill="#AAA3A2"/>
<path d="M14.1178 27.1631C14.3416 27.0407 14.6729 26.9336 14.9199 26.8701C15.0937 26.994 15.1959 26.9809 15.41 26.9883C15.0984 27.0757 14.5252 27.1818 14.267 27.2856L14.1178 27.1631Z" fill="#634C5F"/>
<path d="M4.8679 26.1606C4.86785 26.3443 4.83984 26.5515 4.93773 26.6903L5.15027 26.6365L5.28545 26.6465C6.98571 27.2399 8.52228 27.9204 10.1832 28.5641C13.0042 29.6573 15.8084 30.7724 18.6143 31.9045C18.8215 31.9881 19.3434 32.2388 19.4578 32.4153C19.6029 32.4705 19.684 32.5149 19.8193 32.5877C19.9797 32.5921 20.0566 32.6628 20.1941 32.7507C20.2046 32.923 20.187 33.185 20.18 33.3641L9.95978 29.2904L6.40867 27.8761C5.7741 27.6228 4.81228 27.2083 4.18201 27.0227L4.36256 26.8833L4.78167 26.6852C4.8302 26.6024 4.85524 26.272 4.8679 26.1606Z" fill="#9E858A"/>
<path d="M5.15029 26.6377L5.28547 26.6478C6.98573 27.2412 8.5223 27.9216 10.1832 28.5653C13.0042 29.6585 15.8084 30.7737 18.6144 31.9058C18.8215 31.9894 19.3434 32.24 19.4579 32.4165C19.0497 32.3437 18.5328 31.8655 18.1686 32.0388C14.0054 30.4424 9.52521 28.6077 5.35557 26.9261C5.1953 26.8614 5.20211 26.7278 4.96407 26.7357L4.93774 26.6915L5.15029 26.6377Z" fill="#998E93"/>
<path d="M18.1683 32.0376C18.5324 31.8643 19.0494 32.3425 19.4575 32.4153C19.6026 32.4705 19.6836 32.5149 19.819 32.5877L19.8351 32.6573C19.6462 32.7209 18.4094 32.1496 18.1683 32.0376Z" fill="#B38B8D"/>
<path d="M4.78153 26.686L4.85716 26.7887C4.76055 26.9407 4.52822 26.9071 4.36243 26.8841L4.78153 26.686Z" fill="#876F75"/>
<path d="M2.87674 15.8447C3.62579 16.1163 4.72818 16.5899 5.41594 16.8061L5.42069 16.8255C4.64866 17.5757 3.60468 18.6787 2.90087 19.498C2.90366 19.6979 2.89598 20.0455 2.93857 20.2276C2.27192 20.8333 2.05371 20.66 1.29081 20.3472C0.890632 20.1257 0.559498 19.8716 0.410201 19.4273L0.39937 19.3945C0.308384 19.1235 0.337401 18.7727 0.34421 18.4813C0.504887 18.2185 1.10701 17.5878 1.34085 17.3507C1.68108 17.0917 2.53268 16.194 2.87674 15.8447Z" fill="#FEA3AD"/>
<path d="M0.34421 18.4805C1.17254 18.845 2.09794 19.1434 2.90087 19.4972C2.90366 19.697 2.89598 20.0447 2.93857 20.2268C2.27192 20.8325 2.05371 20.6592 1.29082 20.3464C0.890632 20.1249 0.559498 19.8708 0.410201 19.4265L0.39937 19.3937C0.308384 19.1226 0.337401 18.7718 0.34421 18.4805Z" fill="#C75E7B"/>
<path d="M12.4236 20.2085L12.4399 20.22C12.7917 20.8452 13.8217 20.4278 14.336 20.2399C14.5223 20.3113 15.4255 20.6448 15.5427 20.7189L15.5303 20.7567C15.1849 21.1122 13.3095 23.0961 13.127 23.4281C13.1326 23.6337 13.1501 23.9449 13.1278 24.139C13.0091 24.2484 12.6397 24.565 12.5869 24.6891C12.045 24.6609 11.2053 24.2247 10.8862 23.7837C10.7295 23.5672 10.5982 23.3421 10.4148 23.1458C10.396 22.8508 10.4218 22.6853 10.4581 22.3963C10.7441 21.9996 12.0097 20.6947 12.4236 20.2085Z" fill="#FEA3AD"/>
<path d="M10.4581 22.396C10.8008 22.5283 12.9021 23.407 13.127 23.4278C13.1326 23.6334 13.1501 23.9446 13.1278 24.1387C13.0091 24.2481 12.6397 24.5647 12.5869 24.6888C12.045 24.6606 11.2053 24.2244 10.8862 23.7834C10.7295 23.5669 10.5982 23.3418 10.4148 23.1455C10.396 22.8505 10.4218 22.685 10.4581 22.396Z" fill="#C75E7B"/>
<path d="M5.42064 16.8257C5.84153 16.9604 7.49948 17.5691 7.87388 17.7624C7.02787 18.6472 6.19428 19.5438 5.3733 20.4519L5.3828 20.4811C5.33555 20.6672 5.3207 20.928 5.35177 21.1163L5.17611 21.4209C4.74243 21.6838 4.66881 21.6434 4.19167 21.4915C3.33139 21.093 3.33313 20.9698 2.93852 20.2278C2.89593 20.0457 2.90361 19.698 2.90082 19.4982C3.60462 18.6789 4.64861 17.5758 5.42064 16.8257Z" fill="#FCFAF6"/>
<path d="M2.90082 19.4976C3.61216 19.7535 4.6843 20.151 5.3733 20.4513L5.3828 20.4804C5.33555 20.6665 5.3207 20.9273 5.35177 21.1156L5.17611 21.4203C4.74243 21.6831 4.66881 21.6428 4.19167 21.4909C3.33139 21.0924 3.33313 20.9692 2.93852 20.2271C2.89593 20.045 2.90361 19.6974 2.90082 19.4976Z" fill="#C5BEBC"/>
<path d="M4.1917 21.491C4.66884 21.6429 4.74246 21.6833 5.17614 21.4204L5.17335 22.0837C5.25506 23.3176 5.33905 24.7073 5.30665 25.9461C5.29898 26.2401 5.17399 26.4396 5.15036 26.6374L4.93782 26.6912C4.83993 26.5523 4.86795 26.3452 4.86799 26.1615C4.85533 26.2729 4.83029 26.6033 4.78176 26.6861L4.36266 26.8842L4.1821 27.0236C4.16574 25.1921 4.18868 23.3255 4.1917 21.491Z" fill="#9A8B90"/>
<path d="M4.86802 26.1615C4.87566 25.4528 4.7695 21.8646 5.09282 21.5459C5.14697 21.7381 5.07636 21.9334 5.17338 22.0837C5.25509 23.3176 5.33909 24.7073 5.30669 25.9461C5.29901 26.2401 5.17402 26.4396 5.1504 26.6373L4.93785 26.6912C4.83997 26.5523 4.86798 26.3452 4.86802 26.1615Z" fill="#998E93"/>
<path d="M20.4415 23.2539C20.4007 24.373 20.4436 26.1445 20.3361 27.1767L20.2911 26.8917C20.2381 26.8273 18.197 26.0894 17.9813 26.0455L18.0517 25.911C18.5887 25.1905 19.2976 24.4845 19.7795 23.8283C20.0012 23.6381 20.2219 23.4466 20.4415 23.2539Z" fill="#655E72"/>
<path d="M1.22516 26.9272C3.21981 27.6831 5.37313 28.5966 7.36121 29.399L15.7116 32.7314C17.6729 33.5212 19.8468 34.4459 21.8285 35.1526L22.0136 35.2245C23.922 35.9945 26.0059 36.9159 27.9869 37.467C28.5385 37.6206 29.4282 37.6005 30.0086 37.6814C30.366 37.7132 31.3042 37.6468 31.577 37.7281C31.5669 37.7343 31.5564 37.7406 31.5459 37.7469C30.0858 37.8403 28.5239 37.7863 27.1191 37.3309C26.4025 37.0987 25.6992 36.7755 24.9836 36.5603C24.5042 36.3805 24.0271 36.1941 23.5532 36.0012C23.2708 35.8619 22.2444 35.3465 21.9793 35.4503L21.9556 35.6022C21.9199 35.8397 21.9291 36.3883 21.834 36.5159C21.8546 36.1209 21.8317 35.7032 21.8569 35.2708C21.3934 35.1508 20.1375 34.615 19.6433 34.4183C18.1711 33.8418 16.7026 33.2557 15.2379 32.6603L6.1331 29.0078C5.49451 28.7514 1.39593 27.1945 1.22516 26.9272Z" fill="#4B6489"/>
<path d="M18.8193 29.4366C19.0333 29.4256 19.9186 29.0863 20.287 29.0059C20.284 29.4039 20.296 30.3544 20.2474 30.7229L20.2359 31.3191C19.9502 31.1853 19.156 31.2405 18.7559 31.1745C18.6934 31.1871 18.5043 31.2314 18.4506 31.2269C18.6024 30.9578 18.4297 29.9414 18.5661 29.5944C18.6061 29.4925 18.7033 29.4825 18.8193 29.4366Z" fill="#6E555F"/>
<path d="M18.756 31.1755C19.0452 31.0594 20.0011 30.642 20.2476 30.724L20.236 31.3201C19.9503 31.1863 19.1561 31.2415 18.756 31.1755Z" fill="#4C334F"/>
<path d="M13.6035 19.0859C14.4312 19.4092 15.3392 19.7338 16.1483 20.0758L16.1312 20.1513C15.9669 20.3099 15.7075 20.5777 15.5426 20.7178C15.4255 20.6437 14.5223 20.3102 14.336 20.2389C13.8217 20.4267 12.7917 20.8441 12.4399 20.2189C12.7867 19.86 13.1376 19.505 13.4924 19.1539L13.6035 19.0859Z" fill="#D7627E"/>
<path d="M8.57938 17.1665L11.0668 18.102L11.0131 18.2244L10.5009 18.7286C9.80516 18.5228 8.62248 18.0354 7.9115 17.7562C8.10503 17.5234 8.21215 17.4077 8.4347 17.2031L8.57938 17.1665Z" fill="#C75E7B"/>
<path d="M2.87671 15.8446C3.06631 15.6499 3.27484 15.5138 3.442 15.3058L3.36134 15.1718L3.41202 15.1367L3.54345 15.2141L5.97371 16.1752L5.96868 16.2518L5.93925 16.2572C5.76331 16.4496 5.60104 16.6225 5.41591 16.806C4.72815 16.5898 3.62576 16.1162 2.87671 15.8446Z" fill="#C75E7B"/>
<path d="M5.9392 16.2575C5.63836 16.1862 3.62278 15.4489 3.52612 15.3449L3.5434 15.2144L5.97365 16.1755L5.96863 16.2521L5.9392 16.2575Z" fill="#B95273"/>
<path d="M21.9259 22.6445L21.9972 22.6582C22.1288 23.1105 22.0278 26.8353 22.0233 27.5464L22.0132 35.2238L21.8281 35.1519C21.8875 34.9363 21.8318 33.3261 21.8354 32.9926C21.861 31.0508 21.8688 29.1087 21.8587 27.1667C21.8574 25.6894 21.8354 24.1101 21.9259 22.6445Z" fill="#AAA3A2"/>
<path d="M16.1311 20.1523C16.8764 20.5 17.8314 20.8212 18.6168 21.087C18.4456 21.2845 18.296 21.4553 18.1119 21.6402L18.0337 21.6636C17.4682 21.3242 16.149 20.9836 15.5302 20.7567L15.5425 20.7188C15.7073 20.5787 15.9668 20.3109 16.1311 20.1523Z" fill="#C5BEBC"/>
<path d="M5.96866 16.252C6.50073 16.4922 7.88915 17.048 8.43475 17.2034C8.2122 17.4079 8.10508 17.5236 7.91154 17.7564L7.87389 17.7623C7.49948 17.5689 5.84153 16.9603 5.42064 16.8256L5.41589 16.8061C5.60102 16.6226 5.76329 16.4498 5.93923 16.2573L5.96866 16.252Z" fill="#C5BEBC"/>
<path d="M18.6167 21.0879L18.6955 21.0899C19.0949 21.3643 20.2147 21.6215 20.4419 22.0064C20.418 22.1903 20.2418 22.3129 20.0741 22.3771C19.6591 22.1549 18.5619 21.9195 18.1118 21.6411C18.296 21.4561 18.4456 21.2854 18.6167 21.0879Z" fill="#C75E7B"/>
<path d="M18.7823 21.0586C19.2996 21.2682 20.2722 21.6078 20.7201 21.849L20.7642 22.9505C20.6583 23.0451 20.534 23.1486 20.4415 23.254C20.2219 23.4467 20.0013 23.6381 19.7795 23.8283C19.8812 23.4172 19.9511 22.927 20.0212 22.503L20.0741 22.3762C20.2419 22.312 20.418 22.1894 20.442 22.0055C20.2148 21.6206 19.095 21.3633 18.6956 21.089L18.7823 21.0586Z" fill="#B95273"/>
<path d="M21.9258 22.645L21.9386 22.4748C21.9623 22.4677 21.9861 22.4607 22.0094 22.4536C22.4796 22.6627 27.7496 24.5653 27.8063 24.7357C27.5198 24.6874 26.7634 24.3809 26.4641 24.2649L23.4576 23.1054C23.2337 23.0202 22.1643 22.5564 21.9971 22.6586L21.9258 22.645Z" fill="#6F6278"/>
<path d="M11.0666 18.1021C11.3353 18.2188 13.3899 19.0428 13.6034 19.087L13.4923 19.155C12.7178 18.9176 11.8139 18.505 11.0129 18.2244L11.0666 18.1021Z" fill="#9E858A"/>
<path d="M5.97366 16.1748C6.8439 16.4679 7.7108 16.8556 8.57939 17.1662L8.43471 17.2028C7.88912 17.0475 6.5007 16.4917 5.96863 16.2514L5.97366 16.1748Z" fill="#9E858A"/>
<path d="M16.1481 20.0762C16.9067 20.3845 18.0002 20.7993 18.7823 21.058L18.6955 21.0884L18.6167 21.0864C17.8313 20.8206 16.8764 20.4994 16.131 20.1517L16.1481 20.0762Z" fill="#998E93"/>
<path d="M22.7129 32.6162C22.8001 31.7192 22.669 30.8056 22.6311 29.9034L22.4807 25.1598C22.4693 24.7798 22.408 23.6077 22.4921 23.3131L22.5812 23.27C22.7439 23.2854 22.7851 23.3092 22.9359 23.3754L23.1342 23.4678C23.2489 23.5153 23.3769 23.5645 23.4879 23.6179C23.7909 23.6856 24.7583 24.0874 25.0892 24.2167C26.0178 24.5825 26.9505 24.9366 27.8878 25.2789C27.965 25.9868 28.2515 27.2027 28.4078 27.939C28.6752 29.2646 28.9553 30.5877 29.2473 31.9081C29.4447 32.8149 29.7089 33.8975 29.8515 34.7959L29.9433 35.1799C29.984 35.3231 29.9826 35.3434 29.968 35.492L29.9204 35.5205C29.6449 35.3977 29.3419 35.2763 29.0586 35.1749C26.9299 34.4134 24.825 33.3894 22.7129 32.6162Z" fill="#829FA6"/>
<path d="M22.7129 32.6162C22.8001 31.7192 22.669 30.8056 22.6311 29.9034L22.4807 25.1598C22.4693 24.7798 22.408 23.6077 22.4921 23.3131L22.5812 23.27C22.7439 23.2854 22.7851 23.3092 22.9359 23.3754L23.1342 23.4678C23.2489 23.5153 23.3769 23.5645 23.4879 23.6179L23.258 23.6248C23.1237 23.8769 23.3216 26.9095 23.2672 27.4136C23.2512 27.5607 23.4779 28.6649 23.4756 28.936C23.4673 29.9666 23.3714 31.1182 23.5103 32.1356C23.5313 32.2877 23.8521 32.4239 23.9979 32.4897C24.3836 32.664 24.8159 32.7994 25.2075 32.969C26.0644 33.3403 26.934 33.7159 27.8083 34.0474C28.4069 34.2744 29.2437 34.6901 29.8515 34.7959L29.9433 35.1799C29.984 35.3231 29.9826 35.3434 29.968 35.492L29.9204 35.5205C29.6449 35.3977 29.3419 35.2763 29.0586 35.1749C26.9299 34.4134 24.825 33.3894 22.7129 32.6162Z" fill="#648CA7"/>
<path d="M22.7129 32.6162C22.8001 31.7192 22.669 30.8056 22.6311 29.9034L22.4807 25.1598C22.4693 24.7798 22.408 23.6077 22.4921 23.3131L22.5812 23.27C22.7439 23.2854 22.7851 23.3092 22.9359 23.3754C22.8728 23.7606 22.993 25.3749 23.0195 25.8622C22.9811 27.3732 23.1703 29.0383 23.1845 30.5608C23.19 31.1193 23.2238 31.9182 23.1694 32.4586C22.9642 32.4404 22.8755 32.4852 22.7129 32.6162Z" fill="#C5BEBC"/>
<path d="M22.7128 32.6146C22.8755 32.4836 22.9641 32.4388 23.1693 32.457C24.463 33.0068 25.8715 33.5138 27.1743 34.0735C27.5856 34.2503 29.632 35.1183 29.9432 35.1783C29.9839 35.3215 29.9825 35.3418 29.9679 35.4904L29.9204 35.5189C29.6448 35.3961 29.3418 35.2747 29.0585 35.1733C26.9298 34.4118 24.825 33.3878 22.7128 32.6146Z" fill="#AAA3A2"/>
<path d="M23.0195 25.8623C22.993 25.375 22.8729 23.7607 22.9359 23.3755L23.1342 23.4679C23.1023 23.8914 23.195 26.2318 23.0913 26.3798C23.0785 26.2067 23.0767 26.0232 23.0195 25.8623Z" fill="#6A849D"/>
<path d="M24.146 35.102C24.4668 35.2833 25.9479 35.6654 25.4132 36.1863L25.3538 36.1635C25.3643 36.0589 25.3844 35.9445 25.3451 35.8439C25.2542 35.6117 23.0863 34.8072 22.7312 34.6442C22.6215 34.4781 22.6384 34.2993 22.669 34.1067L22.7065 34.1936L22.8783 34.1315L22.8966 34.1057C23.3833 34.0397 23.9545 34.6923 24.146 35.102Z" fill="#AAA3A2"/>
<path d="M22.8784 34.1323C23.138 34.2495 23.6462 34.4597 23.7686 34.7188L23.7261 34.766C23.4241 34.8114 23.1257 34.7186 22.8387 34.6309C22.74 34.5209 22.7331 34.3494 22.7066 34.1944L22.8784 34.1323Z" fill="#C5BEBC"/>
<path d="M20.7529 0.242369C20.9648 0.0659752 21.3856 -0.0340836 21.6572 0.0106206C22.838 0.205162 23.4929 0.856573 24.1121 1.78723C24.58 1.99854 24.8972 2.24871 25.2395 2.62573C25.3839 2.78498 25.4661 2.99209 25.659 3.05215C26.4532 3.19495 27.0286 3.59349 27.268 4.3819C27.4065 4.42404 27.5084 4.44909 27.6377 4.51752C28.2478 4.7718 28.5316 5.19764 28.7861 5.78642C29.8112 6.19283 30.2421 6.8228 30.1151 7.93342C30.1763 8.23217 30.4651 8.44953 30.5478 8.84053C30.7704 9.89007 30.7133 10.8602 29.7614 11.5558L29.8144 11.7607C29.8441 11.8896 29.8742 11.9989 29.8829 12.1315L29.8733 13.4142C29.9062 13.8446 29.9428 14.4759 29.8779 14.8997L29.8751 15.0409C29.9419 15.2322 29.9277 15.6629 29.9158 15.8742L29.9208 16.2545C29.9478 16.5759 29.9684 16.8387 29.9693 17.1636L29.9734 17.4579C29.9583 17.8406 30.0205 18.6366 29.696 18.8613C29.2212 19.2119 28.2364 19.331 27.677 19.2552C27.6373 19.25 27.598 19.2431 27.5591 19.2344L27.4645 19.2116C26.7599 19.3697 25.3478 19.287 24.5919 19.3939C24.2117 19.4488 23.9311 19.6159 23.539 19.6984C22.0081 20.0201 20.457 19.8387 18.9581 19.4468C18.5262 19.3338 18.0645 19.2586 17.6248 19.1691C17.2452 19.0919 16.7769 18.8881 16.4008 18.8816C16.2484 18.7675 14.9647 18.3474 14.6838 18.2285C14.5312 18.1639 14.3115 18.1771 14.1236 18.0382C13.902 17.9744 13.6436 17.871 13.4239 17.7897C9.76069 16.3329 5.87059 15.0142 2.25432 13.4144C2.01723 13.3095 1.87296 13.1663 1.59882 13.1357C1.68007 12.9908 1.77855 12.8524 1.92926 12.778C2.77391 12.3615 3.65494 11.9581 4.5101 11.5666C6.4718 10.6742 8.44105 9.79833 10.4176 8.93921C11.7128 8.36482 13.5568 7.42933 14.8971 6.9965C15.1833 6.90408 17.2817 7.72379 17.8503 7.88656C17.8156 7.43047 17.7526 7.1691 18.0913 6.82052C18.3745 6.47015 18.6167 6.55138 18.8512 6.32658C18.7675 5.97447 18.6488 5.19937 18.8821 4.90441L18.9183 4.76344C19.09 4.60839 19.2639 4.45586 19.44 4.30588C19.5554 4.10129 19.6301 4.04387 19.8016 3.88499C19.7032 2.74946 20.2048 2.98917 20.3795 2.52882C20.4587 2.40211 20.5856 2.29863 20.6805 2.17818C21.0552 1.70262 20.993 1.37021 20.9478 0.825398C20.8615 0.541037 20.6988 0.570018 20.7529 0.242369Z" fill="#ECBCC5"/>
<path d="M1.59882 13.1371C1.68007 12.9922 1.77855 12.8539 1.92926 12.7795C2.77391 12.3629 3.65494 11.9596 4.5101 11.5681C6.4718 10.6756 8.44105 9.79979 10.4176 8.94068C11.7128 8.36629 13.5568 7.43079 14.8971 6.99797C15.1833 6.90554 17.2817 7.72525 17.8503 7.88803C17.8632 8.01268 17.9046 8.23414 17.8563 8.33589C17.6722 8.42334 17.538 8.6128 17.4737 8.80657C17.3292 9.24204 17.402 9.66294 17.5894 10.066C17.7371 10.3836 18.1421 10.5461 18.2109 10.6667L18.2199 10.8439L18.2193 11.1367L18.2531 11.5826L18.2671 11.6127C18.3494 11.8066 18.4019 11.9282 18.506 12.111C18.8788 12.9683 19.2831 13.3055 20.1572 13.646C20.3622 13.7259 20.464 13.7724 20.5937 13.9466L20.9486 14.4109C21.1897 14.7252 22.2206 16.161 22.4496 16.3546C22.7384 16.4855 22.6602 16.8028 22.9797 16.8515L23.0537 16.9571C23.1131 16.9449 23.162 16.933 23.2205 16.9174C24.4484 17.832 24.9155 18.3649 26.4537 18.8805C26.5757 18.9063 26.7297 18.9439 26.8508 18.956L27.417 19.0746L27.2781 19.1571L27.4645 19.2131C26.7599 19.3712 25.3478 19.2885 24.5919 19.3954C24.2117 19.4503 23.9311 19.6174 23.539 19.6998C22.0081 20.0216 20.457 19.8401 18.9581 19.4482C18.5262 19.3353 18.0645 19.2601 17.6248 19.1706C17.2452 19.0933 16.7769 18.8896 16.4008 18.8831C16.2484 18.7689 14.9647 18.3488 14.6838 18.2299C14.5312 18.1654 14.3115 18.1786 14.1236 18.0396C13.902 17.9759 13.6436 17.8725 13.4239 17.7912C9.76069 16.3344 5.87059 15.0157 2.25432 13.4159C2.01723 13.311 1.87296 13.1678 1.59882 13.1371Z" fill="#FCFAF6"/>
<path d="M13.4617 17.6679C13.3188 17.5307 12.6881 16.9725 12.6626 16.8671C12.7433 16.7804 12.7655 16.7542 12.8327 16.6574C12.7073 16.5236 12.5715 16.5783 12.3356 16.4689C12.2076 16.3299 12.1602 16.2919 12.1053 16.1046C12.1932 15.522 13.1349 15.6071 13.5404 15.4411C13.8143 15.3289 13.9006 15.029 14.2837 14.9027C14.8865 14.7039 15.4451 14.6317 16.0732 14.5596C16.8877 14.4259 17.7521 14.1846 18.6009 14.2455C19.4337 14.3053 20.0904 14.4511 20.9485 14.4098C21.1896 14.7241 22.2206 16.1599 22.4495 16.3535C22.7383 16.4844 22.6602 16.8017 22.9796 16.8504L23.0537 16.956C23.1131 16.9438 23.162 16.9319 23.2205 16.9163C24.4484 17.8309 24.9154 18.3638 26.4536 18.8794C26.5756 18.9052 26.7297 18.9428 26.8508 18.9549L27.417 19.0734L27.278 19.1559L27.4645 19.2119C26.7598 19.3701 25.3477 19.2874 24.5919 19.3943C24.2117 19.4492 23.9311 19.6163 23.539 19.6987C22.0081 20.0205 20.4569 19.839 18.958 19.4471C18.5262 19.3342 18.0645 19.259 17.6248 19.1695C17.2451 19.0922 16.7769 18.8885 16.4008 18.882C16.2483 18.7678 14.9646 18.3477 14.6837 18.2288C14.5312 18.1643 14.3114 18.1775 14.1235 18.0385C13.902 17.9748 13.6435 17.8714 13.4238 17.7901L13.4617 17.6679Z" fill="#C8BAB7"/>
<path d="M22.4492 16.3535C22.738 16.4844 22.6599 16.8017 22.9793 16.8504L23.0534 16.956C23.1128 16.9438 23.1617 16.9319 23.2202 16.9163C24.4481 17.8309 24.9151 18.3638 26.4533 18.8794C26.5753 18.9052 26.7294 18.9428 26.8505 18.9549L27.4167 19.0734L27.2777 19.1559C25.9644 18.9103 23.6589 18.3398 22.8427 17.1352C22.7239 16.9598 22.5525 16.5637 22.4492 16.3535Z" fill="#B07354"/>
<path d="M13.4614 17.6685C13.6051 17.7407 14.0763 17.9393 14.1233 18.0391C13.9017 17.9754 13.6433 17.872 13.4236 17.7907L13.4614 17.6685Z" fill="#EEE8E2"/>
<path d="M9.76267 9.73486C10.1222 9.75296 12.9565 10.9367 13.4415 11.1465C13.5027 11.3822 13.5282 11.489 13.6312 11.7078C13.7519 12.5963 13.6541 13.38 13.718 14.2436L13.5324 14.2317C13.0894 14.036 12.4527 13.8206 11.9769 13.6388C11.1069 13.3062 10.1699 12.9218 9.29047 12.6345C9.26689 12.4356 9.23586 12.2783 9.19574 12.0821C9.07879 11.2844 9.14263 10.3146 9.76267 9.73486Z" fill="#DE86A4"/>
<path d="M10.3983 10.5811C10.6833 10.7307 11.7074 11.1334 12.0048 11.1863C12.1551 11.2276 12.2037 11.2143 12.2986 11.3165L12.2917 11.3749C12.3067 11.7841 12.3286 12.6233 12.3034 13.0289C12.3136 13.099 12.304 13.0964 12.2869 13.1712C12.0528 13.1808 10.7981 12.6317 10.5005 12.5027C10.3767 12.4489 10.3883 12.4093 10.3621 12.3024C10.4234 12.0334 10.3967 10.9356 10.3983 10.5811Z" fill="#787391"/>
<path d="M10.3619 12.3016C10.7095 12.2656 10.6417 12.3142 10.9515 12.4072C11.0138 12.4259 11.0782 12.262 11.2892 12.2632C11.3672 12.3712 11.3701 12.4115 11.4073 12.5428L11.4551 12.5462L11.5419 12.3928C11.7559 12.5675 11.5213 12.7346 11.9027 12.8365C11.9907 12.7355 12.0094 12.6902 12.0728 12.5702L12.1588 12.5646C12.2847 12.7184 12.2552 12.8011 12.3032 13.0281C12.3134 13.0983 12.3039 13.0957 12.2867 13.1704C12.0526 13.1801 10.7979 12.631 10.5003 12.5019C10.3766 12.4482 10.3881 12.4085 10.3619 12.3016Z" fill="#6F6278"/>
<path d="M12.0045 11.186C12.1548 11.2274 12.2035 11.2141 12.2984 11.3163L12.2915 11.3746C12.2711 11.5786 12.2938 11.6662 12.1263 11.7887L12.0583 11.7461C11.9472 11.5755 11.9881 11.3937 12.0045 11.186Z" fill="#6F6278"/>
<path d="M10.3234 9.30371C10.958 9.48006 13.0744 10.3353 13.7303 10.6495C14.21 10.5299 15.1748 10.0286 15.6056 9.79482C15.7107 9.9122 15.7686 10.0201 15.8498 10.154C15.916 10.2509 16.0443 10.4263 16.0972 10.5215C16.1137 10.5978 16.2027 11.2167 16.1816 11.1631C16.2193 11.5346 16.3836 12.716 16.2712 13.0043C16.0185 13.2871 14.1242 14.1192 13.7182 14.2439C13.6543 13.3803 13.7521 12.5965 13.6315 11.7081C13.5284 11.4892 13.5029 11.3824 13.4417 11.1468C12.9567 10.937 10.1224 9.75322 9.76288 9.73512C9.96427 9.56549 10.104 9.44669 10.3234 9.30371Z" fill="#FEA3AD"/>
<path d="M15.6052 9.79541C15.7103 9.91279 15.7683 10.0207 15.8494 10.1546C14.9113 10.2393 14.6695 10.772 13.8318 10.9225C13.8103 11.1474 13.8047 11.4569 13.6954 11.641C13.5659 11.3729 13.5952 10.9199 13.7299 10.65C14.2097 10.5305 15.1745 10.0292 15.6052 9.79541Z" fill="#ECBCC5"/>
<path d="M15.5617 10.7046C15.6079 10.7278 15.6788 10.7998 15.6834 10.8518C15.7409 11.4913 15.6805 12.1339 15.7562 12.7745C15.276 12.9694 14.8412 13.2183 14.3471 13.4113L14.278 13.4221C14.1801 13.1711 14.1797 11.7421 14.251 11.3913C14.6101 11.1797 15.1776 10.9056 15.5617 10.7046Z" fill="#6F6278"/>
<path d="M9.19566 12.0825C9.23578 12.2788 9.26681 12.436 9.29039 12.6349C10.1699 12.9222 11.1068 13.3066 11.9768 13.6392C12.4526 13.821 13.0893 14.0364 13.5323 14.2321C13.0889 14.2637 11.9866 14.4592 11.6612 14.3301C11.1527 14.1284 8.09509 13.072 7.9256 12.7835C8.08308 12.5123 8.89149 12.1807 9.19566 12.0825Z" fill="#C5BEBC"/>
<path d="M17.0946 10.8174C17.2514 10.8589 17.4175 10.9148 17.5725 10.953C17.7835 11.0051 18.0399 11.2141 18.219 11.1359L18.2528 11.5818C18.3196 11.6286 16.912 11.2805 16.8094 11.2501C16.8466 11.0526 16.9599 10.9557 17.0946 10.8174Z" fill="#ECBCC5"/>
<path d="M16.0968 10.5215L17.0947 10.8175C16.96 10.9557 16.8467 11.0526 16.8095 11.2501C16.6334 11.2085 16.3346 11.1104 16.1812 11.1631C16.2023 11.2167 16.1133 10.5978 16.0968 10.5215Z" fill="#F7D6D4"/>
<path d="M28.7859 5.7876C29.8109 6.194 30.2419 6.82398 30.1148 7.93459C30.1761 8.23335 30.4649 8.4507 30.5476 8.8417C30.7702 9.89124 30.713 10.8614 29.7611 11.557L29.8141 11.7618C29.8438 11.8907 29.874 12.0001 29.8827 12.1326L29.8731 13.4153C29.906 13.8458 29.9425 14.4771 29.8777 14.9009L29.8749 15.0421C29.9416 15.2334 29.9275 15.664 29.9156 15.8754L29.9206 16.2557C29.9476 16.577 29.9681 16.8398 29.9691 17.1647L29.9732 17.4591C29.9581 17.8417 30.0202 18.6378 29.6958 18.8624C29.221 19.213 28.2362 19.3322 27.6768 19.2564C27.637 19.2512 27.5977 19.2443 27.5589 19.2356L27.4643 19.2128L27.2779 19.1568L27.4168 19.0743L26.8506 18.9557C26.7295 18.9436 26.5755 18.906 26.4535 18.8802C24.9152 18.3647 24.4482 17.8317 23.2203 16.9171C23.1618 16.9328 23.1129 16.9446 23.0535 16.9568L22.9794 16.8513C22.66 16.8025 22.7382 16.4853 22.4493 16.3543C22.2204 16.1607 21.1894 14.7249 20.9484 14.4106L20.5935 13.9463C20.4637 13.7721 20.362 13.7256 20.157 13.6457C19.2828 13.3052 18.8786 12.968 18.5058 12.1107C18.4017 11.9279 18.3492 11.8063 18.2669 11.6124L18.2529 11.5823L18.2191 11.1364L18.2196 10.8437L18.2289 10.8225C18.2791 10.8244 18.2751 10.8274 18.3238 10.842C18.5487 11.2024 18.6639 11.4502 19.0072 11.7069L19.1195 11.7924L19.4308 11.9008C19.8307 12.082 20.2291 12.038 20.5856 12.1585C20.6858 12.0954 21.0331 12.0519 21.1715 12.0287C21.9453 11.9838 23.3523 11.4906 24.0748 11.1544C24.3691 11.0174 25.0345 10.6401 25.3082 10.5875C25.6496 10.4798 27.0178 9.31475 27.3245 9.04461C27.7252 8.7837 28.4674 7.85903 28.6776 7.41862C29.0053 6.73251 29.0039 6.46264 28.7859 5.7876Z" fill="#DAAE73"/>
<path d="M29.8139 11.7617C29.8436 11.8906 29.8737 12 29.8824 12.1325L29.8728 13.4152C29.9057 13.8457 29.9423 14.477 29.8774 14.9008L29.8746 15.042C29.9414 15.2332 29.9272 15.6639 29.9153 15.8753L29.9203 16.2555C29.9473 16.5769 29.9679 16.8397 29.9688 17.1646L29.9729 17.4589C29.9578 17.8416 30.02 18.6377 29.6955 18.8623C29.2207 19.2129 28.2359 19.332 27.6765 19.2563C27.6368 19.2511 27.5975 19.2441 27.5586 19.2355L27.464 19.2127L27.2776 19.1567L27.4165 19.0742L26.8503 18.9556C26.7292 18.9435 26.5752 18.9059 26.4532 18.8801C24.915 18.3645 24.4479 17.8316 23.22 16.917C23.1615 16.9326 23.1126 16.9445 23.0532 16.9567L22.9792 16.8511C22.6597 16.8024 22.7379 16.4851 22.4491 16.3542C22.2201 16.1606 21.1892 14.7248 20.9481 14.4105L20.5932 13.9462C20.8525 13.9248 21.3006 13.9437 21.5613 13.9924L21.9057 14.0544L22.1799 14.0656C22.2823 14.2063 22.2996 14.237 22.4454 14.3281C22.6008 14.3407 22.6817 14.2725 22.8256 14.2237C23.2456 14.0816 24.0453 14.8835 24.3012 14.8721L24.3798 14.7619C24.6234 14.7388 24.8738 15.071 25.1727 15.1645L25.2682 15.1171C25.5123 14.8859 25.7773 14.4157 26.0387 14.3952C26.1607 14.4822 26.2279 14.5166 26.3618 14.5863C26.3115 14.5359 26.274 14.4932 26.2274 14.44C26.3307 14.1623 26.5514 13.892 26.7278 13.6405L27.3032 13.8876L27.3306 13.8411C27.2908 13.716 27.0843 13.5854 26.9504 13.4615L26.9975 13.195C27.1295 13.1172 27.6372 12.9071 27.8118 12.8299C27.927 12.7853 28.0289 12.7182 28.1354 12.6548L28.2427 12.6809C28.2743 12.7815 28.277 12.7895 28.288 12.9005C28.6723 12.6274 28.7824 12.3228 29.3445 12.3572C29.4401 12.363 29.4917 12.3014 29.5899 12.2367C29.6612 12.1579 29.7471 11.8926 29.8139 11.7617Z" fill="#D19E69"/>
<path d="M20.5932 13.9463C20.8525 13.9248 21.3006 13.9437 21.5613 13.9924L21.9057 14.0544L22.1799 14.0656C22.2823 14.2063 22.2996 14.237 22.4454 14.3282C22.6008 14.3407 22.6817 14.2725 22.8256 14.2238C23.2456 14.0816 24.0453 14.8835 24.3012 14.8721L24.3798 14.7619C24.6234 14.7389 24.8738 15.071 25.1727 15.1645L25.2682 15.1172C25.4049 15.8003 25.9354 15.6842 26.3654 16.1052C26.2416 16.2451 25.8445 16.7186 25.7069 16.7797L25.7051 16.9051C25.9546 17.1592 26.4011 17.3862 26.5108 17.6202C26.1383 17.4248 25.8628 17.1943 25.531 16.9372C25.2737 17.1728 24.9415 17.3727 25.101 17.7426L24.9173 17.6048L24.8697 17.7355C25.2371 18.3596 26.243 18.5447 26.4532 18.8801C24.915 18.3646 24.4479 17.8316 23.22 16.917C23.1615 16.9327 23.1126 16.9445 23.0532 16.9567L22.9792 16.8512C22.6597 16.8024 22.7379 16.4852 22.4491 16.3542C22.2201 16.1606 21.1892 14.7248 20.9481 14.4105L20.5932 13.9463Z" fill="#C99464"/>
<path d="M22.2216 15.2217C22.9226 15.9422 23.7027 16.4964 24.4376 17.1776C24.5737 17.304 24.8566 17.4603 24.9174 17.6046L24.8699 17.7353C25.2373 18.3593 26.2431 18.5445 26.4533 18.8799C24.9151 18.3643 24.4481 17.8313 23.2201 16.9168C23.1616 16.9324 23.1128 16.9443 23.0533 16.9565L22.9793 16.8509C22.5274 16.2088 22.1773 15.9652 22.2216 15.2217Z" fill="#B88B6A"/>
<path d="M23.8032 15.606C24.3579 15.8538 24.7976 16.278 25.2783 16.6424C25.5393 16.8403 25.4424 16.6564 25.707 16.7797L25.7051 16.9051C25.9547 17.1592 26.4011 17.3862 26.5108 17.6202C26.1384 17.4248 25.8628 17.1943 25.531 16.9372C25.4419 16.9242 24.9918 16.5745 24.8789 16.4927C24.6166 16.7272 24.6564 16.8051 24.4699 16.9925L24.3625 16.9485L24.347 16.8826C24.4361 16.7129 24.6559 16.5072 24.7957 16.3633C24.3237 16.1126 24.1642 15.9781 23.8032 15.606Z" fill="#B88B6A"/>
<path d="M21.5613 13.9922L21.9058 14.0543C22.0813 14.3032 22.4354 14.6192 22.6973 14.7725L22.6561 14.8846C22.4953 14.7849 21.6213 14.139 21.5613 13.9922Z" fill="#B87C57"/>
<path d="M24.3013 14.8716L24.3799 14.7614C24.6234 14.7383 24.8739 15.0704 25.1727 15.1639C25.1938 15.2596 25.197 15.2122 25.1503 15.3091C24.9442 15.2818 24.7779 15.0733 24.5247 14.975C24.4333 15.0208 24.4274 15.0283 24.3232 15.0478L24.3013 14.8716Z" fill="#B87C57"/>
<path d="M22.6973 14.772C22.8394 14.8794 23.444 15.3239 23.5281 15.4429L23.4691 15.5244C23.2073 15.2875 22.9385 15.0944 22.6561 14.8841L22.6973 14.772Z" fill="#B88B6A"/>
<path d="M23.4691 15.5244L23.528 15.4429C23.6852 15.5372 23.8251 15.5597 23.7784 15.7815C23.7433 15.9485 23.6391 16.0139 23.4928 16.0838L23.4389 16.0741C23.4503 15.8604 23.8794 15.7978 23.4691 15.5244Z" fill="#B88B6A"/>
<path d="M29.814 11.7617C29.8437 11.8906 29.8738 12 29.8825 12.1325L29.8729 13.4152C29.9058 13.8457 29.9424 14.477 29.8775 14.9008L29.8748 15.042C29.729 14.9686 29.7482 14.9515 29.6499 14.809C29.5604 15.0638 29.2939 15.6052 29.304 15.7958C29.2656 15.7812 29.1893 15.7775 29.145 15.773C28.9763 15.7027 28.7597 15.5563 28.6345 15.422L28.672 15.2486C28.5518 15.2318 28.5189 15.1995 28.427 15.2737C28.2826 15.3905 28.0244 16.1354 27.9975 16.2788L27.8206 16.3031C28.0011 15.8853 28.1551 15.5227 28.3064 15.0942C28.1231 14.9766 27.933 14.9205 27.7278 14.8483L27.6949 14.7753L27.7228 14.7036L27.9444 14.6425C27.6369 14.5447 27.71 14.7364 27.4399 14.6761L27.418 14.5962C27.4934 14.4762 27.5615 14.3548 27.6314 14.2317L27.5322 14.1534L27.5094 14.146C27.4504 13.9466 27.4998 14.0175 27.3033 13.8876L27.3307 13.8411C27.291 13.716 27.0844 13.5854 26.9505 13.4615L26.9976 13.195C27.1296 13.1172 27.6374 12.9071 27.8119 12.8299C27.9271 12.7853 28.029 12.7182 28.1355 12.6548L28.2429 12.6809C28.2744 12.7815 28.2771 12.7895 28.2881 12.9005C28.6724 12.6274 28.7826 12.3228 29.3447 12.3572C29.4402 12.363 29.4918 12.3014 29.5901 12.2367C29.6613 12.1579 29.7473 11.8926 29.814 11.7617Z" fill="#DBA76E"/>
<path d="M29.8137 11.7617C29.8434 11.8906 29.8736 12 29.8823 12.1325L29.8727 13.4152C29.9056 13.8457 29.9421 14.477 29.8772 14.9008L29.8745 15.042C29.7287 14.9686 29.7479 14.9515 29.6497 14.809C29.646 14.6235 29.4408 14.1573 29.2754 14.0632C29.1625 14.0545 29.0323 14.1106 28.9212 14.1474C28.7361 14.1057 28.7389 14.0527 28.5881 13.8908C28.6191 13.7414 28.5821 13.7999 28.6991 13.707C28.7814 13.6391 28.8796 13.4039 28.9336 13.2941C28.94 13.0579 29.4193 12.5851 29.5898 12.2367C29.6611 12.1579 29.747 11.8926 29.8137 11.7617Z" fill="#F3D8A3"/>
<path d="M28.6991 13.7061L28.7567 13.777L28.8943 13.9149C29.0099 13.9009 29.0501 13.8711 29.1515 13.8181C29.3997 13.8633 29.6378 14.2836 29.7027 14.4979C29.7383 14.6997 29.7689 14.7357 29.8772 14.8998L29.8745 15.041C29.7287 14.9676 29.7479 14.9505 29.6497 14.808C29.646 14.6225 29.4408 14.1563 29.2754 14.0622C29.1625 14.0535 29.0323 14.1096 28.9212 14.1464C28.7361 14.1047 28.7389 14.0517 28.5881 13.8898C28.6191 13.7404 28.5821 13.7989 28.6991 13.7061Z" fill="#B88B6A"/>
<path d="M29.0804 13.301L29.1147 13.2663C29.26 13.1183 29.292 13.0709 29.3976 12.894C29.5904 13.0012 29.7371 13.3787 29.7138 13.5961L29.6681 13.5943C29.6197 13.448 29.6005 13.3209 29.4831 13.2334C29.3181 13.2591 29.3647 13.2558 29.2148 13.3702L29.0804 13.301Z" fill="#D8A069"/>
<path d="M29.0803 13.3L29.2146 13.3693C29.0643 13.507 28.9144 13.6488 28.7567 13.7778L28.6992 13.7068C28.7814 13.6389 28.8797 13.4037 28.9336 13.2939L29.0803 13.3Z" fill="#D19E69"/>
<path d="M28.5521 15.0332C28.7363 15.097 28.9429 15.281 29.0356 15.4573C28.9301 15.394 28.7802 15.2975 28.6719 15.2492C28.5517 15.2324 28.5188 15.2001 28.4269 15.2743C28.2825 15.3911 28.0243 16.136 27.9973 16.2794L27.8205 16.3037C28.001 15.8859 28.155 15.5233 28.3063 15.0948L28.3474 15.153L28.4292 15.1541L28.5521 15.0332Z" fill="#D8A069"/>
<path d="M29.2755 14.0632C29.1928 14.1787 28.9552 14.2241 28.8113 14.2656C28.7528 14.4009 28.7167 14.5159 28.671 14.6549L28.6344 14.6421C28.6719 14.5256 28.7322 14.4015 28.6956 14.2916C28.5508 14.23 28.2757 14.026 28.1468 13.9252L28.1477 13.8515C28.2624 13.7761 28.315 13.7194 28.442 13.7285L28.5078 13.8795L28.5882 13.8908C28.739 14.0527 28.7363 14.1057 28.9214 14.1474C29.0324 14.1106 29.1627 14.0546 29.2755 14.0632Z" fill="#E0B578"/>
<path d="M26.9976 13.1946C27.1296 13.1169 27.6374 12.9067 27.8119 12.8296L27.9705 12.9465C27.6927 13.0053 27.2124 13.3047 26.9505 13.4612L26.9976 13.1946Z" fill="#B88B6A"/>
<path d="M27.7277 14.8469L27.6948 14.7739L27.7227 14.7022L27.9443 14.6411C28.2409 14.8187 28.24 14.9496 28.5521 15.0312L28.4292 15.1521L28.3474 15.151L28.3063 15.0928C28.123 14.9752 27.9329 14.919 27.7277 14.8469Z" fill="#B88B6A"/>
<path d="M28.1354 12.6553L28.2428 12.6815C28.2744 12.782 28.2771 12.79 28.2881 12.901C28.151 13.0507 28.1638 13.0686 27.9705 12.9474L27.8119 12.8304C27.9271 12.7858 28.029 12.7188 28.1354 12.6553Z" fill="#B87C57"/>
<path d="M27.5321 14.153C27.5851 13.9766 27.5458 14.0089 27.6683 13.9272L27.777 13.9326L27.8095 14.0221C27.7419 14.1158 27.7122 14.1484 27.6313 14.2313L27.5321 14.153Z" fill="#B88B6A"/>
<path d="M29.6498 14.8086C29.7481 14.9511 29.7289 14.9682 29.8747 15.0416C29.9414 15.2329 29.9272 15.6636 29.9153 15.8749L29.9204 16.2552C29.9473 16.5766 29.9679 16.8393 29.9688 17.1643L29.9729 17.4586C29.9578 17.8413 30.02 18.6373 29.6955 18.862C29.3862 18.8885 29.3249 19.0336 28.8565 19.0579L28.7158 18.9707C28.5531 18.8353 28.1591 18.5853 27.9608 18.4503C28.3502 18.332 28.8529 18.0841 29.2326 17.9104C29.1755 17.8898 29.1344 17.8626 29.0813 17.8324C28.9054 17.6817 28.7496 17.588 28.5289 17.5254L28.4896 17.4301L28.5599 17.3458L28.6449 17.3624C28.6655 17.2346 29.075 16.3257 29.1796 16.2308L29.4995 16.4271C29.3894 16.2581 29.276 16.2117 29.1458 16.0156C29.1933 15.8938 29.159 15.9354 29.3057 15.8702L29.3039 15.7955C29.2938 15.6048 29.5603 15.0634 29.6498 14.8086Z" fill="#F3D8A3"/>
<path d="M28.4894 17.4305L28.5598 17.3462L28.6448 17.3628C29.3372 17.7756 29.6621 17.957 29.7635 18.8093C29.5903 18.4292 29.487 18.2475 29.2325 17.9108C29.1754 17.8902 29.1342 17.8629 29.0812 17.8328C28.9053 17.6821 28.7495 17.5884 28.5287 17.5258L28.4894 17.4305Z" fill="#D8A069"/>
<path d="M28.7159 18.9692C28.7767 18.7009 28.8045 18.5717 28.9636 18.3452C29.0513 18.4574 28.8959 18.9184 28.8566 19.0564L28.7159 18.9692Z" fill="#E0B578"/>
<path d="M29.4993 16.427C29.3891 16.2581 29.2758 16.2116 29.1456 16.0155C29.1931 15.8937 29.1588 15.9353 29.3055 15.8701C29.4179 16.0927 29.4426 16.1295 29.6094 16.3147L29.6122 16.4553L29.5655 16.4989L29.4993 16.427Z" fill="#D8A069"/>
<path d="M29.9728 17.4583C29.779 17.2619 29.6968 16.9645 29.6744 16.6963C29.7607 16.7503 29.8471 17.0294 29.9687 17.164L29.9728 17.4583Z" fill="#D8A069"/>
<path d="M29.6666 16.2882C29.7347 16.109 29.7602 15.9928 29.9152 15.8755L29.9202 16.2557C29.8617 16.2973 29.8165 16.3244 29.7557 16.3613L29.6666 16.2882Z" fill="#E0B578"/>
<path d="M27.9974 16.2789C28.0244 16.1354 28.2826 15.3905 28.427 15.2738C28.5189 15.1996 28.5518 15.2319 28.672 15.2487L28.6345 15.422C28.7597 15.5564 28.9763 15.7027 29.1449 15.773C29.1893 15.7776 29.2656 15.7813 29.304 15.7959L29.3058 15.8706C29.1591 15.9359 29.1934 15.8943 29.1458 16.016C29.2761 16.2121 29.3894 16.2586 29.4996 16.4275L29.1797 16.2312C29.075 16.3261 28.6656 17.235 28.645 17.3628L28.56 17.3462L28.4896 17.4305C28.3804 17.6601 28.2735 17.8562 28.1496 18.0786C27.8334 17.8633 27.4093 17.7822 27.3165 17.4316C27.3577 17.3068 27.37 17.2503 27.3942 17.1209C27.6611 16.8327 27.5752 16.864 27.7763 16.5473C28.0459 16.6362 28.2182 16.7867 28.486 16.8101C28.6295 16.7619 28.5938 16.7975 28.6564 16.6885C28.5682 16.5438 28.1688 16.3691 27.9974 16.2789Z" fill="#E0B578"/>
<path d="M29.1447 15.7729L29.0588 15.8585C28.8354 15.8634 28.5671 15.6817 28.5159 15.4619L28.6343 15.4219C28.7595 15.5562 28.9761 15.7026 29.1447 15.7729Z" fill="#D19E69"/>
<path d="M27.7279 14.8481C27.9331 14.9203 28.1232 14.9765 28.3064 15.0941C28.1552 15.5226 28.0012 15.8852 27.8206 16.303L27.6493 16.2723C27.4222 16.042 27.2723 15.6358 27.1562 15.3354C27.3308 15.138 27.5094 14.9918 27.7279 14.8481Z" fill="#E0B578"/>
<path d="M25.2684 15.117C25.5125 14.8857 25.7775 14.4155 26.0389 14.395C26.1609 14.482 26.2281 14.5164 26.362 14.5861C26.5059 14.627 26.7902 14.6777 26.8729 14.7692C26.761 14.831 26.5009 14.7822 26.383 14.7479C26.2359 14.7044 26.0924 14.6499 25.9535 14.5849C25.7633 14.859 25.6432 15.0062 25.3799 15.2167C25.6258 15.4516 25.8589 15.6908 26.1824 15.8139C26.2765 15.8496 26.474 15.8996 26.5032 15.97L26.3657 16.105C25.9356 15.684 25.4051 15.8001 25.2684 15.117Z" fill="#B88B6A"/>
<path d="M24.9173 17.605L25.101 17.7427C25.2381 17.8556 25.6457 18.2076 25.7851 18.2655L26.0177 18.13L26.0579 18.1589C26.0319 18.2555 25.9857 18.3367 26.0314 18.3962C26.2028 18.618 26.6072 18.7949 26.8503 18.9558C26.7292 18.9437 26.5752 18.9061 26.4532 18.8803C26.243 18.5449 25.2372 18.3597 24.8698 17.7357L24.9173 17.605Z" fill="#D8A069"/>
<path d="M27.6492 16.2719C27.3951 16.2078 26.9167 16.1563 26.7864 15.9871C26.7855 15.8282 27.0524 15.4906 27.1561 15.335C27.2722 15.6353 27.4221 16.0415 27.6492 16.2719Z" fill="#D8A069"/>
<path d="M28.5289 17.5259C28.7496 17.5884 28.9054 17.6821 29.0814 17.8329C28.9365 17.8895 28.6559 17.9549 28.5129 17.8867C28.4471 17.737 28.4868 17.7119 28.5289 17.5259Z" fill="#E0B578"/>
<path d="M26.5108 17.6199C26.7379 17.5027 26.8832 17.3592 27.1122 17.2202C27.1323 17.3207 27.0752 17.3648 27.0075 17.4752C26.8737 17.5792 26.764 17.6849 26.6036 17.7293L26.5218 17.6953L26.5108 17.6199Z" fill="#B88B6A"/>
<path d="M27.5093 14.146L27.5321 14.1534L27.6313 14.2317C27.5614 14.3548 27.4933 14.4762 27.4179 14.5962C27.3475 14.638 27.3713 14.6232 27.2803 14.6297C27.2684 14.5283 27.4398 14.2887 27.5093 14.146Z" fill="#B88B6A"/>
<path d="M27.4166 19.0737C27.6657 19.1127 27.9152 19.1471 28.1656 19.1769C27.9499 19.205 27.7763 19.2284 27.5588 19.235L27.4642 19.2122L27.2777 19.1562L27.4166 19.0737Z" fill="#B88B6A"/>
<path d="M28.7859 5.7876C29.8109 6.194 30.2419 6.82398 30.1148 7.93459C30.0513 8.21314 29.9873 8.43452 29.9023 8.70772C29.8799 9.42249 29.2589 9.80243 28.8193 10.242L28.8919 10.3438C29.0267 10.3089 29.082 10.2961 29.2201 10.3188C28.9637 10.6812 26.9813 11.6448 26.4201 11.7437C26.2679 11.7705 25.885 11.8106 25.6958 11.8582C25.3146 11.9541 24.3408 12.4633 24.0168 12.436C23.9039 12.4705 23.8038 12.5009 23.6937 12.5426L23.685 12.6401L23.5411 12.7257C23.3953 12.8553 23.4542 12.8421 23.2966 12.8446C23.244 12.781 23.2226 12.7508 23.1604 12.6943C22.6006 12.8515 22.3799 13.1059 21.831 12.9056C21.704 12.9285 21.2243 12.9507 21.1462 12.9997C20.6344 13.3209 18.7326 12.0957 18.5058 12.1107C18.4017 11.9279 18.3492 11.8063 18.2669 11.6124L18.2529 11.5823L18.2191 11.1364L18.2196 10.8437L18.2289 10.8225C18.2791 10.8244 18.2751 10.8274 18.3238 10.842C18.5487 11.2024 18.6639 11.4502 19.0072 11.7069L19.1195 11.7924L19.4308 11.9008C19.8307 12.082 20.2291 12.038 20.5856 12.1585C20.6858 12.0954 21.0331 12.0519 21.1715 12.0287C21.9453 11.9838 23.3523 11.4906 24.0748 11.1544C24.3691 11.0174 25.0345 10.6401 25.3082 10.5875C25.6496 10.4798 27.0178 9.31475 27.3245 9.04461C27.7252 8.7837 28.4674 7.85903 28.6776 7.41862C29.0053 6.73251 29.0039 6.46264 28.7859 5.7876Z" fill="#C5BEBC"/>
<path d="M28.7858 5.7876C29.8108 6.194 30.2417 6.82398 30.1147 7.93459C30.0512 8.21314 29.9872 8.43452 29.9022 8.70772C29.809 8.87786 29.7199 9.06723 29.5846 9.20331C29.023 9.44722 28.1232 10.3809 27.5387 10.3706C27.5135 10.3025 27.5163 10.3065 27.5227 10.2337C26.7604 10.5244 26.2052 10.8186 25.3616 10.9399C25.1779 10.9663 25.0184 11.1844 24.7817 11.1841L24.7565 11.1012C24.9667 10.9205 25.1194 10.7888 25.3081 10.5875C25.6495 10.4798 27.0177 9.31475 27.3243 9.04461C27.7251 8.7837 28.4673 7.85903 28.6775 7.41862C29.0051 6.73251 29.0038 6.46264 28.7858 5.7876Z" fill="#FCFAF6"/>
<path d="M18.2196 10.8424L18.2289 10.8213C18.2791 10.8232 18.2751 10.8261 18.3238 10.8408C18.5487 11.2012 18.6639 11.4489 19.0072 11.7057L19.1195 11.7911L19.1452 11.8154C19.2203 11.8872 19.2492 11.9048 19.2872 12.0032C20.4709 12.7657 22.7377 12.3357 24.1032 12.2086C24.2892 12.1913 24.3422 12.1166 24.562 12.1562L24.583 12.1961C24.482 12.2402 24.0666 12.4006 24.0168 12.4348C23.9039 12.4692 23.8038 12.4996 23.6937 12.5413L23.685 12.6389L23.5411 12.7245C23.3953 12.8541 23.4542 12.8409 23.2966 12.8434C23.244 12.7797 23.2226 12.7496 23.1604 12.6931C22.6006 12.8503 22.3799 13.1046 21.831 12.9043C21.704 12.9273 21.2243 12.9494 21.1462 12.9984C20.6344 13.3197 18.7326 12.0945 18.5058 12.1094C18.4017 11.9267 18.3492 11.8051 18.2669 11.6112L18.2529 11.581L18.2191 11.1351L18.2196 10.8424Z" fill="#B87C57"/>
<path d="M18.267 11.6123C18.5169 11.759 18.6577 12.0778 18.8869 12.221C19.9236 12.8686 20.9844 12.712 22.1099 12.8219C22.2584 12.7099 23.4452 12.5757 23.6938 12.5425L23.6852 12.64L23.5412 12.7256C23.3954 12.8552 23.4544 12.842 23.2967 12.8445C23.2442 12.7809 23.2227 12.7507 23.1605 12.6942C22.6007 12.8515 22.38 13.1058 21.8312 12.9055C21.7042 12.9284 21.2244 12.9506 21.1464 12.9996C20.6345 13.3208 18.7327 12.0956 18.5059 12.1106C18.4018 11.9278 18.3493 11.8063 18.267 11.6123Z" fill="#D19E69"/>
<path d="M29.9022 8.70703C29.8798 9.4218 29.2588 9.80174 28.8191 10.2413L28.8918 10.3431C29.0266 10.3082 29.0819 10.2954 29.2199 10.3181C28.9635 10.6805 26.9811 11.6441 26.42 11.743C26.2678 11.7698 25.8848 11.81 25.6956 11.8575C25.3145 11.9534 24.3407 12.4626 24.0167 12.4353C24.0665 12.4012 24.4819 12.2408 24.5829 12.1967L24.5619 12.1567C24.342 12.1171 24.289 12.1918 24.103 12.2091C22.7376 12.3363 20.4707 12.7662 19.287 12.0037C19.2491 11.9053 19.2202 11.8878 19.1451 11.8159L19.1193 11.7917L19.4307 11.9001C19.8306 12.0813 20.2289 12.0373 20.5854 12.1578C22.696 12.765 28.4554 11.4335 29.5005 9.33509L29.5846 9.20262C29.7199 9.06654 29.809 8.87716 29.9022 8.70703Z" fill="#B88B6A"/>
<path d="M24.7564 11.1015L24.7816 11.1844C25.0183 11.1847 25.1778 10.9666 25.3615 10.9402C26.2051 10.8189 26.7603 10.5247 27.5226 10.234C27.5162 10.3068 27.5134 10.3028 27.5386 10.3709C28.1231 10.3812 29.0229 9.44752 29.5845 9.20361L29.5004 9.33608L29.4661 9.35715C29.1641 9.5479 28.8972 9.79798 28.5924 9.98182C27.6542 10.5474 26.6872 10.9514 25.5982 11.1141C25.3258 11.1548 24.8931 11.3118 24.6331 11.2966L24.6143 11.2376C24.6701 11.1765 24.6879 11.1476 24.7564 11.1015Z" fill="#EEE8E2"/>
<path d="M22.1801 14.066C24.1456 14.0665 25.1139 13.8492 26.9976 13.1953L26.9505 13.4618C27.0844 13.5857 27.291 13.7164 27.3308 13.8414L27.3033 13.888L26.728 13.6408C26.5516 13.8924 26.3309 14.1627 26.2276 14.4404C26.2742 14.4936 26.3117 14.5363 26.3619 14.5867C26.228 14.517 26.1609 14.4825 26.0389 14.3956C25.7775 14.4161 25.5124 14.8863 25.2684 15.1175L25.1729 15.1648C24.874 15.0713 24.6236 14.7392 24.38 14.7623L24.3014 14.8725C24.0455 14.8839 23.2457 14.0819 22.8258 14.2241C22.6818 14.2729 22.6009 14.341 22.4456 14.3285C22.2998 14.2373 22.2824 14.2067 22.1801 14.066Z" fill="#C18E60"/>
<path d="M28.1352 12.6545C28.5698 12.1572 29.2224 11.944 29.7607 11.5566L29.8137 11.7615C29.747 11.8924 29.6611 12.1577 29.5898 12.2365C29.4915 12.3012 29.4399 12.3628 29.3444 12.357C28.7823 12.3226 28.6722 12.6272 28.2878 12.9003C28.2769 12.7893 28.2741 12.7813 28.2426 12.6807L28.1352 12.6545Z" fill="#B88B6A"/>
<path d="M23.6849 12.6398C24.0683 12.6782 25.5243 12.3199 25.9443 12.1719L25.9433 12.2015C25.4087 12.5228 24.752 12.225 24.7648 12.8612C24.5591 13.1295 23.8782 13.1202 23.6849 12.7906L23.7233 12.7604C23.6538 12.7198 23.6223 12.7278 23.541 12.7253L23.6849 12.6398Z" fill="#D19E69"/>
<path d="M20.7526 0.242369C20.9645 0.0659752 21.3853 -0.0340836 21.6569 0.0106206C22.8377 0.205162 23.4926 0.856573 24.1118 1.78723C24.5798 1.99854 24.8969 2.24871 25.2392 2.62573C25.3836 2.78498 25.4659 2.99209 25.6587 3.05215L25.5934 3.11459C25.7867 3.50509 25.9164 3.85779 25.7286 4.30282C25.0084 6.01118 22.9579 7.06388 21.3852 7.8515C21.3559 7.86622 21.3017 7.89324 21.2772 7.90229C20.7129 8.10848 18.2349 9.08576 17.856 8.33443C17.9043 8.23268 17.8629 8.01121 17.85 7.88656C17.8153 7.43047 17.7523 7.1691 18.091 6.82052C18.3742 6.47015 18.6164 6.55138 18.8509 6.32658C18.7673 5.97447 18.6485 5.19937 18.8818 4.90441L18.918 4.76344C19.0897 4.60839 19.2636 4.45586 19.4398 4.30588C19.5551 4.10129 19.6298 4.04387 19.8013 3.88499C19.7029 2.74946 20.2045 2.98917 20.3792 2.52882C20.4584 2.40211 20.5853 2.29863 20.6802 2.17818C21.0549 1.70262 20.9927 1.37021 20.9475 0.825398C20.8612 0.541037 20.6985 0.570018 20.7526 0.242369Z" fill="#EE9EB8"/>
<path d="M20.7526 0.242369C20.9645 0.0659752 21.3853 -0.0340836 21.6569 0.0106206C22.8377 0.205162 23.4926 0.856573 24.1118 1.78722C24.2151 2.08214 24.3403 2.40966 24.4043 2.71225C24.2064 3.39182 23.9281 4.00735 23.1818 4.21076L23.1466 4.25679C23.1179 4.44863 22.994 4.5161 22.8158 4.64683C22.7902 4.66589 22.7637 4.68473 22.7376 4.70328C22.4502 4.67453 22.0654 4.85733 21.7817 4.96388C20.845 5.13931 19.8064 5.35268 18.8818 4.90441L18.918 4.76344C19.0897 4.60839 19.2636 4.45586 19.4398 4.30588C19.5551 4.10129 19.6298 4.04387 19.8013 3.88499C19.7029 2.74946 20.2045 2.98916 20.3792 2.52882C20.4584 2.40211 20.5853 2.29863 20.6802 2.17818C21.0549 1.70262 20.9927 1.37021 20.9475 0.825398C20.8612 0.541037 20.6985 0.570018 20.7526 0.242369Z" fill="#FCFAF6"/>
<path d="M20.9476 0.826681C20.8613 0.54232 20.6986 0.5713 20.7527 0.243652L20.7973 0.279946L21.1751 0.268747L21.3439 0.28598C21.8722 0.527968 22.538 1.25192 22.6637 1.8371C22.8428 2.30709 22.7254 2.37519 22.4407 2.76775C22.3653 2.84943 22.0993 3.1497 22.0253 3.19217C21.6389 3.53037 21.3184 3.73899 20.8801 4.0095L20.6133 4.11541C20.3084 4.22119 19.7254 4.48955 19.4398 4.30717C19.5552 4.10257 19.6299 4.04516 19.8013 3.88627C19.703 2.75075 20.2045 2.99045 20.3792 2.5301C20.4584 2.4034 20.5854 2.29991 20.6803 2.17946C21.055 1.7039 20.9928 1.3715 20.9476 0.826681Z" fill="#F2A0B7"/>
<path d="M21.032 2.21631C20.9887 2.30051 20.9513 2.37542 20.9125 2.46172L20.9373 2.51543C20.72 2.75244 20.2021 2.98263 20.1379 3.27403C20.4257 3.49001 21.5949 2.90644 22.0253 3.19144C21.6389 3.52964 21.3184 3.73826 20.8801 4.00877L20.6133 4.11468C20.3084 4.22046 19.7254 4.48882 19.4398 4.30644C19.5552 4.10184 19.6299 4.04443 19.8013 3.88554C19.703 2.75002 20.2045 2.98972 20.3792 2.52938C20.4099 2.54062 20.4866 2.55168 20.5226 2.55813C20.7145 2.5046 20.8747 2.34608 21.032 2.21631Z" fill="#DE86A4"/>
<path d="M20.9474 0.826681C20.8611 0.54232 20.6984 0.5713 20.7525 0.243652L20.797 0.279946C21.7445 0.98374 22.1503 1.74353 20.9371 2.51616L20.9122 2.46245C20.9511 2.37615 20.9885 2.30124 21.0317 2.21704C20.8744 2.34681 20.7143 2.50533 20.5224 2.55886C20.4864 2.55241 20.4097 2.54135 20.379 2.5301C20.4582 2.4034 20.5852 2.29991 20.6801 2.17946C21.0548 1.7039 20.9925 1.3715 20.9474 0.826681Z" fill="#C75E7B"/>
<path d="M20.9474 0.826172C21.3833 1.23185 21.2493 1.74695 21.0317 2.21653C20.8744 2.3463 20.7143 2.50482 20.5224 2.55835C20.4864 2.5519 20.4097 2.54084 20.379 2.52959C20.4582 2.40289 20.5852 2.2994 20.6801 2.17895C21.0548 1.70339 20.9925 1.37099 20.9474 0.826172Z" fill="#CBADAB"/>
<path d="M21.1749 0.268555L21.3437 0.285787C21.872 0.527775 22.5378 1.25173 22.6635 1.83691C22.4976 1.81739 22.435 1.40988 22.2207 1.18554C22.2294 1.27211 22.2298 1.29195 22.2605 1.37487L22.2824 1.43233L22.1869 1.55917C21.8341 1.09097 21.5246 0.749331 21.1749 0.268555Z" fill="#FEA3AD"/>
<path d="M20.6133 4.11519L20.88 4.00928L20.8465 4.0501C20.5428 4.416 19.6784 4.79809 19.2205 4.83727C19.1566 4.84261 19.0926 4.84654 19.0286 4.84906C19.2154 5.03994 20.0082 4.65598 20.2554 4.60981C20.5014 4.56383 20.6647 4.33871 20.9056 4.28226C21.6796 4.30859 22.3698 4.43218 23.1466 4.25785C23.1179 4.44969 22.994 4.51716 22.8158 4.64789C22.7902 4.66695 22.7637 4.68578 22.7376 4.70434C22.4502 4.67559 22.0654 4.85838 21.7817 4.96493C20.845 5.14037 19.8064 5.35374 18.8818 4.90546L18.918 4.7645C19.0897 4.60945 19.2636 4.45691 19.4398 4.30694C19.7253 4.48932 20.3084 4.22096 20.6133 4.11519Z" fill="#C5BEBC"/>
<path d="M19.4398 4.30748C19.7253 4.48986 20.3084 4.2215 20.6133 4.11572C20.3627 4.40781 19.5577 4.72243 19.1787 4.75383C19.0919 4.76046 19.005 4.76421 18.918 4.76503C19.0897 4.60998 19.2636 4.45745 19.4398 4.30748Z" fill="#CBADAB"/>
<path d="M21.3438 0.285156C22.7016 0.401579 23.4688 2.21132 22.4406 2.76693C22.7253 2.37437 22.8428 2.30626 22.6636 1.83627C22.538 1.2511 21.8721 0.527144 21.3438 0.285156Z" fill="#F7D6D4"/>
<path d="M18.8817 4.90479C19.8064 5.35306 20.8449 5.13969 21.7816 4.96425C21.8606 5.1689 21.8634 5.21369 21.8853 5.42784C21.633 5.60922 21.511 5.70087 21.2269 5.83484C20.9178 5.6707 20.3456 6.00977 20.0052 6.11322C19.62 6.18205 19.2352 6.25332 18.8508 6.32696C18.7672 5.97485 18.6484 5.19975 18.8817 4.90479Z" fill="#DE86A4"/>
<path d="M20.0053 6.11303C20.3457 6.00959 20.9178 5.67051 21.227 5.83466C21.0612 5.92023 20.6285 6.1597 20.4655 6.17236C20.1662 6.37285 19.3196 6.41664 18.9423 6.48639C18.6121 6.54741 18.3724 6.73277 18.0911 6.82071C18.3743 6.47035 18.6165 6.55157 18.8509 6.32677C19.2353 6.25313 19.6201 6.18187 20.0053 6.11303Z" fill="#C75E7B"/>
<path d="M21.7817 4.96577C22.0654 4.85922 22.4502 4.67642 22.7376 4.70518C22.5397 4.87522 22.0763 5.29584 21.8853 5.42936C21.8634 5.21521 21.8606 5.17041 21.7817 4.96577Z" fill="#CBADAB"/>
<path d="M24.7153 4.35156L24.7784 4.36427L24.8182 4.42388C24.7354 4.65965 24.3749 4.98368 24.1916 5.15894C23.6816 4.86114 24.4434 4.52311 24.7153 4.35156Z" fill="#F7D6D4"/>
<path d="M25.6587 3.05322C26.4529 3.19602 27.0283 3.59456 27.2677 4.38297C27.2947 4.98556 27.3029 5.45084 26.835 5.9062C25.9671 6.74987 24.5953 7.9492 23.4962 8.42746C22.9734 8.34875 23.2161 8.47564 22.9369 8.63481C22.6791 8.78172 22.1604 8.84992 21.8575 8.979C21.7088 9.04921 20.8745 8.95317 20.6357 8.96469C20.3597 8.978 19.7293 9.15795 19.5234 9.0344C19.6883 8.71205 20.9192 8.30999 21.2771 7.90336C21.3017 7.89431 21.3558 7.86729 21.3852 7.85257C22.9579 7.06495 25.0084 6.01225 25.7286 4.30389C25.9164 3.85886 25.7866 3.50616 25.5933 3.11566L25.6587 3.05322Z" fill="#FBF3F0"/>
<path d="M22.3835 9.98853C22.1134 10.2327 21.7282 10.3986 21.4709 10.6608L21.474 10.7002C21.5563 10.6164 21.8168 10.6394 21.9242 10.5934C22.9378 10.1587 24.0217 10.2134 25.0824 10.0016C25.3744 9.94318 25.7432 9.64886 26.0627 9.58404C25.9891 9.65233 25.9763 9.65736 25.9242 9.7464C26.0197 9.79618 26.0992 9.82219 26.1513 9.92298C26.532 9.6143 26.9213 9.26896 27.2993 8.97217L27.3244 9.04334C27.0178 9.31348 25.6495 10.4785 25.3082 10.5862C25.0344 10.6388 24.3691 11.0162 24.0748 11.1531C23.3523 11.4893 21.9452 11.9826 21.1714 12.0275C21.033 12.0506 20.6857 12.0941 20.5855 12.1572C20.229 12.0367 19.8306 12.0808 19.4308 11.8996L19.1194 11.7911L19.0071 11.7057C18.6638 11.4489 18.5486 11.2012 18.3237 10.8407C18.275 10.8261 18.279 10.8231 18.2288 10.8213L18.2196 10.8424L18.2106 10.6651C18.4036 10.5785 19.3308 10.6139 19.6703 10.5583C20.4003 10.439 20.9885 10.1988 21.6827 10.0009C21.9301 10.0929 22.1125 9.98766 22.3835 9.98853Z" fill="#DE86A4"/>
<path d="M27.2676 4.38281C27.406 4.42496 27.5079 4.45001 27.6373 4.51843L27.5756 4.52506C27.5052 4.53206 27.4961 4.53347 27.4257 4.51423C27.2616 4.74205 27.4622 5.42161 27.3274 5.81956C27.0601 6.60646 26.4258 7.2512 25.7015 7.63996C25.4785 7.7599 25.1778 7.71858 24.9159 7.7104C24.1514 8.21375 22.7763 8.93725 21.8573 8.97885C22.1603 8.84976 22.679 8.78156 22.9367 8.63465C23.2159 8.47549 22.9733 8.3486 23.4961 8.42731C24.5951 7.94905 25.967 6.74971 26.8348 5.90605C27.3028 5.45069 27.2945 4.98541 27.2676 4.38281Z" fill="#F7D6D4"/>
<path d="M21.6826 10.0016C22.4282 9.73324 23.1443 9.38822 23.8188 8.97217L23.8462 9.00874C23.4304 9.30324 22.7234 9.72693 22.3834 9.9893C22.1124 9.98843 21.9301 10.0937 21.6826 10.0016Z" fill="#C75E7B"/>
<path d="M46.4352 29.2944C46.9301 29.3441 50.2154 30.8072 50.5207 31.0927C50.6413 31.3055 50.7606 31.9365 50.8205 32.2076L51.3515 34.6843C51.4145 34.9809 51.5379 35.6367 51.6225 35.9012C51.8528 36.0045 52.7923 36.3822 52.9084 36.4547C52.9847 36.6692 53.0154 37.2444 53.0373 37.4987C52.021 38.0763 50.0066 39.0233 49.1607 39.6141C48.5638 40.3268 47.2633 41.213 46.3456 41.2889C46.204 41.2999 46.0618 41.304 45.9193 41.3017C45.0944 41.6459 43.9474 42.2868 43.133 42.71L38.6025 45.0572C38.1482 45.2945 36.4272 46.2187 36.0621 46.317C36.0589 45.9746 36.0579 45.6323 36.0589 45.2904C35.6521 45.0545 34.5805 44.6385 34.1066 44.4438C34.6724 44.5435 35.0019 44.623 35.5781 44.5855L35.7079 44.602C35.7751 43.7143 35.4561 41.9869 35.3514 41.0604C35.276 40.3887 35.2399 39.6228 35.1563 38.9707C34.8355 38.679 32.1754 37.4167 31.6407 37.1305L31.6019 37.142L31.6544 36.9957C32.0104 36.7678 32.737 36.3833 33.12 36.2372C33.1872 36.1487 33.5025 36.0141 33.6149 35.9622C33.683 35.8748 33.8754 35.8076 33.9791 35.7767C34.235 35.6037 34.9338 35.2511 35.2217 35.1481C35.2934 35.0152 35.9145 34.7548 36.0854 34.6814C36.1589 34.5944 36.6479 34.3538 36.769 34.3173C37.0016 34.154 37.1012 34.1104 37.364 33.994C37.4705 33.8672 38.4046 33.4303 38.5961 33.3537C38.6824 33.2564 39.0549 33.0974 39.1929 33.0349C39.2422 32.9745 39.3423 32.939 39.42 32.9007C39.7143 32.7256 40.2992 32.438 40.6118 32.3062C40.668 32.2311 40.7896 32.2002 40.8833 32.165C40.9742 32.0647 41.4362 31.8653 41.5669 31.8084C41.5779 31.7964 41.6396 31.7701 41.6574 31.7617C41.9499 31.5576 42.475 31.3051 42.8049 31.1637C42.9073 31.0634 42.9246 31.0662 43.0681 31.027C43.3368 30.8626 43.4771 30.7842 43.7646 30.6591C43.8263 30.5845 43.9862 30.5294 44.0817 30.4876C44.3683 30.3343 44.562 30.2392 44.8604 30.1098C44.9134 30.0524 45.0003 30.0216 45.0761 29.9846C45.3718 29.8224 45.5413 29.7285 45.8617 29.6078C46.0052 29.4868 46.2593 29.3785 46.4352 29.2944Z" fill="#A1C1C8"/>
<path d="M46.4352 29.2944C46.9301 29.3441 50.2154 30.8072 50.5207 31.0927C49.481 31.5555 48.2778 32.1848 47.2527 32.7015L40.6232 36.0958L36.8613 38.0223C36.3605 38.2773 35.8614 38.5303 35.3533 38.7705C35.3455 38.7741 35.2226 38.9274 35.1563 38.9707C34.8355 38.679 32.1754 37.4167 31.6407 37.1305L31.6019 37.142L31.6544 36.9957C32.0104 36.7678 32.737 36.3833 33.12 36.2372C33.1872 36.1487 33.5025 36.0141 33.6149 35.9622C33.683 35.8748 33.8754 35.8076 33.9791 35.7767C34.235 35.6037 34.9338 35.2511 35.2217 35.1481C35.2934 35.0152 35.9145 34.7548 36.0854 34.6814C36.1589 34.5944 36.6479 34.3538 36.769 34.3173C37.0016 34.154 37.1012 34.1104 37.364 33.994C37.4705 33.8672 38.4046 33.4303 38.5961 33.3537C38.6824 33.2564 39.0549 33.0974 39.1929 33.0349C39.2422 32.9745 39.3423 32.939 39.42 32.9007C39.7143 32.7256 40.2992 32.438 40.6118 32.3062C40.668 32.2311 40.7896 32.2002 40.8833 32.165C40.9742 32.0647 41.4362 31.8653 41.5669 31.8084C41.5779 31.7964 41.6396 31.7701 41.6574 31.7617C41.9499 31.5576 42.475 31.3051 42.8049 31.1637C42.9073 31.0634 42.9246 31.0662 43.0681 31.027C43.3368 30.8626 43.4771 30.7842 43.7646 30.6591C43.8263 30.5845 43.9862 30.5294 44.0817 30.4876C44.3682 30.3343 44.562 30.2392 44.8604 30.1098C44.9134 30.0524 45.0003 30.0216 45.0761 29.9846C45.3718 29.8224 45.5413 29.7285 45.8617 29.6078C46.0052 29.4868 46.2593 29.3785 46.4352 29.2944Z" fill="#B3DEEB"/>
<path d="M31.6544 36.9958C32.0104 36.7679 32.737 36.3834 33.12 36.2373C32.8165 36.5799 31.94 36.7882 31.6407 37.1306L31.6019 37.1421L31.6544 36.9958Z" fill="#829FA6"/>
<path d="M40.6117 32.3062C40.4769 32.5115 39.653 32.9215 39.4199 32.9006C39.7142 32.7255 40.2992 32.438 40.6117 32.3062Z" fill="#A1C1C8"/>
<path d="M33.9792 35.7765C34.2351 35.6035 34.9338 35.2509 35.2217 35.1479C34.9887 35.349 34.2767 35.7318 33.9792 35.7765Z" fill="#829FA6"/>
<path d="M42.8048 31.1636C42.655 31.3518 41.8886 31.7372 41.6573 31.7616C41.9498 31.5575 42.4749 31.305 42.8048 31.1636Z" fill="#A1C1C8"/>
<path d="M35.2217 35.1478C35.2934 35.015 35.9145 34.7546 36.0854 34.6812C35.9689 34.8252 35.3949 35.1713 35.2217 35.1478Z" fill="#A1C1C8"/>
<path d="M44.0817 30.4877C44.3682 30.3344 44.562 30.2393 44.8604 30.1099C44.7393 30.3125 44.3723 30.4541 44.1498 30.522L44.0817 30.4877Z" fill="#A1C1C8"/>
<path d="M45.076 29.9842C45.3717 29.8221 45.5413 29.7281 45.8616 29.6074C45.7017 29.7731 45.3087 30.0132 45.076 29.9842Z" fill="#A1C1C8"/>
<path d="M41.567 31.8076C41.4472 31.942 41.0597 32.2084 40.8833 32.1642C40.9742 32.0639 41.4363 31.8646 41.567 31.8076Z" fill="#829FA6"/>
<path d="M38.596 33.3539C38.6824 33.2567 39.0548 33.0976 39.1928 33.0352C39.1023 33.1929 38.7683 33.3936 38.596 33.3539Z" fill="#A1C1C8"/>
<path d="M43.7645 30.6587C43.605 30.8708 43.3276 30.9957 43.0681 31.0266C43.3368 30.8621 43.4771 30.7837 43.7645 30.6587Z" fill="#A1C1C8"/>
<path d="M36.769 34.3183C37.0016 34.1551 37.1013 34.1114 37.364 33.9951C37.2155 34.2074 37.0163 34.2767 36.769 34.3183Z" fill="#A1C1C8"/>
<path d="M33.12 36.2374C33.1872 36.1489 33.5025 36.0143 33.6149 35.9624C33.5016 36.0823 33.2941 36.2609 33.12 36.2374Z" fill="#829FA6"/>
<path d="M51.6225 35.9009C51.8528 36.0042 52.7924 36.3819 52.9084 36.4545C52.9848 36.6689 53.0154 37.2441 53.0373 37.4984C52.021 38.0761 50.0066 39.023 49.1607 39.6138C48.5639 40.3265 47.2633 41.2128 46.3456 41.2887C46.204 41.2996 46.0619 41.3037 45.9193 41.3015C45.0944 41.6456 43.9474 42.2865 43.133 42.7098L38.6025 45.057C38.1482 45.2942 36.4272 46.2185 36.0621 46.3167C36.0589 45.9744 36.058 45.632 36.0589 45.2901C35.6522 45.0542 34.5805 44.6383 34.1066 44.4435C34.6724 44.5432 35.0019 44.6227 35.5781 44.5852L35.7079 44.6017C35.9844 44.6662 37.6451 43.7424 37.9887 43.5655L41.4367 41.7937L51.6659 36.5004C51.6334 36.3095 51.6312 36.0956 51.6225 35.9009Z" fill="#EEE8E2"/>
<path d="M51.6225 35.9009C51.8528 36.0042 52.7924 36.3819 52.9084 36.4545C52.7357 36.6603 50.0317 38.0091 49.6113 38.2282L41.6771 42.3478C39.9323 43.2441 37.7493 44.322 36.0589 45.2901C35.6522 45.0542 34.5805 44.6383 34.1066 44.4435C34.6724 44.5432 35.0019 44.6227 35.5781 44.5852L35.7079 44.6017C35.9844 44.6662 37.6451 43.7424 37.9887 43.5655L41.4367 41.7937L51.6659 36.5004C51.6334 36.3095 51.6312 36.0956 51.6225 35.9009Z" fill="#FCFAF6"/>
<path d="M45.9191 41.3014C46.6403 40.8594 48.3745 39.9495 49.1605 39.6138C48.5637 40.3264 47.2631 41.2127 46.3455 41.2886C46.2038 41.2995 46.0617 41.3037 45.9191 41.3014Z" fill="#382745"/>
<path d="M37.3153 39.9244C37.6196 39.4022 37.8463 39.1096 38.4495 38.9556C38.8439 39.0726 39.1834 39.1775 39.3776 39.5643C39.7656 40.3354 39.395 41.2007 38.869 41.7648C38.8896 41.9755 38.6561 42.337 38.5084 42.4861C38.1648 42.8344 37.5003 43.0213 37.1457 42.5811C36.84 42.2022 36.9254 41.6167 36.9661 41.1669L37.1297 40.5063L37.3153 39.9244Z" fill="#F3D8A3"/>
<path d="M36.9661 41.167L37.0127 41.2634L37.0392 41.2506L37.0475 41.3018C37.1078 41.6639 37.6073 42.1973 37.9221 41.9953C37.9505 42.0026 37.9788 42.0085 38.0076 42.0145C38.3691 42.0848 38.5852 41.9537 38.869 41.7649C38.8896 41.9756 38.6561 42.3372 38.5084 42.4862C38.1648 42.8345 37.5003 43.0214 37.1457 42.5813C36.84 42.2023 36.9254 41.6168 36.9661 41.167Z" fill="#829FA6"/>
<path d="M37.315 39.9238C37.7204 40.7467 37.0577 41.0036 37.8744 41.9539L37.9219 41.9946C37.607 42.1966 37.1075 41.6632 37.0472 41.3012L37.039 41.25L37.0125 41.2628L36.9659 41.1663L37.1295 40.5058L37.315 39.9238Z" fill="#E0B578"/>
<path d="M37.1295 40.5068C37.1286 41.081 37.1834 41.8028 37.8744 41.955L37.9219 41.9957C37.607 42.1977 37.1075 41.6643 37.0472 41.3022L37.039 41.251L37.0125 41.2638L36.9659 41.1674L37.1295 40.5068Z" fill="#679EBB"/>
<path d="M47.9137 34.3579C48.304 33.6664 48.8546 33.354 49.5922 33.8075C49.6137 33.8209 49.6352 33.8349 49.6566 33.8493C50.3362 34.8611 49.9404 35.4371 49.3747 36.3211C48.7166 38.3226 46.9915 37.4303 47.666 35.0757C47.7359 34.8286 47.8246 34.5981 47.9137 34.3579Z" fill="#F3D8A3"/>
<path d="M49.3747 36.3225C48.7166 38.3241 46.9915 37.4317 47.666 35.0771C47.6998 35.645 47.7894 36.3599 48.4305 36.5525C48.8638 36.6915 49.0173 36.5605 49.3747 36.3225Z" fill="#829FA6"/>
<path d="M47.9138 34.3589C48.1597 35.0037 47.8608 35.4022 48.1272 36.0534C48.236 36.3194 48.3292 36.3649 48.4307 36.5521C47.7895 36.3594 47.7 35.6446 47.6661 35.0767C47.7361 34.8296 47.8247 34.599 47.9138 34.3589Z" fill="#E0B578"/>
<path d="M45.3114 35.2235C45.4791 35.131 45.4594 35.103 45.6098 35.1409C45.7199 35.2979 45.7268 35.389 45.693 35.596L45.591 35.6881C45.5892 35.8745 45.5198 36.0431 45.3795 36.1475C44.6762 36.6706 41.8154 38.1856 41.0714 38.3445C41.0577 38.067 41.0157 37.6558 41.1048 37.4018C41.3392 37.2134 44.1438 35.7851 44.5349 35.6105C44.8046 35.457 45.0312 35.3523 45.3114 35.2235Z" fill="#EEE8E2"/>
<path d="M45.591 35.687C45.5892 35.8734 45.5198 36.042 45.3795 36.1464C44.6762 36.6695 41.8154 38.1845 41.0714 38.3433C41.0577 38.0658 41.0157 37.6547 41.1048 37.4006C41.1496 37.567 41.1688 37.6958 41.2716 37.8325C41.3027 37.8408 41.3342 37.8491 41.3653 37.8575C42.4913 37.3734 44.5976 36.2366 45.591 35.687Z" fill="#679EBB"/>
<path d="M45.3112 35.2236L45.3249 35.3207C45.1307 35.4733 44.7829 35.6788 44.5348 35.6106C44.8044 35.4571 45.0311 35.3524 45.3112 35.2236Z" fill="#FCFAF6"/>
<path d="M41.2885 38.6468C41.2958 38.6209 41.3031 38.5951 41.3104 38.5693C41.6586 38.3419 42.3135 38.0344 42.7088 37.8417C43.5839 37.4148 44.8781 36.6067 45.7578 36.3032C45.8026 36.4984 45.8789 36.716 45.7606 36.8831C45.74 37.0753 45.671 37.1796 45.581 37.3472C44.853 37.7719 42.1431 39.2275 41.3881 39.4042L41.3054 39.3917C41.1564 39.2576 41.1688 38.8119 41.2885 38.6468Z" fill="#EEE8E2"/>
<path d="M45.7608 36.8843C45.7402 37.0765 45.6712 37.1808 45.5812 37.3484C44.8532 37.7732 42.1432 39.2287 41.3883 39.4054C41.4765 39.3287 41.5048 39.2997 41.5825 39.212L41.5706 39.098C41.6991 38.9624 45.2713 37.1446 45.7608 36.8843Z" fill="#679EBB"/>
<path d="M41.2885 38.6475C41.3707 38.8495 41.3954 38.9836 41.5704 39.0975L41.5823 39.2114C41.5046 39.2992 41.4763 39.3282 41.3881 39.4049L41.3054 39.3924C41.1564 39.2583 41.1688 38.8126 41.2885 38.6475Z" fill="#648CA7"/>
<path d="M45.9117 37.4971C45.9273 37.6512 45.9702 37.9063 45.9273 38.0391L45.856 38.1052C45.8615 38.2909 45.8903 38.2996 45.8085 38.4507C45.2034 38.812 44.4009 39.1994 43.7676 39.5305C43.0606 39.9001 42.2005 40.3678 41.4712 40.6705C41.4648 40.4401 41.4228 40.0487 41.5471 39.8683L41.5032 39.8184C41.5781 39.6438 42.9162 39.0035 43.1643 38.8946C43.5692 38.6309 44.8497 37.9974 45.3131 37.7909C45.4662 37.6748 45.728 37.5759 45.9117 37.4971Z" fill="#EEE8E2"/>
<path d="M45.856 38.1055C45.8615 38.2911 45.8903 38.2999 45.8085 38.4509C45.2034 38.8122 44.4009 39.1996 43.7676 39.5307C43.0606 39.9003 42.2005 40.3681 41.4712 40.6707C41.4648 40.4404 41.4228 40.049 41.5471 39.8685C41.5768 40.0018 41.5909 40.1795 41.712 40.2405C43.0853 39.5669 44.4992 38.8159 45.856 38.1055Z" fill="#679EBB"/>
<path d="M43.1644 38.8937C43.5693 38.6301 44.8498 37.9965 45.3132 37.79C45.1793 38.1359 43.5488 38.9413 43.1644 38.8937Z" fill="#FCFAF6"/>
<path d="M42.4783 19.3472L42.6236 19.2417L42.7013 19.2564C42.8028 19.4481 43.0313 20.4148 43.098 20.6735L43.8392 23.5673L44.6422 26.7112C44.7495 27.1319 44.9849 27.9498 45.0425 28.3452L45.0109 28.4327C44.8889 28.462 44.8876 28.4628 44.7623 28.4604L44.4973 28.5165C43.4659 28.9411 41.8253 29.8681 40.777 30.407C37.9523 31.8571 35.1368 33.3252 32.3309 34.8112C31.8305 32.3791 31.2008 29.9464 30.6684 27.5183C30.5226 26.8548 30.3604 25.9702 30.1401 25.3418L36.8167 22.0621C37.9167 21.5229 39.1542 20.865 40.2674 20.384L42.3531 19.3904L42.4783 19.3472Z" fill="#A1C1C8"/>
<path d="M42.4781 19.3472L42.6234 19.2417L42.7011 19.2564C42.8026 19.4481 43.0311 20.4148 43.0978 20.6735L43.839 23.5673L44.6419 26.7112C44.7493 27.1319 44.9847 27.9498 45.0423 28.3452L45.0107 28.4327C44.8887 28.462 44.8873 28.4628 44.7621 28.4604L44.4971 28.5165C44.0748 26.4286 43.505 24.3547 42.9548 22.2972C42.7651 21.6315 42.681 20.9505 42.3959 20.3142C42.4041 20.3328 42.2711 19.56 42.2688 19.5287C41.8274 19.6093 40.5656 20.4877 40.2672 20.384L42.3529 19.3904L42.4781 19.3472Z" fill="#829FA6"/>
<path d="M42.478 19.3472L42.6233 19.2417L42.701 19.2564C42.8024 19.4481 43.0309 20.4148 43.0976 20.6735L43.8389 23.5673L44.6418 26.7112C44.7492 27.1319 44.9845 27.9498 45.0421 28.3452L45.0106 28.4327C44.8886 28.462 44.8872 28.4628 44.762 28.4604C44.762 28.135 44.2867 26.4037 44.1802 25.986L42.8778 20.873C42.8011 20.5945 42.5918 19.4849 42.478 19.3472Z" fill="#C5BEBC"/>
<path d="M42.3529 19.3913L42.4781 19.3481C42.5919 19.4858 42.8012 20.5954 42.878 20.8739L42.8446 20.9414L42.8094 20.9237C42.6477 20.5262 42.4032 19.8072 42.3529 19.3913Z" fill="#648CA7"/>
</svg>
