<svg width="33" height="28" viewBox="0 0 33 28" fill="none" xmlns="http://www.w3.org/2000/svg">
<path d="M13.2488 0.14225C13.3732 0.0387219 13.6202 -0.0200042 13.7795 0.0062334C14.4726 0.120413 14.857 0.502736 15.2204 1.04895C15.495 1.17298 15.6812 1.3198 15.8821 1.54108C15.9668 1.63455 16.0151 1.7561 16.1283 1.79136C16.5944 1.87517 16.9321 2.10908 17.0727 2.5718C17.1539 2.59654 17.2137 2.61124 17.2896 2.6514C17.6477 2.80065 17.8143 3.05057 17.9637 3.39614C18.5653 3.63467 18.8182 4.00441 18.7436 4.65624C18.7796 4.83159 18.9491 4.95916 18.9976 5.18864C19.1282 5.80464 19.0947 6.37403 18.536 6.78227L18.5671 6.90251C18.5846 6.97817 18.6023 7.04234 18.6074 7.12014C20.5251 7.78378 22.4374 8.46276 24.3444 9.15699C24.8106 9.3275 25.9655 9.67476 26.3485 9.86808C26.5349 10.3464 26.6884 11.0767 26.8254 11.5853L27.9801 16.0258C28.0522 16.2968 28.1981 17.0194 28.3226 17.1932C28.613 17.2224 30.5412 18.0811 30.7204 18.2486C30.7912 18.3735 30.8612 18.7439 30.8963 18.903L31.208 20.3566C31.245 20.5307 31.3174 20.9156 31.3671 21.0708C31.5022 21.1314 32.0537 21.3532 32.1218 21.3957C32.1666 21.5216 32.1846 21.8592 32.1974 22.0085C31.6009 22.3475 30.4186 22.9033 29.9222 23.25C29.5719 23.6683 28.8086 24.1885 28.27 24.233C28.1869 24.2394 28.1034 24.2418 28.0198 24.2405C27.5356 24.4425 26.8624 24.8186 26.3845 25.0671L23.7254 26.4447C23.4588 26.5839 22.4487 27.1264 22.2344 27.184C21.8393 27.0236 21.4459 26.8594 21.0543 26.6915C20.749 27.2479 20.4991 27.3356 19.9181 27.6125C19.5646 27.7547 18.9684 28.0439 18.5899 27.9932C17.435 27.8381 16.4593 26.8455 16.0862 25.771C15.9381 25.3442 15.9344 24.9936 15.9722 24.545C15.8839 24.5238 15.3706 24.3001 15.2561 24.252L13.5735 23.5491L7.73124 21.1296C7.34772 21.5694 6.85705 21.8552 6.30716 22.0477C6.13937 22.1631 5.71967 22.295 5.52106 22.2797C4.04903 22.166 2.94657 20.4873 2.94018 19.1202C2.33349 18.8417 1.69777 18.5746 1.08506 18.3029L1.06854 17.7699C1.26973 17.6331 1.44369 17.5668 1.66751 17.4711C1.67543 17.0877 1.61457 16.0622 1.70842 15.7796C1.67183 15.3938 1.73266 12.2424 1.82616 11.9417C1.59129 11.8117 1.39694 11.6626 1.30932 11.4018L1.30296 11.3825C1.24956 11.2235 1.26659 11.0176 1.27059 10.8466C1.36489 10.6923 1.71829 10.3221 1.85553 10.183C1.80554 9.77872 1.84185 8.03491 2.00699 7.70952C2.05468 7.62447 2.11248 7.54327 2.20094 7.49962C2.69667 7.25514 3.21376 7.01841 3.71567 6.78863C4.86702 6.26484 6.02281 5.75079 7.18285 5.24656C7.94302 4.90945 9.02534 4.36039 9.81198 4.10636C9.97994 4.05211 11.2115 4.53321 11.5452 4.62875C11.5249 4.36106 11.4879 4.20766 11.6867 4.00307C11.8529 3.79743 11.9951 3.84511 12.1327 3.71317C12.0836 3.50651 12.0139 3.05159 12.1508 2.87847L12.172 2.79574C12.2728 2.70474 12.3749 2.61521 12.4783 2.52719C12.546 2.40711 12.5898 2.37341 12.6905 2.28016C12.6327 1.6137 12.9271 1.75439 13.0296 1.4842C13.0761 1.40984 13.1506 1.3491 13.2063 1.27841C13.4263 0.999292 13.3897 0.8042 13.3632 0.484439C13.3126 0.317543 13.2171 0.334552 13.2488 0.14225Z" fill="#FCFAF6"/>
<path d="M2.00699 7.70947C2.16789 7.72747 2.25257 7.81153 2.39172 7.87307C4.51416 8.81202 6.79732 9.586 8.94732 10.441C9.07625 10.4887 9.22795 10.5494 9.35798 10.5868C9.46824 10.6684 9.59722 10.6606 9.68675 10.6985C9.85162 10.7683 10.6051 11.0149 10.6945 11.0819C10.9361 11.2321 12.2023 11.6968 12.5586 11.8334L15.7085 13.0453C16.3943 13.3066 17.2416 13.6041 17.8931 13.912C17.9226 14.1901 18.0144 14.4227 18.0648 14.686C18.1439 15.1008 18.227 15.4994 18.3196 15.9117C18.6162 17.2759 18.9274 18.6368 19.253 19.9943C19.3138 20.2567 19.574 21.5668 19.6475 21.7132L19.6167 21.7991L19.6395 21.7923C19.9533 21.9602 21.5145 22.7012 21.7028 22.8723C21.7519 23.2551 21.7731 23.7046 21.8173 24.0988C21.8788 24.6426 22.066 25.6564 22.0265 26.1774L21.9504 26.1678C21.6122 26.1898 21.4188 26.1431 21.0867 26.0846C21.3649 26.1989 21.9938 26.443 22.2325 26.5814C22.232 26.7821 22.2325 26.9831 22.2344 27.184C21.8393 27.0236 21.4459 26.8594 21.0543 26.6914C20.749 27.2478 20.4991 27.3356 19.9181 27.6124C19.5646 27.7546 18.9684 28.0438 18.5899 27.9931C17.435 27.8381 16.4593 26.8454 16.0862 25.771C15.9381 25.3441 15.9344 24.9935 15.9722 24.5449C15.8839 24.5238 15.3706 24.3 15.2561 24.252L13.5735 23.549L7.73124 21.1296C7.34772 21.5693 6.85705 21.8552 6.30716 22.0477C6.13937 22.1631 5.71967 22.295 5.52106 22.2796C4.04903 22.1659 2.94657 20.4873 2.94018 19.1202C2.33349 18.8417 1.69777 18.5745 1.08506 18.3028L1.06854 17.7698C1.26973 17.6331 1.44369 17.5667 1.66751 17.4711C1.67543 17.0876 1.61457 16.0621 1.70842 15.7796C1.67183 15.3938 1.73266 12.2424 1.82616 11.9417C1.59129 11.8117 1.39694 11.6625 1.30932 11.4018L1.30296 11.3825C1.24956 11.2234 1.26659 11.0175 1.27059 10.8465C1.36489 10.6923 1.71829 10.3221 1.85553 10.183C1.80554 9.77868 1.84185 8.03487 2.00699 7.70947Z" fill="#CBC3C2"/>
<path d="M8.77314 13.7505C8.98838 13.838 10.0245 14.2744 10.2038 14.3169L10.2046 14.33C10.1767 14.4386 10.1673 14.6166 10.1841 14.7262C10.3207 14.8987 10.3903 15.0675 10.5373 15.2376C10.4766 15.3421 10.4626 15.3617 10.3828 15.4524L10.4119 15.6775C10.3326 15.8337 10.2815 15.8121 10.1132 15.8395C9.98747 15.8352 9.9275 15.8429 9.82547 15.7702C9.6805 15.8074 9.48608 15.8703 9.35473 15.9421C9.31809 16.0093 9.30758 16.0364 9.25506 16.0906C9.17795 16.0141 8.89939 15.8759 8.79406 15.8204C8.80468 15.6682 8.86629 15.5465 8.84821 15.4136L8.7887 15.3771C8.79371 15.274 8.75216 15.0322 8.71764 14.9299C8.69023 14.8487 8.68972 14.8641 8.61924 14.8333C8.61189 14.686 8.54097 14.6676 8.42242 14.5504L8.45614 14.4906C8.48712 14.4177 8.70394 14.2319 8.77359 14.1677C8.78668 14.0538 8.77638 13.8711 8.77314 13.7505Z" fill="#5D4A5D"/>
<path d="M8.77313 13.7505C8.98837 13.838 10.0245 14.2744 10.2038 14.3169L10.2046 14.33C10.1767 14.4386 10.1673 14.6166 10.1841 14.7262C10.0967 15.027 9.7987 15.0693 9.54749 14.9481C9.17738 14.7695 8.92733 14.5521 8.77359 14.1677C8.78668 14.0538 8.77638 13.8711 8.77313 13.7505Z" fill="#C5BEBC"/>
<path d="M10.3828 15.4521L10.412 15.6772C10.3326 15.8334 10.2815 15.8119 10.1132 15.8393C9.9875 15.8349 9.92753 15.8426 9.8255 15.7699C10.096 15.7056 10.2457 15.7118 10.3828 15.4521Z" fill="#4C334F"/>
<path d="M1.70842 15.7798L1.78767 15.8038C1.88791 15.9606 4.29342 16.8744 4.66822 17.0249L10.012 19.1686C10.8716 19.5181 11.7335 19.862 12.5976 20.2004C12.8876 20.3158 13.6248 20.6303 13.8968 20.7007C13.882 20.9545 13.8954 21.1996 13.8833 21.4315C13.9391 21.3566 13.9338 21.0346 13.9547 20.8952L13.9686 20.8061C14.1242 20.7452 14.7266 21.0477 14.8924 21.1294C15.1705 21.2427 15.4505 21.3521 15.7319 21.4576C16.1519 21.5838 16.5647 21.7735 16.9852 21.9098C17.8097 22.1771 18.7265 22.2088 19.5834 22.154C19.5896 22.1503 19.5957 22.1466 19.6016 22.1429C19.5992 22.0049 19.5976 21.9353 19.6167 21.7992L19.6395 21.7925C19.9533 21.9604 21.5145 22.7013 21.7028 22.8725C21.7519 23.2553 21.7731 23.7048 21.8173 24.099C21.8788 24.6428 22.066 25.6566 22.0265 26.1776L21.9504 26.1679C21.6122 26.1899 21.4188 26.1433 21.0867 26.0848C21.3649 26.1991 21.9938 26.4432 22.2325 26.5816C22.232 26.7823 22.2325 26.9832 22.2344 27.1842C21.8393 27.0238 21.4459 26.8596 21.0543 26.6916C20.749 27.248 20.4991 27.3358 19.9181 27.6126C19.5646 27.7548 18.9684 28.044 18.5899 27.9933C17.435 27.8382 16.4593 26.8456 16.0862 25.7712C15.9381 25.3443 15.9344 24.9937 15.9722 24.5451C15.8839 24.5239 15.3706 24.3002 15.2561 24.2522L13.5735 23.5492L7.73124 21.1298C7.34772 21.5695 6.85705 21.8553 6.30716 22.0479C6.13937 22.1632 5.71967 22.2952 5.52106 22.2798C4.04903 22.1661 2.94657 20.4875 2.94018 19.1204C2.33349 18.8419 1.69777 18.5747 1.08506 18.303L1.06854 17.77C1.26973 17.6333 1.44369 17.5669 1.66751 17.4713C1.67543 17.0878 1.61457 16.0623 1.70842 15.7798Z" fill="#C5BEBC"/>
<path d="M1.70835 15.7798L1.78761 15.8038C1.88784 15.9606 4.29335 16.8744 4.66816 17.0249L10.0119 19.1686C10.8715 19.5181 11.7334 19.862 12.5975 20.2004C12.8876 20.3158 13.6247 20.6303 13.8967 20.7007C13.8819 20.9545 13.8953 21.1996 13.8833 21.4315C13.8567 21.8437 13.8653 22.246 13.8776 22.6586C13.7804 22.7234 13.779 22.6846 13.6614 22.7071L13.6352 22.6941C13.4107 22.643 12.9956 22.4365 12.7644 22.3462C12.4287 22.2152 12.0879 22.0741 11.755 21.9358C10.3991 21.3873 9.04777 20.8277 7.70102 20.2571L3.63371 18.5731C3.12859 18.3634 2.17887 18.0087 1.7283 17.773L1.72004 17.7686C1.67866 17.7068 1.67528 17.5535 1.66745 17.4713C1.67536 17.0878 1.6145 16.0623 1.70835 15.7798Z" fill="#679EBB"/>
<path d="M1.72833 17.7733C1.93671 17.7244 2.91453 18.1687 3.17931 18.2599C3.98298 18.5369 4.7442 18.9149 5.51788 19.2409L9.42837 20.8526C9.65166 20.9449 9.94886 21.0148 10.1543 21.1087C10.8717 21.4368 11.5958 21.6809 12.3115 22.0121C12.6741 22.1799 13.0606 22.252 13.4126 22.5092C13.4945 22.569 13.578 22.594 13.6352 22.6945C13.4107 22.6433 12.9956 22.4368 12.7645 22.3466C12.4287 22.2155 12.0879 22.0744 11.755 21.9361C10.3992 21.3876 9.0478 20.828 7.70105 20.2574L3.63374 18.5734C3.12862 18.3637 2.1789 18.0091 1.72833 17.7733Z" fill="#648CA7"/>
<path d="M13.9546 20.896L13.9686 20.8069C14.1241 20.7459 14.7265 21.0484 14.8923 21.1302C15.1704 21.2434 15.4504 21.3528 15.7318 21.4583C16.1518 21.5846 16.5646 21.7743 16.9851 21.9106C17.8096 22.1779 18.7264 22.2096 19.5833 22.1547C19.5895 22.1511 19.5957 22.1474 19.6016 22.1437C19.5991 22.0057 19.5975 21.9361 19.6166 21.8L19.6394 21.7932C19.9532 21.9612 21.5145 22.7021 21.7027 22.8733C21.7518 23.256 21.773 23.7055 21.8173 24.0997C21.8787 24.6435 22.0659 25.6574 22.0265 26.1784L21.9503 26.1687L21.9406 26.1395L21.9211 26.0831L21.8647 26.0579C21.6193 25.7561 20.6763 25.4529 20.2828 25.2847C19.1402 24.797 17.9917 24.324 16.8371 23.8653C16.6775 23.8031 16.3827 23.7281 16.2502 23.6671C16.0727 23.5854 15.8179 23.3735 15.5931 23.3368L15.4132 23.2097C15.0173 23.0532 14.3162 22.8111 13.9594 22.6432L13.8776 22.6593C13.8653 22.2468 13.8567 21.8445 13.8833 21.4323C13.9391 21.3574 13.9337 21.0354 13.9546 20.896Z" fill="#679EBB"/>
<path d="M13.9595 22.643C13.9912 22.5909 13.996 22.5578 14.014 22.499C14.2945 22.6312 15.3567 22.995 15.4961 23.1341L15.5082 23.1712C15.4768 23.1842 15.4449 23.1969 15.4132 23.2094C15.0174 23.053 14.3163 22.8109 13.9595 22.643Z" fill="#6A849D"/>
<path d="M13.8833 21.4323C13.9391 21.3574 13.9337 21.0354 13.9546 20.896C13.9653 21.0778 13.9938 22.4503 14.0139 22.4993C13.9959 22.5581 13.9911 22.5911 13.9594 22.6432L13.8776 22.6594C13.8653 22.2468 13.8567 21.8445 13.8833 21.4323Z" fill="#6A849D"/>
<path d="M15.7318 21.4585C15.5795 21.5252 14.932 21.2729 14.8505 21.1661L14.8923 21.1304C15.1704 21.2436 15.4505 21.353 15.7318 21.4585Z" fill="#829FA6"/>
<path d="M15.9722 24.5459C16.1514 24.6189 16.3496 24.7053 16.5304 24.768L16.9895 24.9671L17.1781 25.0449C17.6595 25.2523 18.1793 25.4771 18.6677 25.6643C18.8724 25.7529 19.0674 25.8363 19.2669 25.9364L19.4295 25.9933C19.7237 26.1244 20.0544 26.2543 20.3382 26.3898C20.5171 26.4627 20.8987 26.6068 21.0543 26.6924C20.7491 27.2488 20.4991 27.3365 19.9181 27.6134C19.5646 27.7556 18.9684 28.0448 18.59 27.9941C17.435 27.839 16.4593 26.8464 16.0862 25.7719C15.9381 25.3451 15.9344 24.9945 15.9722 24.5459Z" fill="#4C334F"/>
<path d="M16.5304 24.7676L16.9895 24.9666L17.1781 25.0444C17.6595 25.2518 18.1793 25.4766 18.6678 25.6639C18.8724 25.7524 19.0674 25.8359 19.2669 25.9359C19.2216 26.0829 19.2643 26.267 19.2364 26.378C19.1948 26.5447 19.0736 26.8009 19.0076 26.9701C18.2 28.0379 16.2211 26.4175 16.5304 24.7676Z" fill="#CBADAB"/>
<path d="M16.9895 24.9668L17.178 25.0446C17.6595 25.252 18.1793 25.4768 18.6677 25.6641C18.7288 26.0391 18.783 26.3844 18.4174 26.6269C17.8861 26.603 17.6839 26.4158 17.3564 26.0131C17.1887 25.9358 17.1018 25.7046 16.9358 25.5382C16.8854 25.3816 16.8926 25.1044 16.9895 24.9668Z" fill="#4C334F"/>
<path d="M16.9895 24.9668L17.178 25.0446C16.9777 25.2807 17.2241 25.7928 17.3564 26.0131C17.1887 25.9358 17.1018 25.7046 16.9358 25.5382C16.8854 25.3816 16.8926 25.1044 16.9895 24.9668Z" fill="#9E858A"/>
<path d="M16.9359 25.5381C17.1019 25.7044 17.1888 25.9357 17.3564 26.0129C17.6839 26.4156 17.8861 26.6029 18.4175 26.6268C17.9167 27.0421 17.0624 26.0086 16.9359 25.5381Z" fill="#B38B8D"/>
<path d="M20.3381 26.3887C20.517 26.4616 20.8987 26.6057 21.0542 26.6913C20.749 27.2477 20.499 27.3354 19.9181 27.6123C19.9347 27.4272 20.171 27.0502 20.2456 26.86C20.3046 26.7093 20.2708 26.5153 20.3381 26.3887Z" fill="#382745"/>
<path d="M19.0075 26.9702C19.0735 26.801 19.1947 26.5448 19.2363 26.3782C19.2642 26.2671 19.2215 26.0831 19.2669 25.936L19.4294 25.9929L19.4208 26.0283C19.3414 26.3626 19.3632 26.765 19.0075 26.9702Z" fill="#9E858A"/>
<path d="M2.94019 19.1211C3.10393 19.1873 3.28181 19.2557 3.44306 19.3251C3.5294 19.3572 3.78326 19.4499 3.85058 19.4979L4.06241 19.5774C4.47887 19.7673 5.15973 20.0036 5.5249 20.1906C5.69449 20.256 5.98971 20.3585 6.13143 20.4518C6.23373 20.4952 6.76546 20.7131 6.82809 20.7541C7.12983 20.8779 7.4309 21.0034 7.73124 21.1305C7.34772 21.5702 6.85706 21.8561 6.30717 22.0486C6.13937 22.164 5.71967 22.2959 5.52106 22.2806C4.04903 22.1669 2.94657 20.4882 2.94019 19.1211Z" fill="#4C334F"/>
<path d="M3.44311 19.3247C3.52945 19.3569 3.78331 19.4496 3.85063 19.4975L4.06246 19.577C4.47892 19.767 5.15977 20.0032 5.52495 20.1902C5.69454 20.2557 5.98976 20.3581 6.13148 20.4515C6.12955 20.4796 6.12711 20.5382 6.11976 20.563C5.57159 22.4149 4.05839 21.4924 3.5634 20.1593C3.44651 19.8445 3.43739 19.6651 3.44311 19.3247Z" fill="#CBADAB"/>
<path d="M4.06241 19.5771C4.47887 19.7671 5.15972 20.0033 5.52489 20.1903C5.54952 20.5936 5.54273 20.7896 5.16619 21.0099C4.59833 20.856 3.91916 20.1962 4.06241 19.5771Z" fill="#4C334F"/>
<path d="M3.8506 19.498L4.06243 19.5776C3.91918 20.1966 4.59835 20.8564 5.16621 21.0103C4.66248 21.3121 3.72003 20.1622 3.8506 19.498Z" fill="#B38B8D"/>
<path d="M6.30719 22.0479C6.36947 21.8956 6.61802 21.5606 6.68529 21.3325C6.73727 21.1562 6.75044 20.8455 6.82811 20.7534C7.12985 20.8772 7.43092 21.0026 7.73127 21.1298C7.34775 21.5695 6.85708 21.8554 6.30719 22.0479Z" fill="#382745"/>
<path d="M13.8778 22.6592L13.9596 22.6431C14.3163 22.811 15.0174 23.0531 15.4133 23.2095L15.5932 23.3366C15.818 23.3734 16.0728 23.5852 16.2504 23.667C16.3829 23.728 16.6776 23.803 16.8372 23.8652C17.9919 24.3239 19.1404 24.7969 20.2829 25.2846C20.6764 25.4528 21.6194 25.756 21.8649 26.0578L21.9212 26.083L21.9408 26.1393C21.8144 26.1165 20.9449 25.7393 20.7673 25.6637C19.0521 24.9868 17.242 24.2045 15.5294 23.4958C14.9656 23.2782 14.2326 22.9505 13.6615 22.7077C13.7791 22.6853 13.7806 22.7241 13.8778 22.6592Z" fill="#648CA7"/>
<path d="M4.22781 12.021C4.79197 12.1515 5.28215 12.4571 5.76759 12.601C5.76751 12.7086 5.77379 12.9236 5.76397 13.0226C5.85959 13.2242 5.92125 13.335 6.07279 13.5015L6.21749 13.6253L6.2972 13.6711C6.63928 13.8027 6.91289 14.0261 7.18129 13.5852C7.28892 13.7004 7.36601 13.8325 7.45798 13.9596C7.64521 14.2184 8.13808 14.4744 8.45613 14.491L8.42241 14.5508C8.54096 14.668 8.61188 14.6864 8.61923 14.8337C8.68971 14.8644 8.69022 14.8491 8.71764 14.9303C8.75215 15.0326 8.7937 15.2744 8.78869 15.3775L8.8482 15.414C8.86628 15.5468 8.80467 15.6686 8.79405 15.8208C8.89938 15.8763 9.17794 16.0145 9.25505 16.091L9.35105 16.1882C9.41402 16.2175 9.52482 16.2748 9.58721 16.2889C9.6589 16.3494 9.71692 16.4081 9.8035 16.4417C9.94409 16.4872 10.4594 16.6871 10.5575 16.7742L10.6287 16.7759L10.7338 16.8424L10.8 16.8737C11.0147 16.9434 11.1598 17.0091 11.3601 17.1117C11.513 17.1696 11.8295 17.3522 11.9467 17.3007L11.976 17.2553C12.0515 17.2456 12.0489 17.2423 12.1141 17.2776C12.046 17.3045 11.989 17.3104 11.9655 17.3702C11.8855 17.5739 11.9868 18.1704 11.8977 18.3283C11.9292 18.331 12.0402 18.305 12.0769 18.2976C12.3117 18.3363 12.7779 18.3039 12.9455 18.3825C12.9411 18.6597 12.9404 18.9474 12.9208 19.223C12.8401 19.1714 12.795 19.1299 12.7008 19.1274C12.6214 19.0847 12.5738 19.0586 12.4887 19.0262C12.4215 18.9226 12.1152 18.7755 11.9936 18.7264C10.3468 18.062 8.70098 17.4075 7.04528 16.7658C6.07046 16.3881 5.16862 15.9887 4.17071 15.6404L4.09137 15.6345C4.10524 15.5185 4.17859 15.4014 4.1831 15.2288C4.20211 14.5017 4.15282 13.6861 4.10486 12.9619L4.1065 12.5726L4.2096 12.3938C4.19136 12.2833 4.20008 12.1302 4.22781 12.021Z" fill="#7A6776"/>
<path d="M4.22781 12.021C4.79197 12.1515 5.28215 12.4571 5.76759 12.601C5.76751 12.7086 5.77379 12.9236 5.76397 13.0226C5.85959 13.2242 5.92125 13.335 6.07279 13.5015L6.21749 13.6253L6.2972 13.6711C6.30769 13.7628 6.31794 13.847 6.32169 13.9396C6.34945 14.0816 6.40221 14.2454 6.37684 14.3794L6.3918 14.4798C6.38882 14.6218 6.44944 14.9118 6.51 15.0363C6.50443 15.3459 6.49584 15.6512 6.55007 15.9571C6.40502 15.9102 6.33242 15.8728 6.19829 15.8008C6.16573 15.8143 6.13295 15.8272 6.09996 15.8397C5.99257 15.88 5.93276 15.9012 5.82711 15.8533C5.74589 15.7575 5.76942 15.786 5.74294 15.6532C5.51443 15.687 5.42677 15.7093 5.21175 15.6385C5.16269 15.6126 5.16199 15.5925 5.12675 15.5393C4.86248 15.5251 4.50605 15.5903 4.25822 15.5727L4.23186 15.5712L4.17071 15.6404L4.09137 15.6345C4.10524 15.5185 4.17859 15.4014 4.1831 15.2288C4.20211 14.5017 4.15282 13.6861 4.10486 12.9619L4.1065 12.5726L4.2096 12.3938C4.19136 12.2833 4.20008 12.1302 4.22781 12.021Z" fill="#6A5E6E"/>
<path d="M4.22775 12.021C4.79191 12.1515 5.2821 12.4571 5.76753 12.601C5.76745 12.7086 5.77373 12.9236 5.76391 13.0226L5.74095 13.0304C5.62897 13.2116 5.40563 13.3328 5.18857 13.2658C4.68243 13.1096 4.47212 12.8216 4.20954 12.3938C4.1913 12.2833 4.20002 12.1302 4.22775 12.021Z" fill="#C75E7B"/>
<path d="M5.69446 14.6446C6.13814 14.7748 6.17582 14.7911 6.37685 14.3794L6.39181 14.4798C6.38883 14.6218 6.44945 14.9118 6.51001 15.0363C6.50443 15.3459 6.49585 15.6512 6.55008 15.9571C6.40503 15.9102 6.33243 15.8728 6.1983 15.8008C6.16574 15.8143 6.13296 15.8273 6.09997 15.8397C5.99258 15.88 5.93277 15.9012 5.82712 15.8534C5.7459 15.7575 5.76942 15.786 5.74295 15.6533C5.75714 15.5213 5.70497 14.816 5.69446 14.6446Z" fill="#B4775B"/>
<path d="M6.1983 15.8C6.23795 15.4793 6.2936 14.7249 6.39182 14.479C6.38884 14.6209 6.44946 14.911 6.51002 15.0355C6.50444 15.3451 6.49586 15.6504 6.55009 15.9563C6.40504 15.9094 6.33244 15.872 6.1983 15.8Z" fill="#4C334F"/>
<path d="M4.97614 14.1909C5.13156 14.2867 5.26031 14.3555 5.44181 14.3943L5.50296 14.3739L5.54866 14.32L5.66697 14.3242C5.67081 14.3953 5.67652 14.5873 5.69454 14.644C5.70506 14.8154 5.75722 15.5207 5.74304 15.6527C5.51452 15.6864 5.42687 15.7088 5.21184 15.6379C5.16279 15.612 5.16209 15.5919 5.12684 15.5387L5.13924 15.4459C5.14039 15.205 5.08884 14.9529 5.04786 14.7149C5.04971 14.656 5.00674 14.4007 4.99563 14.3274L4.97614 14.1909Z" fill="#A76753"/>
<path d="M5.54861 14.3203L5.66692 14.3244C5.67076 14.3955 5.67647 14.5875 5.69449 14.6443C5.70501 14.8156 5.75718 15.521 5.74299 15.6529C5.51447 15.6867 5.42682 15.709 5.21179 15.6381C5.25103 15.5761 5.34727 15.5679 5.38401 15.5221C5.58799 15.2681 5.49001 14.6938 5.50178 14.398L5.50291 14.3742L5.54861 14.3203Z" fill="#915348"/>
<path d="M4.97614 14.1909C5.13156 14.2867 5.26031 14.3555 5.44181 14.3943C5.37092 14.4551 5.31851 14.4831 5.2285 14.4942C5.12655 14.4764 5.0684 14.4012 4.99563 14.3274L4.97614 14.1909Z" fill="#B07354"/>
<path d="M6.07284 13.5015L6.21754 13.6253L6.29726 13.6711C6.30774 13.7628 6.31799 13.847 6.32175 13.9396C6.34951 14.0816 6.40226 14.2454 6.37689 14.3794C6.17586 14.7911 6.13818 14.7748 5.6945 14.6446C5.67648 14.5878 5.67077 14.3958 5.66693 14.3247C5.68337 14.2106 5.68884 14.0733 5.69635 13.9564L5.70521 13.7787C5.73074 13.6861 5.77196 13.6124 5.81445 13.5265C5.8947 13.4973 5.94271 13.5612 6.07284 13.5015Z" fill="#967F80"/>
<path d="M6.07278 13.5015L6.21748 13.6253L6.29719 13.6711C6.30768 13.7628 6.31793 13.847 6.32168 13.9396C6.07688 13.9842 5.94385 13.9841 5.69629 13.9564L5.70514 13.7787C5.73067 13.6861 5.7719 13.6124 5.81438 13.5265C5.89463 13.4973 5.94264 13.5612 6.07278 13.5015Z" fill="#915348"/>
<path d="M6.07278 13.5015L6.21748 13.6253C6.12323 13.7479 5.99062 13.804 5.83962 13.8249C5.81148 13.8285 5.78322 13.8312 5.75489 13.8328C5.72724 13.8078 5.72292 13.8095 5.70514 13.7787C5.73067 13.6861 5.7719 13.6124 5.81438 13.5265C5.89463 13.4973 5.94264 13.5612 6.07278 13.5015Z" fill="#A76753"/>
<path d="M5.56307 13.539L5.81439 13.5264C5.7719 13.6123 5.73068 13.686 5.70514 13.7785L5.69629 13.9563C5.68878 14.0732 5.68331 14.2104 5.66687 14.3246L5.54856 14.3204L5.50286 14.3743L5.4417 14.3947C5.26021 14.3559 5.13146 14.2871 4.97603 14.1913C4.93765 14.036 4.87097 13.7482 5.08635 13.7293C5.24846 13.7798 5.36972 13.7741 5.53893 13.7604L5.4906 13.7119C5.53641 13.6444 5.54939 13.6195 5.56307 13.539Z" fill="#928080"/>
<path d="M5.56313 13.539L5.81445 13.5264C5.77196 13.6123 5.73074 13.686 5.70521 13.7785L5.69635 13.9563C5.68884 14.0732 5.68337 14.2104 5.66693 14.3246L5.54862 14.3204C5.61184 14.216 5.63965 13.9303 5.60618 13.8092C5.59856 13.7816 5.56764 13.7759 5.53899 13.7604L5.49066 13.7119C5.53647 13.6444 5.54945 13.6195 5.56313 13.539Z" fill="#634C5F"/>
<path d="M4.23187 15.571C4.24906 15.3828 4.91058 15.2274 5.02205 15.0808C5.09066 14.9906 4.96187 14.8622 5.04778 14.7153C5.08876 14.9533 5.14031 15.2054 5.13915 15.4463L5.12676 15.5392C4.86249 15.525 4.50607 15.5902 4.25824 15.5725L4.23187 15.571Z" fill="#5D4A5D"/>
<path d="M4.25824 15.5727C4.54069 15.4213 4.74907 15.3534 5.06299 15.3609L5.13916 15.4465L5.12677 15.5394C4.8625 15.5252 4.50607 15.5904 4.25824 15.5727Z" fill="#634C5F"/>
<path d="M5.08649 13.7296C5.30127 13.5668 5.24814 13.4688 5.56321 13.5393C5.54953 13.6197 5.53655 13.6447 5.49074 13.7121L5.53907 13.7607C5.36985 13.7743 5.24859 13.78 5.08649 13.7296Z" fill="#915348"/>
<path d="M7.18132 13.585C7.28896 13.7002 7.36604 13.8323 7.45801 13.9594C7.64525 14.2182 8.13812 14.4742 8.45616 14.4907L8.42245 14.5505C8.541 14.6677 8.61192 14.6862 8.61926 14.8335C8.68975 14.8642 8.69026 14.8489 8.71767 14.9301C8.75219 15.0323 8.79374 15.2741 8.78872 15.3773L8.84824 15.4138C8.86632 15.5466 8.80471 15.6684 8.79409 15.8206L8.70729 16.2628C8.67889 16.3412 8.55717 16.6629 8.54575 16.7189L8.36884 16.7897L8.32262 16.7916L8.27198 16.7678C8.19361 16.6153 8.13074 16.679 8.01021 16.5991L7.99618 16.6151C7.91894 16.5474 7.80253 16.5599 7.702 16.5598C7.58455 16.5803 7.43747 16.4944 7.3312 16.4432C7.32895 16.2556 7.32514 16.1374 7.29875 15.9523L7.26603 16.0112C7.17076 16.0168 6.95565 16.0272 6.87146 15.9951L6.86722 15.9528C6.8831 15.788 6.89015 15.703 6.88213 15.5389C6.84496 15.6617 6.79526 15.9082 6.7358 15.9919C6.66563 16.0134 6.62765 15.9923 6.55011 15.9568C6.49588 15.651 6.50446 15.3457 6.51004 15.0361C6.44948 14.9116 6.38886 14.6215 6.39184 14.4796L6.37687 14.3791C6.40225 14.2452 6.34949 14.0814 6.32173 13.9394C6.31797 13.8467 6.30773 13.7626 6.29724 13.6709C6.63932 13.8025 6.91292 14.0259 7.18132 13.585Z" fill="#5D4A5D"/>
<path d="M8.61933 14.8335C8.68981 14.8642 8.69032 14.8489 8.71773 14.9301C8.75225 15.0324 8.7938 15.2742 8.78878 15.3773L8.8483 15.4138C8.86638 15.5466 8.80477 15.6684 8.79415 15.8206L8.70735 16.2629C8.67895 16.3412 8.55724 16.663 8.54581 16.7189L8.3689 16.7898L8.32268 16.7916L8.27204 16.7678C8.19367 16.6153 8.1308 16.679 8.01027 16.5991C8.00815 16.1958 8.0085 15.7962 7.98956 15.3931C8.00008 15.3296 8.01343 15.2641 8.02537 15.2006C8.08202 15.1038 8.12625 15.0096 8.1749 14.9088C8.32035 14.8939 8.48468 14.8855 8.61933 14.8335Z" fill="#AB6E55"/>
<path d="M8.61933 14.8335C8.68981 14.8642 8.69032 14.8489 8.71773 14.9301C8.75225 15.0324 8.7938 15.2742 8.78878 15.3773C8.60651 15.7424 8.21473 15.6579 7.98956 15.3931C8.00008 15.3296 8.01343 15.2641 8.02537 15.2006C8.08202 15.1038 8.12625 15.0096 8.1749 14.9088C8.32035 14.8939 8.48468 14.8855 8.61933 14.8335Z" fill="#917F7E"/>
<path d="M7.16803 15.0029C7.33902 15.2118 7.39134 15.1912 7.65384 15.2681L7.87871 15.1996L7.9945 15.1887L8.02532 15.2011C8.01338 15.2645 8.00003 15.3301 7.98951 15.3935C8.00845 15.7966 8.0081 16.1962 8.01022 16.5995L7.99619 16.6155C7.91895 16.5478 7.80254 16.5603 7.70201 16.5603C7.58456 16.5807 7.43748 16.4949 7.33121 16.4437C7.32896 16.2561 7.32515 16.1378 7.29876 15.9528L7.22165 15.4572C7.23192 15.3745 7.18267 15.1001 7.16803 15.0029Z" fill="#A76B52"/>
<path d="M7.87873 15.1983L7.99451 15.1875L8.02533 15.1998C8.01339 15.2633 8.00004 15.3288 7.98952 15.3923C8.00846 15.7954 8.00811 16.195 8.01023 16.5983L7.9962 16.6143C7.91896 16.5466 7.80255 16.5591 7.70203 16.559L7.71487 16.523C7.9258 16.3998 7.90718 15.429 7.87873 15.1983Z" fill="#915348"/>
<path d="M7.16803 15.0025C7.17055 14.8739 7.16323 14.6669 7.204 14.5535L7.24924 14.5415C7.38729 14.6067 7.5748 14.7042 7.72041 14.6039C7.90634 14.6671 7.93665 14.7155 7.96956 14.9056C7.98323 15.0046 7.99879 15.088 7.9945 15.1883L7.87871 15.1992L7.65384 15.2677C7.39134 15.1908 7.33902 15.2114 7.16803 15.0025Z" fill="#908485"/>
<path d="M6.51 15.036C6.55936 14.9385 6.57596 14.9022 6.58848 14.7903C6.63016 14.7393 6.64601 14.7119 6.7198 14.7114C7.00655 14.7097 6.86359 15.36 6.8821 15.5389C6.84492 15.6616 6.79522 15.9082 6.73576 15.9918C6.66559 16.0133 6.62761 15.9922 6.55007 15.9568C6.49584 15.6509 6.50443 15.3456 6.51 15.036Z" fill="#90726F"/>
<path d="M7.22167 15.457L7.29878 15.9526L7.26605 16.0115C7.17079 16.0171 6.95568 16.0275 6.87149 15.9954L6.86725 15.9531C7.05626 15.6981 7.16033 15.7665 7.22167 15.457Z" fill="#4C334F"/>
<path d="M8.42248 14.5503C8.54103 14.6675 8.61194 14.6859 8.61929 14.8332C8.48465 14.8853 8.32032 14.8936 8.17487 14.9086L8.20386 14.7667C8.24586 14.6793 8.34687 14.6084 8.42248 14.5503Z" fill="#A76753"/>
<path d="M7.24921 14.5417C7.3938 14.4626 7.53163 14.3334 7.71115 14.3461L7.75154 14.3844C7.75208 14.4607 7.74532 14.4664 7.71032 14.537L7.72037 14.6041C7.57476 14.7044 7.38726 14.6069 7.24921 14.5417Z" fill="#A76753"/>
<path d="M7.96954 14.9049C7.9759 14.8527 7.98419 14.8028 7.99266 14.751L8.03617 14.7241L8.20383 14.7663L8.17483 14.9082C8.12618 15.009 8.08195 15.1032 8.02531 15.2L7.99449 15.1877C7.99878 15.0874 7.98322 15.0039 7.96954 14.9049Z" fill="#382745"/>
<path d="M6.44662 14.0742L6.53039 14.0975C6.60339 14.163 6.61978 14.2247 6.65838 14.3155C6.57115 14.3221 6.52081 14.335 6.44303 14.2972C6.40843 14.2043 6.42938 14.1812 6.44662 14.0742Z" fill="#382745"/>
<path d="M9.35114 16.188C9.41411 16.2173 9.52491 16.2746 9.5873 16.2887C9.65899 16.3492 9.717 16.4079 9.80358 16.4415C9.94418 16.487 10.4595 16.6869 10.5576 16.774L10.6287 16.7757L10.7339 16.8422L10.8001 16.8735C11.0148 16.9432 11.1599 17.0089 11.3602 17.1115C11.5131 17.1694 11.8296 17.352 11.9468 17.3005L11.9761 17.2551C12.0516 17.2454 12.049 17.2421 12.1142 17.2774C12.0461 17.3043 11.9891 17.3102 11.9656 17.37C11.8856 17.5737 11.9869 18.1702 11.8978 18.3281C11.3164 18.0071 10.5225 17.8222 9.9264 17.5015C9.85071 17.4608 9.86471 17.4379 9.84934 17.3601C9.86546 17.2844 9.83612 17.2069 9.81651 17.1288C9.59218 17.1146 9.52437 17.146 9.43694 16.9411L9.41768 16.8031L9.38801 16.6254L9.35114 16.188Z" fill="#B88B6A"/>
<path d="M9.35114 16.188C9.41411 16.2173 9.52491 16.2746 9.5873 16.2887C9.65899 16.3492 9.717 16.4079 9.80358 16.4415C9.80058 16.6771 9.79422 16.8937 9.81651 17.1288C9.59218 17.1146 9.52437 17.146 9.43694 16.9411L9.41768 16.8031L9.38801 16.6254L9.35114 16.188Z" fill="#9D7F77"/>
<path d="M10.8001 16.874C11.0147 16.9437 11.1599 17.0095 11.3602 17.1121C11.2461 17.1206 11.1563 17.0947 11.0576 17.1441C11.019 17.2482 11.1083 17.4407 10.9818 17.575C10.8775 17.5009 10.9992 17.4867 10.8038 17.3248C10.8396 17.2798 10.8691 17.2371 10.9019 17.1901C10.9133 17.097 10.8369 16.9734 10.8001 16.874Z" fill="#B07354"/>
<path d="M10.7338 16.8418L10.8 16.8731C10.8368 16.9724 10.9132 17.0961 10.9018 17.1892C10.869 17.2362 10.8395 17.2789 10.8037 17.3239L10.7546 17.3134C10.6909 17.2592 10.6909 17.1885 10.6741 17.1012C10.7061 17.0312 10.7198 16.9206 10.7338 16.8418Z" fill="#B87C57"/>
<path d="M10.5575 16.7739L10.6286 16.7756L10.7338 16.8421C10.7198 16.9209 10.7061 17.0315 10.6741 17.1015C10.626 16.9989 10.581 16.9197 10.5249 16.8218L10.5575 16.7739Z" fill="#B07354"/>
<path d="M8.79405 15.8208C8.89938 15.8763 9.17795 16.0145 9.25506 16.091L9.35105 16.1882L9.38793 16.6255L9.41759 16.8033C9.2288 16.7649 8.8179 16.8025 8.61049 16.8117L8.60874 16.7466L8.54572 16.7191C8.55714 16.6631 8.67886 16.3414 8.70726 16.263L8.79405 15.8208Z" fill="#382745"/>
<path d="M8.70726 16.2627C8.70407 16.3449 8.69042 16.5113 8.71198 16.5809C8.9174 16.6688 9.15284 16.6269 9.34126 16.674L9.38793 16.6252L9.41759 16.803C9.2288 16.7646 8.8179 16.8022 8.61049 16.8114L8.60874 16.7463L8.54572 16.7188C8.55714 16.6628 8.67886 16.3411 8.70726 16.2627Z" fill="#4C334F"/>
<path d="M9.43686 16.9409C9.52429 17.1458 9.5921 17.1144 9.81643 17.1286C9.83604 17.2067 9.86538 17.2842 9.84926 17.3599C9.73618 17.3368 9.44482 17.2906 9.37667 17.2287C9.36329 17.0737 9.40354 17.1007 9.43281 16.9611L9.43686 16.9409Z" fill="#876F75"/>
<path d="M8.01018 16.5981C8.13072 16.6781 8.19359 16.6143 8.27196 16.7669L8.3226 16.7907C8.21531 16.8105 8.16558 16.7892 8.06251 16.7606C8.03043 16.7155 8.01579 16.6662 7.99615 16.6142L8.01018 16.5981Z" fill="#A76753"/>
<path d="M8.06254 16.7612C8.16562 16.7898 8.21534 16.8111 8.32263 16.7913L8.36884 16.7894C8.28146 16.8423 8.31855 16.873 8.21089 16.8663C8.12997 16.8612 8.05927 16.8539 8.00085 16.7969L8.06254 16.7612Z" fill="#6F6278"/>
<path d="M5.68992 10.4248L5.71202 10.4214C6.12931 10.5853 6.82344 10.8713 7.23177 10.9921L7.53241 10.6962C8.00253 10.8609 8.53303 11.103 8.98765 11.2423C8.77938 11.4484 8.57345 11.6568 8.3699 11.8674L8.36033 11.8607C8.11743 12.146 7.37459 12.9119 7.20675 13.1447C7.18548 13.3144 7.17032 13.4115 7.18134 13.5846C6.91294 14.0255 6.63934 13.8021 6.29726 13.6706L6.21755 13.6248L6.07285 13.5009C5.92131 13.3345 5.85965 13.2237 5.76403 13.022C5.77385 12.9231 5.76757 12.7081 5.76765 12.6005C5.28221 12.4565 4.79203 12.151 4.22787 12.0204L4.22229 12.0033C4.70413 11.4704 5.19338 10.9441 5.68992 10.4248Z" fill="#FCFAF6"/>
<path d="M5.68992 10.4248L5.71202 10.4214C6.12931 10.5853 6.82344 10.8713 7.23177 10.9921L7.23217 11.0059C6.93427 11.3434 5.9595 12.2879 5.76765 12.6005C5.28221 12.4565 4.79203 12.151 4.22787 12.0204L4.22229 12.0033C4.70413 11.4704 5.19338 10.9441 5.68992 10.4248Z" fill="#FEA3AD"/>
<path d="M5.76766 12.6006C6.1571 12.7101 6.91081 13.0816 7.20675 13.1448C7.18548 13.3145 7.17033 13.4116 7.18135 13.5847C6.91295 14.0257 6.63935 13.8023 6.29727 13.6707L6.21756 13.6249L6.07286 13.501C5.92132 13.3346 5.85966 13.2238 5.76404 13.0222C5.77385 12.9232 5.76758 12.7082 5.76766 12.6006Z" fill="#C5BEBC"/>
<path d="M7.53239 10.6963C8.00251 10.861 8.53301 11.1031 8.98763 11.2424C8.77936 11.4485 8.57343 11.6569 8.36988 11.8675L8.36031 11.8608C8.32016 11.8103 8.25149 11.7911 8.21108 11.76C7.93559 11.5477 7.5145 11.7609 7.26107 11.677L7.24449 11.6308L7.29057 11.5747C7.59647 11.4842 7.44608 11.459 7.69211 11.2004L7.23215 11.006L7.23175 10.9922L7.53239 10.6963Z" fill="#C5BEBC"/>
<path d="M10.1837 12.1826C10.5469 12.3158 11.3212 12.5157 11.653 12.7149L11.6989 12.7012C11.9631 12.8646 12.607 13.0028 12.8506 13.1332L12.8195 13.2076C12.7784 13.4564 12.7374 13.7442 12.6777 13.9854C12.3949 14.3706 11.9788 14.785 11.6636 15.2078L11.6223 15.2868C11.5205 15.3943 11.247 15.5634 11.0989 15.5376C11.0252 15.5514 10.9648 15.5607 10.8929 15.5852C10.7234 15.6579 10.5886 15.7613 10.4119 15.6774L10.3828 15.4524C10.4626 15.3617 10.4766 15.3421 10.5373 15.2376C10.3903 15.0675 10.3207 14.8987 10.1841 14.7262C10.1673 14.6166 10.1767 14.4386 10.2046 14.33L10.2038 14.3169C10.0245 14.2744 8.98837 13.838 8.77313 13.7505C8.88023 13.5556 9.98095 12.3913 10.1837 12.1826Z" fill="#FEA3AD"/>
<path d="M10.1837 12.1826C10.5469 12.3158 11.3212 12.5157 11.653 12.7149C11.1918 13.259 10.6526 13.7744 10.2038 14.3169C10.0245 14.2744 8.98837 13.838 8.77313 13.7505C8.88023 13.5556 9.98095 12.3913 10.1837 12.1826Z" fill="#FCFAF6"/>
<path d="M10.2047 14.3301C10.5063 14.4102 11.0371 14.6332 11.342 14.7573C11.4814 14.8854 11.2928 15.1164 11.3902 15.2524C11.5088 15.2833 11.5222 15.2502 11.6637 15.2079L11.6223 15.2869C11.5205 15.3943 11.2471 15.5635 11.099 15.5377C11.0253 15.5514 10.9649 15.5608 10.8929 15.5853C10.7235 15.658 10.5887 15.7614 10.412 15.6775L10.3828 15.4525C10.4627 15.3618 10.4767 15.3422 10.5373 15.2376C10.3903 15.0675 10.3208 14.8988 10.1842 14.7263C10.1674 14.6167 10.1768 14.4387 10.2047 14.3301Z" fill="#C75E7B"/>
<path d="M10.5373 15.2378C10.718 15.4006 10.87 15.4556 11.0989 15.5378C11.0252 15.5516 10.9648 15.561 10.8929 15.5854C10.7234 15.6581 10.5886 15.7615 10.4119 15.6777L10.3828 15.4526C10.4626 15.362 10.4766 15.3424 10.5373 15.2378Z" fill="#634C5F"/>
<path d="M11.3419 14.7576C11.5213 14.6825 12.5834 13.4454 12.8196 13.208C12.7784 13.4568 12.7374 13.7446 12.6777 13.9859C12.3949 14.371 11.9788 14.7854 11.6636 15.2082C11.5221 15.2506 11.5087 15.2836 11.3901 15.2528C11.2928 15.1168 11.4813 14.8858 11.3419 14.7576Z" fill="#DE86A4"/>
<path d="M11.6224 15.2871C11.749 15.3129 12.947 15.7459 12.9781 15.7837L13.0045 15.951L12.9917 16.449C12.9884 16.5771 12.9769 16.7744 12.9819 16.8969L12.9756 17.0247C12.7594 17.0719 12.2398 17.2711 12.1142 17.2775C12.0491 17.2422 12.0517 17.2455 11.9762 17.2553L11.9469 17.3006C11.8297 17.3522 11.5132 17.1695 11.3603 17.1116C11.16 17.0091 11.0148 16.9433 10.8002 16.8736L10.7339 16.8423L10.6288 16.7758L10.5577 16.7741C10.4596 16.687 9.94423 16.4871 9.80363 16.4416C9.71705 16.408 9.65904 16.3493 9.58734 16.2888C9.52496 16.2747 9.41416 16.2174 9.35118 16.1881L9.25519 16.0909C9.3077 16.0367 9.31822 16.0096 9.35486 15.9424C9.4862 15.8706 9.68063 15.8077 9.82559 15.7705C9.92762 15.8432 9.9876 15.8355 10.1133 15.8398C10.2816 15.8124 10.3327 15.834 10.4121 15.6778C10.5888 15.7616 10.7236 15.6582 10.893 15.5855C10.9649 15.561 11.0254 15.5517 11.0991 15.5379C11.2471 15.5637 11.5206 15.3946 11.6224 15.2871Z" fill="#5D4A5D"/>
<path d="M11.6223 15.2871C11.749 15.3129 12.9469 15.7459 12.978 15.7837L13.0044 15.951L12.9916 16.449C12.8154 16.4755 12.4379 16.2103 12.2444 16.1341C11.7915 15.9555 11.3037 15.8491 10.8929 15.5855C10.9649 15.561 11.0253 15.5517 11.099 15.5379C11.2471 15.5637 11.5205 15.3946 11.6223 15.2871Z" fill="#4C334F"/>
<path d="M10.6819 16.626C11.093 16.8032 11.5115 16.9628 11.9363 17.1041L11.976 17.255L11.9467 17.3003C11.8295 17.3519 11.513 17.1692 11.3601 17.1114C11.1598 17.0088 11.0147 16.943 10.8001 16.8733L10.7338 16.842L10.6287 16.7755L10.6819 16.626Z" fill="#AAA3A2"/>
<path d="M9.8649 16.2777L10.6819 16.6263L10.6287 16.7758L10.5576 16.7741C10.4594 16.687 9.9441 16.4871 9.80351 16.4416C9.71693 16.408 9.65891 16.3493 9.58722 16.2888C9.6573 16.2723 9.78808 16.2777 9.8649 16.2777Z" fill="#C5BEBC"/>
<path d="M11.9363 17.104L12.0107 17.1051L12.0394 17.1641C12.0991 17.1733 12.8884 16.9366 12.9818 16.8965L12.9755 17.0243C12.7593 17.0715 12.2397 17.2707 12.1141 17.2771C12.049 17.2418 12.0516 17.2451 11.9761 17.2548L11.9363 17.104Z" fill="#6F6278"/>
<path d="M9.35486 15.9424L9.44243 16.0143C9.56835 16.0793 9.78046 16.1726 9.86502 16.2777C9.78821 16.2776 9.65743 16.2723 9.58734 16.2888C9.52496 16.2746 9.41416 16.2174 9.35118 16.188L9.25519 16.0908C9.3077 16.0367 9.31822 16.0095 9.35486 15.9424Z" fill="#AAA3A2"/>
<path d="M9.35474 15.9425C9.48608 15.8706 9.68051 15.8077 9.82548 15.7705C9.9275 15.8432 9.98748 15.8355 10.1132 15.8399C9.93024 15.8912 9.59382 15.9534 9.44231 16.0144L9.35474 15.9425Z" fill="#634C5F"/>
<path d="M3.92569 15.3545C3.92567 15.4623 3.90922 15.5839 3.96668 15.6654L4.09142 15.6338L4.17076 15.6397C5.16867 15.988 6.07051 16.3873 7.04533 16.7651C8.70103 17.4067 10.3468 18.0612 11.9937 18.7257C12.1153 18.7747 12.4216 18.9218 12.4888 19.0254C12.5739 19.0578 12.6215 19.0839 12.7009 19.1266C12.795 19.1292 12.8402 19.1707 12.9209 19.2223C12.927 19.3234 12.9167 19.4772 12.9126 19.5823L6.9142 17.1914L4.83 16.3613C4.45756 16.2127 3.89305 15.9694 3.52313 15.8604L3.6291 15.7786L3.87508 15.6624C3.90357 15.6138 3.91826 15.4199 3.92569 15.3545Z" fill="#9E858A"/>
<path d="M4.09142 15.6343L4.17076 15.6402C5.16867 15.9885 6.07051 16.3878 7.04533 16.7656C8.70103 17.4072 10.3468 18.0617 11.9937 18.7262C12.1153 18.7753 12.4216 18.9223 12.4888 19.0259C12.2492 18.9832 11.9458 18.7025 11.7321 18.8043C9.28863 17.8673 6.65913 16.7905 4.2119 15.8035C4.11784 15.7656 4.12184 15.6872 3.98212 15.6918L3.96667 15.6659L4.09142 15.6343Z" fill="#998E93"/>
<path d="M11.7321 18.8038C11.9458 18.7021 12.2492 18.9828 12.4887 19.0255C12.5739 19.0579 12.6214 19.084 12.7009 19.1267L12.7103 19.1675C12.5995 19.2048 11.8736 18.8695 11.7321 18.8038Z" fill="#B38B8D"/>
<path d="M3.87501 15.6626L3.91939 15.7228C3.86269 15.8121 3.72634 15.7924 3.62903 15.7789L3.87501 15.6626Z" fill="#876F75"/>
<path d="M2.75696 9.2998C3.19659 9.45922 3.8436 9.73718 4.24726 9.86402L4.25005 9.87545C3.79693 10.3157 3.1842 10.9631 2.77113 11.444C2.77276 11.5613 2.76826 11.7653 2.79325 11.8722C2.40199 12.2277 2.27391 12.126 1.82616 11.9424C1.59129 11.8124 1.39694 11.6633 1.30931 11.4025L1.30296 11.3832C1.24956 11.2242 1.26659 11.0183 1.27058 10.8473C1.36489 10.693 1.71828 10.3228 1.85553 10.1837C2.05521 10.0317 2.55503 9.50482 2.75696 9.2998Z" fill="#FEA3AD"/>
<path d="M1.27058 10.8467C1.75674 11.0606 2.29988 11.2357 2.77113 11.4434C2.77276 11.5607 2.76826 11.7647 2.79325 11.8716C2.40199 12.2271 2.27391 12.1254 1.82616 11.9418C1.59129 11.8118 1.39694 11.6627 1.30931 11.4019L1.30296 11.3826C1.24956 11.2236 1.26659 11.0177 1.27058 10.8467Z" fill="#C75E7B"/>
<path d="M8.36029 11.8608L8.36987 11.8676C8.57634 12.2345 9.18086 11.9896 9.48273 11.8793C9.59208 11.9211 10.1222 12.1169 10.1909 12.1604L10.1837 12.1826C9.98097 12.3913 8.88025 13.5556 8.77315 13.7505C8.7764 13.8711 8.78669 14.0538 8.77361 14.1677C8.70395 14.2319 8.48713 14.4177 8.45615 14.4906C8.1381 14.474 7.64524 14.218 7.458 13.9592C7.36603 13.8321 7.28894 13.7 7.18131 13.5848C7.17028 13.4116 7.18544 13.3145 7.20671 13.1449C7.37456 12.9121 8.1174 12.1462 8.36029 11.8608Z" fill="#FEA3AD"/>
<path d="M7.20671 13.145C7.40787 13.2227 8.64114 13.7384 8.77315 13.7506C8.7764 13.8712 8.7867 14.0539 8.77361 14.1679C8.70395 14.232 8.48713 14.4178 8.45615 14.4907C8.1381 14.4742 7.64524 14.2181 7.458 13.9593C7.36603 13.8322 7.28894 13.7001 7.18131 13.5849C7.17028 13.4118 7.18544 13.3147 7.20671 13.145Z" fill="#C75E7B"/>
<path d="M4.25004 9.87549C4.49707 9.95458 5.47014 10.3118 5.68989 10.4252C5.19335 10.9446 4.7041 11.4708 4.22226 12.0038L4.22783 12.0209C4.2001 12.1301 4.19138 12.2832 4.20962 12.3937L4.10652 12.5725C3.85199 12.7268 3.80878 12.7031 3.52874 12.6139C3.02383 12.3801 3.02485 12.3078 2.79325 11.8722C2.76825 11.7653 2.77275 11.5613 2.77112 11.444C3.18419 10.9632 3.79692 10.3158 4.25004 9.87549Z" fill="#FCFAF6"/>
<path d="M2.77112 11.4438C3.18862 11.5941 3.81787 11.8274 4.22226 12.0036L4.22783 12.0207C4.2001 12.1299 4.19138 12.283 4.20962 12.3935L4.10652 12.5723C3.85199 12.7266 3.80878 12.7029 3.52874 12.6138C3.02383 12.3799 3.02485 12.3076 2.79325 11.872C2.76825 11.7652 2.77275 11.5611 2.77112 11.4438Z" fill="#C5BEBC"/>
<path d="M3.52877 12.6137C3.80881 12.7029 3.85202 12.7266 4.10655 12.5723L4.10492 12.9616C4.15287 13.6858 4.20217 14.5014 4.18315 15.2285C4.17865 15.401 4.10529 15.5181 4.09143 15.6342L3.96668 15.6658C3.90923 15.5843 3.92567 15.4627 3.9257 15.3549C3.91827 15.4203 3.90357 15.6142 3.87509 15.6628L3.62911 15.779L3.52314 15.8608C3.51354 14.7859 3.527 13.6904 3.52877 12.6137Z" fill="#9A8B90"/>
<path d="M3.92576 15.355C3.93024 14.939 3.86794 12.833 4.0577 12.646C4.08948 12.7588 4.04804 12.8734 4.10498 12.9616C4.15294 13.6858 4.20224 14.5015 4.18322 15.2285C4.17871 15.4011 4.10536 15.5182 4.09149 15.6342L3.96675 15.6658C3.9093 15.5843 3.92574 15.4628 3.92576 15.355Z" fill="#998E93"/>
<path d="M13.0662 13.6484C13.0423 14.3052 13.0674 15.3449 13.0044 15.9508L12.9779 15.7835C12.9468 15.7457 11.7489 15.3126 11.6223 15.2869L11.6636 15.2079C11.9788 14.7851 12.3948 14.3707 12.6777 13.9855C12.8078 13.8739 12.9373 13.7615 13.0662 13.6484Z" fill="#655E72"/>
<path d="M1.78766 15.8042C2.95835 16.2478 4.22217 16.784 5.389 17.2549L10.29 19.2107C11.4411 19.6743 12.717 20.217 13.8801 20.6318L13.9887 20.674C15.1088 21.1259 16.3318 21.6667 17.4945 21.9902C17.8183 22.0803 18.3405 22.0685 18.6811 22.116C18.8909 22.1347 19.4415 22.0957 19.6016 22.1434C19.5957 22.147 19.5895 22.1507 19.5834 22.1544C18.7264 22.2092 17.8097 22.1775 16.9852 21.9103C16.5646 21.774 16.1519 21.5843 15.7318 21.458C15.4505 21.3525 15.1705 21.2431 14.8923 21.1299C14.7266 21.0481 14.1242 20.7456 13.9686 20.8065L13.9547 20.8956C13.9337 21.0351 13.9391 21.357 13.8833 21.432C13.8954 21.2001 13.882 20.9549 13.8967 20.7012C13.6247 20.6307 12.8876 20.3163 12.5976 20.2008C11.7335 19.8624 10.8716 19.5185 10.0119 19.169L4.66821 17.0253C4.29341 16.8748 1.88789 15.961 1.78766 15.8042Z" fill="#4B6489"/>
<path d="M12.1141 17.2772C12.2397 17.2708 12.7593 17.0716 12.9755 17.0244C12.9738 17.258 12.9808 17.8159 12.9523 18.0322L12.9455 18.3821C12.7779 18.3036 12.3117 18.336 12.0769 18.2972C12.0402 18.3046 11.9292 18.3306 11.8977 18.328C11.9868 18.17 11.8855 17.5735 11.9655 17.3698C11.989 17.31 12.0461 17.3041 12.1141 17.2772Z" fill="#6E555F"/>
<path d="M12.077 18.2976C12.2467 18.2294 12.8077 17.9845 12.9524 18.0326L12.9456 18.3825C12.7779 18.3039 12.3118 18.3364 12.077 18.2976Z" fill="#4C334F"/>
<path d="M9.05282 11.2021C9.53858 11.3919 10.0715 11.5824 10.5464 11.7831L10.5364 11.8275C10.44 11.9205 10.2877 12.0777 10.1909 12.1599C10.1222 12.1164 9.59209 11.9207 9.48274 11.8788C9.18087 11.9891 8.57634 12.2341 8.36987 11.8671C8.57342 11.6565 8.77935 11.4481 8.98762 11.242L9.05282 11.2021Z" fill="#D7627E"/>
<path d="M6.10403 10.0757L7.56394 10.6248L7.53242 10.6966L7.23178 10.9925C6.82346 10.8717 6.12932 10.5857 5.71204 10.4218C5.82562 10.2852 5.88849 10.2172 6.01911 10.0972L6.10403 10.0757Z" fill="#C75E7B"/>
<path d="M2.75702 9.29976C2.8683 9.18545 2.99069 9.10561 3.0888 8.98349L3.04146 8.90485L3.0712 8.88428L3.14834 8.9297L4.5747 9.49378L4.57174 9.53874L4.55447 9.54191C4.45121 9.65485 4.35597 9.75629 4.24732 9.86398C3.84366 9.73713 3.19665 9.45917 2.75702 9.29976Z" fill="#C75E7B"/>
<path d="M4.55439 9.5419C4.37783 9.50007 3.19485 9.06734 3.13812 9.00631L3.14826 8.92969L4.57462 9.49377L4.57167 9.53873L4.55439 9.5419Z" fill="#B95273"/>
<path d="M13.9375 13.2905L13.9793 13.2985C14.0566 13.564 13.9973 15.7502 13.9946 16.1675L13.9887 20.6735L13.8801 20.6313C13.9149 20.5047 13.8822 19.5597 13.8844 19.364C13.8994 18.2243 13.9039 17.0845 13.898 15.9447C13.8972 15.0776 13.8844 14.1507 13.9375 13.2905Z" fill="#AAA3A2"/>
<path d="M10.5364 11.8281C10.9738 12.0322 11.5343 12.2207 11.9952 12.3767C11.8948 12.4926 11.807 12.5928 11.6989 12.7014L11.653 12.7151C11.3211 12.5159 10.5469 12.316 10.1837 12.1828L10.1909 12.1606C10.2876 12.0784 10.4399 11.9212 10.5364 11.8281Z" fill="#C5BEBC"/>
<path d="M4.57174 9.53857C4.88402 9.67958 5.69891 10.0058 6.01913 10.097C5.88851 10.217 5.82564 10.285 5.71205 10.4216L5.68995 10.425C5.4702 10.3115 4.49713 9.95433 4.2501 9.87524L4.24731 9.86381C4.35597 9.75612 4.45121 9.65469 4.55447 9.54174L4.57174 9.53857Z" fill="#C5BEBC"/>
<path d="M11.9953 12.377L12.0415 12.3781C12.2759 12.5392 12.9331 12.6901 13.0665 12.9161C13.0524 13.024 12.9491 13.0959 12.8506 13.1336C12.607 13.0032 11.9631 12.865 11.6989 12.7016C11.807 12.5931 11.8948 12.4928 11.9953 12.377Z" fill="#C75E7B"/>
<path d="M12.0924 12.3599C12.396 12.4829 12.9668 12.6822 13.2297 12.8238L13.2556 13.4703C13.1935 13.5257 13.1205 13.5865 13.0662 13.6484C12.9374 13.7615 12.8078 13.8738 12.6777 13.9855C12.7374 13.7442 12.7784 13.4565 12.8196 13.2076L12.8506 13.1332C12.9491 13.0955 13.0525 13.0235 13.0665 12.9156C12.9332 12.6897 12.2759 12.5387 12.0415 12.3777L12.0924 12.3599Z" fill="#B95273"/>
<path d="M13.9374 13.291L13.9449 13.1912C13.9589 13.187 13.9728 13.1829 13.9865 13.1787C14.2625 13.3014 17.3555 14.4181 17.3888 14.5181C17.2206 14.4898 16.7767 14.3099 16.6011 14.2418L14.8365 13.5612C14.7051 13.5113 14.0774 13.239 13.9793 13.299L13.9374 13.291Z" fill="#6F6278"/>
<path d="M7.56386 10.6245C7.7216 10.6931 8.92748 11.1767 9.05279 11.2026L8.98759 11.2425C8.53297 11.1031 8.00247 10.861 7.53235 10.6963L7.56386 10.6245Z" fill="#9E858A"/>
<path d="M4.57467 9.49365C5.08543 9.66567 5.59422 9.8932 6.10402 10.0755L6.0191 10.097C5.69888 10.0058 4.884 9.67962 4.57172 9.53862L4.57467 9.49365Z" fill="#9E858A"/>
<path d="M10.5463 11.7832C10.9916 11.9642 11.6334 12.2076 12.0924 12.3595L12.0414 12.3773L11.9952 12.3761C11.5342 12.2201 10.9738 12.0316 10.5363 11.8275L10.5463 11.7832Z" fill="#998E93"/>
<path d="M14.3994 19.1431C14.4506 18.6167 14.3736 18.0805 14.3514 17.5509L14.2631 14.7669C14.2564 14.5438 14.2205 13.8559 14.2698 13.683L14.3221 13.6577C14.4176 13.6668 14.4417 13.6807 14.5303 13.7196L14.6467 13.7738C14.714 13.8017 14.7891 13.8305 14.8543 13.8619C15.0321 13.9016 15.5999 14.1374 15.7941 14.2133C16.3391 14.428 16.8865 14.6359 17.4366 14.8367C17.4819 15.2522 17.6501 15.9658 17.7418 16.398C17.8987 17.176 18.0631 17.9526 18.2345 18.7276C18.3504 19.2598 18.5054 19.8952 18.5891 20.4224L18.643 20.6478C18.6669 20.7319 18.6661 20.7438 18.6575 20.831L18.6296 20.8477C18.4679 20.7756 18.2901 20.7044 18.1238 20.6449C16.8744 20.198 15.639 19.5969 14.3994 19.1431Z" fill="#829FA6"/>
<path d="M14.3994 19.1431C14.4506 18.6167 14.3736 18.0805 14.3514 17.5509L14.2631 14.7669C14.2564 14.5438 14.2205 13.8559 14.2698 13.683L14.3221 13.6577C14.4176 13.6668 14.4417 13.6807 14.5303 13.7196L14.6467 13.7738C14.714 13.8017 14.7891 13.8305 14.8543 13.8619L14.7193 13.866C14.6405 14.0139 14.7566 15.7938 14.7247 16.0897C14.7153 16.176 14.8484 16.824 14.847 16.9832C14.8422 17.5881 14.7859 18.2639 14.8674 18.8611C14.8797 18.9503 15.068 19.0303 15.1536 19.0689C15.3799 19.1712 15.6337 19.2507 15.8635 19.3502C16.3664 19.5681 16.8768 19.7886 17.3899 19.9831C17.7413 20.1164 18.2324 20.3603 18.5891 20.4224L18.643 20.6478C18.6669 20.7319 18.6661 20.7438 18.6575 20.831L18.6296 20.8477C18.4679 20.7756 18.2901 20.7044 18.1238 20.6449C16.8744 20.198 15.639 19.5969 14.3994 19.1431Z" fill="#648CA7"/>
<path d="M14.3994 19.1431C14.4506 18.6167 14.3736 18.0805 14.3514 17.5509L14.2631 14.7669C14.2564 14.5438 14.2205 13.8559 14.2698 13.683L14.3221 13.6577C14.4176 13.6668 14.4417 13.6807 14.5303 13.7196C14.4932 13.9456 14.5638 14.8931 14.5793 15.1791C14.5568 16.0659 14.6678 17.0432 14.6762 17.9368C14.6794 18.2646 14.6992 18.7335 14.6673 19.0506C14.5469 19.04 14.4948 19.0663 14.3994 19.1431Z" fill="#C5BEBC"/>
<path d="M14.3994 19.1426C14.4948 19.0657 14.5469 19.0394 14.6673 19.0501C15.4266 19.3728 16.2532 19.6704 17.0179 19.9989C17.2593 20.1026 18.4604 20.6121 18.643 20.6473C18.6669 20.7313 18.6661 20.7433 18.6575 20.8305L18.6296 20.8472C18.4679 20.7751 18.29 20.7039 18.1238 20.6443C16.8744 20.1974 15.639 19.5964 14.3994 19.1426Z" fill="#AAA3A2"/>
<path d="M14.5794 15.1793C14.5638 14.8933 14.4933 13.9458 14.5303 13.7197L14.6467 13.774C14.6279 14.0225 14.6824 15.3961 14.6215 15.483C14.614 15.3814 14.6129 15.2737 14.5794 15.1793Z" fill="#6A849D"/>
<path d="M15.2405 20.6026C15.4288 20.709 16.2981 20.9333 15.9843 21.239L15.9494 21.2256C15.9556 21.1642 15.9674 21.097 15.9443 21.038C15.8909 20.9018 14.6185 20.4296 14.4101 20.3339C14.3458 20.2364 14.3557 20.1315 14.3736 20.0185L14.3956 20.0694L14.4965 20.033L14.5072 20.0179C14.7929 19.9791 15.1281 20.3621 15.2405 20.6026Z" fill="#AAA3A2"/>
<path d="M14.4965 20.0332C14.6488 20.102 14.9471 20.2254 15.019 20.3774L14.994 20.4051C14.8167 20.4318 14.6416 20.3773 14.4731 20.3258C14.4152 20.2612 14.4112 20.1606 14.3956 20.0696L14.4965 20.0332Z" fill="#C5BEBC"/>
<path d="M13.2488 0.14225C13.3732 0.0387219 13.6201 -0.0200042 13.7795 0.0062334C14.4726 0.120413 14.8569 0.502736 15.2203 1.04895C15.495 1.17298 15.6811 1.3198 15.882 1.54108C15.9668 1.63455 16.0151 1.7561 16.1282 1.79136C16.5944 1.87517 16.9321 2.10908 17.0726 2.5718C17.1539 2.59654 17.2137 2.61124 17.2896 2.6514C17.6477 2.80065 17.8142 3.05057 17.9636 3.39614C18.5652 3.63467 18.8182 4.00441 18.7436 4.65624C18.7795 4.83159 18.949 4.95916 18.9976 5.18864C19.1282 5.80464 19.0947 6.37403 18.536 6.78227L18.5671 6.90251C18.5845 6.97817 18.6022 7.04234 18.6073 7.12014L18.6017 7.87298C18.621 8.12562 18.6425 8.49614 18.6044 8.74488L18.6028 8.82776C18.6419 8.94 18.6336 9.19278 18.6266 9.31683L18.6296 9.54001C18.6454 9.72863 18.6575 9.88287 18.658 10.0736L18.6604 10.2463C18.6516 10.4709 18.6881 10.9381 18.4976 11.07C18.219 11.2757 17.641 11.3457 17.3127 11.3012C17.2893 11.2981 17.2663 11.2941 17.2435 11.289L17.188 11.2756C16.7744 11.3684 15.9456 11.3198 15.502 11.3826C15.2788 11.4148 15.1141 11.5129 14.884 11.5613C13.9855 11.7501 13.0751 11.6436 12.1954 11.4136C11.9419 11.3473 11.6709 11.3032 11.4129 11.2507C11.19 11.2053 10.9152 11.0857 10.6945 11.0819C10.605 11.0149 9.85159 10.7683 9.68672 10.6986C9.59719 10.6607 9.46821 10.6684 9.35794 10.5869C9.22791 10.5495 9.07621 10.4888 8.94728 10.4411C6.79729 9.58604 4.51413 8.81206 2.39168 7.87311C2.25253 7.81157 2.16786 7.72752 2.00696 7.70952C2.05465 7.62447 2.11244 7.54327 2.2009 7.49962C2.69664 7.25514 3.21373 7.01841 3.71563 6.78863C4.86699 6.26484 6.02277 5.75079 7.18282 5.24656C7.94299 4.90945 9.02531 4.36039 9.81195 4.10636C9.9799 4.05211 11.2115 4.53321 11.5452 4.62875C11.5249 4.36106 11.4878 4.20766 11.6867 4.00307C11.8529 3.79743 11.995 3.84511 12.1326 3.71317C12.0835 3.50651 12.0138 3.05159 12.1508 2.87847L12.172 2.79574C12.2728 2.70474 12.3749 2.61521 12.4782 2.52719C12.5459 2.40711 12.5898 2.37341 12.6904 2.28016C12.6327 1.6137 12.9271 1.75439 13.0296 1.4842C13.0761 1.40984 13.1506 1.3491 13.2063 1.27841C13.4262 0.999292 13.3897 0.8042 13.3632 0.484439C13.3125 0.317543 13.217 0.334552 13.2488 0.14225Z" fill="#ECBCC5"/>
<path d="M2.00696 7.71044C2.05465 7.6254 2.11244 7.54419 2.2009 7.50054C2.69664 7.25606 3.21373 7.01933 3.71563 6.78955C4.86699 6.26576 6.02277 5.75172 7.18282 5.24749C7.94299 4.91037 9.02531 4.36131 9.81195 4.10728C9.9799 4.05303 11.2115 4.53414 11.5452 4.62967C11.5528 4.70283 11.5771 4.83281 11.5487 4.89253C11.4407 4.94385 11.3619 5.05505 11.3242 5.16877C11.2394 5.42436 11.2821 5.67139 11.3921 5.90796C11.4788 6.09436 11.7165 6.18973 11.7568 6.26051L11.7621 6.36454L11.7618 6.53635L11.7816 6.79805L11.7899 6.81573C11.8382 6.92956 11.8689 7.00093 11.9301 7.10818C12.1489 7.61134 12.3861 7.80925 12.8992 8.00912C13.0195 8.05601 13.0792 8.08329 13.1554 8.18556L13.3636 8.45805C13.5051 8.64252 14.1102 9.48521 14.2446 9.59885C14.4141 9.67569 14.3682 9.86187 14.5557 9.8905L14.5992 9.95244C14.634 9.94528 14.6627 9.93833 14.6971 9.92916C15.4177 10.4659 15.6919 10.7787 16.5947 11.0813C16.6663 11.0965 16.7567 11.1185 16.8277 11.1256L17.1601 11.1952L17.0785 11.2436L17.188 11.2765C16.7744 11.3693 15.9456 11.3208 15.502 11.3835C15.2788 11.4157 15.1141 11.5138 14.884 11.5622C13.9855 11.751 13.0751 11.6446 12.1954 11.4145C11.9419 11.3482 11.6709 11.3041 11.4129 11.2516C11.19 11.2062 10.9152 11.0867 10.6945 11.0828C10.605 11.0158 9.85159 10.7693 9.68672 10.6995C9.59719 10.6616 9.4682 10.6694 9.35794 10.5878C9.22791 10.5504 9.07621 10.4897 8.94728 10.442C6.79729 9.58697 4.51413 8.81298 2.39168 7.87404C2.25253 7.8125 2.16786 7.72844 2.00696 7.71044Z" fill="#FCFAF6"/>
<path d="M8.96958 10.3698C8.88573 10.2893 8.51558 9.96164 8.50058 9.89978C8.54792 9.84889 8.56098 9.83352 8.60041 9.77669C8.52684 9.69817 8.44713 9.73028 8.30865 9.66608C8.23355 9.58453 8.20571 9.56218 8.17352 9.45226C8.2251 9.11032 8.77778 9.16027 9.01579 9.06283C9.17653 8.99702 9.22717 8.82101 9.45201 8.74688C9.80584 8.63021 10.1336 8.58779 10.5023 8.54548C10.9803 8.46704 11.4877 8.32539 11.9859 8.36115C12.4747 8.39624 12.8601 8.4818 13.3637 8.45757C13.5052 8.64204 14.1103 9.48473 14.2447 9.59837C14.4142 9.6752 14.3683 9.86139 14.5558 9.89001L14.5993 9.95196C14.6341 9.9448 14.6628 9.93785 14.6972 9.92867C15.4178 10.4654 15.692 10.7783 16.5948 11.0808C16.6664 11.096 16.7568 11.1181 16.8278 11.1251L17.1601 11.1947L17.0786 11.2432L17.188 11.276C16.7745 11.3688 15.9457 11.3203 15.5021 11.383C15.2789 11.4153 15.1142 11.5133 14.8841 11.5617C13.9856 11.7505 13.0752 11.6441 12.1955 11.414C11.942 11.3478 11.671 11.3036 11.413 11.2511C11.1901 11.2058 10.9153 11.0862 10.6946 11.0823C10.6051 11.0154 9.85168 10.7688 9.68681 10.699C9.59728 10.6611 9.46829 10.6689 9.35803 10.5873C9.228 10.5499 9.0763 10.4892 8.94737 10.4415L8.96958 10.3698Z" fill="#C8BAB7"/>
<path d="M14.2446 9.59863C14.4141 9.67547 14.3683 9.86165 14.5558 9.89028L14.5992 9.95222C14.6341 9.94506 14.6628 9.93811 14.6971 9.92894C15.4178 10.4657 15.6919 10.7785 16.5947 11.0811C16.6663 11.0962 16.7567 11.1183 16.8278 11.1254L17.1601 11.195L17.0786 11.2434C16.3077 11.0993 14.9546 10.7644 14.4756 10.0574C14.4058 9.95445 14.3052 9.72199 14.2446 9.59863Z" fill="#B07354"/>
<path d="M8.96947 10.3701C9.0538 10.4125 9.33035 10.5291 9.35793 10.5877C9.2279 10.5502 9.0762 10.4896 8.94727 10.4419L8.96947 10.3701Z" fill="#EEE8E2"/>
<path d="M6.79846 5.71338C7.00946 5.724 8.67297 6.41876 8.9576 6.5419C8.99354 6.6802 9.00848 6.7429 9.06899 6.87135C9.1398 7.39277 9.0824 7.85279 9.11992 8.35965L9.01095 8.35265C8.75094 8.23777 8.37729 8.11138 8.09803 8.00464C7.58738 7.80946 7.03749 7.58384 6.52132 7.41523C6.50748 7.2985 6.48926 7.20619 6.46572 7.09101C6.39708 6.62281 6.43455 6.05366 6.79846 5.71338Z" fill="#DE86A4"/>
<path d="M7.17151 6.21045C7.33877 6.29826 7.93983 6.53461 8.11436 6.56565C8.20257 6.58993 8.23111 6.58212 8.28685 6.64211L8.2828 6.67634C8.29159 6.91653 8.30444 7.40909 8.28964 7.64713C8.29562 7.68829 8.29001 7.68676 8.27993 7.73062C8.14255 7.73631 7.40614 7.41403 7.23148 7.33826C7.15885 7.30674 7.16561 7.28345 7.15027 7.22073C7.18626 7.06285 7.17057 6.41853 7.17151 6.21045Z" fill="#787391"/>
<path d="M7.15027 7.22032C7.35424 7.19918 7.31444 7.22767 7.49632 7.28227C7.53285 7.29324 7.57064 7.19703 7.6945 7.19776C7.74028 7.26118 7.74195 7.28479 7.76383 7.36186L7.79183 7.36388L7.84279 7.27384C7.9684 7.37635 7.8307 7.47443 8.05455 7.53423C8.10623 7.47494 8.11717 7.44836 8.15443 7.37796L8.20485 7.37466C8.27877 7.46494 8.26147 7.51344 8.28964 7.64672C8.29562 7.68787 8.29001 7.68635 8.27993 7.73021C8.14255 7.7359 7.40614 7.41361 7.23148 7.33785C7.15885 7.30633 7.16561 7.28304 7.15027 7.22032Z" fill="#6F6278"/>
<path d="M8.11435 6.56543C8.20257 6.58971 8.23111 6.5819 8.28684 6.64189L8.28279 6.67612C8.27083 6.79583 8.28413 6.84723 8.18581 6.91913L8.1459 6.89415C8.08072 6.794 8.1047 6.68734 8.11435 6.56543Z" fill="#6F6278"/>
<path d="M7.12751 5.46045C7.49995 5.56395 8.74212 6.06593 9.12706 6.25029C9.40863 6.18013 9.97488 5.88591 10.2277 5.74869C10.2894 5.81758 10.3234 5.88092 10.371 5.9595C10.4099 6.01635 10.4852 6.11931 10.5162 6.17517C10.5259 6.21997 10.5781 6.58319 10.5658 6.55175C10.5879 6.76978 10.6843 7.46315 10.6184 7.63238C10.47 7.79839 9.35824 8.28673 9.11998 8.35992C9.08246 7.85306 9.13986 7.39304 9.06905 6.87162C9.00854 6.74317 8.9936 6.68047 8.95766 6.54217C8.67303 6.41903 7.00953 5.72427 6.79852 5.71365C6.91672 5.61409 6.99874 5.54437 7.12751 5.46045Z" fill="#FEA3AD"/>
<path d="M10.2277 5.74902C10.2894 5.81792 10.3234 5.88126 10.371 5.95984C9.82045 6.00958 9.67854 6.3222 9.18685 6.41052C9.17422 6.54251 9.17097 6.72419 9.10679 6.83225C9.03078 6.67485 9.04797 6.40901 9.12707 6.25062C9.40864 6.18047 9.97489 5.88625 10.2277 5.74902Z" fill="#ECBCC5"/>
<path d="M10.2022 6.28271C10.2293 6.29632 10.2709 6.33857 10.2736 6.3691C10.3073 6.74448 10.2719 7.12159 10.3163 7.49759C10.0345 7.61198 9.77929 7.75806 9.48927 7.87135L9.44874 7.87766C9.39129 7.73034 9.39102 6.89165 9.43286 6.68575C9.64365 6.56156 9.97674 6.40068 10.2022 6.28271Z" fill="#6F6278"/>
<path d="M6.46575 7.09131C6.4893 7.20648 6.50751 7.2988 6.52135 7.41552C7.03753 7.58414 7.58742 7.80976 8.09807 8.00493C8.37733 8.11168 8.75098 8.23806 9.01098 8.35294C8.75074 8.37145 8.10381 8.48625 7.91281 8.41046C7.61435 8.29204 5.81982 7.67208 5.72034 7.50274C5.81276 7.34357 6.28723 7.14896 6.46575 7.09131Z" fill="#C5BEBC"/>
<path d="M11.1019 6.34912C11.1939 6.37348 11.2914 6.40629 11.3824 6.42875C11.5062 6.45928 11.6567 6.58199 11.7618 6.53608L11.7817 6.79779C11.8208 6.82526 10.9947 6.62094 10.9345 6.60307C10.9563 6.48715 11.0228 6.43028 11.1019 6.34912Z" fill="#ECBCC5"/>
<path d="M10.5162 6.17529L11.1019 6.349C11.0228 6.43016 10.9564 6.48703 10.9345 6.60295C10.8312 6.57851 10.6558 6.52092 10.5658 6.55187C10.5781 6.58332 10.5259 6.2201 10.5162 6.17529Z" fill="#F7D6D4"/>
<path d="M17.9637 3.39697C18.5653 3.6355 18.8182 4.00524 18.7437 4.65707C18.7796 4.83242 18.9491 4.95999 18.9977 5.18947C19.1283 5.80547 19.0947 6.37486 18.5361 6.7831L18.5672 6.90334C18.5846 6.979 18.6023 7.04317 18.6074 7.12097L18.6018 7.87381C18.6211 8.12645 18.6425 8.49697 18.6045 8.74571L18.6028 8.82859C18.642 8.94083 18.6337 9.19361 18.6267 9.31766L18.6297 9.54084C18.6455 9.72946 18.6576 9.8837 18.6581 10.0744L18.6605 10.2471C18.6517 10.4717 18.6881 10.9389 18.4977 11.0708C18.219 11.2766 17.641 11.3465 17.3127 11.302C17.2894 11.299 17.2663 11.2949 17.2435 11.2898L17.188 11.2764L17.0786 11.2435L17.1601 11.1951L16.8278 11.1255C16.7567 11.1184 16.6663 11.0964 16.5947 11.0812C15.6919 10.7786 15.4178 10.4658 14.6971 9.92906C14.6628 9.93824 14.6341 9.94519 14.5992 9.95235L14.5558 9.8904C14.3683 9.86178 14.4142 9.67559 14.2447 9.59876C14.1103 9.48512 13.5052 8.64243 13.3637 8.45796L13.1554 8.18547C13.0793 8.0832 13.0196 8.05592 12.8992 8.00902C12.3862 7.80916 12.1489 7.61125 11.9301 7.10809C11.869 7.00083 11.8382 6.92947 11.7899 6.81564L11.7817 6.79796L11.7618 6.53626L11.7622 6.36445L11.7676 6.35206C11.7971 6.35316 11.7947 6.3549 11.8233 6.36349C11.9553 6.57502 12.0229 6.72043 12.2244 6.87112L12.2903 6.92126L12.4731 6.98492C12.7077 7.09127 12.9415 7.06541 13.1508 7.13613C13.2096 7.09913 13.4134 7.07359 13.4947 7.05999C13.9488 7.03364 14.7746 6.74414 15.1987 6.54683C15.3714 6.46645 15.7619 6.24496 15.9226 6.21411C16.123 6.15088 16.926 5.46711 17.106 5.30856C17.3412 5.15543 17.7768 4.61273 17.9001 4.35424C18.0924 3.95156 18.0916 3.79317 17.9637 3.39697Z" fill="#DAAE73"/>
<path d="M18.567 6.90332C18.5845 6.97897 18.6022 7.04315 18.6073 7.12095L18.6016 7.87379C18.6209 8.12643 18.6424 8.49695 18.6043 8.74569L18.6027 8.82856C18.6419 8.94081 18.6335 9.19358 18.6266 9.31764L18.6295 9.54082C18.6453 9.72944 18.6574 9.88368 18.658 10.0744L18.6604 10.2471C18.6515 10.4717 18.688 10.9389 18.4976 11.0708C18.2189 11.2765 17.6409 11.3465 17.3126 11.302C17.2893 11.299 17.2662 11.2949 17.2434 11.2898L17.1879 11.2764L17.0784 11.2435L17.16 11.1951L16.8277 11.1255C16.7566 11.1184 16.6662 11.0963 16.5946 11.0812C15.6918 10.7786 15.4177 10.4658 14.697 9.92904C14.6627 9.93822 14.634 9.94517 14.5991 9.95233L14.5556 9.89038C14.3682 9.86176 14.414 9.67557 14.2445 9.59874C14.1101 9.4851 13.505 8.64241 13.3636 8.45794L13.1553 8.18545C13.3075 8.17287 13.5704 8.18397 13.7235 8.21252L13.9256 8.24895L14.0865 8.25552C14.1466 8.3381 14.1568 8.35607 14.2424 8.40959C14.3336 8.41695 14.381 8.37695 14.4655 8.34832C14.712 8.26489 15.1814 8.73555 15.3316 8.72887L15.3777 8.66419C15.5207 8.65064 15.6676 8.84557 15.8431 8.90044L15.8991 8.87267C16.0423 8.73695 16.1979 8.461 16.3513 8.44895C16.4229 8.5 16.4624 8.52021 16.5409 8.56112C16.5114 8.53155 16.4895 8.5065 16.4621 8.47527C16.5227 8.31226 16.6523 8.15363 16.7558 8.006L17.0935 8.15106L17.1096 8.12372C17.0862 8.05034 16.965 7.97364 16.8864 7.90094L16.914 7.74451C16.9915 7.69887 17.2895 7.57555 17.392 7.53026C17.4596 7.50408 17.5194 7.46472 17.5819 7.42746L17.6449 7.44283C17.6634 7.50182 17.665 7.50654 17.6715 7.57168C17.897 7.41141 17.9617 7.23263 18.2916 7.25281C18.3476 7.25624 18.3779 7.22005 18.4356 7.18209C18.4774 7.13584 18.5279 6.98016 18.567 6.90332Z" fill="#D19E69"/>
<path d="M13.1553 8.18531C13.3075 8.17273 13.5704 8.18384 13.7235 8.21238L13.9256 8.24881L14.0865 8.25539C14.1466 8.33796 14.1568 8.35594 14.2424 8.40946C14.3336 8.41681 14.381 8.37681 14.4655 8.34818C14.712 8.26475 15.1814 8.73542 15.3316 8.72874L15.3777 8.66405C15.5207 8.65051 15.6676 8.84544 15.8431 8.9003L15.8991 8.87253C15.9793 9.2735 16.2907 9.20533 16.5431 9.45242C16.4704 9.53454 16.2373 9.81245 16.1566 9.84831L16.1555 9.92193C16.302 10.071 16.564 10.2043 16.6284 10.3416C16.4098 10.2269 16.2481 10.0917 16.0533 9.94076C15.9023 10.079 15.7073 10.1964 15.8009 10.4134L15.6931 10.3326L15.6652 10.4093C15.8809 10.7756 16.4712 10.8842 16.5946 11.0811C15.6918 10.7785 15.4177 10.4657 14.697 9.92891C14.6627 9.93808 14.634 9.94503 14.5991 9.95219L14.5556 9.89025C14.3682 9.86162 14.414 9.67544 14.2445 9.5986C14.1101 9.48496 13.505 8.64227 13.3636 8.4578L13.1553 8.18531Z" fill="#C99464"/>
<path d="M14.1111 8.93408C14.5225 9.35697 14.9803 9.68226 15.4116 10.082C15.4915 10.1562 15.6576 10.248 15.6932 10.3326L15.6653 10.4093C15.881 10.7756 16.4713 10.8843 16.5947 11.0811C15.6919 10.7785 15.4178 10.4657 14.6971 9.92897C14.6628 9.93814 14.6341 9.94509 14.5992 9.95225L14.5557 9.89031C14.2905 9.51346 14.085 9.37044 14.1111 8.93408Z" fill="#B88B6A"/>
<path d="M15.0393 9.15967C15.3649 9.30516 15.6229 9.55412 15.9051 9.76799C16.0582 9.8841 16.0014 9.77617 16.1567 9.84855L16.1556 9.92217C16.3021 10.0713 16.5641 10.2045 16.6285 10.3419C16.4099 10.2272 16.2481 10.0919 16.0534 9.941C16.0011 9.93338 15.7369 9.72812 15.6707 9.68013C15.5167 9.81773 15.5401 9.86347 15.4306 9.97346L15.3676 9.94763L15.3585 9.90894C15.4108 9.80933 15.5398 9.68863 15.6219 9.60415C15.3448 9.457 15.2512 9.37807 15.0393 9.15967Z" fill="#B88B6A"/>
<path d="M13.7235 8.2124L13.9257 8.24883C14.0287 8.39491 14.2365 8.58043 14.3902 8.67035L14.3661 8.73619C14.2717 8.67765 13.7587 8.29855 13.7235 8.2124Z" fill="#B87C57"/>
<path d="M15.3317 8.72844L15.3778 8.66376C15.5208 8.65021 15.6677 8.84514 15.8431 8.9C15.8555 8.95618 15.8574 8.92836 15.83 8.98524C15.709 8.96917 15.6114 8.84683 15.4628 8.78913C15.4092 8.81601 15.4057 8.82038 15.3445 8.83183L15.3317 8.72844Z" fill="#B87C57"/>
<path d="M14.3902 8.66992C14.4736 8.73299 14.8285 8.99387 14.8778 9.06367L14.8432 9.11153C14.6896 8.97251 14.5318 8.85917 14.3661 8.73576L14.3902 8.66992Z" fill="#B88B6A"/>
<path d="M14.8432 9.11183L14.8778 9.06396C14.9701 9.11931 15.0521 9.13254 15.0248 9.26271C15.0041 9.36073 14.943 9.39913 14.8572 9.44012L14.8255 9.43443C14.8322 9.30901 15.0841 9.27226 14.8432 9.11183Z" fill="#B88B6A"/>
<path d="M18.5672 6.90332C18.5846 6.97897 18.6023 7.04315 18.6074 7.12095L18.6018 7.87379C18.6211 8.12643 18.6425 8.49695 18.6044 8.74569L18.6028 8.82857C18.5173 8.78548 18.5285 8.77545 18.4709 8.6918C18.4183 8.84136 18.2619 9.15911 18.2678 9.27101C18.2453 9.26242 18.2005 9.26025 18.1745 9.2576C18.0755 9.21633 17.9484 9.13043 17.8749 9.05159L17.8969 8.94985C17.8264 8.93998 17.807 8.92101 17.7531 8.96458C17.6684 9.0331 17.5168 9.47029 17.501 9.55447L17.3972 9.56874C17.5032 9.32354 17.5935 9.11071 17.6823 8.85923C17.5748 8.79017 17.4632 8.75723 17.3428 8.71487L17.3235 8.67205L17.3398 8.62996L17.4699 8.59412C17.2894 8.53671 17.3323 8.64922 17.1738 8.61381L17.1609 8.56694C17.2052 8.49649 17.2451 8.42524 17.2862 8.35299L17.228 8.30701L17.2146 8.30269C17.18 8.18564 17.2089 8.2273 17.0936 8.15106L17.1097 8.12372C17.0864 8.05034 16.9651 7.97364 16.8865 7.90094L16.9142 7.74451C16.9917 7.69887 17.2897 7.57555 17.3921 7.53026C17.4597 7.50408 17.5195 7.46472 17.582 7.42746L17.645 7.44283C17.6635 7.50182 17.6652 7.50654 17.6716 7.57168C17.8972 7.41141 17.9618 7.23263 18.2917 7.25281C18.3478 7.25624 18.3781 7.22005 18.4357 7.18209C18.4776 7.13584 18.528 6.98016 18.5672 6.90332Z" fill="#DBA76E"/>
<path d="M18.5671 6.90332C18.5846 6.97897 18.6023 7.04315 18.6074 7.12095L18.6017 7.87379C18.621 8.12643 18.6425 8.49695 18.6044 8.74569L18.6028 8.82856C18.5172 8.78548 18.5285 8.77545 18.4708 8.6918C18.4687 8.58293 18.3483 8.30931 18.2512 8.25407C18.1849 8.249 18.1085 8.28192 18.0433 8.30349C17.9347 8.27905 17.9363 8.24793 17.8478 8.15291C17.866 8.06521 17.8443 8.09955 17.913 8.04506C17.9612 8.00519 18.0189 7.86716 18.0505 7.80272C18.0543 7.66405 18.3357 7.38657 18.4357 7.18209C18.4775 7.13584 18.528 6.98016 18.5671 6.90332Z" fill="#F3D8A3"/>
<path d="M17.913 8.04443L17.9467 8.0861L18.0275 8.16698C18.0953 8.1588 18.1189 8.14131 18.1785 8.11022C18.3241 8.13672 18.4639 8.3834 18.5019 8.50917C18.5229 8.62764 18.5408 8.64876 18.6044 8.74507L18.6028 8.82794C18.5172 8.78485 18.5285 8.77482 18.4708 8.69117C18.4687 8.5823 18.3483 8.30869 18.2512 8.25345C18.1849 8.24838 18.1085 8.2813 18.0433 8.30287C17.9347 8.27843 17.9363 8.24731 17.8478 8.15228C17.866 8.06458 17.8443 8.09892 17.913 8.04443Z" fill="#B88B6A"/>
<path d="M18.1367 7.80669L18.1568 7.78638C18.2421 7.69949 18.2608 7.67169 18.3228 7.56787C18.436 7.63076 18.5221 7.8523 18.5084 7.97992L18.4816 7.97887C18.4532 7.89297 18.4419 7.81842 18.373 7.76707C18.2761 7.78214 18.3035 7.78019 18.2155 7.84736L18.1367 7.80669Z" fill="#D8A069"/>
<path d="M18.1366 7.8063L18.2154 7.84697C18.1272 7.92781 18.0392 8.011 17.9467 8.08673L17.9129 8.04507C17.9612 8.0052 18.0188 7.86717 18.0505 7.80273L18.1366 7.8063Z" fill="#D19E69"/>
<path d="M17.8266 8.82324C17.9347 8.86067 18.0559 8.96865 18.1103 9.07212C18.0484 9.03502 17.9604 8.97836 17.8968 8.95003C17.8263 8.94016 17.807 8.92119 17.7531 8.96476C17.6683 9.03328 17.5168 9.47046 17.501 9.55465L17.3972 9.56892C17.5031 9.32371 17.5935 9.11089 17.6823 8.85941L17.7064 8.89353L17.7544 8.89417L17.8266 8.82324Z" fill="#D8A069"/>
<path d="M18.2512 8.25413C18.2026 8.32192 18.0632 8.34859 17.9787 8.37292C17.9443 8.45236 17.9231 8.51981 17.8963 8.60142L17.8749 8.59388C17.8969 8.52552 17.9323 8.45271 17.9108 8.38816C17.8258 8.35205 17.6643 8.23229 17.5887 8.17311L17.5892 8.12986C17.6565 8.08565 17.6874 8.05233 17.7619 8.0577L17.8006 8.14631L17.8478 8.15296C17.9363 8.24799 17.9347 8.27911 18.0433 8.30355C18.1085 8.28198 18.1849 8.24906 18.2512 8.25413Z" fill="#E0B578"/>
<path d="M16.9142 7.74403C16.9917 7.6984 17.2897 7.57507 17.3921 7.52979L17.4852 7.59841C17.3221 7.63288 17.0402 7.80861 16.8865 7.90046L16.9142 7.74403Z" fill="#B88B6A"/>
<path d="M17.3427 8.71401L17.3234 8.6712L17.3398 8.6291L17.4699 8.59326C17.6439 8.69746 17.6434 8.7743 17.8266 8.82221L17.7544 8.89314L17.7064 8.8925L17.6823 8.85837C17.5747 8.78932 17.4632 8.75637 17.3427 8.71401Z" fill="#B88B6A"/>
<path d="M17.582 7.42773L17.6451 7.44311C17.6636 7.5021 17.6652 7.50682 17.6716 7.57196C17.5912 7.65982 17.5987 7.67031 17.4852 7.59916L17.3922 7.53054C17.4597 7.50435 17.5196 7.465 17.582 7.42773Z" fill="#B87C57"/>
<path d="M17.2279 8.30679C17.259 8.20326 17.236 8.22226 17.3078 8.17432L17.3717 8.17748L17.3907 8.23001C17.351 8.28501 17.3336 8.30414 17.2861 8.35278L17.2279 8.30679Z" fill="#B88B6A"/>
<path d="M18.4709 8.69141C18.5285 8.77506 18.5173 8.78509 18.6028 8.82817C18.642 8.94042 18.6337 9.19319 18.6267 9.31725L18.6296 9.54043C18.6455 9.72905 18.6575 9.88329 18.6581 10.074L18.6605 10.2467C18.6516 10.4713 18.6881 10.9385 18.4977 11.0704C18.3161 11.086 18.2802 11.1712 18.0053 11.1854L17.9226 11.1342C17.8272 11.0547 17.596 10.908 17.4796 10.8288C17.7081 10.7593 18.0031 10.6139 18.226 10.5119C18.1925 10.4998 18.1683 10.4838 18.1372 10.4661C18.0339 10.3777 17.9425 10.3227 17.8129 10.286L17.7899 10.23L17.8312 10.1805L17.8811 10.1903C17.8931 10.1152 18.1335 9.58179 18.1949 9.5261L18.3826 9.64133C18.318 9.54217 18.2515 9.51491 18.175 9.39979C18.2029 9.32835 18.1828 9.35277 18.2689 9.31448L18.2678 9.27062C18.2619 9.15872 18.4183 8.84097 18.4709 8.69141Z" fill="#F3D8A3"/>
<path d="M17.7898 10.2301L17.8311 10.1807L17.881 10.1904C18.2873 10.4327 18.478 10.5392 18.5376 11.0394C18.4359 10.8163 18.3753 10.7096 18.2259 10.512C18.1924 10.5 18.1682 10.484 18.1371 10.4663C18.0339 10.3778 17.9424 10.3228 17.8129 10.2861L17.7898 10.2301Z" fill="#D8A069"/>
<path d="M17.9227 11.1338C17.9583 10.9763 17.9747 10.9005 18.068 10.7676C18.1195 10.8334 18.0283 11.104 18.0053 11.185L17.9227 11.1338Z" fill="#E0B578"/>
<path d="M18.3825 9.6413C18.3179 9.54214 18.2514 9.51488 18.1749 9.39977C18.2028 9.32832 18.1827 9.35274 18.2688 9.31445C18.3348 9.4451 18.3493 9.46667 18.4472 9.57538L18.4488 9.65793L18.4214 9.68347L18.3825 9.6413Z" fill="#D8A069"/>
<path d="M18.6604 10.2466C18.5467 10.1313 18.4984 9.95672 18.4853 9.79932C18.536 9.831 18.5867 9.99484 18.658 10.0738L18.6604 10.2466Z" fill="#D8A069"/>
<path d="M18.4807 9.5601C18.5207 9.45491 18.5357 9.38671 18.6266 9.31787L18.6296 9.54105C18.5952 9.56547 18.5687 9.58135 18.533 9.60302L18.4807 9.5601Z" fill="#E0B578"/>
<path d="M17.501 9.55434C17.5168 9.47015 17.6684 9.03297 17.7531 8.96445C17.807 8.92088 17.8264 8.93985 17.8969 8.94972L17.8749 9.05145C17.9484 9.1303 18.0755 9.2162 18.1745 9.25746C18.2005 9.26012 18.2453 9.26229 18.2678 9.27087L18.2689 9.31474C18.1828 9.35302 18.2029 9.32861 18.175 9.40005C18.2515 9.51517 18.318 9.54243 18.3826 9.64158L18.1949 9.52636C18.1335 9.58205 17.8931 10.1155 17.8811 10.1905L17.8312 10.1808L17.7899 10.2303C17.7258 10.365 17.663 10.4801 17.5903 10.6106C17.4047 10.4843 17.1558 10.4367 17.1014 10.2309C17.1255 10.1577 17.1328 10.1245 17.147 10.0485C17.3036 9.87938 17.2532 9.89773 17.3712 9.71187C17.5294 9.76408 17.6306 9.85239 17.7877 9.86616C17.872 9.83785 17.851 9.85875 17.8878 9.79477C17.836 9.70983 17.6016 9.60732 17.501 9.55434Z" fill="#E0B578"/>
<path d="M18.1744 9.25777L18.124 9.30802C17.9928 9.31089 17.8354 9.20427 17.8054 9.07523L17.8748 9.05176C17.9483 9.1306 18.0754 9.21651 18.1744 9.25777Z" fill="#D19E69"/>
<path d="M17.3428 8.71484C17.4632 8.7572 17.5748 8.79015 17.6824 8.8592C17.5936 9.11069 17.5032 9.32351 17.3972 9.56872L17.2967 9.55072C17.1634 9.41553 17.0754 9.17711 17.0073 9.00083C17.1097 8.88496 17.2146 8.79916 17.3428 8.71484Z" fill="#E0B578"/>
<path d="M15.8993 8.87245C16.0425 8.73673 16.1981 8.46078 16.3515 8.44873C16.4231 8.49978 16.4625 8.51999 16.5411 8.5609C16.6256 8.58491 16.7924 8.61463 16.841 8.66837C16.7753 8.70461 16.6227 8.67596 16.5535 8.65584C16.4671 8.6303 16.3829 8.59832 16.3013 8.56017C16.1898 8.72103 16.1192 8.80742 15.9647 8.93099C16.109 9.06888 16.2458 9.20927 16.4357 9.28147C16.491 9.30247 16.6068 9.33177 16.624 9.37311L16.5433 9.45233C16.2909 9.20525 15.9795 9.27342 15.8993 8.87245Z" fill="#B88B6A"/>
<path d="M15.6932 10.3325L15.8011 10.4134C15.8815 10.4796 16.1208 10.6862 16.2026 10.7202L16.3391 10.6407L16.3627 10.6576C16.3474 10.7143 16.3203 10.762 16.3471 10.7969C16.4477 10.9271 16.6851 11.0309 16.8278 11.1253C16.7567 11.1182 16.6663 11.0961 16.5947 11.081C16.4713 10.8842 15.881 10.7755 15.6653 10.4092L15.6932 10.3325Z" fill="#D8A069"/>
<path d="M17.2967 9.55038C17.1475 9.51277 16.8667 9.48253 16.7903 9.38321C16.7897 9.28999 16.9464 9.09186 17.0073 9.00049C17.0754 9.17677 17.1634 9.41519 17.2967 9.55038Z" fill="#D8A069"/>
<path d="M17.8129 10.2861C17.9425 10.3228 18.0339 10.3778 18.1372 10.4663C18.0522 10.4995 17.8875 10.5379 17.8035 10.4979C17.7649 10.4101 17.7882 10.3953 17.8129 10.2861Z" fill="#E0B578"/>
<path d="M16.6285 10.3415C16.7618 10.2727 16.8471 10.1885 16.9814 10.1069C16.9932 10.1659 16.9597 10.1918 16.92 10.2566C16.8414 10.3176 16.7771 10.3797 16.6829 10.4057L16.6349 10.3858L16.6285 10.3415Z" fill="#B88B6A"/>
<path d="M17.2145 8.30273L17.2279 8.30705L17.2861 8.35304C17.2451 8.42528 17.2051 8.49654 17.1609 8.56699C17.1195 8.59148 17.1335 8.58282 17.0801 8.58665C17.0731 8.52712 17.1737 8.38646 17.2145 8.30273Z" fill="#B88B6A"/>
<path d="M17.1602 11.1948C17.3063 11.2177 17.4528 11.2379 17.5998 11.2554C17.4732 11.2719 17.3712 11.2856 17.2436 11.2895L17.188 11.2761L17.0786 11.2432L17.1602 11.1948Z" fill="#B88B6A"/>
<path d="M17.9637 3.39697C18.5653 3.6355 18.8182 4.00524 18.7437 4.65707C18.7064 4.82056 18.6688 4.95049 18.6189 5.11084C18.6058 5.53035 18.2413 5.75334 17.9833 6.01132L18.0259 6.07106C18.105 6.05062 18.1375 6.04305 18.2185 6.05639C18.068 6.26911 16.9045 6.83464 16.5752 6.89269C16.4858 6.90844 16.2611 6.93199 16.15 6.95989C15.9264 7.01618 15.3548 7.31504 15.1646 7.29903C15.0984 7.31925 15.0396 7.33709 14.975 7.36159L14.9699 7.41884L14.8854 7.46906C14.7999 7.54514 14.8345 7.53739 14.7419 7.53884C14.7111 7.50149 14.6985 7.48379 14.662 7.45063C14.3334 7.54292 14.2039 7.69219 13.8818 7.57463C13.8072 7.58809 13.5257 7.60111 13.4799 7.62987C13.1795 7.81838 12.0632 7.09932 11.9301 7.10809C11.869 7.00083 11.8382 6.92947 11.7899 6.81564L11.7817 6.79796L11.7618 6.53626L11.7622 6.36445L11.7676 6.35206C11.7971 6.35316 11.7947 6.3549 11.8233 6.36349C11.9553 6.57502 12.0229 6.72043 12.2244 6.87112L12.2903 6.92126L12.4731 6.98493C12.7077 7.09127 12.9415 7.06541 13.1508 7.13613C13.2096 7.09913 13.4134 7.07359 13.4947 7.05999C13.9488 7.03364 14.7746 6.74415 15.1987 6.54683C15.3714 6.46645 15.7619 6.24496 15.9226 6.21411C16.123 6.15088 16.926 5.46711 17.106 5.30856C17.3412 5.15543 17.7768 4.61273 17.9001 4.35424C18.0924 3.95156 18.0916 3.79317 17.9637 3.39697Z" fill="#C5BEBC"/>
<path d="M17.9637 3.39697C18.5653 3.6355 18.8182 4.00524 18.7437 4.65707C18.7064 4.82056 18.6688 4.95049 18.619 5.11084C18.5642 5.21069 18.5119 5.32184 18.4325 5.40171C18.1029 5.54486 17.5748 6.09285 17.2318 6.08681C17.217 6.04684 17.2186 6.0492 17.2224 6.00643C16.775 6.17706 16.4491 6.34972 15.954 6.42095C15.8462 6.43646 15.7526 6.56445 15.6136 6.56429L15.5989 6.51563C15.7223 6.40955 15.8118 6.33226 15.9226 6.21411C16.123 6.15088 16.926 5.46711 17.106 5.30856C17.3412 5.15543 17.7768 4.61273 17.9001 4.35424C18.0925 3.95156 18.0916 3.79317 17.9637 3.39697Z" fill="#FCFAF6"/>
<path d="M11.7622 6.36347L11.7676 6.35107C11.7971 6.35217 11.7947 6.35392 11.8233 6.3625C11.9553 6.57404 12.0229 6.71945 12.2244 6.87014L12.2903 6.92028L12.3054 6.93453C12.3495 6.9767 12.3665 6.987 12.3887 7.04473C13.0835 7.49228 14.4139 7.23991 15.2153 7.1653C15.3245 7.15513 15.3556 7.11129 15.4846 7.13453L15.4969 7.15797C15.4377 7.18386 15.1939 7.278 15.1646 7.29804C15.0984 7.31827 15.0396 7.33611 14.975 7.3606L14.9699 7.41785L14.8854 7.46808C14.7999 7.54416 14.8345 7.53641 14.7419 7.53786C14.7111 7.50051 14.6985 7.4828 14.662 7.44965C14.3334 7.54193 14.2039 7.6912 13.8818 7.57364C13.8072 7.58711 13.5257 7.60012 13.4799 7.62888C13.1795 7.8174 12.0632 7.09834 11.9301 7.10711C11.869 6.99985 11.8382 6.92849 11.7899 6.81466L11.7817 6.79698L11.7618 6.53527L11.7622 6.36347Z" fill="#B87C57"/>
<path d="M11.7899 6.81543C11.9366 6.90155 12.0192 7.08864 12.1537 7.1727C12.7622 7.55277 13.3848 7.46088 14.0454 7.52535C14.1325 7.45962 14.8291 7.38088 14.975 7.36138L14.9699 7.41863L14.8854 7.46885C14.7999 7.54493 14.8345 7.53718 14.7419 7.53863C14.7111 7.50128 14.6985 7.48358 14.662 7.45042C14.3334 7.5427 14.2039 7.69197 13.8818 7.57442C13.8072 7.58788 13.5257 7.60089 13.4798 7.62965C13.1794 7.81817 12.0632 7.09911 11.9301 7.10788C11.869 7.00062 11.8382 6.92926 11.7899 6.81543Z" fill="#D19E69"/>
<path d="M18.6189 5.11035C18.6057 5.52986 18.2412 5.75285 17.9832 6.01083L18.0258 6.07057C18.105 6.05013 18.1374 6.04257 18.2184 6.0559C18.068 6.26862 16.9044 6.83415 16.5751 6.8922C16.4858 6.90795 16.261 6.9315 16.15 6.9594C15.9263 7.01569 15.3547 7.31455 15.1646 7.29854C15.1938 7.2785 15.4376 7.18436 15.4969 7.15847L15.4845 7.13502C15.3555 7.11179 15.3244 7.15562 15.2152 7.16579C14.4138 7.2404 13.0834 7.49277 12.3887 7.04523C12.3664 6.98749 12.3494 6.97719 12.3053 6.93502L12.2902 6.92077L12.473 6.98444C12.7077 7.09078 12.9415 7.06492 13.1507 7.13564C14.3894 7.49204 17.7697 6.71055 18.3831 5.47897L18.4325 5.40122C18.5118 5.32135 18.5641 5.2102 18.6189 5.11035Z" fill="#B88B6A"/>
<path d="M15.5988 6.51577L15.6135 6.56444C15.7525 6.5646 15.8461 6.4366 15.9539 6.4211C16.449 6.34987 16.7749 6.17721 17.2223 6.00658C17.2185 6.04935 17.2169 6.04698 17.2317 6.08696C17.5747 6.09299 18.1028 5.54501 18.4325 5.40186L18.3831 5.4796L18.363 5.49197C18.1857 5.60392 18.0291 5.7507 17.8502 5.8586C17.2995 6.19057 16.732 6.42764 16.0928 6.52318C15.933 6.54705 15.679 6.63918 15.5264 6.63027L15.5154 6.59561C15.5481 6.55974 15.5586 6.54282 15.5988 6.51577Z" fill="#EEE8E2"/>
<path d="M14.0867 8.25565C15.2403 8.25597 15.8086 8.12843 16.9142 7.74463L16.8865 7.90106C16.9651 7.97377 17.0864 8.05047 17.1097 8.12384L17.0936 8.15118L16.7559 8.00612C16.6524 8.15375 16.5228 8.31239 16.4622 8.47539C16.4896 8.50662 16.5116 8.53168 16.5411 8.56124C16.4625 8.52033 16.4231 8.50013 16.3515 8.44907C16.198 8.46112 16.0425 8.73707 15.8993 8.87279L15.8432 8.90056C15.6678 8.8457 15.5208 8.65077 15.3778 8.66431L15.3317 8.72899C15.1815 8.73567 14.7121 8.26501 14.4657 8.34844C14.3812 8.37707 14.3337 8.41707 14.2425 8.40972C14.1569 8.3562 14.1467 8.33822 14.0867 8.25565Z" fill="#C18E60"/>
<path d="M17.5819 7.42709C17.837 7.13518 18.22 7.01005 18.5359 6.78271L18.5671 6.90296C18.5279 6.97979 18.4775 7.13547 18.4356 7.18173C18.378 7.21969 18.3477 7.25588 18.2916 7.25244C17.9617 7.23227 17.8971 7.41105 17.6715 7.57132C17.6651 7.50618 17.6634 7.50146 17.6449 7.44246L17.5819 7.42709Z" fill="#B88B6A"/>
<path d="M14.9699 7.41865C15.1949 7.44124 16.0494 7.23091 16.2959 7.14404L16.2954 7.16145C15.9816 7.35003 15.5961 7.17522 15.6037 7.54863C15.483 7.70611 15.0833 7.70064 14.9699 7.50718L14.9924 7.48948C14.9516 7.46563 14.9331 7.4703 14.8854 7.46887L14.9699 7.41865Z" fill="#D19E69"/>
<path d="M13.2488 0.14225C13.3732 0.0387219 13.6202 -0.0200042 13.7795 0.0062334C14.4726 0.120413 14.857 0.502736 15.2204 1.04895C15.495 1.17298 15.6812 1.3198 15.8821 1.54108C15.9668 1.63455 16.0151 1.7561 16.1283 1.79136L16.0899 1.828C16.2034 2.05719 16.2796 2.2642 16.1693 2.52539C15.7466 3.52805 14.5431 4.1459 13.6201 4.60817C13.6029 4.61681 13.5711 4.63266 13.5567 4.63797C13.2255 4.75899 11.7711 5.33257 11.5488 4.8916C11.5771 4.83189 11.5528 4.70191 11.5452 4.62875C11.5249 4.36106 11.4879 4.20766 11.6867 4.00307C11.8529 3.79743 11.9951 3.84511 12.1327 3.71317C12.0836 3.50651 12.0139 3.05159 12.1508 2.87847L12.172 2.79574C12.2728 2.70474 12.3749 2.61521 12.4783 2.52719C12.546 2.40711 12.5898 2.37341 12.6905 2.28016C12.6327 1.6137 12.9271 1.75439 13.0297 1.4842C13.0761 1.40984 13.1506 1.3491 13.2063 1.27841C13.4263 0.999292 13.3897 0.8042 13.3632 0.484439C13.3126 0.317543 13.2171 0.334552 13.2488 0.14225Z" fill="#EE9EB8"/>
<path d="M13.2489 0.14225C13.3732 0.0387219 13.6202 -0.0200042 13.7796 0.0062334C14.4726 0.120413 14.857 0.502736 15.2204 1.04895C15.281 1.22204 15.3545 1.41426 15.3921 1.59186C15.2759 1.99071 15.1126 2.35198 14.6746 2.47136L14.6539 2.49838C14.637 2.61097 14.5644 2.65057 14.4598 2.7273C14.4447 2.73849 14.4292 2.74954 14.4139 2.76043C14.2452 2.74356 14.0193 2.85084 13.8528 2.91338C13.3031 3.01634 12.6935 3.14157 12.1508 2.87847L12.1721 2.79574C12.2729 2.70474 12.3749 2.61521 12.4783 2.52719C12.546 2.40711 12.5899 2.37341 12.6905 2.28016C12.6327 1.6137 12.9271 1.75439 13.0297 1.4842C13.0762 1.40984 13.1507 1.3491 13.2064 1.27841C13.4263 0.999292 13.3897 0.8042 13.3632 0.484439C13.3126 0.317543 13.2171 0.334552 13.2489 0.14225Z" fill="#FCFAF6"/>
<path d="M13.3633 0.485255C13.3126 0.318359 13.2171 0.335368 13.2489 0.143066L13.275 0.164368L13.4968 0.157795L13.5958 0.167909C13.9059 0.309936 14.2967 0.734835 14.3705 1.07828C14.4756 1.35413 14.4067 1.3941 14.2396 1.6245C14.1953 1.67244 14.0392 1.84867 13.9958 1.87359C13.769 2.07209 13.5809 2.19454 13.3236 2.3533L13.1671 2.41546C12.9881 2.47754 12.6459 2.63505 12.4783 2.52801C12.546 2.40792 12.5899 2.37423 12.6905 2.28098C12.6328 1.61452 12.9272 1.7552 13.0297 1.48502C13.0762 1.41065 13.1507 1.34992 13.2064 1.27922C13.4263 1.00011 13.3898 0.805016 13.3633 0.485255Z" fill="#F2A0B7"/>
<path d="M13.4128 1.30078C13.3874 1.3502 13.3655 1.39417 13.3426 1.44482L13.3572 1.47634C13.2297 1.61544 12.9257 1.75055 12.8881 1.92158C13.057 2.04834 13.7432 1.70583 13.9958 1.8731C13.769 2.0716 13.5809 2.19404 13.3236 2.35281L13.1671 2.41497C12.9881 2.47705 12.6459 2.63455 12.4783 2.52751C12.546 2.40743 12.5899 2.37373 12.6905 2.28048C12.6328 1.61402 12.9272 1.75471 13.0297 1.48452C13.0477 1.49112 13.0927 1.49762 13.1139 1.5014C13.2265 1.46998 13.3205 1.37695 13.4128 1.30078Z" fill="#DE86A4"/>
<path d="M13.3632 0.485255C13.3125 0.318359 13.217 0.335368 13.2488 0.143066L13.2749 0.164368C13.831 0.577436 14.0692 1.02337 13.3571 1.47684L13.3426 1.44532C13.3654 1.39466 13.3873 1.35069 13.4127 1.30128C13.3204 1.37744 13.2264 1.47048 13.1138 1.5019C13.0926 1.49811 13.0476 1.49162 13.0296 1.48502C13.0761 1.41065 13.1506 1.34992 13.2063 1.27922C13.4262 1.00011 13.3897 0.805016 13.3632 0.485255Z" fill="#C75E7B"/>
<path d="M13.3632 0.484863C13.619 0.72296 13.5404 1.02528 13.4127 1.30089C13.3204 1.37705 13.2264 1.47009 13.1138 1.5015C13.0926 1.49772 13.0476 1.49123 13.0296 1.48463C13.0761 1.41026 13.1506 1.34952 13.2063 1.27883C13.4262 0.999716 13.3897 0.804624 13.3632 0.484863Z" fill="#CBADAB"/>
<path d="M13.4968 0.157715L13.5958 0.167829C13.9059 0.309855 14.2967 0.734754 14.3704 1.0782C14.2731 1.06675 14.2363 0.827579 14.1105 0.695908C14.1156 0.74672 14.1159 0.758363 14.1339 0.807029L14.1468 0.840751L14.0907 0.915198C13.8836 0.640401 13.702 0.43989 13.4968 0.157715Z" fill="#FEA3AD"/>
<path d="M13.167 2.41519L13.3236 2.35303L13.304 2.37698C13.1257 2.59174 12.6184 2.816 12.3496 2.83899C12.3121 2.84213 12.2746 2.84443 12.237 2.84591C12.3466 2.95794 12.812 2.73259 12.957 2.70549C13.1014 2.6785 13.1972 2.54638 13.3386 2.51324C13.7929 2.5287 14.198 2.60124 14.6539 2.49892C14.637 2.61151 14.5644 2.65111 14.4598 2.72784C14.4447 2.73903 14.4292 2.75008 14.4139 2.76097C14.2452 2.7441 14.0193 2.85138 13.8528 2.91392C13.3031 3.01688 12.6935 3.14211 12.1508 2.87901L12.1721 2.79628C12.2729 2.70528 12.3749 2.61575 12.4783 2.52773C12.6459 2.63477 12.9881 2.47727 13.167 2.41519Z" fill="#C5BEBC"/>
<path d="M12.4783 2.52807C12.6459 2.63511 12.9881 2.47761 13.167 2.41553C13.02 2.58696 12.5475 2.77161 12.3251 2.79004C12.2742 2.79393 12.2231 2.79613 12.1721 2.79662C12.2729 2.70562 12.3749 2.61609 12.4783 2.52807Z" fill="#CBADAB"/>
<path d="M13.5958 0.16748C14.3927 0.235811 14.843 1.29798 14.2396 1.62407C14.4067 1.39367 14.4756 1.3537 14.3705 1.07786C14.2967 0.734406 13.9059 0.309507 13.5958 0.16748Z" fill="#F7D6D4"/>
<path d="M12.1508 2.87891C12.6935 3.14201 13.303 3.01677 13.8528 2.91381C13.8991 3.03392 13.9007 3.06021 13.9136 3.1859C13.7655 3.29235 13.6939 3.34614 13.5272 3.42477C13.3458 3.32843 13.0099 3.52744 12.8102 3.58815C12.5841 3.62856 12.3582 3.67038 12.1326 3.7136C12.0836 3.50695 12.0138 3.05203 12.1508 2.87891Z" fill="#DE86A4"/>
<path d="M12.8102 3.58772C13.01 3.52701 13.3458 3.328 13.5272 3.42434C13.4299 3.47456 13.176 3.61511 13.0803 3.62254C12.9046 3.74021 12.4077 3.76591 12.1863 3.80685C11.9925 3.84267 11.8518 3.95145 11.6867 4.00307C11.8529 3.79743 11.9951 3.84511 12.1327 3.71317C12.3583 3.66995 12.5841 3.62812 12.8102 3.58772Z" fill="#C75E7B"/>
<path d="M13.8528 2.91449C14.0194 2.85195 14.2452 2.74467 14.4139 2.76154C14.2978 2.86134 14.0258 3.10821 13.9137 3.18658C13.9008 3.06089 13.8992 3.0346 13.8528 2.91449Z" fill="#CBADAB"/>
<path d="M15.5746 2.5542L15.6117 2.56166L15.635 2.59664C15.5864 2.73502 15.3748 2.9252 15.2673 3.02806C14.9679 2.85328 15.4151 2.65488 15.5746 2.5542Z" fill="#F7D6D4"/>
<path d="M16.1283 1.79199C16.5944 1.8758 16.9321 2.10971 17.0726 2.57244C17.0885 2.92611 17.0933 3.19919 16.8186 3.46645C16.3093 3.96161 15.5041 4.66552 14.8591 4.94622C14.5522 4.90002 14.6947 4.9745 14.5308 5.06791C14.3795 5.15413 14.0751 5.19416 13.8973 5.26992C13.8101 5.31113 13.3203 5.25477 13.1802 5.26153C13.0182 5.26933 12.6482 5.37495 12.5274 5.30244C12.6242 5.11325 13.3466 4.87727 13.5567 4.63861C13.5711 4.6333 13.6029 4.61744 13.6201 4.60881C14.5431 4.14654 15.7466 3.52869 16.1693 2.52603C16.2795 2.26483 16.2034 2.05783 16.0899 1.82864L16.1283 1.79199Z" fill="#FBF3F0"/>
<path d="M14.206 5.86263C14.0475 6.00594 13.8214 6.1033 13.6704 6.25719L13.6722 6.28031C13.7205 6.23114 13.8734 6.24466 13.9365 6.21764C14.5314 5.96254 15.1676 5.99462 15.7901 5.8703C15.9615 5.83602 16.1779 5.66327 16.3654 5.62523C16.3222 5.66531 16.3147 5.66826 16.2841 5.72052C16.3402 5.74974 16.3869 5.765 16.4174 5.82416C16.6409 5.64299 16.8694 5.44031 17.0912 5.26611L17.1059 5.30788C16.926 5.46644 16.1229 6.1502 15.9226 6.21343C15.7619 6.24428 15.3714 6.46577 15.1987 6.54615C14.7746 6.74347 13.9488 7.03297 13.4947 7.05931C13.4134 7.07291 13.2096 7.09845 13.1508 7.13545C12.9415 7.06473 12.7077 7.09059 12.4731 6.98425L12.2903 6.92058L12.2244 6.87044C12.0229 6.71975 11.9553 6.57434 11.8233 6.36281C11.7947 6.35422 11.797 6.35248 11.7676 6.35138L11.7622 6.36377L11.7569 6.25973C11.8702 6.2089 12.4144 6.22966 12.6136 6.19707C13.0421 6.12699 13.3873 5.98604 13.7947 5.86987C13.94 5.9239 14.047 5.86212 14.206 5.86263Z" fill="#DE86A4"/>
<path d="M17.0726 2.57227C17.1539 2.597 17.2137 2.6117 17.2896 2.65186L17.2534 2.65575C17.2121 2.65986 17.2067 2.66069 17.1654 2.6494C17.0691 2.78311 17.1868 3.18195 17.1077 3.41552C16.9508 3.87736 16.5785 4.25576 16.1534 4.48393C16.0225 4.55433 15.8461 4.53008 15.6924 4.52528C15.2436 4.8207 14.4366 5.24534 13.8972 5.26975C14.075 5.19399 14.3795 5.15396 14.5307 5.06774C14.6946 4.97432 14.5522 4.89985 14.859 4.94604C15.5041 4.66534 16.3093 3.96144 16.8186 3.46628C17.0932 3.19902 17.0884 2.92594 17.0726 2.57227Z" fill="#F7D6D4"/>
<path d="M13.7947 5.87033C14.2323 5.7128 14.6526 5.5103 15.0484 5.26611L15.0645 5.28758C14.8205 5.46043 14.4055 5.70909 14.206 5.86309C14.0469 5.86258 13.9399 5.92436 13.7947 5.87033Z" fill="#C75E7B"/>
<path d="M28.3225 17.1938C28.613 17.223 30.5411 18.0817 30.7203 18.2493C30.7911 18.3742 30.8611 18.7445 30.8963 18.9036L31.2079 20.3573C31.2449 20.5313 31.3174 20.9162 31.367 21.0714C31.5022 21.1321 32.0536 21.3538 32.1217 21.3963C32.1665 21.5222 32.1845 21.8598 32.1974 22.0091C31.6009 22.3481 30.4186 22.9039 29.9221 23.2506C29.5718 23.6689 28.8085 24.1891 28.2699 24.2336C28.1868 24.24 28.1034 24.2425 28.0197 24.2411C27.5356 24.4431 26.8623 24.8193 26.3844 25.0677L23.7253 26.4453C23.4587 26.5845 22.4486 27.127 22.2343 27.1847C22.2325 26.9837 22.2319 26.7828 22.2325 26.5821C21.9937 26.4437 21.3648 26.1995 21.0867 26.0853C21.4187 26.1437 21.6121 26.1904 21.9503 26.1684L22.0265 26.1781C22.0659 25.6571 21.8787 24.6433 21.8173 24.0995C21.773 23.7053 21.7518 23.2558 21.7027 22.873C21.5145 22.7018 19.9532 21.9609 19.6394 21.7929L19.6166 21.7997L19.6474 21.7138C19.8564 21.5801 20.2828 21.3544 20.5076 21.2687C20.547 21.2167 20.7321 21.1378 20.7981 21.1073C20.838 21.056 20.9509 21.0165 21.0118 20.9984C21.162 20.8969 21.5721 20.6899 21.7411 20.6295C21.7832 20.5515 22.1477 20.3986 22.248 20.3556C22.2912 20.3045 22.5782 20.1633 22.6493 20.1418C22.7858 20.046 22.8442 20.0204 22.9985 19.9521C23.061 19.8776 23.6092 19.6213 23.7216 19.5763C23.7723 19.5192 23.9909 19.4258 24.0719 19.3892C24.1008 19.3538 24.1596 19.3329 24.2052 19.3104C24.3779 19.2077 24.7212 19.0389 24.9047 18.9615C24.9376 18.9174 25.009 18.8993 25.064 18.8786C25.1174 18.8197 25.3885 18.7028 25.4652 18.6693C25.4717 18.6623 25.5079 18.6469 25.5183 18.6419C25.69 18.5221 25.9982 18.3739 26.1918 18.2909C26.2519 18.2321 26.2621 18.2337 26.3463 18.2107C26.504 18.1142 26.5864 18.0682 26.7551 17.9948C26.7913 17.951 26.8851 17.9187 26.9412 17.8942C27.1094 17.8042 27.2231 17.7484 27.3982 17.6724C27.4293 17.6387 27.4803 17.6207 27.5248 17.5989C27.6984 17.5037 27.7979 17.4486 27.9859 17.3778C28.0701 17.3067 28.2192 17.2432 28.3225 17.1938Z" fill="#A1C1C8"/>
<path d="M28.3225 17.1938C28.613 17.223 30.5411 18.0817 30.7203 18.2493C30.1101 18.5209 29.4039 18.8903 28.8023 19.1935L24.9114 21.1857L22.7034 22.3164C22.4095 22.466 22.1166 22.6145 21.8183 22.7555C21.8138 22.7576 21.7416 22.8476 21.7027 22.873C21.5145 22.7018 19.9532 21.9609 19.6394 21.7929L19.6166 21.7997L19.6474 21.7138C19.8564 21.5801 20.2828 21.3544 20.5076 21.2687C20.547 21.2167 20.7321 21.1378 20.7981 21.1073C20.838 21.056 20.9509 21.0165 21.0118 20.9984C21.162 20.8969 21.5721 20.6899 21.7411 20.6295C21.7832 20.5515 22.1477 20.3986 22.248 20.3556C22.2912 20.3045 22.5782 20.1633 22.6493 20.1418C22.7858 20.046 22.8442 20.0204 22.9985 19.9521C23.061 19.8776 23.6092 19.6213 23.7216 19.5763C23.7723 19.5192 23.9909 19.4258 24.0719 19.3892C24.1008 19.3538 24.1596 19.3329 24.2052 19.3104C24.3779 19.2077 24.7212 19.0389 24.9047 18.9615C24.9376 18.9174 25.009 18.8993 25.064 18.8786C25.1174 18.8197 25.3885 18.7028 25.4652 18.6693C25.4717 18.6623 25.5079 18.6469 25.5183 18.6419C25.69 18.5221 25.9982 18.3739 26.1918 18.2909C26.2519 18.2321 26.2621 18.2337 26.3463 18.2107C26.504 18.1142 26.5864 18.0682 26.7551 17.9948C26.7913 17.951 26.8851 17.9187 26.9412 17.8942C27.1094 17.8042 27.2231 17.7484 27.3982 17.6724C27.4293 17.6387 27.4803 17.6207 27.5248 17.5989C27.6984 17.5037 27.7979 17.4486 27.9859 17.3778C28.0701 17.3067 28.2192 17.2432 28.3225 17.1938Z" fill="#B3DEEB"/>
<path d="M19.6474 21.7137C19.8564 21.58 20.2828 21.3543 20.5076 21.2686C20.3295 21.4696 19.8151 21.5919 19.6394 21.7928L19.6166 21.7996L19.6474 21.7137Z" fill="#829FA6"/>
<path d="M24.9047 18.9614C24.8256 19.082 24.342 19.3226 24.2052 19.3103C24.3779 19.2076 24.7212 19.0388 24.9047 18.9614Z" fill="#A1C1C8"/>
<path d="M21.0119 20.9983C21.1621 20.8968 21.5722 20.6898 21.7412 20.6294C21.6044 20.7474 21.1865 20.9721 21.0119 20.9983Z" fill="#829FA6"/>
<path d="M26.1919 18.291C26.1039 18.4015 25.6541 18.6277 25.5184 18.642C25.6901 18.5222 25.9983 18.374 26.1919 18.291Z" fill="#A1C1C8"/>
<path d="M21.7411 20.6294C21.7833 20.5514 22.1478 20.3986 22.2481 20.3555C22.1797 20.44 21.8428 20.6432 21.7411 20.6294Z" fill="#A1C1C8"/>
<path d="M26.9413 17.8941C27.1095 17.8041 27.2232 17.7483 27.3983 17.6724C27.3272 17.7913 27.1119 17.8744 26.9812 17.9142L26.9413 17.8941Z" fill="#A1C1C8"/>
<path d="M27.5249 17.5986C27.6984 17.5034 27.7979 17.4483 27.986 17.3774C27.8921 17.4747 27.6614 17.6156 27.5249 17.5986Z" fill="#A1C1C8"/>
<path d="M25.4653 18.6689C25.3951 18.7478 25.1676 18.9042 25.0641 18.8782C25.1175 18.8194 25.3886 18.7024 25.4653 18.6689Z" fill="#829FA6"/>
<path d="M23.7216 19.5763C23.7723 19.5192 23.9909 19.4258 24.0719 19.3892C24.0188 19.4817 23.8227 19.5995 23.7216 19.5763Z" fill="#A1C1C8"/>
<path d="M26.7551 17.9946C26.6615 18.1191 26.4987 18.1924 26.3463 18.2105C26.504 18.114 26.5864 18.068 26.7551 17.9946Z" fill="#A1C1C8"/>
<path d="M22.6494 20.1423C22.7859 20.0465 22.8443 20.0209 22.9986 19.9526C22.9114 20.0773 22.7945 20.1179 22.6494 20.1423Z" fill="#A1C1C8"/>
<path d="M20.5076 21.2688C20.5471 21.2169 20.7321 21.1379 20.7981 21.1074C20.7316 21.1778 20.6098 21.2826 20.5076 21.2688Z" fill="#829FA6"/>
<path d="M31.3671 21.0713C31.5022 21.1319 32.0537 21.3536 32.1218 21.3962C32.1666 21.5221 32.1846 21.8597 32.1974 22.0089C31.6009 22.3479 30.4187 22.9037 29.9222 23.2505C29.5719 23.6688 28.8086 24.1889 28.27 24.2335C28.1869 24.2399 28.1034 24.2423 28.0198 24.241C27.5356 24.443 26.8624 24.8191 26.3845 25.0675L23.7254 26.4451C23.4588 26.5844 22.4487 27.1268 22.2344 27.1845C22.2325 26.9836 22.232 26.7826 22.2325 26.582C21.9938 26.4435 21.3649 26.1994 21.0867 26.0851C21.4188 26.1436 21.6122 26.1903 21.9504 26.1683L22.0265 26.1779C22.1888 26.2158 23.1635 25.6736 23.3652 25.5697L25.3889 24.5299L31.3925 21.4232C31.3735 21.3111 31.3721 21.1855 31.3671 21.0713Z" fill="#EEE8E2"/>
<path d="M31.3671 21.0713C31.5022 21.1319 32.0537 21.3536 32.1218 21.3962C32.0204 21.517 30.4334 22.3086 30.1866 22.4373L25.5299 24.8551C24.5059 25.3812 23.2247 26.0138 22.2325 26.582C21.9938 26.4435 21.3649 26.1994 21.0867 26.0851C21.4188 26.1436 21.6122 26.1903 21.9504 26.1683L22.0265 26.1779C22.1888 26.2158 23.1635 25.6736 23.3652 25.5697L25.3889 24.5299L31.3925 21.4232C31.3735 21.3111 31.3721 21.1855 31.3671 21.0713Z" fill="#FCFAF6"/>
<path d="M28.0198 24.2405C28.443 23.9811 29.4609 23.447 29.9222 23.25C29.5719 23.6683 28.8086 24.1884 28.27 24.233C28.1869 24.2394 28.1035 24.2418 28.0198 24.2405Z" fill="#382745"/>
<path d="M22.9699 23.4329C23.1486 23.1264 23.2816 22.9547 23.6356 22.8643C23.8671 22.933 24.0664 22.9945 24.1804 23.2216C24.4081 23.6741 24.1906 24.182 23.8819 24.513C23.8939 24.6367 23.7569 24.8489 23.6702 24.9364C23.4685 25.1408 23.0786 25.2505 22.8704 24.9922C22.691 24.7698 22.7412 24.4261 22.765 24.1621L22.861 23.7744L22.9699 23.4329Z" fill="#F3D8A3"/>
<path d="M22.765 24.1621L22.7924 24.2187L22.8079 24.2112L22.8128 24.2413C22.8482 24.4537 23.1413 24.7668 23.3261 24.6482C23.3428 24.6525 23.3594 24.656 23.3763 24.6595C23.5884 24.7008 23.7153 24.6238 23.8819 24.513C23.8939 24.6367 23.7569 24.8489 23.6702 24.9364C23.4685 25.1408 23.0786 25.2505 22.8704 24.9922C22.691 24.7698 22.7412 24.4261 22.765 24.1621Z" fill="#829FA6"/>
<path d="M22.9698 23.4326C23.2077 23.9156 22.8188 24.0663 23.2981 24.6241L23.326 24.648C23.1412 24.7665 22.848 24.4535 22.8126 24.241L22.8078 24.2109L22.7923 24.2185L22.7649 24.1619L22.8609 23.7742L22.9698 23.4326Z" fill="#E0B578"/>
<path d="M22.8609 23.7744C22.8604 24.1114 22.8926 24.535 23.2981 24.6243L23.326 24.6482C23.1412 24.7668 22.848 24.4537 22.8126 24.2412L22.8078 24.2112L22.7923 24.2187L22.7649 24.1621L22.8609 23.7744Z" fill="#679EBB"/>
<path d="M29.1905 20.1657C29.4195 19.7598 29.7427 19.5765 30.1756 19.8426C30.1882 19.8505 30.2008 19.8587 30.2134 19.8672C30.6123 20.461 30.38 20.7991 30.0479 21.3179C29.6617 22.4927 28.6492 21.9689 29.0451 20.587C29.0861 20.442 29.1382 20.3066 29.1905 20.1657Z" fill="#F3D8A3"/>
<path d="M30.0479 21.3188C29.6617 22.4936 28.6492 21.9698 29.0451 20.5879C29.0649 20.9212 29.1175 21.3407 29.4938 21.4538C29.7481 21.5354 29.8382 21.4585 30.0479 21.3188Z" fill="#829FA6"/>
<path d="M29.1905 20.166C29.3348 20.5444 29.1594 20.7784 29.3157 21.1605C29.3796 21.3167 29.4343 21.3434 29.4938 21.4532C29.1175 21.3402 29.065 20.9206 29.0451 20.5873C29.0861 20.4423 29.1382 20.307 29.1905 20.166Z" fill="#E0B578"/>
<path d="M27.663 20.6738C27.7615 20.6195 27.7499 20.6031 27.8382 20.6253C27.9028 20.7175 27.9068 20.7709 27.887 20.8924L27.8272 20.9465C27.8261 21.0559 27.7853 21.1549 27.703 21.2161C27.2902 21.5232 25.6112 22.4123 25.1746 22.5056C25.1665 22.3427 25.1418 22.1014 25.1941 21.9523C25.3317 21.8417 26.9778 21.0034 27.2073 20.9009C27.3656 20.8109 27.4986 20.7494 27.663 20.6738Z" fill="#EEE8E2"/>
<path d="M27.8272 20.9453C27.8261 21.0547 27.7853 21.1537 27.703 21.2149C27.2902 21.5219 25.6112 22.4111 25.1746 22.5044C25.1665 22.3415 25.1418 22.1002 25.1941 21.9511C25.2204 22.0487 25.2317 22.1243 25.292 22.2045C25.3103 22.2094 25.3288 22.2143 25.347 22.2192C26.0079 21.9351 27.2441 21.2679 27.8272 20.9453Z" fill="#679EBB"/>
<path d="M27.663 20.6738L27.671 20.7308C27.557 20.8204 27.3529 20.941 27.2073 20.9009C27.3655 20.8108 27.4986 20.7494 27.663 20.6738Z" fill="#FCFAF6"/>
<path d="M25.3019 22.6831C25.3062 22.6679 25.3105 22.6528 25.3148 22.6376C25.5192 22.5042 25.9035 22.3237 26.1355 22.2106C26.6492 21.96 27.4087 21.4858 27.925 21.3076C27.9513 21.4222 27.9961 21.5499 27.9267 21.6479C27.9146 21.7607 27.8741 21.822 27.8212 21.9203C27.394 22.1696 25.8035 23.0239 25.3604 23.1276L25.3118 23.1203C25.2244 23.0416 25.2317 22.78 25.3019 22.6831Z" fill="#EEE8E2"/>
<path d="M27.9267 21.6484C27.9147 21.7612 27.8742 21.8225 27.8213 21.9208C27.3941 22.1701 25.8036 23.0244 25.3605 23.1281C25.4122 23.0831 25.4289 23.0661 25.4745 23.0146L25.4675 22.9477C25.5429 22.8681 27.6395 21.8012 27.9267 21.6484Z" fill="#679EBB"/>
<path d="M25.3019 22.6831C25.3502 22.8017 25.3647 22.8804 25.4674 22.9472L25.4744 23.0141C25.4288 23.0656 25.4122 23.0826 25.3604 23.1276L25.3118 23.1203C25.2244 23.0416 25.2317 22.78 25.3019 22.6831Z" fill="#648CA7"/>
<path d="M28.0154 22.0083C28.0245 22.0988 28.0497 22.2485 28.0245 22.3265L27.9827 22.3652C27.9859 22.4742 28.0028 22.4793 27.9548 22.568C27.5997 22.7801 27.1287 23.0074 26.757 23.2018C26.342 23.4187 25.8373 23.6932 25.4092 23.8708C25.4054 23.7356 25.3808 23.5059 25.4537 23.4L25.428 23.3707C25.4719 23.2683 26.2573 22.8924 26.4029 22.8285C26.6405 22.6738 27.3921 22.3019 27.664 22.1807C27.7539 22.1126 27.9076 22.0546 28.0154 22.0083Z" fill="#EEE8E2"/>
<path d="M27.9827 22.3652C27.9859 22.4742 28.0028 22.4793 27.9548 22.568C27.5997 22.78 27.1287 23.0074 26.757 23.2018C26.342 23.4187 25.8373 23.6932 25.4092 23.8708C25.4054 23.7356 25.3808 23.5059 25.4537 23.4C25.4711 23.4782 25.4795 23.5825 25.5505 23.6183C26.3565 23.223 27.1864 22.7822 27.9827 22.3652Z" fill="#679EBB"/>
<path d="M26.403 22.8279C26.6406 22.6732 27.3921 22.3014 27.6641 22.1802C27.5855 22.3832 26.6285 22.8559 26.403 22.8279Z" fill="#FCFAF6"/>
<path d="M26.0001 11.3554L26.0854 11.2935L26.131 11.3021C26.1906 11.4146 26.3247 11.9819 26.3638 12.1338L26.7989 13.8322L27.2701 15.6774C27.3332 15.9243 27.4713 16.4044 27.5051 16.6364L27.4866 16.6878C27.415 16.705 27.4142 16.7055 27.3407 16.704L27.1851 16.737C26.5797 16.9862 25.6169 17.5303 25.0016 17.8466C23.3438 18.6976 21.6913 19.5593 20.0445 20.4314C19.7508 19.004 19.3812 17.5762 19.0687 16.1511C18.9832 15.7617 18.8879 15.2425 18.7587 14.8737L22.6773 12.9488C23.3228 12.6324 24.0492 12.2462 24.7025 11.9639L25.9266 11.3807L26.0001 11.3554Z" fill="#A1C1C8"/>
<path d="M26.0001 11.3554L26.0854 11.2935L26.131 11.3021C26.1906 11.4146 26.3247 11.9819 26.3638 12.1338L26.7989 13.8322L27.2701 15.6774C27.3331 15.9243 27.4713 16.4044 27.5051 16.6364L27.4866 16.6878C27.415 16.705 27.4141 16.7055 27.3407 16.704L27.1851 16.737C26.9373 15.5115 26.6028 14.2943 26.2799 13.0868C26.1686 12.6961 26.1192 12.2964 25.9518 11.9229C25.9567 11.9338 25.8786 11.4803 25.8773 11.4619C25.6182 11.5092 24.8777 12.0248 24.7025 11.9639L25.9266 11.3807L26.0001 11.3554Z" fill="#829FA6"/>
<path d="M26.0001 11.3554L26.0854 11.2935L26.1309 11.3021C26.1905 11.4146 26.3246 11.9819 26.3638 12.1338L26.7988 13.8322L27.27 15.6774C27.3331 15.9243 27.4712 16.4044 27.505 16.6364L27.4865 16.6878C27.4149 16.705 27.4141 16.7055 27.3406 16.704C27.3406 16.5131 27.0616 15.497 26.9992 15.2518L26.2347 12.2509C26.1897 12.0875 26.0668 11.4362 26.0001 11.3554Z" fill="#C5BEBC"/>
<path d="M25.9266 11.3813L26.0001 11.356C26.0669 11.4368 26.1898 12.088 26.2348 12.2514L26.2152 12.291L26.1946 12.2807C26.0996 12.0474 25.9561 11.6254 25.9266 11.3813Z" fill="#648CA7"/>
</svg>
