<svg width="66" height="42" viewBox="0 0 66 42" fill="none" xmlns="http://www.w3.org/2000/svg">
<path d="M25.9615 0.761258C25.307 0.613641 24.436 0.208058 23.652 0C22.917 0.161229 21.216 0.884839 20.4314 1.2093C19.2121 1.71329 17.9037 2.1845 16.6979 2.68839L16.6088 2.79274C16.1168 3.21598 16.2043 3.86365 16.2146 4.46077C15.3603 4.81104 14.4261 5.09634 13.5491 5.39616L8.2793 7.19101C7.69773 7.39426 6.32775 7.79153 5.87038 8.08968C5.79478 8.16 2.81993 14.8746 2.59259 15.5201C2.10011 15.7531 1.58225 15.893 1.29497 16.3234C1.18967 16.8874 1.19616 17.5051 1.19886 18.0807C1.20102 18.5378 1.10274 19.2315 1.49855 19.5094C1.70159 19.5151 1.81607 19.587 2.00129 19.672C1.98941 19.9318 1.96835 20.2219 1.99103 20.4781C2.07149 20.5073 2.23673 20.5568 2.29127 20.6067L2.33771 21.0751C2.37119 21.4725 2.40035 21.8702 2.42573 22.2682C2.43977 22.4827 2.46137 22.7127 2.44787 22.9259C2.91767 23.3578 4.97182 24.264 5.64951 24.5685L5.79045 24.6624C5.94813 24.8304 6.09231 24.9891 6.26673 25.1402C6.56643 25.1316 6.83967 25.0676 7.12911 24.9985C7.06809 26.6906 7.37373 28.1419 8.5628 29.435C9.52562 30.4827 10.4301 30.6702 11.7671 30.3383C12.7316 30.0642 14.0675 29.6438 14.5012 28.6831C17.0764 29.6745 19.6619 30.7779 22.2409 31.7622L22.3786 31.8278C25.0619 32.9587 27.7921 34.0185 30.4797 35.1356C31.4268 35.5293 32.6348 35.9584 33.5365 36.3606L33.6654 36.4358L33.9617 36.5775C34.1295 36.6451 34.1411 36.6547 34.3532 36.5954C34.6196 36.4926 34.6914 36.4545 34.9333 36.3016C34.9951 37.1556 35.1087 37.9277 35.5069 38.6987C36.3873 40.4034 37.8274 41.8123 39.8414 41.0223C41.8773 40.3638 41.8752 40.3303 42.9036 38.5839L42.9233 38.5509C43.9827 38.8513 45.1671 39.5175 46.3258 39.5552C46.5422 39.5623 46.7652 39.5122 46.9559 39.4327C48.2022 38.9134 51.0247 37.8585 52.1405 37.3865C53.4804 36.8196 64.4196 32.6855 64.9198 32.2493C65.1173 31.8579 65.0353 31.1091 65.0492 30.6009C65.0127 30.2685 64.9705 30.2371 64.684 30.083C64.4071 29.933 64.0621 29.8383 63.7585 29.7421C63.7903 29.1116 63.8353 27.3074 63.7269 26.7467L63.6811 26.3298C63.3702 25.7223 62.8287 25.6112 62.2251 25.3374L59.9976 24.3263L50.8377 20.2278L50.3274 20.1241C50.1286 19.7417 49.9559 19.3955 49.7175 19.0348L49.7992 18.9571C50.0705 18.8662 50.338 18.7647 50.6014 18.6529C50.6611 18.148 50.6329 17.5839 50.6543 17.0641C50.463 16.9178 50.2311 16.8603 50.0006 16.7845C49.6085 16.9535 49.2195 17.128 48.8744 17.3853C48.7535 17.2472 48.1876 16.2157 48.0733 16.0121L46.3702 12.9638C46.1859 12.6266 45.89 11.9824 45.6371 11.7582C45.285 11.5056 44.3764 11.2006 43.9342 11.008C42.5388 10.4003 40.9191 9.86444 39.5589 9.2038C39.5582 9.12851 39.5031 8.90149 39.4846 8.81518C39.2605 8.42397 38.9144 7.82529 38.4679 7.69938L36.7279 6.9385C36.7132 6.92997 36.63 6.83383 36.6122 6.81395C36.6386 6.39724 36.6429 5.68783 36.5117 5.30731C36.1368 4.84096 34.7498 4.50171 34.083 4.21042C33.7713 3.99274 33.3368 3.83611 32.9658 3.75952C32.6964 3.69027 31.7244 3.30818 31.4349 3.17872C30.4646 2.74407 29.5379 3.25174 28.4093 3.46126L28.2705 3.4349C28.0897 2.87711 28.3256 2.41708 27.7921 1.72744C27.4865 1.37576 27.2705 1.50183 27.0496 1.24068C26.9368 1.13659 26.8957 1.12552 26.7542 1.05881C26.4335 0.905148 26.3055 0.859832 25.9615 0.761258Z" fill="#F7C499"/>
<path d="M45.6371 11.7588C41.8908 13.3442 37.8285 14.7056 34.0555 16.2658C32.9583 16.7195 31.4414 17.2306 30.4116 17.7242C30.5002 17.8884 30.5574 17.9549 30.5439 18.1399C30.3803 18.3243 30.2572 18.2765 30.1422 18.5213C30.1449 18.6963 30.1875 18.7598 30.2599 18.9205C30.2464 18.9779 30.2507 19.0042 30.2183 19.0409C30.4791 19.875 30.7621 20.6812 31.0343 21.5093C31.402 22.5062 31.7541 23.5087 32.0916 24.5163C32.2212 24.8955 32.55 25.7812 32.61 26.1419L32.7223 26.2905C32.5398 26.3575 32.5149 26.3671 32.327 26.3231C32.3464 26.4676 32.3648 26.5819 32.367 26.7286L32.3675 27.266C32.0937 27.1445 32.1159 27.267 31.7708 27.0213L31.6731 27.0592C31.5338 27.4893 31.3712 27.9172 31.1185 28.296C30.9203 28.308 25.7158 26.1311 25.0559 25.8897L25.0019 26.0083C24.6596 25.9984 23.6433 25.7333 23.463 25.4102L23.4306 25.3727L23.4565 25.2664C23.3366 25.1525 22.37 24.7717 22.1545 24.6825C22.2312 25.2803 22.2453 26.0858 22.2712 26.6985C22.3176 27.7297 22.3538 28.7612 22.3808 29.7932L22.275 29.8188C20.959 29.3746 19.258 28.5438 17.9085 28.0582C17.388 27.871 14.9526 26.9153 14.6232 26.686L14.5795 26.9575C14.4601 26.9439 14.3575 26.921 14.242 26.9428L14.2015 26.8851C14.1334 27.2683 14.3078 28.1916 14.3867 28.6012L14.5012 28.6836C17.0764 29.675 19.6619 30.7784 22.2409 31.7627L22.3786 31.8284C25.0619 32.9592 27.7921 34.019 30.4797 35.1362C31.4268 35.5298 32.6348 35.959 33.5365 36.3611L33.6654 36.4364L33.9617 36.5781C34.1295 36.6457 34.1411 36.6553 34.3532 36.596C34.6196 36.4931 34.6914 36.455 34.9333 36.3022C34.9951 37.1561 35.1087 37.9283 35.5069 38.6993C36.3873 40.4039 37.8274 41.8128 39.8414 41.0229C41.8773 40.3644 41.8752 40.3309 42.9036 38.5845L42.9233 38.5514C43.9827 38.8518 45.1671 39.5181 46.3258 39.5558C46.5422 39.5628 46.7652 39.5127 46.9559 39.4333C48.2022 38.9139 51.0247 37.8591 52.1405 37.3871C53.4804 36.8202 64.4196 32.686 64.9198 32.2498C65.1173 31.8584 65.0353 31.1096 65.0492 30.6014C65.0127 30.269 64.9705 30.2377 64.684 30.0835C64.4071 29.9335 64.0621 29.8388 63.7585 29.7426C63.7903 29.1122 63.8353 27.308 63.7269 26.7472L63.6811 26.3303C63.3702 25.7229 62.8287 25.6118 62.2251 25.338L59.9976 24.3268L50.8377 20.2283L50.3274 20.1246C50.1286 19.7422 49.9559 19.3961 49.7175 19.0354L49.7992 18.9576C50.0705 18.8667 50.338 18.7652 50.6014 18.6535C50.6611 18.1485 50.6329 17.5844 50.6543 17.0647C50.463 16.9183 50.2311 16.8609 50.0006 16.785C49.6085 16.9541 49.2195 17.1286 48.8744 17.3859C48.7535 17.2477 48.1876 16.2163 48.0733 16.0127L46.3702 12.9644C46.1859 12.6272 45.89 11.983 45.6371 11.7588Z" fill="#FEE5BC"/>
<path d="M22.154 24.6812C22.2307 25.279 22.2448 26.0846 22.2707 26.6972C22.3171 27.7285 22.3533 28.76 22.3803 29.792L22.2745 29.8176C20.9584 29.3734 19.2574 28.5426 17.9079 28.057C17.3874 27.8698 14.9519 26.914 14.6225 26.6847L14.5788 26.9562C14.4594 26.9426 14.3568 26.9198 14.2413 26.9416L14.2008 26.8838C14.1327 27.2671 14.3071 28.1903 14.386 28.6L14.5005 28.6824C17.0758 29.6738 19.6613 30.7773 22.2404 31.7616L22.3781 31.8272C25.0614 32.9581 27.7917 34.0179 30.4794 35.1351C31.4265 35.5288 32.6345 35.9579 33.5363 36.3601L33.6652 36.4353L33.9615 36.577C34.1292 36.6447 34.1409 36.6543 34.353 36.595C34.6194 36.4921 34.6912 36.454 34.933 36.3011C34.9949 37.1551 35.1085 37.9273 35.5067 38.6983C36.3871 40.403 37.8272 41.8119 39.8414 41.022C41.8773 40.3634 41.8752 40.3299 42.9036 38.5835L42.9233 38.5504L42.8408 38.4312C42.6565 37.9976 42.5905 37.5865 42.4365 37.1557C42.3723 36.9762 42.2126 36.8379 42.2435 36.655C42.5103 36.547 43.2581 36.9577 43.6677 37.0606L43.6262 36.8456L43.7341 36.7189L43.8586 36.7738C44.0139 36.7814 44.3028 36.761 44.4146 36.793C45.077 36.3914 45.3362 36.5722 46.0553 36.6778L46.1721 36.5687C45.8877 36.4655 45.3437 36.3967 44.9945 36.2979C45.0781 36.1267 44.9884 34.2101 45.0338 33.7347L44.928 33.6504L44.9148 33.6205C45.3605 33.579 45.9422 33.7824 46.2128 33.6586L46.2557 33.5066C46.2707 33.2449 46.2661 33.1832 46.3764 32.9418C45.543 32.6793 43.6843 31.7264 42.7937 31.3096L36.256 28.2689C35.8946 28.0967 34.0045 27.1411 33.7575 27.1175C33.4629 27.0671 33.1454 27.0719 33.1292 27.4476C33.3339 27.8702 33.7199 27.8038 33.7145 28.0095C33.5022 27.9726 33.1665 27.7939 32.958 27.6936C32.9186 27.5992 32.9181 27.6466 32.9429 27.5508C32.7598 27.4311 32.7296 27.4149 32.5206 27.3545C32.4877 27.3419 32.4018 27.2859 32.3672 27.2647C32.0935 27.1433 32.1156 27.2658 31.7705 27.0201L31.6728 27.058C31.5335 27.4881 31.3709 27.916 31.1182 28.2948C30.92 28.3067 25.7154 26.1298 25.0555 25.8884L25.0015 26.007C24.6591 25.9971 23.6428 25.7321 23.4625 25.4089L23.4301 25.3715L23.456 25.2651C23.3361 25.1512 22.3695 24.7704 22.154 24.6812Z" fill="#E5A86E"/>
<path d="M40.3113 35.4425C40.0537 35.1901 39.8538 34.7967 39.4258 34.4288C38.5031 33.6355 37.5476 33.0879 36.3061 33.128C35.5989 33.3427 34.5675 33.8437 34.3769 34.6453L34.0193 34.7433C33.8033 35.0995 33.9676 36.1198 33.9614 36.5782C34.1292 36.6458 34.1408 36.6554 34.3529 36.5961C34.6193 36.4933 34.6912 36.4552 34.933 36.3023C34.9949 37.1563 35.1084 37.9284 35.5066 38.6994C36.3871 40.4041 37.8272 41.8131 39.8413 41.0231C41.8772 40.3646 41.8751 40.3311 42.9035 38.5847L42.9232 38.5516L42.8408 38.4324L42.6932 38.5006C42.4238 38.4696 42.3358 38.4373 42.0805 38.354L41.5979 38.2053L41.542 38.1883C41.1067 37.1411 41.1239 36.9158 40.5277 35.7962L40.3113 35.4425Z" fill="#423B44"/>
<path d="M40.3115 35.4425C40.0539 35.1901 39.854 34.7967 39.426 34.4288C38.5033 33.6355 37.5477 33.0879 36.3063 33.128C35.5991 33.3427 34.5677 33.8437 34.3771 34.6453L34.0195 34.7433C33.8035 35.0995 33.9677 36.1198 33.9616 36.5782C34.1294 36.6458 34.141 36.6554 34.3531 36.5961C34.6195 36.4933 34.6914 36.4552 34.9332 36.3023C35.0688 35.3559 35.1166 34.6431 35.9638 34.0208C36.4119 33.6883 36.9754 33.5511 37.5261 33.6405C39.4053 33.9448 40.5561 36.1419 40.8872 37.8447C40.9698 38.0809 40.9308 38.081 41.0992 38.2247C41.2957 38.2544 41.3464 38.2344 41.5421 38.1883C41.1069 37.1411 41.1241 36.9158 40.5279 35.7962L40.3115 35.4425Z" fill="#120E11"/>
<path d="M34.3771 34.645L34.0196 34.7431C33.8035 35.0993 33.9678 36.1196 33.9616 36.578C34.1294 36.6456 34.1411 36.6552 34.3531 36.5959C34.3719 35.9097 34.2159 35.3452 34.3771 34.645Z" fill="#35262C"/>
<path d="M41.542 38.1878C41.3463 38.234 41.2956 38.254 41.099 38.2242C40.9306 38.0806 40.9697 38.0804 40.887 37.8442C40.933 39.4473 40.6988 39.7539 39.8413 41.0227C41.8772 40.3642 41.8751 40.3307 42.9035 38.5842L42.9232 38.5512L42.8408 38.432L42.6932 38.5001C42.4238 38.4692 42.3358 38.4369 42.0805 38.3535L41.5979 38.2049L41.542 38.1878Z" fill="#35262C"/>
<path d="M37.4343 34.8623C34.8707 34.7493 35.6725 39.5879 38.3996 40.0269C40.796 39.9702 40.1945 35.4703 37.4343 34.8623Z" fill="#ECE3D7"/>
<path d="M37.6322 35.0755C36.1559 34.9741 35.8888 36.5305 36.2332 37.659C36.4914 38.5056 37.4378 39.0756 38.1909 39.4672C38.4168 39.4911 38.6714 39.477 38.9016 39.4714C40.6514 38.2145 39.2206 35.6896 37.6322 35.0755Z" fill="#CCC3BA"/>
<path d="M37.9467 35.9404C37.7827 35.9636 37.6752 35.9901 37.5238 36.0623C37.2934 36.1732 37.1196 36.3754 37.0447 36.62C36.7877 37.453 37.3963 38.3031 38.2047 38.5428C38.862 38.4115 39.0085 38.0584 39.1916 37.4805C38.999 36.7053 38.7776 36.1311 37.9467 35.9404Z" fill="#625A61"/>
<path d="M37.865 36.1265L37.7451 36.189C37.7913 36.2773 38.2811 36.5903 38.4197 36.696L38.442 36.7115L38.4954 36.6922C38.4134 36.4372 38.0891 36.2446 37.865 36.1265Z" fill="#776B70"/>
<path d="M14.6228 26.6855L14.579 26.9571C14.4597 26.9435 14.3571 26.9206 14.2415 26.9424L14.201 26.8846C14.133 27.2679 14.3074 28.1912 14.3863 28.6008L14.5007 28.6833C17.0761 29.6747 19.6616 30.7781 22.2407 31.7625L22.3784 31.8281C25.0617 32.959 27.792 34.0188 30.4796 35.136C31.4268 35.5296 32.6348 35.9588 33.5365 36.3609L33.6655 36.4362L33.9617 36.5779C33.9679 36.1195 33.8036 35.0992 34.0197 34.743L33.9773 34.7434L33.711 34.8214L33.7375 34.5635C33.5881 34.3464 23.6312 30.3646 22.4621 29.9006L22.3806 29.7928L22.2747 29.8185C20.9587 29.3742 19.2577 28.5435 17.9082 28.0578C17.3876 27.8706 14.9522 26.9149 14.6228 26.6855Z" fill="#6F564E"/>
<path d="M33.7375 34.5632C33.588 34.3461 23.6312 30.3643 22.4621 29.9004L22.3735 30.2158C22.7202 30.1975 33.3568 34.5453 33.5156 34.8167L33.6469 34.8691L33.711 34.8212L33.7375 34.5632Z" fill="#B37A50"/>
<path d="M14.623 26.6855L14.5793 26.9571C16.5606 27.8079 20.0075 29.171 22.1275 30.0761C22.1502 30.1156 22.1729 30.155 22.1956 30.1945C22.2701 30.126 22.3905 29.9815 22.4623 29.9006L22.3808 29.7928L22.275 29.8185C20.9589 29.3742 19.2579 28.5435 17.9084 28.0578C17.3879 27.8706 14.9524 26.9149 14.623 26.6855Z" fill="#B37A50"/>
<path d="M33.5155 34.8163C33.3567 34.5448 22.7201 30.1971 22.3735 30.2154L22.4059 30.3374C22.6564 30.4696 23.5491 30.7854 23.8779 30.9155L27.2173 32.2508C28.4615 32.7524 29.6987 33.2708 30.9288 33.8059C31.4251 34.0191 33.0333 34.712 33.5155 34.8163Z" fill="#CEB3AA"/>
<path d="M14.5792 26.9573C14.4599 26.9437 14.3573 26.9208 14.2417 26.9426C14.5506 27.2548 17.7777 28.4512 18.4236 28.7022C18.9582 28.91 21.8019 30.1658 22.1955 30.1947C22.1728 30.1552 22.1502 30.1157 22.1275 30.0763C20.0074 29.1711 16.5605 27.808 14.5792 26.9573Z" fill="#CEB3AA"/>
<path d="M22.3788 31.8278C22.3717 31.6082 22.3204 30.4926 22.2567 30.3711C22.1968 30.8674 22.2227 31.2641 22.241 31.7622L22.3788 31.8278Z" fill="#35262C"/>
<path d="M33.643 34.9224C33.46 35.1178 33.4965 35.458 33.5055 35.7233C33.5136 35.9357 33.524 36.148 33.5365 36.3602L33.6655 36.4355C33.6254 35.994 33.6421 35.38 33.643 34.9224Z" fill="#35262C"/>
<path d="M33.7575 27.118C33.4629 27.0676 33.1454 27.0724 33.1292 27.448C33.3339 27.8706 33.7199 27.8043 33.7145 28.0099C33.5022 27.973 33.1665 27.7944 32.958 27.6941C32.9186 27.5996 32.9181 27.647 32.9429 27.5513C32.7598 27.4316 32.7296 27.4153 32.5206 27.3549C32.4877 27.3424 32.4018 27.2864 32.3672 27.2651C32.0935 27.1437 32.1156 27.2662 31.7705 27.0205L31.6728 27.0584C31.5335 27.4885 31.3709 27.9164 31.1182 28.2952C31.4136 28.3926 31.844 28.5238 32.0854 28.7101C33.5047 29.5528 36.5542 30.6844 38.0855 31.2641C38.9992 31.6101 44.3996 33.662 44.9148 33.6209C45.3605 33.5794 45.9422 33.7828 46.2128 33.659L46.2557 33.5071C46.2707 33.2454 46.2661 33.1836 46.3764 32.9422C45.543 32.6797 43.6843 31.7268 42.7937 31.31L36.256 28.2693C35.8946 28.0972 34.0045 27.1416 33.7575 27.118Z" fill="#FCCC93"/>
<path d="M31.7708 27.0205L31.6731 27.0584C31.5338 27.4885 31.3712 27.9164 31.1185 28.2952C31.4139 28.3926 31.8443 28.5238 32.0857 28.7101C32.2163 28.6151 32.4615 27.5736 32.5209 27.3549C32.488 27.3424 32.4021 27.2864 32.3675 27.2651C32.0938 27.1437 32.1159 27.2662 31.7708 27.0205Z" fill="#C19D7E"/>
<path d="M41.3743 35.6381C40.6651 34.2408 39.7061 33.1772 38.2459 32.5287C36.5524 31.7765 34.6115 32.5626 33.9471 34.3032L34.059 34.4784L33.9771 34.7444L34.0195 34.744L34.377 34.6459C34.5677 33.8443 35.5991 33.3433 36.3063 33.1287C37.5477 33.0886 38.5033 33.6361 39.426 34.4295C39.8539 34.7973 40.0539 35.1908 40.3114 35.4431C40.6898 35.7127 40.9065 35.6503 41.3743 35.6381Z" fill="#FDCE94"/>
<path d="M36.3063 33.1274C35.2464 33.1382 34.5569 33.5589 34.059 34.4772L33.9772 34.7431L34.0196 34.7427L34.3771 34.6446C34.5677 33.8431 35.5991 33.3421 36.3063 33.1274Z" fill="#6F564E"/>
<path d="M41.7534 35.7405C41.7585 35.5548 41.7585 35.6142 41.664 35.4307L41.6073 35.4206L41.5891 35.4993L41.6846 35.6435L41.5932 35.6775C41.4877 35.5181 41.4422 35.3298 41.3367 35.2988C41.3735 35.4143 41.4018 35.4901 41.4485 35.6018C41.2934 35.749 40.7686 35.7706 40.5278 35.7954C41.1241 36.9149 41.1068 37.1402 41.5421 38.1874L41.598 38.2045L42.0806 38.3531C42.3359 38.4365 42.424 38.4688 42.6933 38.4997L42.8409 38.4315C42.6565 37.9979 42.5906 37.5868 42.4365 37.156C42.3724 36.9766 42.2127 36.8382 42.2435 36.6553C42.5103 36.5473 43.2581 36.958 43.6677 37.0609L43.6263 36.8459L43.7342 36.7192C43.3319 36.4831 42.6676 36.3711 42.2333 36.1231C42.1703 35.9638 42.1525 35.9147 42.0082 35.8198L41.7534 35.7405Z" fill="#745650"/>
<path d="M41.7533 35.7405C41.7585 35.5548 41.7584 35.6142 41.664 35.4307L41.6073 35.4206L41.5891 35.4993L41.6845 35.6435L41.5931 35.6775C41.4877 35.5181 41.4421 35.3298 41.3366 35.2988C41.3735 35.4143 41.4017 35.4901 41.4485 35.6018C41.2933 35.749 40.7686 35.7706 40.5278 35.7954C41.124 36.9149 41.1068 37.1402 41.542 38.1874L41.598 38.2045C41.8449 38.1809 41.8689 38.2117 42.0139 38.0594C42.1256 37.6951 41.8266 36.9635 41.7094 36.5203C41.6658 36.2874 41.6007 36.0527 41.6372 35.824L41.7533 35.7405Z" fill="#CC8A55"/>
<path d="M41.7533 35.7412L41.6372 35.8247C41.6007 36.0534 41.6659 36.2881 41.7094 36.521C41.7543 36.4825 41.9269 36.3694 41.9846 36.3299C42.0861 36.1167 42.0054 36.164 42.0071 35.8917L42.0082 35.8205L41.7533 35.7412Z" fill="#B37A50"/>
<path d="M42.6934 38.4989C42.5935 38.3143 42.4765 37.7595 42.3659 37.7007C42.2919 38.0302 42.3252 38.0893 42.0806 38.3523C42.336 38.4356 42.424 38.4679 42.6934 38.4989Z" fill="#584345"/>
<path d="M23.4629 25.4096C23.2005 25.3999 23.0358 25.3534 22.8538 25.5077C22.8954 25.8199 22.883 25.9118 23.1335 26.1074C23.5434 26.2394 24.523 26.657 24.8232 26.7003C24.8049 26.5487 24.7719 26.3859 24.7449 26.2345L25.0333 26.0721L25.002 26.0077C24.6596 25.9978 23.6433 25.7327 23.4629 25.4096Z" fill="#CCC3BA"/>
<path d="M23.4629 25.4096C23.2005 25.3999 23.0358 25.3534 22.8538 25.5077C23.187 25.6201 24.5818 26.216 24.7449 26.2345L25.0333 26.0721L25.002 26.0077C24.6596 25.9978 23.6433 25.7327 23.4629 25.4096Z" fill="#FDFBE5"/>
<path d="M25.0333 26.0723L24.7449 26.2346C24.7719 26.3861 24.8049 26.5489 24.8232 26.7005C24.523 26.6571 23.5434 26.2396 23.1336 26.1076C23.3112 26.3724 23.3409 26.444 23.4559 26.7438C23.8993 26.8151 24.8794 26.8853 25.1791 26.9565C25.1824 26.7679 25.2002 26.3851 25.1635 26.2189L25.0333 26.0723Z" fill="#CC8A55"/>
<path d="M25.0334 26.0723L24.745 26.2346C24.772 26.3861 24.805 26.5489 24.8233 26.7005C24.9043 26.6994 24.9675 26.6781 25.0474 26.6591C25.1716 26.4783 25.1392 26.4525 25.1635 26.2189L25.0334 26.0723Z" fill="#A4663C"/>
<path d="M44.9279 33.6509C44.7846 33.8795 44.7845 35.9429 44.8323 36.2539C44.9271 36.298 44.8903 36.29 44.9944 36.2984C45.0779 36.1272 44.9883 34.2106 45.0337 33.7352L44.9279 33.6509Z" fill="#B64D45"/>
<path d="M33.9472 34.3018C33.8724 34.4385 33.8631 34.4818 33.7374 34.563L33.711 34.8209L33.9772 34.7429L34.0591 34.477L33.9472 34.3018Z" fill="#FCCC93"/>
<path d="M45.637 11.7588C41.8907 13.3442 37.8283 14.7057 34.0552 16.266C32.9579 16.7196 31.441 17.2308 30.4112 17.7243C30.4998 17.8885 30.557 17.955 30.5435 18.14C30.3799 18.3244 30.2568 18.2766 30.1418 18.5215C30.1445 18.6965 30.1871 18.7599 30.2595 18.9207C30.246 18.9781 30.2503 19.0044 30.2179 19.041C30.4787 19.8752 30.7617 20.6814 31.0339 21.5095C31.4016 22.5064 31.7537 23.5089 32.0912 24.5166C32.2208 24.8959 32.5497 25.7815 32.6096 26.1423L32.7219 26.2909C32.5394 26.3578 32.5146 26.3675 32.3267 26.3234C32.3461 26.4679 32.3645 26.5823 32.3666 26.7289L32.3672 27.2663C32.4017 27.2875 32.4876 27.3436 32.5205 27.3561C32.7295 27.4165 32.7597 27.4327 32.9428 27.5524C32.918 27.6482 32.9185 27.6008 32.9579 27.6952C33.1664 27.7956 33.5021 27.9742 33.7144 28.0111C33.7198 27.8054 33.3338 27.8718 33.1291 27.4492C33.1453 27.0735 33.4628 27.0687 33.7574 27.1191C33.6037 27.0296 33.5846 27.0539 33.5265 26.9241C33.6066 26.8487 35.5961 26.1957 35.8643 26.0954C39.0884 24.8893 42.2745 23.5773 45.4881 22.3448L49.0496 20.9916C49.5889 20.7807 50.3556 20.5141 50.8378 20.2285L50.3275 20.1248C50.1287 19.7424 49.956 19.3962 49.7175 19.0355L49.7992 18.9578C50.0705 18.8669 50.3381 18.7654 50.6015 18.6536C50.6612 18.1487 50.6329 17.5845 50.6544 17.0648C50.4631 16.9184 50.2311 16.861 50.0007 16.7851C49.6086 16.9542 49.2195 17.1287 48.8744 17.386C48.7535 17.2479 48.1876 16.2164 48.0733 16.0128L46.3702 12.9644C46.1859 12.6272 45.8899 11.983 45.637 11.7588Z" fill="#E7B78E"/>
<path d="M50.0006 16.7842C49.6086 16.9532 49.2195 17.1278 48.8744 17.385C49.0928 17.5639 49.181 17.6739 49.475 17.5687C49.2991 17.8702 49.2134 18.0219 49.3208 18.3536C49.4103 18.4102 49.4469 18.4373 49.5492 18.4746C49.5933 18.6881 49.6143 18.8387 49.7175 19.0346L49.7992 18.9568C50.0705 18.8659 50.3381 18.7644 50.6014 18.6527C50.6612 18.1477 50.6329 17.5836 50.6544 17.0639C50.4631 16.9175 50.2311 16.86 50.0006 16.7842Z" fill="#C19D7E"/>
<path d="M50.0006 16.7842C49.6086 16.9532 49.2195 17.1278 48.8744 17.385C49.0928 17.5639 49.181 17.6739 49.475 17.5687C49.827 17.4179 50.3553 17.273 50.6544 17.0639C50.4631 16.9175 50.2311 16.86 50.0006 16.7842Z" fill="#FCCC93"/>
<path d="M49.7993 18.9582C49.7068 18.7124 49.8246 18.5146 49.6883 18.307C49.497 18.26 49.5416 18.2821 49.3209 18.3549C49.4104 18.4115 49.447 18.4387 49.5492 18.4759C49.5933 18.6894 49.6144 18.84 49.7176 19.0359L49.7993 18.9582Z" fill="#B37A50"/>
<path d="M32.9433 27.5516L33.0388 27.4477C33.1425 27.1437 33.0059 26.4593 32.7224 26.29C32.5399 26.357 32.515 26.3666 32.3271 26.3226C32.3465 26.4671 32.3649 26.5814 32.3671 26.7281L32.3676 27.2655C32.4022 27.2867 32.488 27.3427 32.521 27.3553C32.73 27.4156 32.7602 27.4319 32.9433 27.5516Z" fill="#CC8A55"/>
<path d="M45.4396 12.6129L45.3699 12.5503C44.1085 13.0159 31.2462 17.9874 31.2036 18.0524L31.2117 18.0813L33.0358 23.2239C33.214 23.7252 33.6502 25.0658 33.8615 25.5071L33.9257 25.575C34.1834 25.5167 34.6849 25.2768 34.9456 25.1616C36.9847 24.4741 39.3082 23.4362 41.3524 22.6528L44.9182 21.278C45.2926 21.1328 46.4586 20.6997 46.7664 20.5206C47.172 20.4108 48.447 19.8907 48.8968 19.7257C49.0425 19.6764 49.0865 19.6533 49.2228 19.5797L49.2385 19.4919C48.3819 17.8924 47.5153 16.2983 46.6388 14.7096C46.4285 14.3253 45.6591 12.8562 45.4396 12.6129Z" fill="#6F7978"/>
<path d="M45.4396 12.6133L45.4302 12.6784C45.4167 12.7782 45.4223 12.8402 45.429 12.9395L45.3896 13.0012C45.2705 12.9303 45.2038 12.8858 45.0939 12.8014C44.5064 12.9732 43.1042 13.5542 42.4791 13.803C41.5856 14.1587 40.0699 14.6846 39.2632 15.0975C41.8539 16.2007 44.5274 17.1533 47.1154 18.2715C47.4248 18.4052 47.7476 18.5311 48.0699 18.6302L48.159 18.5361C48.3835 18.8003 48.4098 18.8609 48.5569 19.1748C48.6665 19.3608 48.7798 19.5446 48.8968 19.726C49.0425 19.6768 49.0865 19.6536 49.2228 19.58L49.2385 19.4922C48.3819 17.8927 47.5153 16.2986 46.6388 14.7099C46.4285 14.3256 45.6591 12.8566 45.4396 12.6133Z" fill="#859890"/>
<path d="M45.4396 12.6133L45.4302 12.6784C45.4167 12.7782 45.4223 12.8402 45.429 12.9395L45.3896 13.0012C45.2705 12.9303 45.2038 12.8858 45.0939 12.8014C45.2409 13.2114 45.5977 13.8009 45.7977 14.2072C46.4929 15.6198 47.501 17.1307 48.159 18.5361C48.3835 18.8003 48.4098 18.8609 48.5569 19.1748C48.6665 19.3608 48.7798 19.5446 48.8968 19.726C49.0425 19.6768 49.0865 19.6536 49.2228 19.58L49.2385 19.4922C48.3819 17.8927 47.5153 16.2986 46.6388 14.7099C46.4285 14.3256 45.6591 12.8566 45.4396 12.6133Z" fill="#616464"/>
<path d="M45.4396 12.6129L45.37 12.5503C44.1085 13.0159 31.2463 17.9874 31.2036 18.0524L31.2117 18.0813C31.5573 18.1487 32.5212 17.6849 32.8949 17.5396L35.4485 16.5751C36.4781 16.1856 38.3108 15.5511 39.2632 15.0972C40.0699 14.6842 41.5856 14.1584 42.4791 13.8027C43.1042 13.5539 44.5064 12.9728 45.094 12.801C45.2039 12.8855 45.2705 12.93 45.3896 13.0008L45.429 12.9391C45.4223 12.8399 45.4167 12.7779 45.4302 12.678L45.4396 12.6129Z" fill="#494944"/>
<path d="M48.5567 19.1738C48.4048 20.4029 47.2476 19.8887 46.7661 20.52C47.1717 20.4102 48.4468 19.8901 48.8965 19.725C48.7796 19.5436 48.6663 19.3598 48.5567 19.1738Z" fill="#676D6D"/>
<path d="M34.9459 25.1613C34.653 24.9952 34.1946 25.1764 33.9269 25.3291C33.8935 25.4053 33.8769 25.4277 33.8618 25.5069L33.926 25.5748C34.1836 25.5165 34.6852 25.2766 34.9459 25.1613Z" fill="#676D6D"/>
<path d="M63.7269 26.747L63.6811 26.3301C63.0651 26.5591 62.3521 26.8208 61.7621 27.095C61.3619 27.2604 61.1555 27.3403 60.7296 27.4535L60.5403 27.3474C58.3856 28.2174 56.2219 29.0649 54.0496 29.8899C52.7135 30.404 51.2673 30.926 49.9555 31.4926L49.9017 31.5943C49.6491 31.8857 49.0658 31.966 48.7024 32.131L48.6061 32.1733L48.5405 32.16C47.8557 32.4578 47.0847 32.6698 46.3759 32.9428C46.2656 33.1842 46.2702 33.2459 46.2551 33.5076L46.2123 33.6596C45.9417 33.7834 45.36 33.58 44.9142 33.6215L44.9275 33.6514L45.0333 33.7357C44.9879 34.2111 45.0775 36.1277 44.994 36.2989C45.3432 36.3977 45.8872 36.4665 46.1716 36.5697L46.0548 36.6788C45.3357 36.5732 45.0765 36.3924 44.4141 36.794C44.3023 36.762 44.0134 36.7824 43.8581 36.7748L43.7336 36.7199L43.6257 36.8466L43.6671 37.0616C43.2576 36.9587 42.5097 36.548 42.243 36.656C42.2121 36.8389 42.3718 36.9773 42.436 37.1567C42.59 37.5875 42.656 37.9986 42.8403 38.4322L42.9228 38.5514C43.9822 38.8519 45.1666 39.5181 46.3254 39.5558C46.5418 39.5629 46.7648 39.5128 46.9554 39.4333C48.2018 38.9139 51.0244 37.8591 52.1402 37.3871C53.4802 36.8202 64.4196 32.6859 64.9198 32.2497C65.1173 31.8583 65.0353 31.1095 65.0492 30.6013C65.0127 30.2688 64.9705 30.2375 64.684 30.0834C64.4071 29.9334 64.062 29.8386 63.7585 29.7424C63.7903 29.112 63.8352 27.3077 63.7269 26.747Z" fill="#C19D7E"/>
<path d="M64.684 30.0831C64.4071 29.9331 64.062 29.8384 63.7585 29.7422L63.8001 29.9899C63.7576 30.1861 63.7962 30.1574 63.6475 30.25C63.1874 30.5363 61.4255 31.0539 61.0849 31.3057C60.8146 31.3948 60.6004 31.4608 60.3443 31.5844L59.998 31.6931L59.9329 31.4578C57.4406 32.3735 53.5212 34.0409 50.8426 34.9836C50.799 34.9708 50.7554 34.958 50.7119 34.9451C50.7307 35.1574 50.748 35.2268 50.6641 35.4299L50.603 35.4608L50.4421 35.5137C49.7917 35.7004 49.5037 35.8039 48.8636 36.0325C49.0145 35.9303 49.1497 35.8641 49.2334 35.7079L49.1997 35.6726L49.1567 35.7009C48.6939 36.002 48.0221 36.2471 47.5093 36.4779C47.1289 36.6489 46.6267 37.0193 46.2541 37.0603C46.1969 36.9053 46.1725 36.7918 46.0548 36.6786C45.3357 36.573 45.0765 36.3922 44.4141 36.7938C44.3023 36.7618 44.0134 36.7821 43.8581 36.7746L43.7336 36.7197L43.6257 36.8464L43.6671 37.0614C43.2576 36.9585 42.5097 36.5478 42.243 36.6557C42.2121 36.8386 42.3718 36.977 42.436 37.1564C42.59 37.5873 42.656 37.9984 42.8403 38.432L42.9228 38.5512C43.9822 38.8516 45.1666 39.5179 46.3254 39.5556C46.5418 39.5626 46.7648 39.5125 46.9554 39.4331C48.2018 38.9137 51.0244 37.8588 52.1402 37.3868C53.4802 36.8199 64.4196 32.6857 64.9198 32.2495C65.1173 31.858 65.0353 31.1092 65.0492 30.601C65.0127 30.2686 64.9705 30.2373 64.684 30.0831Z" fill="#4D3B40"/>
<path d="M64.6841 30.0831C64.4073 29.9331 64.0622 29.8384 63.7586 29.7422L63.8003 29.9899C63.7578 30.1861 63.7964 30.1574 63.6477 30.25C63.1876 30.5363 61.4256 31.0539 61.0851 31.3057C60.8148 31.3948 60.6005 31.4608 60.3445 31.5844L59.9981 31.6931L59.9331 31.4578C57.4407 32.3735 53.5213 34.0409 50.8428 34.9836C50.7992 34.9708 50.7556 34.958 50.712 34.9451C50.7308 35.1574 50.7482 35.2268 50.6642 35.4299L50.6032 35.4608L50.4423 35.5137C49.7919 35.7004 49.5039 35.8039 48.8638 36.0325C49.0146 35.9303 49.1499 35.8641 49.2336 35.7079L49.1999 35.6726L49.1568 35.7009C48.694 36.002 48.0223 36.2471 47.5094 36.4779C47.1291 36.6489 46.6268 37.0193 46.2543 37.0603C46.197 36.9053 46.1727 36.7919 46.0549 36.6786C45.3358 36.573 45.0767 36.3922 44.4142 36.7938C44.3025 36.7618 44.0135 36.7821 43.8582 36.7746C43.8879 36.9282 43.871 37.0143 43.9951 37.0903C44.4784 37.3863 45.2681 37.4645 45.7789 37.6716C46.2711 38.1483 47.5715 37.4413 48.1612 37.2089C49.2371 36.7861 50.3101 36.3561 51.3802 35.919C51.6409 35.8809 53.4933 35.061 53.8624 34.9171C54.9481 34.4939 56.1144 34.069 57.1962 33.6265C58.4796 33.1016 59.7179 32.582 61.0183 32.088C62.1024 31.6049 63.3382 31.2152 64.4343 30.7342C64.6395 30.6985 64.846 30.6476 65.0494 30.601C65.0128 30.2686 64.9706 30.2373 64.6841 30.0831Z" fill="#584345"/>
<path d="M59.933 31.458C57.4407 32.3738 53.5213 34.0411 50.8428 34.9838C50.7992 34.971 50.7556 34.9582 50.712 34.9453C50.7308 35.1576 50.7482 35.2271 50.6642 35.4302L50.6032 35.461L50.6509 35.5115C50.7716 35.5307 51.4008 35.6165 51.4851 35.5864C54.3314 34.5677 57.1202 33.3508 59.9396 32.2514C60.083 32.1955 60.1948 32.1429 60.2963 32.0274C60.3585 31.8045 60.4016 31.7871 60.3445 31.5847L59.9981 31.6933L59.933 31.458Z" fill="#35262C"/>
<path d="M59.9332 31.458C57.4408 32.3738 53.5215 34.0411 50.8429 34.9838C50.7993 34.971 50.7557 34.9582 50.7121 34.9453C50.731 35.1576 50.7483 35.2271 50.6643 35.4302C50.9515 35.3704 52.0337 34.8915 52.3375 34.7551C54.8072 33.6468 57.5577 32.8299 59.9982 31.6933L59.9332 31.458Z" fill="#B37A50"/>
<path d="M50.4426 35.5127C49.7922 35.6994 49.5042 35.803 48.8641 36.0315C49.015 35.9293 49.1502 35.8631 49.2339 35.707L49.2002 35.6717L49.1571 35.7C48.6943 36.001 48.0226 36.2462 47.5097 36.4769C47.1294 36.648 46.6271 37.0183 46.2546 37.0593C46.1973 36.9043 46.173 36.7909 46.0552 36.6776C45.3361 36.572 45.077 36.3912 44.4146 36.7928C44.3028 36.7608 44.0139 36.7812 43.8586 36.7736C43.8882 36.9272 43.8714 37.0134 43.9954 37.0894C44.4787 37.3854 45.2684 37.4636 45.7793 37.6706C46.4824 37.8391 46.7694 37.4506 47.2461 37.3229C47.9368 37.1381 50.5865 35.8268 51.0915 35.8624C51.1493 35.8004 51.1298 35.8271 51.1567 35.7417C50.8706 35.5489 50.7816 35.7596 50.4426 35.5127Z" fill="#94563B"/>
<path d="M46.0553 36.6783C45.3362 36.5727 45.0771 36.3919 44.4147 36.7935C44.7535 36.8801 45.8692 37.2026 46.1659 37.1357L46.2547 37.06C46.1975 36.905 46.1731 36.7916 46.0553 36.6783Z" fill="#CC8A55"/>
<path d="M64.6841 30.0831C64.4073 29.9331 64.0622 29.8384 63.7586 29.7422L63.8003 29.9899C63.7578 30.1861 63.7964 30.1574 63.6477 30.25C63.1876 30.5363 61.4256 31.0539 61.0851 31.3057C60.94 31.5954 60.6332 31.6956 60.5149 31.9559C60.6266 32.0223 60.6263 31.9882 60.8017 31.948C61.2192 31.8362 62.9601 31.0896 63.5133 30.8773C63.9276 30.9459 64.0478 30.6686 64.4343 30.7342C64.6395 30.6985 64.846 30.6476 65.0494 30.601C65.0128 30.2686 64.9706 30.2373 64.6841 30.0831Z" fill="#94563B"/>
<path d="M64.6841 30.0831C64.4073 29.9331 64.0622 29.8384 63.7586 29.7422L63.8003 29.9899C63.8311 30.2074 63.7927 30.1899 63.9151 30.3186L64.1206 30.3758C63.9186 30.3756 63.8865 30.3759 63.6955 30.4389C63.782 30.5036 63.8705 30.5656 63.9609 30.6248C63.9032 30.7212 63.6323 30.8225 63.5133 30.8773C63.9276 30.9459 64.0478 30.6686 64.4343 30.7342C64.6395 30.6985 64.846 30.6476 65.0494 30.601C65.0128 30.2686 64.9706 30.2373 64.6841 30.0831Z" fill="#745650"/>
<path d="M64.684 30.0831C64.4072 29.9331 64.0621 29.8384 63.7586 29.7422L63.8002 29.9899C63.831 30.2074 63.7926 30.1899 63.915 30.3186L64.1205 30.3758C64.4133 30.3828 64.4655 30.2879 64.684 30.0831Z" fill="#584345"/>
<path d="M59.9554 31.3818C60.0332 31.1912 60.037 29.0532 59.9865 28.802L59.9162 28.7642C59.451 28.8128 51.2977 31.9846 50.83 32.261C50.6221 32.4448 50.7059 32.8775 50.7216 33.151L50.712 34.9448C50.7556 34.9577 50.7992 34.9705 50.8428 34.9833C53.5214 34.0406 57.4408 32.3733 59.9331 31.4575L59.9554 31.3818Z" fill="#423B44"/>
<path d="M59.9554 31.3818C60.0332 31.1912 60.037 29.0532 59.9865 28.802L59.9162 28.7642C59.8269 28.9303 59.7718 28.959 59.6078 29.0492C59.528 29.2486 59.5449 31.0428 59.6022 31.2682C59.7204 31.3047 59.8381 31.3425 59.9554 31.3818Z" fill="#35262C"/>
<path d="M50.8301 32.2612C50.6222 32.445 50.7061 32.8778 50.7218 33.1513C50.7679 33.4127 50.7621 34.2316 50.8171 34.3472C50.8835 33.9607 51.0025 32.5321 50.8301 32.2612Z" fill="#35262C"/>
<path d="M46.2167 33.8976C45.7674 33.861 45.4771 33.8166 45.0338 33.7354C44.9884 34.2108 45.078 36.1274 44.9944 36.2986C45.3437 36.3973 45.8877 36.4662 46.1721 36.5693C46.2677 36.2776 46.2225 34.3275 46.2167 33.8976Z" fill="#F9783B"/>
<path d="M61.7621 27.0952C61.3619 27.2606 61.1555 27.3404 60.7297 27.4537L60.6145 27.5484C60.613 27.6909 60.6171 27.7509 60.6378 27.8919C60.949 28.0806 61.6917 27.6034 62.0349 27.4911C61.9273 27.4239 61.8747 27.4618 61.7113 27.4795C61.6619 27.3604 61.7227 27.2457 61.7621 27.0952Z" fill="#B37A50"/>
<path d="M49.7295 32.7573C48.961 32.9663 47.609 33.5562 46.8444 33.8715C46.867 34.7231 46.8783 35.5749 46.8784 36.4267C47.7512 36.1101 49.1528 35.5172 49.9642 35.2878L50.0846 35.1936C50.1421 34.9137 50.1798 33.0085 50.0692 32.824L49.7295 32.7573Z" fill="#FDFBE5"/>
<path d="M49.9642 35.2878L50.0846 35.1936C50.1421 34.9137 50.1798 33.0085 50.0692 32.824L49.7295 32.7573C49.807 33.4895 49.6361 34.843 49.9642 35.2878Z" fill="#FEE5BC"/>
<path d="M63.3027 27.5762L62.8692 27.6205C62.1067 27.8782 61.356 28.2245 60.6022 28.5172L60.5958 31.0405C61.378 30.7255 62.4662 30.2501 63.2435 29.985C63.3562 29.7942 63.3058 27.9188 63.3027 27.5762Z" fill="#FDFBE5"/>
<path d="M63.3027 27.5762L62.8692 27.6205C63.0379 28.135 62.8373 29.0133 62.922 29.562C62.9703 29.8752 62.9919 29.8322 63.2435 29.985C63.3562 29.7942 63.3058 27.9188 63.3027 27.5762Z" fill="#FCCC93"/>
<path d="M50.0422 32.0112C49.6734 32.1184 48.874 32.5131 48.5589 32.3656L48.4733 32.3825C48.4769 32.5308 48.4831 32.5623 48.5159 32.7079C49.0335 32.4968 49.5912 32.3226 50.0422 32.0112Z" fill="#B37A50"/>
<path d="M49.9558 31.4923C49.5213 31.4347 47.9583 30.6817 47.476 30.4678C45.166 29.4309 42.8458 28.4167 40.5158 27.4255C39.915 27.165 38.1676 26.3146 37.5951 26.1841L37.5396 26.2331C37.7113 26.3758 49.3815 31.4901 49.902 31.594L49.9558 31.4923Z" fill="#E5A86E"/>
<path d="M48.7029 32.1308C48.4698 31.8203 47.7029 31.3107 47.4323 31.2695C47.5013 31.5546 48.277 31.8167 48.541 32.1598L48.6066 32.1731L48.7029 32.1308Z" fill="#FCCC93"/>
<path d="M50.6049 20.8121C50.192 20.7953 42.7693 23.7775 41.7709 24.1663L38.5594 25.4393C37.9203 25.6879 37.0995 25.9528 36.509 26.2662L36.5335 26.3079C36.8552 26.194 37.221 26.3165 37.3032 26.264C38.1044 25.7522 39.3456 25.3826 40.2175 25.0377C42.3504 24.1827 44.4894 23.3429 46.6342 22.5184C47.8887 22.0331 49.3858 21.5285 50.5708 20.9664L50.6049 20.8121Z" fill="#CC8A55"/>
<path d="M25.961 0.761276C25.3065 0.613655 24.4355 0.208063 23.6514 0C22.9164 0.161232 21.2154 0.88486 20.4308 1.20932C19.2114 1.71333 17.903 2.18455 16.6971 2.68845L16.608 2.7928C16.1161 3.21606 16.2036 3.86374 16.2138 4.46087C15.3595 4.81115 14.4253 5.09646 13.5483 5.39629L8.27839 7.19118C7.6968 7.39444 6.32679 7.79171 5.8694 8.08987C7.75674 8.95728 10.3553 9.88595 12.3452 10.6608L24.4069 15.3587L28.384 16.8898C28.9527 17.1113 29.9015 17.4533 30.4112 17.7241C31.441 17.2305 32.9579 16.7193 34.0552 16.2657C37.8283 14.7054 41.8907 13.3439 45.6371 11.7585C45.285 11.5059 44.3763 11.2009 43.9341 11.0083C42.5387 10.4005 40.9189 9.86467 39.5588 9.20402C39.558 9.12872 39.503 8.9017 39.4844 8.81539C39.2603 8.42416 38.9143 7.82547 38.4677 7.69956L36.7277 6.93866C36.713 6.93013 36.6298 6.83399 36.612 6.81411C36.6384 6.39739 36.6426 5.68797 36.5114 5.30744C36.1365 4.84108 34.7495 4.50181 34.0827 4.21051C33.771 3.99284 33.3365 3.8362 32.9655 3.7596C32.696 3.69036 31.724 3.30826 31.4346 3.17879C30.4642 2.74414 29.5375 3.25182 28.4089 3.46134L28.2701 3.43498C28.0892 2.87718 28.3252 2.41714 27.7917 1.72748C27.486 1.3758 27.27 1.50186 27.0491 1.24071C26.9363 1.13662 26.8952 1.12555 26.7538 1.05884C26.433 0.905169 26.305 0.859852 25.961 0.761276Z" fill="#786C70"/>
<path d="M16.2138 4.46094C15.3595 4.81122 14.4253 5.09652 13.5483 5.39636L8.27839 7.19125C7.6968 7.3945 6.32679 7.79178 5.8694 8.08994C7.75674 8.95735 10.3553 9.88602 12.3452 10.6609L24.4069 15.3587L28.384 16.8898C28.9527 17.1113 29.9015 17.4534 30.4112 17.7241C31.441 17.2305 32.9579 16.7194 34.0552 16.2657C37.8283 14.7055 41.8907 13.344 45.6371 11.7586C45.285 11.506 44.3763 11.2009 43.9341 11.0083C42.5387 10.4006 40.9189 9.86474 39.5588 9.20409C39.558 9.12879 39.503 8.90177 39.4844 8.81546C39.221 8.95476 39.1074 9.03432 38.809 9.05366C38.8377 9.21019 38.8995 9.78198 38.9468 9.84745L39.1018 9.86425C39.0726 9.96039 38.9647 10.0201 38.8782 10.0859C38.6327 10.3163 37.7508 10.2914 37.3421 10.5633C37.1452 10.6936 36.9623 10.8132 36.7741 10.9565C35.4984 11.2929 29.6353 13.8338 29.0596 13.6042C29.052 13.6013 29.0445 13.5986 29.0369 13.5957L28.9084 13.5823L28.4434 13.5837L28.2652 13.534C28.167 13.6841 28.1572 13.6915 28.127 13.8643C28.2145 14.0244 28.195 13.9551 28.1724 14.1544C27.9855 14.4047 27.7036 14.3935 27.4185 14.4032C27.2749 14.4633 27.2587 14.457 27.0988 14.455C26.9887 14.4669 26.8094 14.4969 26.7079 14.4728C26.3914 14.3309 25.9432 14.1941 25.5625 14.0265C25.5479 13.9938 25.5333 13.9615 25.5171 13.9295C25.3589 13.6134 24.0272 13.2014 23.6433 13.0549C22.4974 12.6138 21.3493 12.1792 20.1991 11.751C18.9593 11.2783 17.7188 10.8064 16.4806 10.3305C15.8639 10.0934 15.2569 9.82595 14.6257 9.62761L14.7353 9.34658L14.6959 9.26609C14.5301 9.23714 14.4016 9.21711 14.2385 9.1659L14.2077 9.15596C13.9458 9.2433 13.7444 9.31465 13.4663 9.31584L13.4101 9.31476L13.4193 9.20312C13.4798 8.90128 13.6763 8.57234 13.8227 8.29411C13.6347 8.1258 13.3302 8.15065 13.105 7.89986L13.0861 7.88803C12.9311 7.71135 12.2458 7.53051 11.9829 7.44436L11.9553 6.65975C12.133 6.3866 12.343 6.33745 12.6395 6.25799C12.7907 6.3651 12.8798 6.41663 13.0758 6.41496C13.9507 6.03594 15.1948 5.65854 16.1474 5.27369C16.2344 5.15723 16.2268 5.01993 16.2398 4.87193L16.2138 4.46094Z" fill="#FEE5BC"/>
<path d="M39.5589 9.20406C39.5582 9.12877 39.5032 8.90174 39.4846 8.81543C39.2212 8.95473 39.1076 9.0343 38.8092 9.05363C38.8379 9.21017 38.8997 9.78196 38.9469 9.84742L39.102 9.86422C39.0728 9.96037 38.9649 10.0201 38.8784 10.0859C38.6329 10.3163 37.751 10.2914 37.3423 10.5633C37.1454 10.6936 36.9625 10.8132 36.7743 10.9564C35.4986 11.2928 29.6354 13.8337 29.0598 13.6042C29.0522 13.6012 29.0447 13.5985 29.0371 13.5957L28.9086 13.5823L28.4436 13.5837L28.2654 13.534C28.1672 13.6841 28.1574 13.6915 28.1272 13.8643L28.482 13.9144L28.5155 13.9476C28.2973 14.0296 28.3756 13.9866 28.2028 14.2003L28.2212 14.3095C28.9275 14.4536 29.8763 13.8883 30.1798 13.9447L30.1868 14.0001C30.9309 13.8375 31.9013 14.0319 32.4511 13.8437C34.7433 13.0588 37.0282 12.0761 39.2657 11.143C39.7969 10.9215 39.9182 10.5281 40.4795 10.3311C40.2255 10.2203 39.5708 10.017 39.4703 9.78509C39.5454 9.64482 39.5458 9.37513 39.5589 9.20406Z" fill="#C19D7E"/>
<path d="M39.559 9.20406C39.5582 9.12877 39.5032 8.90174 39.4847 8.81543C39.2212 8.95473 39.1076 9.0343 38.8092 9.05363C38.8379 9.21017 38.8997 9.78196 38.947 9.84742L39.1021 9.86422C39.0728 9.96037 38.965 10.0201 38.8784 10.0859C38.6329 10.3163 37.751 10.2914 37.3423 10.5633C37.1454 10.6936 36.9625 10.8132 36.7743 10.9564C37.5489 10.8078 37.7909 10.4691 38.9634 10.3253C39.1058 10.1248 39.2515 9.86039 39.4703 9.78509C39.5454 9.64482 39.5458 9.37513 39.559 9.20406Z" fill="#776B70"/>
<path d="M28.2658 13.5337C28.1675 13.6838 28.1578 13.6912 28.1275 13.864L28.4823 13.9141C28.6227 13.8265 28.7896 13.8109 28.9041 13.6889C28.7307 13.6172 28.627 13.6107 28.444 13.5834L28.2658 13.5337Z" fill="#FEE5BC"/>
<path d="M13.0869 7.8877C12.9087 8.09668 12.3995 8.62893 12.3963 8.87454L12.4179 8.89571C12.7041 9.07703 13.0864 9.20273 13.4109 9.31443L13.4201 9.20278C13.4806 8.90095 13.6772 8.572 13.8235 8.29377C13.6356 8.12547 13.331 8.15031 13.1058 7.89952L13.0869 7.8877Z" fill="#776B70"/>
<path d="M13.4201 9.20338C13.0832 8.97743 12.818 8.72254 12.4179 8.89631C12.7041 9.07763 13.0864 9.20332 13.411 9.31502L13.4201 9.20338Z" fill="#625A61"/>
<path d="M16.2406 4.87158C15.0547 5.3704 13.8543 5.83266 12.6404 6.25764C12.7916 6.36475 12.8807 6.41628 13.0767 6.41461C13.9515 6.03559 15.1957 5.65819 16.1483 5.27334C16.2352 5.15688 16.2276 5.01958 16.2406 4.87158Z" fill="#CEB3AA"/>
<path d="M28.1274 13.8647C28.2149 14.0248 28.1955 13.9555 28.1728 14.1548C27.986 14.4052 27.7041 14.3939 27.4189 14.4036C27.2753 14.4638 27.2591 14.4574 27.0993 14.4554C28.8305 14.8874 28.4558 14.522 30.187 14.0006L30.18 13.9452C29.8765 13.8888 28.9277 14.454 28.2214 14.31L28.203 14.2007C28.3758 13.987 28.2975 14.0301 28.5157 13.9481L28.4822 13.9149L28.1274 13.8647Z" fill="#CEB3AA"/>
<path d="M14.2086 9.15625C13.9466 9.24359 13.7452 9.31494 13.4671 9.31613C13.9272 9.38322 14.194 9.44917 14.6265 9.6279L14.7361 9.34687L14.6967 9.26639C14.5309 9.23743 14.4024 9.2174 14.2393 9.16619L14.2086 9.15625Z" fill="#776B70"/>
<path d="M32.9658 3.75935C32.6963 3.69011 31.7243 3.30801 31.4348 3.17854C30.4644 2.74389 29.5378 3.25156 28.4092 3.46109L28.2704 3.43473C28.0295 3.63615 27.8173 3.58899 27.5586 3.73483C26.7146 4.09635 22.974 5.35142 22.6267 5.76436C22.8589 6.02239 22.8935 6.04907 23.2364 6.08407C23.6085 6.22105 24.8591 6.74709 25.1162 6.78426L25.1227 6.8252C25.3403 6.89547 25.6583 7.01965 25.8754 6.99831L25.9121 6.99232L25.93 7.10721C25.9375 7.59614 25.9494 8.08503 25.9661 8.5738C26.1708 9.07721 25.9645 9.51089 26.1957 10.0967C26.1595 10.3077 26.2021 10.4073 26.2075 10.6112C26.2173 10.985 26.1568 11.3813 26.6336 11.4426L26.7416 11.6651L27.057 11.7741C27.4506 11.9723 27.455 12.3352 27.7568 12.3881C27.7223 12.5761 27.7109 12.4882 27.7898 12.6614C28.1116 12.8553 28.4675 12.5958 28.67 12.8548L28.1337 12.8812C28.0792 13.1409 28.1716 13.2946 28.2655 13.5337L28.4437 13.5834L28.9087 13.582L29.0372 13.5954C29.0447 13.5983 29.0523 13.601 29.0599 13.6039C29.6355 13.8334 35.4987 11.2926 36.7743 10.9562C36.9625 10.8129 37.1455 10.6933 37.3424 10.563C37.7511 10.2911 38.633 10.316 38.8784 10.0856C38.965 10.0198 39.0729 9.96008 39.1021 9.86393L38.947 9.84713C38.8998 9.78167 38.838 9.20987 38.8093 9.05334C39.1077 9.034 39.2213 8.95444 39.4847 8.81514C39.2606 8.42391 38.9145 7.82522 38.468 7.69931L36.728 6.93841C36.7132 6.92988 36.6301 6.83373 36.6122 6.81386C36.6386 6.39714 36.6429 5.68771 36.5117 5.30718C36.1368 4.84082 34.7497 4.50156 34.0829 4.21026C33.7712 3.99258 33.3367 3.83594 32.9658 3.75935Z" fill="#FCCC93"/>
<path d="M36.5117 5.30762C36.3531 5.42845 35.0684 5.79893 34.7009 5.99733C34.6307 6.02817 34.5742 6.0575 34.5 6.07656C34.2366 6.12269 33.9974 6.21511 33.7449 6.30272C33.7972 6.78004 33.8246 7.38895 33.7975 7.8694L33.7396 7.87108C33.1278 8.16432 31.4305 8.84863 30.7814 9.05415C30.5989 9.07959 30.2646 9.22424 30.1167 9.32476C30.1302 9.60121 30.1593 10.1625 30.1345 10.4253C29.9061 11.0587 29.5675 11.1531 28.9249 11.1322L28.8719 11.1076L28.7477 11.1012C28.6219 11.3662 28.4232 11.8371 28.3276 12.0244C28.103 11.9824 28.0106 11.851 27.7887 11.779C27.4096 11.6558 27.0176 11.5497 26.6336 11.443L26.7416 11.6656L27.057 11.7746C27.4506 11.9728 27.455 12.3356 27.7568 12.3885C27.7223 12.5766 27.7109 12.4886 27.7898 12.6618C28.1116 12.8558 28.4675 12.5962 28.67 12.8552L28.1337 12.8817C28.0792 13.1414 28.1716 13.2951 28.2655 13.5341L28.4437 13.5838L28.9087 13.5824L29.0372 13.5958C29.0447 13.5987 29.0523 13.6014 29.0599 13.6044C29.6355 13.8339 35.4987 11.293 36.7743 10.9566C36.9625 10.8133 37.1455 10.6937 37.3424 10.5634C37.7511 10.2916 38.633 10.3165 38.8784 10.086C38.965 10.0202 39.0729 9.96051 39.1021 9.86436L38.947 9.84756C38.8998 9.7821 38.838 9.21031 38.8093 9.05377C39.1077 9.03444 39.2213 8.95487 39.4847 8.81557C39.2606 8.42435 38.9145 7.82565 38.468 7.69974L36.728 6.93885C36.7132 6.93031 36.6301 6.83417 36.6122 6.81429C36.6386 6.39757 36.6429 5.68815 36.5117 5.30762Z" fill="#625A61"/>
<path d="M36.5117 5.30762C36.3531 5.42845 35.0684 5.79893 34.7009 5.99733C34.6307 6.02817 34.5742 6.0575 34.5 6.07656C34.2366 6.12269 33.9975 6.21511 33.7449 6.30272C33.7972 6.78004 33.8246 7.38895 33.7975 7.8694L33.892 7.82689C33.9793 8.10588 33.9895 8.16562 34.1808 8.38454C34.1705 8.59735 34.1267 8.82329 34.2361 8.98728C34.3642 9.05302 34.4603 9.06582 34.4792 9.17131C34.5444 9.53466 34.5042 9.9611 34.5355 10.3376C35.0677 10.0621 36.3186 9.86755 36.5684 9.30181C36.8016 9.43868 37.5503 9.24704 37.7911 9.38369C37.9124 9.27134 37.8747 9.30143 37.9182 9.10741L37.9371 8.82049L37.9696 8.82988C38.1917 8.861 38.3977 8.86926 38.5548 9.04097L38.7021 8.97464L38.8093 9.05377C39.1077 9.03444 39.2213 8.95487 39.4847 8.81557C39.2606 8.42435 38.9145 7.82565 38.468 7.69974L36.728 6.93885C36.7132 6.93031 36.6301 6.83417 36.6122 6.81429C36.6386 6.39757 36.6429 5.68815 36.5117 5.30762Z" fill="#BD7A43"/>
<path d="M36.728 6.93896C36.5727 7.07805 36.6063 7.21978 36.6368 7.42245C36.6375 7.70154 36.6193 8.02919 36.7047 8.2891L36.7746 8.33901L36.6706 8.45088C36.6675 8.56177 36.6701 8.77399 36.6417 8.8731C36.6208 9.00528 36.5994 9.17537 36.5684 9.30192C36.8016 9.4388 37.5503 9.24715 37.7911 9.38381C37.9124 9.27146 37.8747 9.30155 37.9182 9.10753L37.9371 8.8206L37.9696 8.83C38.1917 8.86111 38.3977 8.86938 38.5548 9.04109L38.7021 8.97476L38.8093 9.05389C39.1077 9.03455 39.2213 8.95499 39.4847 8.81569C39.2606 8.42446 38.9145 7.82577 38.468 7.69986L36.728 6.93896Z" fill="#584345"/>
<path d="M39.4847 8.81553C39.2606 8.42431 38.9145 7.82561 38.468 7.69971C38.3589 7.89529 38.1914 7.97432 38.0014 8.09045C38.1827 8.35128 38.4619 8.80073 38.7021 8.97461L38.8093 9.05374C39.1077 9.0344 39.2213 8.95484 39.4847 8.81553Z" fill="#968A8E"/>
<path d="M36.7279 6.93896C36.5727 7.07805 36.6063 7.21978 36.6368 7.42245C36.9849 7.5793 37.7216 7.88891 38.0013 8.0906C38.1914 7.97447 38.3589 7.89545 38.468 7.69986L36.7279 6.93896Z" fill="#CEB3AA"/>
<path d="M37.401 8.97961C37.0636 8.98523 36.9693 8.97135 36.6417 8.87256C36.6208 9.00473 36.5994 9.17482 36.5685 9.30138C36.8016 9.43825 37.5503 9.24661 37.7912 9.38326C37.9124 9.27091 37.8748 9.301 37.9182 9.10698C37.7676 9.0548 37.5605 9.01526 37.401 8.97961Z" fill="#6E6267"/>
<path d="M36.7745 8.33838L36.6705 8.45024C36.6674 8.56113 36.67 8.77336 36.6416 8.87247C36.9692 8.97126 37.0634 8.98514 37.4009 8.97953L37.2829 8.6562C37.1566 8.42685 37.0187 8.41573 36.7745 8.33838Z" fill="#FDFBE5"/>
<path d="M37.9372 8.82057C37.9608 8.751 37.9525 8.74754 37.9538 8.67079C37.7479 8.46084 37.485 8.43604 37.283 8.6568L37.401 8.98013C37.5605 9.01578 37.7676 9.05532 37.9182 9.1075L37.9372 8.82057Z" fill="#423B44"/>
<path d="M36.5116 5.30762C36.3531 5.42845 35.0683 5.79893 34.7009 5.99733C34.6307 6.02817 34.5742 6.0575 34.5 6.07656L34.5264 6.52764L34.5714 7.16473L34.6257 7.21097L34.6216 7.38738C34.8135 7.54969 36.0695 6.81175 36.6122 6.81429C36.6386 6.39757 36.6428 5.68815 36.5116 5.30762Z" fill="#CC8A55"/>
<path d="M34.5002 6.07666C34.2368 6.12279 33.9976 6.21521 33.745 6.30282C33.7974 6.78014 33.8248 7.38904 33.7977 7.8695L33.8921 7.82699C33.9794 8.10597 33.9897 8.16571 34.181 8.38463L34.2224 8.37777C34.4689 8.33878 34.4935 8.31582 34.6916 8.17333C34.6121 7.75531 34.5293 7.59441 34.5716 7.16483L34.5266 6.52773L34.5002 6.07666Z" fill="#94563B"/>
<path d="M34.5716 7.16493L34.5266 6.52783C34.5184 6.9089 34.5161 7.29008 34.5197 7.6712C34.3359 7.70405 34.041 7.73651 33.8921 7.82709C33.9794 8.10607 33.9897 8.16581 34.181 8.38473L34.2224 8.37787C34.4689 8.33887 34.4935 8.31592 34.6916 8.17343C34.6121 7.75541 34.5293 7.5945 34.5716 7.16493Z" fill="#B64D45"/>
<path d="M34.6915 8.17334C34.4934 8.31583 34.4688 8.33879 34.2223 8.37778L34.1809 8.38464C34.1706 8.59746 34.1268 8.8234 34.2362 8.98739C34.3643 9.05312 34.4604 9.06592 34.4793 9.17141C34.5445 9.53477 34.5043 9.96121 34.5356 10.3377C35.0678 10.0622 36.3187 9.86766 36.5685 9.30191C36.5995 9.17536 36.6209 9.00527 36.6418 8.87309L36.6121 8.89086C35.8421 9.3582 35.527 9.5884 34.6549 9.94727C34.6318 9.82358 34.5455 9.63275 34.5602 9.50144C34.6226 8.94428 34.8003 8.75621 34.6915 8.17334Z" fill="#94563B"/>
<path d="M36.6705 8.44922C36.4622 8.51425 36.2534 8.57761 36.0441 8.6394C36.0245 8.68051 35.9323 8.86599 35.9265 8.88992C35.7882 9.45372 34.6864 9.30588 34.6548 9.94563C35.5268 9.58676 35.8419 9.35655 36.6119 8.88922L36.6416 8.87145C36.6701 8.77233 36.6675 8.56011 36.6705 8.44922Z" fill="#A4663C"/>
<path d="M33.7396 7.87061C33.1277 8.16385 31.4305 8.84815 30.7814 9.05368C30.5989 9.07912 30.2646 9.22377 30.1166 9.32429C30.1301 9.60073 30.1593 10.162 30.1345 10.4248C29.906 11.0583 29.5674 11.1526 28.9248 11.1318C28.9151 11.3274 28.8843 11.4756 28.9761 11.6418C29.703 12.1738 31.8447 10.4675 33.1807 10.5831C33.3805 10.5219 33.5494 10.4412 33.7396 10.3568C33.7708 9.52911 33.7511 8.69897 33.7396 7.87061Z" fill="#B37A50"/>
<path d="M30.1169 9.32471C30.1304 9.60115 30.1595 10.1624 30.1347 10.4252C30.1671 10.6108 30.1595 10.6489 30.2805 10.7805L30.3447 10.75C30.4284 10.4707 30.3977 10.2003 30.3842 9.90941C30.267 9.76028 30.2718 9.72744 30.233 9.53412L30.1169 9.32471Z" fill="#94563B"/>
<path d="M30.7816 9.05371C30.5991 9.07915 30.2648 9.2238 30.1168 9.32432L30.2329 9.53373C30.3804 9.5239 30.5602 9.49387 30.7092 9.47351C30.7935 9.41323 30.8075 9.38174 30.8685 9.29861C30.8161 9.20517 30.7999 9.16298 30.7816 9.05371Z" fill="#C67B41"/>
<path d="M33.7976 7.86966L33.7397 7.87133C33.7511 8.6997 33.7708 9.52984 33.7397 10.3576C33.5495 10.442 33.3805 10.5227 33.1807 10.5839C31.8447 10.4682 29.7031 12.1745 28.9762 11.6425C28.8844 11.4763 28.9152 11.3281 28.9249 11.1325L28.872 11.1079L28.7478 11.1014C28.622 11.3665 28.4232 11.8373 28.3277 12.0247C28.103 11.9827 28.0107 11.8513 27.7887 11.7792C27.4096 11.6561 27.0176 11.55 26.6336 11.4432L26.7416 11.6658L27.057 11.7748C27.4507 11.973 27.455 12.3359 27.7569 12.3888C27.7223 12.5768 27.711 12.4889 27.7898 12.6621C28.1116 12.856 28.4675 12.5965 28.67 12.8555L28.7337 12.9028C29.0248 12.9133 37.3529 9.65899 37.7912 9.38395C37.5503 9.24729 36.8016 9.43893 36.5685 9.30206C36.3187 9.86781 35.0677 10.0624 34.5356 10.3378C34.5043 9.96136 34.5444 9.53492 34.4792 9.17156C34.4603 9.06607 34.3642 9.05327 34.2362 8.98754C34.1268 8.82355 34.1706 8.59761 34.1809 8.38479C33.9895 8.16587 33.9793 8.10613 33.892 7.82715L33.7976 7.86966Z" fill="#938990"/>
<path d="M33.1807 10.5833C31.8447 10.4676 29.7031 12.1739 28.9762 11.6419C28.8844 11.4757 28.9152 11.3275 28.9249 11.1319L28.872 11.1073L28.7478 11.1008C28.622 11.3659 28.4232 11.8367 28.3277 12.0241C28.103 11.9821 28.0107 11.8507 27.7887 11.7786C27.4096 11.6555 27.0176 11.5494 26.6336 11.4426L26.7416 11.6652L27.057 11.7742C27.4507 11.9724 27.455 12.3353 27.7569 12.3882C27.7909 12.4002 27.8254 12.4119 27.86 12.4234C27.9993 12.4695 28.2807 12.5591 28.4103 12.5426C29.2122 12.4401 30.8398 11.8306 31.5224 11.491C32.0197 11.0369 32.8897 10.9056 33.1807 10.5833Z" fill="#94563B"/>
<path d="M33.7976 7.86966L33.7397 7.87133C33.7512 8.6997 33.7709 9.52984 33.7397 10.3576C33.5496 10.442 33.3806 10.5227 33.1808 10.5839C32.8897 10.9062 32.0198 11.0375 31.5224 11.4916C32.4075 11.253 33.4898 10.5581 34.5356 10.3378C34.5043 9.96136 34.5445 9.53492 34.4793 9.17156C34.4604 9.06607 34.3643 9.05327 34.2362 8.98754C34.1268 8.82355 34.1706 8.59761 34.1809 8.38479C33.9896 8.16587 33.9794 8.10613 33.8921 7.82715L33.7976 7.86966Z" fill="#7E3B23"/>
<path d="M37.3424 10.5627C37.2834 10.488 37.2495 10.4446 37.1823 10.3755C36.2211 10.6633 29.4703 13.1579 29.0372 13.5951C29.0447 13.598 29.0523 13.6007 29.0599 13.6036C29.6355 13.8332 35.4987 11.2923 36.7743 10.9559C36.9625 10.8126 37.1455 10.693 37.3424 10.5627Z" fill="#745650"/>
<path d="M38.702 8.97363L38.5546 9.03996C38.4991 9.5235 38.5836 9.76964 38.0902 9.90073L38.1145 9.94357L38.1628 9.87637L38.1198 9.8875C38.297 10.159 38.5895 10.1161 38.8783 10.085C38.9649 10.0192 39.0728 9.9595 39.102 9.86335L38.9469 9.84656C38.8996 9.78109 38.8379 9.2093 38.8091 9.05276L38.702 8.97363Z" fill="#423B44"/>
<path d="M28.6702 12.854L28.1339 12.8804C28.0794 13.1401 28.1717 13.2938 28.2657 13.5329L28.4439 13.5826L28.9088 13.5812L28.7339 12.9013L28.6702 12.854Z" fill="#584345"/>
<path d="M38.5547 9.04068C38.3976 8.86897 38.1916 8.8607 37.9694 8.82959C37.9798 9.00832 37.9665 9.04522 38.0769 9.17107C38.2892 9.22395 38.3786 9.17064 38.5547 9.04068Z" fill="#CEB3AA"/>
<path d="M32.9657 3.75935C32.6963 3.69011 31.7242 3.30801 31.4348 3.17854C30.4644 2.74389 29.5377 3.25156 28.4091 3.46109L28.2703 3.43473C28.0295 3.63615 27.8173 3.58899 27.5586 3.73483C26.7146 4.09635 22.9739 5.35142 22.6267 5.76436C22.8589 6.02239 22.8935 6.04907 23.2364 6.08407C23.6084 6.22105 24.8591 6.74709 25.1161 6.78426L25.1226 6.8252C25.3402 6.89547 25.6583 7.01965 25.8754 6.99831L25.9121 6.99232C27.1757 6.44942 29.6031 5.48851 30.8791 5.07995C31.3209 5.18452 33.5 5.96275 33.6512 6.31223L33.7449 6.30229C33.9974 6.21468 34.2366 6.12226 34.5 6.07613C34.5742 6.05706 34.6307 6.02773 34.7009 5.99689C35.0684 5.7985 36.3531 5.42801 36.5117 5.30718C36.1368 4.84082 34.7497 4.50156 34.0829 4.21026C33.7712 3.99258 33.3367 3.83594 32.9657 3.75935Z" fill="#F9783B"/>
<path d="M27.5588 3.73486C26.7147 4.09638 22.9741 5.35145 22.6268 5.76439C22.859 6.02242 22.8936 6.0491 23.2365 6.0841C23.6086 6.22108 24.8592 6.74713 25.1163 6.78429L25.1357 6.7098C25.4338 6.46263 29.4672 4.96131 30.0757 4.72473C29.3241 4.36602 28.3585 4.07089 27.5588 3.73486Z" fill="#FCCC93"/>
<path d="M25.1358 6.70963L25.0943 6.60733C24.8648 6.39478 23.1799 5.67725 22.9045 5.79155C22.9553 5.9389 23.08 5.97828 23.2366 6.08393C23.6087 6.22091 24.8593 6.74695 25.1164 6.78411L25.1358 6.70963Z" fill="#FEE5BC"/>
<path d="M34.0829 4.21019C33.7712 3.99251 33.3367 3.83587 32.9657 3.75928L32.787 3.96086L32.5445 3.96264C32.4565 4.09184 32.5461 4.00477 32.5332 4.15337C32.3269 4.08936 32.3787 4.07386 32.1951 4.11599L32.0823 4.21953C31.9527 4.54648 31.6389 4.4916 31.5358 4.74066C31.6454 4.78706 31.6384 4.78512 31.7577 4.78819C31.8868 4.91956 34.4697 5.98337 34.7009 5.99682C35.0684 5.79842 36.3531 5.42794 36.5117 5.30711C36.1368 4.84075 34.7497 4.50149 34.0829 4.21019Z" fill="#FCCC93"/>
<path d="M34.083 4.21019C33.7713 3.99251 33.3368 3.83587 32.9658 3.75928L32.7871 3.96086L32.5446 3.96264C32.4566 4.09184 32.5462 4.00477 32.5333 4.15337C32.327 4.08936 32.3788 4.07386 32.1952 4.11599L32.0823 4.21953C31.9527 4.54648 31.639 4.4916 31.5359 4.74066C31.6455 4.78706 31.6385 4.78512 31.7578 4.78819C32.5468 4.73953 33.0371 4.51947 33.7693 4.24886L34.083 4.21019Z" fill="#7E3B23"/>
<path d="M34.083 4.21019C33.7713 3.99251 33.3368 3.83587 32.9658 3.75928L32.7871 3.96086L32.5446 3.96264C32.4566 4.09184 32.5462 4.00477 32.5333 4.15337L32.5775 4.36488C32.8529 4.46622 33.3492 4.19323 33.7693 4.24886L34.083 4.21019Z" fill="#F9783B"/>
<path d="M32.9658 3.75935C32.6963 3.69011 31.7243 3.30801 31.4348 3.17854C30.4644 2.74389 29.5378 3.25156 28.4091 3.46109C28.9583 3.77307 29.8224 4.06351 30.4299 4.25628L30.4968 4.23246L30.6032 4.36825C30.8505 4.44841 30.8824 4.45273 31.1405 4.42286L31.1438 4.36507C31.1924 4.37873 31.2415 4.39072 31.2912 4.40104C31.6579 4.48033 31.7426 4.37031 32.0661 4.15809L32.0823 4.21961L32.1952 4.11606C32.3788 4.07393 32.3269 4.08943 32.5332 4.15344C32.5462 4.00485 32.4565 4.09192 32.5446 3.96272L32.787 3.96093L32.9658 3.75935Z" fill="#FCCC93"/>
<path d="M32.0009 3.56396C31.5284 3.67972 30.7746 3.80881 30.497 4.23185L30.6034 4.36764C30.8507 4.4478 30.8826 4.45212 31.1407 4.42225L31.1439 4.36446C31.1925 4.37812 31.2417 4.39011 31.2913 4.40043C31.658 4.47972 31.7428 4.3697 32.0663 4.15747L32.0825 4.21899L32.1953 4.11545C32.3789 4.07332 32.3271 4.08882 32.5334 4.15283C32.5463 4.00424 32.4567 4.09131 32.5447 3.9621L32.7872 3.96032C32.4853 3.8894 32.2623 3.72779 32.0009 3.56396Z" fill="#C67B41"/>
<path d="M32.0663 4.15827C31.854 3.99061 31.3054 4.19759 31.1439 4.36525C31.1925 4.37891 31.2417 4.39091 31.2913 4.40122C31.658 4.48051 31.7428 4.37049 32.0663 4.15827Z" fill="#E5A86E"/>
<path d="M31.1406 4.42246L31.1131 4.29893L31.0099 4.23584C30.8101 4.25264 30.7874 4.275 30.6033 4.36785C30.8506 4.44801 30.8825 4.45233 31.1406 4.42246Z" fill="#963938"/>
<path d="M28.5109 9.59147C27.6652 9.24351 26.8098 8.92979 25.9663 8.57373C26.171 9.07714 25.9647 9.51082 26.1958 10.0967C26.1597 10.3076 26.2023 10.4072 26.2077 10.6111C26.2175 10.9849 26.157 11.3812 26.6338 11.4425C27.0177 11.5492 27.4098 11.6553 27.7889 11.7784C28.0108 11.8505 28.1032 11.9819 28.3278 12.0239C28.4234 11.8366 28.6221 11.3657 28.7479 11.1007L28.8721 11.1071L28.9251 11.1317C29.5677 11.1526 29.9063 11.0582 30.1347 10.4248C30.1595 10.162 30.1304 9.6007 30.1169 9.32426C29.4932 9.57813 29.1886 9.71046 28.5109 9.59147Z" fill="#CA8446"/>
<path d="M28.5109 9.59147C27.6652 9.24351 26.8098 8.92979 25.9663 8.57373C26.171 9.07714 25.9647 9.51082 26.1958 10.0967C26.2336 9.707 26.232 9.43872 26.1899 9.04652C26.7013 9.23216 28.2976 9.84371 28.7344 10.0869L28.6097 10.7998C28.7004 10.8921 28.816 10.9952 28.8721 11.1071L28.9251 11.1317C29.5677 11.1526 29.9063 11.0582 30.1347 10.4248C30.1595 10.162 30.1304 9.6007 30.1169 9.32426C29.4932 9.57813 29.1886 9.71046 28.5109 9.59147Z" fill="#C67B41"/>
<path d="M28.1291 11.0088C27.9774 11.2541 28.0244 11.3847 28.0838 11.672L28.1523 11.7454C28.4062 11.5838 28.337 11.3291 28.6411 11.0877C28.4029 11.1021 28.3289 11.1352 28.1291 11.0088Z" fill="#CC8A55"/>
<path d="M28.6097 10.7998C28.384 10.8227 28.2998 10.8463 28.1291 11.0093C28.3289 11.1357 28.4029 11.1026 28.6411 11.0882L28.748 11.1007L28.8722 11.1071C28.816 10.9952 28.7005 10.8921 28.6097 10.7998Z" fill="#E5A86E"/>
<path d="M33.745 6.30322L33.6514 6.31316C32.9794 6.72534 31.6817 7.15881 30.9225 7.46075C30.3123 7.70338 29.5773 8.03027 28.9811 8.24163C28.8332 8.27231 28.6285 8.28176 28.5696 8.41491C28.4346 8.71922 28.5318 9.22788 28.5108 9.59247C29.1885 9.71146 29.4931 9.57913 30.1168 9.32526C30.2647 9.22474 30.599 9.08009 30.7815 9.05465C31.4306 8.84913 33.1279 8.16482 33.7398 7.87158L33.7976 7.8699C33.8248 7.38945 33.7973 6.78055 33.745 6.30322Z" fill="#CC8A55"/>
<path d="M25.9302 7.10693C25.9378 7.59587 25.9496 8.08475 25.9664 8.57353C26.8099 8.92959 27.6653 9.2433 28.5109 9.59126C28.532 9.22667 28.4348 8.71801 28.5698 8.4137C28.6286 8.28055 28.8333 8.2711 28.9813 8.24042C28.2906 8.20666 26.6036 7.4334 25.9302 7.10693Z" fill="#E5A86E"/>
<path d="M25.9615 0.761276C25.307 0.613655 24.436 0.208063 23.6519 0C22.9169 0.161232 21.2159 0.88486 20.4312 1.20932C19.2119 1.71333 17.9035 2.18455 16.6976 2.68845L16.6085 2.7928C16.8467 3.01383 18.5056 3.52243 19.0072 3.74389L19.0893 3.76009C19.3593 3.97809 19.4004 4.00996 19.7595 4.05414L19.814 3.9284L19.9631 4.0253C20.5095 4.15218 20.8103 4.42193 21.1235 4.48647C20.9588 5.05098 20.9745 5.28486 21.015 5.87626C21.2035 6.08367 21.0722 6.2764 21.2078 6.26446C21.4378 6.2442 21.8682 6.01183 22.0696 5.91202C22.0653 6.0107 21.9519 6.08492 21.8623 6.17264C21.9643 6.2024 22.074 6.22454 22.1593 6.28428C22.2851 6.29519 22.4422 6.26376 22.5702 6.24496C22.527 6.01362 22.5384 5.9844 22.6269 5.76461C22.9741 5.35167 26.7148 4.0966 27.5588 3.73508C27.8175 3.58924 28.0297 3.6364 28.2706 3.43498C28.0897 2.87718 28.3257 2.41714 27.7921 1.72748C27.4865 1.3758 27.2705 1.50186 27.0496 1.24071C26.9367 1.13662 26.8957 1.12555 26.7542 1.05884C26.4335 0.905169 26.3055 0.859852 25.9615 0.761276Z" fill="#EB6C61"/>
<path d="M27.7921 1.72754C27.0626 1.99594 26.3141 2.40763 25.5424 2.69466C24.0957 3.23264 22.6474 3.81935 21.2029 4.36462C21.197 4.36646 21.191 4.36835 21.1851 4.37024L21.1235 4.48653C20.9588 5.05103 20.9745 5.28491 21.015 5.87632C21.2035 6.08373 21.0722 6.27645 21.2078 6.26452C21.4378 6.24426 21.8682 6.01189 22.0696 5.91207C22.0653 6.01076 21.9519 6.08497 21.8623 6.17269C21.9643 6.20245 22.0739 6.2246 22.1593 6.28434C22.2851 6.29525 22.4422 6.26381 22.5702 6.24502C22.527 6.01367 22.5384 5.98445 22.6269 5.76467C22.9741 5.35173 26.7148 4.09666 27.5588 3.73514C27.8175 3.5893 28.0297 3.63646 28.2706 3.43504C28.0897 2.87723 28.3257 2.41719 27.7921 1.72754Z" fill="#832928"/>
<path d="M26.7543 1.05879C26.4336 0.905124 26.3056 0.859806 25.9616 0.76123C25.4972 1.10498 25.0862 1.10989 24.6186 1.44127C24.7239 1.52083 24.8054 1.56653 24.8681 1.68196C24.6245 1.74316 22.04 2.57346 22.0282 2.58972L22.1637 2.6393C22.0595 2.78093 21.9212 2.80243 21.7366 2.88183L21.3186 3.0025L21.4039 3.1607C20.9201 3.34511 20.1711 3.57542 19.8141 3.92835L19.9632 4.02526C20.5097 4.15213 20.8104 4.42188 21.1237 4.48643L21.1852 4.37014C21.1912 4.36825 21.1971 4.36636 21.203 4.36452C22.6476 3.81925 24.0959 3.23254 25.5426 2.69456C26.3142 2.40753 27.0627 1.99583 27.7922 1.72744C27.4866 1.37575 27.2706 1.50182 27.0497 1.24066C26.9369 1.13657 26.8958 1.1255 26.7543 1.05879Z" fill="#EB6C61"/>
<path d="M26.7542 1.05879C26.4335 0.905124 26.3055 0.859806 25.9615 0.76123C25.4971 1.10498 25.0861 1.10989 24.6185 1.44127C24.7238 1.52083 24.8053 1.56653 24.868 1.68196L24.9133 1.81316C25.4987 1.5345 26.1581 1.35803 26.7542 1.05879Z" fill="#E5A86E"/>
<path d="M24.8681 1.68164C24.6245 1.74284 22.04 2.57315 22.0282 2.5894L22.1637 2.63899C22.0595 2.78061 21.9212 2.80211 21.7365 2.88151L21.3186 3.00218L21.4039 3.16039C21.6026 3.06905 22.1572 2.87887 22.3948 2.78612C23.2318 2.4555 24.0715 2.13104 24.9134 1.81284L24.8681 1.68164Z" fill="#E5A86E"/>
<path d="M27.0497 1.23997C26.9368 1.13589 26.8958 1.12481 26.7543 1.05811C26.1581 1.35734 25.4987 1.53381 24.9134 1.81247C24.0715 2.13067 23.2318 2.45513 22.3948 2.78575C22.1572 2.87849 21.6026 3.06868 21.4038 3.16001C20.92 3.34442 20.171 3.57474 19.8141 3.92766L19.9631 4.02457L20.0446 3.81105C20.1586 3.75374 20.6225 3.55745 20.7337 3.53055C22.0162 3.21986 25.9578 1.17861 27.0497 1.23997Z" fill="#963938"/>
<path d="M20.0449 3.81104L19.9633 4.02455C20.5098 4.15143 20.8106 4.42118 21.1238 4.48573L21.1854 4.36943L21.1395 4.24374C20.9326 4.11136 20.3051 3.90491 20.0449 3.81104Z" fill="#F8A3A1"/>
<path d="M24.6186 1.44182C24.3351 1.52922 24.3686 1.58831 24.0937 1.46451C23.4592 1.17861 22.0925 1.79956 21.628 2.1863L21.5697 2.23578C21.4444 2.35013 21.4299 2.42423 21.3332 2.52908L21.2619 2.73503L21.3105 2.81141C21.4525 2.83285 21.5951 2.85651 21.7366 2.88238C21.9213 2.80298 22.0595 2.78148 22.1637 2.63986L22.0282 2.59027C22.0401 2.57402 24.6246 1.74371 24.8681 1.68251C24.8055 1.56708 24.7239 1.52139 24.6186 1.44182Z" fill="#963938"/>
<path d="M21.5697 2.23523L21.5211 2.39203C21.8035 2.65611 23.4171 1.87101 23.6633 1.62206L23.6514 1.55432C23.166 1.49691 22.114 2.00221 21.628 2.18575L21.5697 2.23523Z" fill="#EB6C61"/>
<path d="M21.3186 3.00372C21.1518 2.88986 21.0827 2.87468 20.8931 2.81445C20.5799 2.96072 19.4124 3.39294 19.2493 3.53079L19.0895 3.76127C19.3595 3.97927 19.4005 4.01114 19.7596 4.05532L19.8142 3.92958C20.1711 3.57665 20.9201 3.34633 21.404 3.16193L21.3186 3.00372Z" fill="#E5A86E"/>
<path d="M19.2493 3.52964C18.5095 3.32439 17.4273 2.79461 16.6977 2.68848L16.6086 2.79283C16.8468 3.01386 18.5057 3.52246 19.0074 3.74391L19.0895 3.76012L19.2493 3.52964Z" fill="#F8A3A1"/>
<path d="M21.3332 2.52887C21.0416 2.46648 20.8634 2.40631 20.574 2.4701L20.5124 2.54383C20.6021 2.7062 20.7193 2.73374 20.8931 2.81358C21.0827 2.8738 21.1518 2.88898 21.3187 3.00284L21.7366 2.88218C21.5952 2.8563 21.4526 2.83264 21.3106 2.8112L21.262 2.73482L21.3332 2.52887Z" fill="#B64D45"/>
<path d="M16.6085 2.79248C16.1166 3.21574 16.2041 3.86342 16.2143 4.46055L16.2403 4.87154C16.2273 5.01954 16.2349 5.15684 16.1479 5.2733C16.2257 5.46608 16.2527 5.80215 16.1782 5.99995L16.1506 6.0214C16.2532 6.23783 16.2413 6.67772 16.2484 6.93391L16.2532 7.2594C17.2636 7.52391 18.0461 7.94614 18.9722 8.19422C18.9943 8.3924 19.0305 8.48558 18.9225 8.64443C19.1812 8.74587 19.4344 8.83996 19.6812 8.96771L19.8929 9.0026C20.3427 9.23232 21.2559 9.54885 21.7538 9.73304C22.0308 9.58866 22.2603 9.53151 22.5616 9.45913L22.5119 9.2414C22.4909 9.14218 22.4812 9.00384 22.4704 8.89933C22.1825 8.80934 22.1928 8.77974 22.1588 8.50054L22.2301 8.52847C22.4358 8.41342 22.5778 7.90638 22.4693 7.66969L22.4752 7.64317C22.5924 7.49166 22.5627 7.45018 22.5854 7.23888C22.6118 6.88119 22.5908 6.59994 22.5703 6.24464C22.4423 6.26343 22.2851 6.29487 22.1593 6.28396C22.074 6.22422 21.9644 6.20207 21.8623 6.17231C21.9519 6.08459 22.0654 6.01038 22.0697 5.91169C21.8682 6.01151 21.4379 6.24388 21.2078 6.26413C21.0723 6.27607 21.2035 6.08335 21.015 5.87594C20.9745 5.28453 20.9589 5.05065 21.1236 4.48615C20.8104 4.4216 20.5096 4.15186 19.9631 4.02498L19.814 3.92807L19.7595 4.05382C19.4004 4.00964 19.3594 3.97777 19.0894 3.75977L19.0073 3.74356C18.5056 3.5221 16.8467 3.01351 16.6085 2.79248Z" fill="#622122"/>
<path d="M16.6087 2.79248C16.1168 3.21574 16.2043 3.86342 16.2145 4.46055L16.2404 4.87154C16.2275 5.01954 16.235 5.15684 16.1481 5.2733C16.2259 5.46607 16.2529 5.80215 16.1783 5.99995L16.1508 6.0214C16.2534 6.23783 16.2415 6.67772 16.2485 6.93391L16.2534 7.2594C17.2637 7.52391 18.0462 7.94614 18.9723 8.19422L18.981 7.1618C19.2218 7.18389 19.2564 7.18092 19.4962 7.14127C19.4308 6.97091 19.447 6.68555 19.4449 6.49191C19.2505 6.48116 19.0701 6.41311 18.8822 6.35531C18.8352 6.09113 18.7855 6.0349 18.9065 5.78222V5.74808L18.9923 5.61467C18.9556 5.01808 18.9902 4.34717 19.0074 3.74356C18.5058 3.5221 16.8469 3.01351 16.6087 2.79248Z" fill="#963938"/>
<path d="M16.6087 2.79248C16.1168 3.21574 16.2043 3.86342 16.2145 4.46055L16.2404 4.87154C16.2637 4.79009 16.2836 4.75395 16.3204 4.6772L16.4213 4.69902C17.3199 4.9571 18.1251 5.26552 18.9923 5.61467C18.9556 5.01808 18.9902 4.34717 19.0074 3.74356C18.5058 3.5221 16.8469 3.01351 16.6087 2.79248Z" fill="#B64D45"/>
<path d="M18.8822 6.35498C18.7391 6.84132 18.867 6.7858 18.981 7.16147C19.2218 7.18356 19.2564 7.18059 19.4962 7.14094C19.4308 6.97058 19.447 6.68522 19.4449 6.49158C19.2505 6.48083 19.0701 6.41278 18.8822 6.35498Z" fill="#94563B"/>
<path d="M16.4213 4.7002V4.79526C17.247 5.06771 18.1353 5.53525 18.9064 5.74926L18.9923 5.61584C18.125 5.2667 17.3199 4.95828 16.4213 4.7002Z" fill="#622122"/>
<path d="M21.015 5.87598C20.9761 6.43351 20.9637 6.11666 20.7774 6.31933C20.799 6.49881 20.7612 7.97302 20.7553 8.24536C20.8546 8.33254 20.9281 8.34227 21.0517 8.37165C21.1192 8.51241 21.0825 8.61309 21.0561 8.77168C20.7969 9.04434 20.1958 8.65004 19.8383 8.56129C19.9231 8.75088 19.9102 8.81278 19.9652 8.97391L19.8929 9.00264C20.3427 9.23236 21.2559 9.54889 21.7538 9.73308C22.0308 9.5887 22.2603 9.53155 22.5616 9.45917L22.5119 9.24144C22.4909 9.14222 22.4812 9.00388 22.4704 8.89937C22.1825 8.80938 22.1928 8.77978 22.1588 8.50058L22.2301 8.52851C22.4358 8.41346 22.5778 7.90642 22.4693 7.66973L22.4752 7.64321C22.5924 7.4917 22.5627 7.45022 22.5854 7.23892C22.6118 6.88123 22.5908 6.59998 22.5703 6.24468C22.4423 6.26347 22.2851 6.29491 22.1593 6.284C22.074 6.22426 21.9644 6.20211 21.8623 6.17235C21.9519 6.08463 22.0654 6.01042 22.0697 5.91173C21.8682 6.01155 21.4379 6.24392 21.2078 6.26418C21.0723 6.27611 21.2035 6.08339 21.015 5.87598Z" fill="#682021"/>
<path d="M22.5703 6.24512C22.4423 6.26391 22.2851 6.29535 22.1593 6.28444C22.1269 6.68944 21.9935 7.29888 22.2052 7.60347C22.297 7.61983 22.3818 7.63706 22.4752 7.64365C22.5924 7.49214 22.5627 7.45066 22.5854 7.23936C22.6118 6.88168 22.5908 6.60042 22.5703 6.24512Z" fill="#4C1313"/>
<path d="M22.4694 7.66931C22.2269 7.67353 22.2939 7.63572 22.1557 7.77086C22.0876 8.0257 22.16 8.23787 22.1589 8.50016L22.2302 8.52809C22.4359 8.41304 22.5779 7.906 22.4694 7.66931Z" fill="#7E3B23"/>
<path d="M20.2208 6.27275L20.3699 6.1887C20.2435 6.01062 20.0907 5.98755 19.8649 5.88428C19.7802 6.73554 19.8703 7.70196 19.8385 8.56155C20.196 8.65029 20.797 9.04459 21.0562 8.77193C21.0827 8.61335 21.1194 8.51266 21.0519 8.3719C20.9282 8.34252 20.8548 8.3328 20.7554 8.24562C20.7614 7.97328 20.7992 6.49907 20.7776 6.31958C20.5292 6.41599 20.4611 6.36749 20.2208 6.27275Z" fill="#963938"/>
<path d="M20.7776 6.31929C20.5292 6.41571 20.4612 6.3672 20.2209 6.27246C20.2603 6.82038 20.1582 7.70276 20.3499 8.09457C20.5276 8.24511 20.4973 8.20217 20.7555 8.24533C20.7614 7.97299 20.7992 6.49878 20.7776 6.31929Z" fill="#94563B"/>
<path d="M19.9632 4.02561L19.8142 3.92871L19.7596 4.05446L19.771 4.10474C19.9027 4.48198 19.7569 5.68288 19.8649 5.88462C20.0906 5.98789 20.2435 6.01096 20.3698 6.18904L20.2208 6.27309C20.4611 6.36783 20.5291 6.41634 20.7775 6.31992C20.9638 6.11726 20.9763 6.43411 21.0151 5.87657C20.9746 5.28517 20.959 5.05129 21.1237 4.48679C20.8105 4.42224 20.5097 4.15249 19.9632 4.02561Z" fill="#B64D45"/>
<path d="M19.0895 3.76034L19.0074 3.74414C18.9901 4.34775 18.9556 5.01866 18.9923 5.61525L18.9064 5.74866V5.7828C19.1316 5.86895 19.3314 5.98476 19.5469 5.92356C19.8034 5.6489 19.6311 5.13954 19.6959 4.63878L19.704 4.57866C19.7094 4.36131 19.7154 4.31464 19.771 4.10468L19.7597 4.0544C19.4006 4.01021 19.3595 3.97835 19.0895 3.76034Z" fill="#B37A50"/>
<path d="M19.6814 8.96853C19.6798 8.64255 19.6954 7.44041 19.6209 7.18816L19.4962 7.14209C19.2564 7.18174 19.2218 7.18471 18.981 7.16262L18.9723 8.19504C18.9945 8.39322 19.0307 8.4864 18.9227 8.64525C19.1813 8.74669 19.4346 8.84078 19.6814 8.96853Z" fill="#955838"/>
<path d="M19.7041 4.5791L19.696 4.63922C19.6312 5.13999 19.8034 5.64934 19.5469 5.924C19.3315 5.9852 19.1317 5.86939 18.9065 5.78324C18.7855 6.03592 18.8352 6.09215 18.8822 6.35633C19.0701 6.41413 19.2505 6.48218 19.4449 6.49293C19.4584 6.38701 19.4881 6.17036 19.5556 6.09912L19.6128 6.29108L19.6846 6.29351C19.7559 5.91693 19.71 5.0076 19.7041 4.5791Z" fill="#B64D45"/>
<path d="M22.627 5.76465C22.5384 5.98443 22.5271 6.01365 22.5703 6.245C22.5908 6.6003 22.6119 6.88156 22.5854 7.23924C22.5627 7.45054 22.5924 7.49202 22.4753 7.64353L22.4693 7.67005C22.5779 7.90674 22.4358 8.41378 22.2301 8.52883L22.1588 8.5009C22.1928 8.7801 22.1826 8.8097 22.4704 8.89969C22.4812 9.00421 22.4909 9.14254 22.512 9.24176L22.5617 9.45949C22.6092 9.7106 22.715 9.95761 22.7409 10.1008C23.0131 10.2166 23.2804 10.3355 23.5623 10.4253C24.0915 10.6389 24.6223 10.8484 25.1548 11.0537L25.9232 11.3379C26.2186 11.4764 26.4713 11.5472 26.7419 11.6654L26.6339 11.4428C26.1571 11.3816 26.2175 10.9853 26.2078 10.6115C26.2024 10.4076 26.1597 10.3079 26.1959 10.097C25.9648 9.51118 26.1711 9.0775 25.9664 8.57409C25.9497 8.08531 25.9378 7.59643 25.9302 7.1075L25.9124 6.99261L25.8757 6.9986C25.6586 7.01994 25.3406 6.89576 25.1229 6.82549L25.1164 6.78455C24.8594 6.74738 23.6087 6.22134 23.2367 6.08436C22.8938 6.04936 22.8592 6.02267 22.627 5.76465Z" fill="#C67B41"/>
<path d="M25.1229 6.82568C25.0813 7.26104 25.11 7.81598 25.1202 8.26473C25.0711 8.54296 25.0155 8.7184 25.1386 8.95325C25.2914 9.02115 25.3584 9.01871 25.5274 9.03805L25.5371 9.31736C25.5387 9.55194 25.589 9.71112 25.4664 9.84837C25.3832 9.84627 25.238 9.8386 25.1607 9.84383L25.1748 9.98017C25.1732 10.2977 25.184 10.7481 25.1548 11.0539L25.9232 11.3381C26.2186 11.4766 26.4713 11.5474 26.7419 11.6656L26.6339 11.443C26.1571 11.3818 26.2175 10.9855 26.2078 10.6116C26.2024 10.4078 26.1597 10.3081 26.1959 10.0972C25.9648 9.51138 26.1711 9.0777 25.9664 8.57428C25.9497 8.08551 25.9378 7.59663 25.9302 7.10769L25.9124 6.9928L25.8757 6.9988C25.6586 7.02013 25.3406 6.89596 25.1229 6.82568Z" fill="#7E3B23"/>
<path d="M25.1228 6.82568C25.0813 7.26104 25.1099 7.81598 25.1201 8.26473C25.071 8.54296 25.0154 8.7184 25.1385 8.95325C25.2913 9.02115 25.3583 9.01871 25.5273 9.03805C26.1159 8.57526 25.6169 7.74987 25.8756 6.9988C25.6585 7.02013 25.3405 6.89596 25.1228 6.82568Z" fill="#B64D45"/>
<path d="M25.1747 9.98047C25.1731 10.298 25.1839 10.7484 25.1548 11.0542L25.9232 11.3384L25.9372 11.3012C25.9086 11.2005 25.8222 10.2208 25.8011 10.0314C25.5603 9.98981 25.4177 9.98765 25.1747 9.98047Z" fill="#94563B"/>
<path d="M22.6271 5.76465C22.5385 5.98443 22.5272 6.01365 22.5704 6.245C22.5909 6.6003 22.6119 6.88156 22.5855 7.23924L22.6373 7.30918C23.3825 7.55398 24.4269 8.07559 25.1203 8.26453C25.11 7.81578 25.0814 7.26084 25.123 6.82549L25.1165 6.78455C24.8595 6.74738 23.6088 6.22134 23.2367 6.08436C22.8938 6.04936 22.8593 6.02267 22.6271 5.76465Z" fill="#E5A86E"/>
<path d="M22.5121 9.24138L22.5618 9.45911C22.6093 9.71022 22.7151 9.95723 22.741 10.1004C23.0132 10.2162 23.2805 10.3352 23.5624 10.4249C23.6169 10.1963 23.5689 10.1931 23.4814 9.93136L23.3567 9.20605C23.037 9.24635 22.8366 9.2443 22.5121 9.24138Z" fill="#94563B"/>
<path d="M25.1272 9.8599C25.1029 10.1317 25.0727 10.403 25.037 10.6734C24.6288 10.3922 24.0709 10.3768 23.6794 10.1359C23.6427 10.1134 23.6017 9.99731 23.4812 9.93087C23.5687 10.1926 23.6168 10.1958 23.5622 10.4244C24.0915 10.638 24.6223 10.8475 25.1547 11.0529C25.1839 10.747 25.1731 10.2966 25.1747 9.97911L25.1607 9.84277L25.1272 9.8599Z" fill="#A4663C"/>
<path d="M22.6373 7.30921L22.5855 7.23926C22.5628 7.45056 22.5925 7.49204 22.4753 7.64355L22.4694 7.67007C22.5779 7.90676 22.4359 8.4138 22.2301 8.52885L22.1588 8.50092C22.1929 8.78012 22.1826 8.80972 22.4704 8.89971L22.5142 8.89096L22.586 8.72044C22.707 8.44901 22.5952 7.71415 22.6373 7.30921Z" fill="#622122"/>
<path d="M25.5371 9.3165C25.3962 9.25908 25.2795 9.21106 25.1337 9.16504L25.0619 9.22213C25.0527 9.43387 25.0948 9.64987 25.1272 9.86009L25.1607 9.84297C25.2379 9.83773 25.3832 9.8454 25.4664 9.84751C25.5889 9.71026 25.5387 9.55108 25.5371 9.3165Z" fill="#94563B"/>
<path d="M22.5142 8.89028C22.6821 9.09704 23.1049 9.05211 23.2885 8.85225L23.2183 8.76642C22.9721 8.67357 22.8484 8.69923 22.586 8.71976L22.5142 8.89028Z" fill="#E5A86E"/>
<path d="M16.1479 5.27393C15.1953 5.65878 13.9511 6.03617 13.0763 6.41519C12.8803 6.41687 12.7912 6.36534 12.64 6.25823C12.3435 6.33768 12.1334 6.38684 11.9558 6.65998C12.4083 6.81301 13.0822 7.06428 13.5261 7.18047C14.5683 7.67756 16.4978 8.34075 17.6475 8.78447L26.4599 12.2L26.4983 12.212C26.744 12.2697 26.7542 12.2633 26.94 12.1637C27.0442 11.9993 27.0366 11.9753 27.0572 11.7747L26.7418 11.6657C26.4713 11.5475 26.2185 11.4767 25.9231 11.3382L25.1547 11.054C24.6223 10.8486 24.0914 10.6392 23.5622 10.4255C23.2803 10.3358 23.013 10.2169 22.7409 10.1011C22.7149 9.95788 22.6091 9.71087 22.5616 9.45976C22.2602 9.53214 22.0307 9.58928 21.7537 9.73366C21.2558 9.54948 20.3427 9.23295 19.8928 9.00323L19.6812 8.96834C19.4344 8.84059 19.1811 8.7465 18.9224 8.64506C19.0304 8.48621 18.9943 8.39303 18.9721 8.19485C18.046 7.94676 17.2635 7.52454 16.2532 7.26003L16.2483 6.93454C16.2413 6.67835 16.2532 6.23846 16.1506 6.02202L16.1781 6.00058C16.2526 5.80278 16.2256 5.4667 16.1479 5.27393Z" fill="#CCC3BA"/>
<path d="M26.4599 12.1987C26.6468 12.1549 26.6219 12.1901 26.737 12.0741L26.6927 11.9955C25.8848 11.6449 24.8993 11.3001 24.0591 10.9755L18.8285 8.97032L14.9091 7.52474C14.3545 7.31722 12.5973 6.54465 12.1302 6.60272C12.4996 6.74569 13.3118 6.89353 13.5262 7.17921C14.5684 7.6763 16.4978 8.33949 17.6475 8.78322L26.4599 12.1987Z" fill="#E6DCDE"/>
<path d="M16.1481 5.27393C15.1955 5.65878 13.9513 6.03617 13.0765 6.41519C13.2223 6.46461 14.0793 6.81166 14.1587 6.80307C14.811 6.5364 15.4925 6.28351 16.1508 6.02202L16.1783 6.00058C16.2528 5.80278 16.2259 5.4667 16.1481 5.27393Z" fill="#35262C"/>
<path d="M16.1509 6.02246C15.4927 6.28394 14.8112 6.53684 14.1589 6.80351C14.3678 6.94702 15.0958 7.1889 15.3517 7.23719C15.672 7.11555 15.9144 7.02351 16.2487 6.93498C16.2417 6.67879 16.2536 6.2389 16.1509 6.02246Z" fill="#FEE5BC"/>
<path d="M16.2533 7.26025L16.3224 7.55317C16.6767 7.86273 18.3766 8.43177 18.9226 8.64529C19.0306 8.48643 18.9944 8.39325 18.9723 8.19508C18.0462 7.94699 17.2637 7.52476 16.2533 7.26025Z" fill="#622122"/>
<path d="M16.2486 6.93408C15.9144 7.02261 15.6719 7.11465 15.3517 7.23629C15.6217 7.38186 16.0191 7.63789 16.3226 7.55249L16.2535 7.25957L16.2486 6.93408Z" fill="#776B70"/>
<path d="M22.741 10.1013C22.7151 9.95808 22.6093 9.71107 22.5617 9.45996C22.2604 9.53234 22.0309 9.58949 21.7539 9.73387C22.0639 9.85281 22.4289 10.0039 22.741 10.1013Z" fill="#616464"/>
<path d="M27.757 12.3879C27.4551 12.335 27.4508 11.9721 27.0571 11.7739C27.0366 11.9745 27.0442 11.9985 26.9399 12.1629C26.7542 12.2625 26.7439 12.2689 26.4982 12.2112L26.7666 12.4812C26.7833 12.6135 26.8417 13.3663 26.8141 13.4686C26.8552 13.5813 26.8654 13.5825 26.9426 13.669L26.9367 13.7768C26.9259 13.9393 27.015 14.1656 26.9448 14.295C26.8233 14.0591 26.758 13.8928 26.5484 13.7224C26.7034 14.0388 26.8028 14.144 26.7083 14.4723C26.8098 14.4964 26.9891 14.4663 27.0992 14.4544C27.2591 14.4564 27.2753 14.4628 27.4189 14.4026C27.7041 14.393 27.9859 14.4042 28.1728 14.1538C28.1955 13.9545 28.2149 14.0238 28.1274 13.8638C28.1577 13.691 28.1674 13.6836 28.2657 13.5335C28.1717 13.2944 28.0794 13.1407 28.1339 12.881L28.6701 12.8546C28.4676 12.5956 28.1118 12.8551 27.7899 12.6612C27.7111 12.488 27.7224 12.5759 27.757 12.3879Z" fill="#756B74"/>
<path d="M27.757 12.3879C27.4551 12.335 27.4508 11.9721 27.0571 11.7739C27.0366 11.9745 27.0442 11.9985 26.9399 12.1629C26.7542 12.2625 26.7439 12.2689 26.4982 12.2112L26.7666 12.4812C26.9988 12.7356 27.2213 13.0488 27.4297 13.3269C27.6862 13.1877 27.8947 13.0948 28.1031 12.888L28.1339 12.881L28.6701 12.8546C28.4676 12.5956 28.1118 12.8551 27.7899 12.6612C27.7111 12.488 27.7224 12.5759 27.757 12.3879Z" fill="#A89DA3"/>
<path d="M26.9367 13.7771C26.9259 13.9396 27.015 14.1658 26.9448 14.2953C26.8233 14.0593 26.758 13.8931 26.5485 13.7227C26.7034 14.0391 26.8028 14.1442 26.7083 14.4725C26.8098 14.4966 26.9891 14.4666 27.0993 14.4547C27.2591 14.4567 27.2753 14.4631 27.4189 14.4029C27.6679 14.2848 28.1091 13.9844 28.3559 13.825C27.8612 13.9498 27.5831 14.2644 27.17 14.1675C27.0156 14.0718 26.9999 13.9545 26.9367 13.7771Z" fill="#625A61"/>
<path d="M14.208 8.36974C14.1751 8.26009 14.1697 8.27246 14.1006 8.17529C13.9272 8.16859 13.992 8.158 13.8235 8.29407C13.6772 8.57229 13.4806 8.90124 13.4201 9.20307L13.411 9.31472L13.4671 9.3158C13.7452 9.31461 13.9467 9.24326 14.2086 9.15592C14.2188 9.02002 14.2177 8.85371 14.221 8.71489L14.208 8.36974Z" fill="#35262C"/>
<path d="M26.8143 13.4694C26.6603 13.2265 26.5221 12.8542 26.1884 12.8193C26.1106 13.0677 26.3747 13.5591 26.5486 13.7232C26.7581 13.8936 26.8234 14.0598 26.9449 14.2958C27.0151 14.1663 26.926 13.9401 26.9368 13.7776L26.9428 13.6698C26.8656 13.5833 26.8553 13.5821 26.8143 13.4694Z" fill="#423B44"/>
<path d="M14.2323 8.31706L14.2096 8.16906C14.0206 7.95424 13.3586 7.78745 13.1058 7.89888C13.331 8.14967 13.6356 8.12482 13.8235 8.29313C13.992 8.15707 13.9272 8.16765 14.1005 8.17435C14.1697 8.27152 14.1751 8.25915 14.208 8.3688L14.2323 8.31706Z" fill="#625A61"/>
<path d="M15.1497 8.57126C14.9197 8.49645 14.451 8.32252 14.2323 8.31885L14.208 8.37059L14.2209 8.71575C14.5098 8.70505 14.8603 8.6264 15.1497 8.57126Z" fill="#CCC3BA"/>
<path d="M15.6598 8.83017C15.4514 8.79263 14.9195 8.97752 14.69 9.04672C18.0305 10.3743 21.5232 11.5915 24.8886 12.9299L25.5776 13.1735L25.4777 12.5897C22.2118 11.3995 18.9436 10.0349 15.6598 8.83017Z" fill="#FEE5BC"/>
<path d="M1.29454 16.3228C1.18923 16.8867 1.19572 17.5044 1.19842 18.0801C1.20058 18.5372 1.10229 19.2309 1.49812 19.5088C1.70116 19.5146 1.81565 19.5864 2.00087 19.6714C1.98899 19.9312 1.96793 20.2213 1.99061 20.4775C2.07107 20.5067 2.23632 20.5562 2.29086 20.6061L2.3373 21.0746C2.37078 21.4719 2.39994 21.8697 2.42532 22.2677C2.43936 22.4822 2.46096 22.7122 2.44746 22.9254C2.91727 23.3573 4.97147 24.2635 5.64918 24.568L5.79012 24.662C5.9478 24.8299 6.09199 24.9887 6.26641 25.1397C6.56612 25.1312 6.83936 25.0672 7.12881 24.998C7.06779 26.6902 7.37344 28.1415 8.56254 29.4346C9.52538 30.4824 10.4299 30.6698 11.767 30.3379C12.7314 30.0639 14.0674 29.6435 14.501 28.6827L14.3865 28.6003C14.3077 28.1906 14.1333 27.2674 14.2013 26.8841L14.2418 26.9419C14.3574 26.9201 14.46 26.9429 14.5793 26.9565L14.6231 26.685C14.9525 26.9143 17.3879 27.8701 17.9085 28.0573C19.258 28.5429 20.959 29.3737 22.275 29.8179L22.3809 29.7923C22.3539 28.7603 22.3177 27.7288 22.2712 26.6975C22.2453 26.0849 22.2313 25.2793 22.1546 24.6815L22.1854 24.5802L22.1676 24.5914C21.8506 24.7082 19.4734 23.5853 18.9269 23.3959C17.9906 23.0712 16.9845 22.5804 16.0325 22.275L15.9763 22.3696C15.6161 22.301 14.71 22.0966 14.4913 21.835L14.5027 21.6435C14.129 21.4525 13.3119 21.1589 12.8972 20.9968L9.64796 19.7292L4.22896 17.5698C3.54962 17.2954 2.82061 16.9548 2.14775 16.7004C1.96631 16.6313 1.77677 16.5856 1.58345 16.5642L1.29454 16.3228Z" fill="#E5A86E"/>
<path d="M11.7672 30.3388C11.8925 30.1577 12.1523 29.9892 12.2635 29.818C13.39 28.0899 12.6799 25.5411 11.393 24.1214C10.475 23.1091 8.95217 22.4262 7.83002 23.4543C7.41152 23.838 7.15339 24.4373 7.12909 24.9989C7.06807 26.691 7.37372 28.1423 8.56282 29.4355C9.52566 30.4833 10.4302 30.6707 11.7672 30.3388Z" fill="#423B44"/>
<path d="M11.7099 26.5287C11.4178 25.4263 10.2373 23.9088 8.95425 24.2501C8.6108 24.3408 8.31973 24.5693 8.14963 24.8816C7.743 25.6163 7.9266 27.331 8.50387 27.8944C8.67776 28.1928 8.80574 28.3369 9.03093 28.6034C9.09033 28.8282 9.29067 28.9781 9.46401 29.1438L9.36034 29.0891C9.76426 29.4039 10.5565 29.8353 10.9879 29.3585L10.9976 29.17C11.9405 28.654 11.9308 27.4351 11.7099 26.5287Z" fill="#CCC3BA"/>
<path d="M11.7099 26.5288C11.4507 27.1137 11.9751 28.191 11.0284 28.6841C10.2503 29.0896 9.15459 27.8522 8.57138 27.8489L8.50387 27.8945C8.67776 28.1929 8.80574 28.337 9.03093 28.6035C9.09033 28.8283 9.29067 28.9782 9.46401 29.144L9.36034 29.0892C9.76426 29.404 10.5565 29.8354 10.9879 29.3587L10.9976 29.1702C11.9405 28.6541 11.9308 27.4352 11.7099 26.5288Z" fill="#FDFBE5"/>
<path d="M9.03099 28.6035C9.09039 28.8283 9.29074 28.9783 9.46408 29.144L9.3604 29.0893C9.76433 29.4041 10.5565 29.8355 10.988 29.3587L10.9977 29.1702C10.0813 29.3782 9.74867 29.1553 9.03099 28.6035Z" fill="#655459"/>
<path d="M11.0851 27.27C11.3999 26.974 11.0905 26.5669 11.2898 26.2405C11.3837 26.3454 11.3729 26.4059 11.4474 26.5136C11.3243 26.1419 10.8065 25.0456 10.4295 24.9287L10.4128 24.9775C10.5278 25.0958 10.6407 25.2164 10.7508 25.3392L10.7357 25.4117C10.3604 25.3898 10.0029 24.8461 9.52124 25.3359C8.19983 26.4674 9.96188 28.9574 11.0851 27.27Z" fill="#625A61"/>
<path d="M11.0851 27.27C11.3999 26.974 11.0905 26.5669 11.2898 26.2405C11.3837 26.3454 11.3729 26.4059 11.4474 26.5136C11.3243 26.1419 10.8065 25.0456 10.4295 24.9287L10.4128 24.9775C10.5278 25.0958 10.6407 25.2164 10.7508 25.3392L10.7357 25.4117C10.3604 25.3898 10.0029 24.8461 9.52124 25.3359C10.7309 24.9013 11.1764 26.3124 11.0851 27.27Z" fill="#CEB3AA"/>
<path d="M12.1587 24.7302C11.2163 23.4106 9.37382 21.8655 7.65497 22.5367C7.21648 22.7078 6.88492 22.8637 6.67053 23.2984C6.41187 23.2275 6.34868 23.1483 6.14942 22.9692C5.81785 23.3337 5.89075 24.422 5.79031 24.6636C5.948 24.8316 6.09218 24.9903 6.26661 25.1413C6.56631 25.1328 6.83955 25.0688 7.129 24.9997C7.1533 24.4381 7.41142 23.8388 7.82993 23.4551C8.95207 22.427 10.4749 23.1099 11.3929 24.1222C12.6798 25.5419 13.3899 28.0907 12.2634 29.8188C12.1522 29.99 11.8924 30.1585 11.7671 30.3396C12.7316 30.0655 14.0676 29.6451 14.5012 28.6843L14.3867 28.6019C14.127 28.4993 13.8084 28.4109 13.6874 28.159C13.3872 27.2594 13.2808 26.6535 12.8326 25.7977C12.744 25.6855 12.2883 24.9252 12.1587 24.7302Z" fill="#1A1618"/>
<path d="M6.1496 22.9678C5.81804 23.3323 5.89094 24.4205 5.7905 24.6621C5.94818 24.8301 6.09237 24.9889 6.26679 25.1399C6.29325 24.5904 6.33159 23.7389 6.67072 23.297C6.41205 23.2261 6.34887 23.1469 6.1496 22.9678Z" fill="#625A61"/>
<path d="M6.44979 22.3311C6.51838 22.1422 6.56157 22.0546 6.57507 21.8515C6.34881 21.8302 6.43035 22.128 6.13767 22.208C5.18779 21.7526 3.05583 21.1557 2.29117 20.6074L2.33761 21.0759C2.3711 21.4732 2.40026 21.871 2.42564 22.269C2.43968 22.4834 2.46128 22.7135 2.44778 22.9267C2.91759 23.3586 4.97178 24.2648 5.64949 24.5693L5.79044 24.6632C5.89088 24.4216 5.81798 23.3334 6.14954 22.9689C6.22839 22.7684 6.35259 22.5294 6.44979 22.3311Z" fill="#6F564E"/>
<path d="M6.44979 22.3311C6.51838 22.1422 6.56157 22.0546 6.57507 21.8515C6.34881 21.8302 6.43035 22.128 6.13767 22.208C5.18779 21.7526 3.05583 21.1557 2.29117 20.6074L2.33761 21.0759C2.59574 21.2649 5.78774 22.67 5.94218 22.6616L6.00644 22.6146C6.00428 22.6684 5.65922 24.5413 5.64949 24.5693L5.79044 24.6632C5.89088 24.4216 5.81798 23.3334 6.14954 22.9689C6.22839 22.7684 6.35259 22.5294 6.44979 22.3311Z" fill="#745650"/>
<path d="M13.0264 24.3572C12.9297 24.2614 12.8125 24.067 12.7321 23.9502C11.247 21.8036 8.70197 20.1252 6.44959 22.3295C6.35239 22.5277 6.22818 22.7668 6.14934 22.9673C6.3486 23.1464 6.41178 23.2256 6.67045 23.2965C6.88483 22.8618 7.2164 22.7058 7.65489 22.5348C9.37374 21.8636 11.2163 23.4087 12.1586 24.7283C12.5042 24.696 12.9427 24.7364 13.0264 24.3572Z" fill="#FCCC93"/>
<path d="M14.6233 26.6846C14.208 25.9579 13.7873 24.4033 13.2295 23.8335L13.162 23.8435C13.7533 24.6135 13.4855 25.2838 13.9952 26.0856C14.0552 26.1799 14.0525 26.2875 14.0082 26.3883C13.3472 26.47 13.5891 26.7199 13.5119 27.2315C13.4682 27.1433 13.4428 27.0965 13.4309 26.9975C13.3856 26.6216 13.1733 26.3106 13.0545 25.9169L13.1285 25.8561L12.8326 25.7957C13.2808 26.6515 13.3872 27.2574 13.6874 28.157C13.8084 28.4089 14.127 28.4974 14.3867 28.5999C14.3079 28.1903 14.1335 27.267 14.2015 26.8837L14.242 26.9415C14.3576 26.9197 14.4602 26.9426 14.5795 26.9562L14.6233 26.6846Z" fill="#B37A50"/>
<path d="M14.2015 26.8855C14.0411 26.7936 14.0206 26.7836 13.8381 26.806C13.5125 27.0906 13.7684 27.7302 13.6874 28.1588C13.8084 28.4106 14.127 28.4991 14.3867 28.6017C14.3079 28.192 14.1335 27.2688 14.2015 26.8855Z" fill="#584345"/>
<path d="M1.29492 16.3228C1.18961 16.8867 1.1961 17.5044 1.1988 18.0801C1.20096 18.5372 1.10267 19.2309 1.4985 19.5088C1.70154 19.5146 1.81603 19.5864 2.00125 19.6714C2.05903 19.4568 1.99801 17.1676 1.99153 16.7824C1.80037 16.7168 1.72747 16.7079 1.58383 16.5642L1.29492 16.3228Z" fill="#F9783B"/>
<path d="M14.4914 21.836C14.2171 21.7345 14.1086 21.7591 13.824 21.7911C13.5896 22.5164 14.8046 22.7373 15.329 22.9144L15.6184 22.9827L15.6838 22.9296L15.639 22.5582L15.9354 22.4438L15.9765 22.3707C15.6163 22.302 14.7101 22.0976 14.4914 21.836Z" fill="#CCC3BA"/>
<path d="M14.4914 21.836C14.2171 21.7345 14.1086 21.7591 13.824 21.7911C14.0287 21.9803 15.3544 22.5072 15.639 22.5582L15.9354 22.4438L15.9765 22.3707C15.6163 22.302 14.7101 22.0976 14.4914 21.836Z" fill="#FDFBE5"/>
<path d="M22.1546 24.6812C21.9866 24.9484 22.2756 28.0888 22.2113 28.6761C22.1946 28.8265 22.2459 29.6348 22.275 29.8176L22.3809 29.792C22.3539 28.76 22.3177 27.7285 22.2712 26.6972C22.2453 26.0846 22.2313 25.279 22.1546 24.6812Z" fill="#A4663C"/>
<path d="M15.9355 22.4434L15.639 22.5578L15.6838 22.9291L15.6185 22.9822L15.329 22.914C15.3258 22.9328 15.3479 22.9736 15.3577 22.9969C15.6536 23.1166 15.895 23.1799 16.051 22.8452C16.0397 22.6484 16.0235 22.6211 15.9355 22.4434Z" fill="#B37A50"/>
<path d="M12.3395 21.7158C12.2903 22.1242 12.8735 23.2187 13.0717 23.6391C13.1408 23.4519 12.4637 22.0085 12.3395 21.7158Z" fill="#B37A50"/>
<path d="M24.3015 18.4678C24.1422 19.4107 23.9775 20.3528 23.8079 21.294C23.7431 21.6556 23.694 22.4146 23.4261 22.637L23.5309 22.7149C23.404 22.6992 23.1291 22.6574 23.0135 22.6639L22.8137 22.6719C22.7943 22.9022 22.7932 23.0101 22.7144 23.2333L22.6474 23.2845L22.6237 23.4216L22.7144 23.4531C22.6096 23.7503 22.3871 24.3386 22.1852 24.581L22.1544 24.6822C22.3698 24.7714 23.3365 25.1523 23.4563 25.2662L23.4304 25.3725L23.4628 25.41C23.6432 25.7331 24.6595 25.9982 25.0019 26.0081L25.0559 25.8894C25.7157 26.1309 30.9204 28.3078 31.1186 28.2959C31.3713 27.9171 31.5338 27.4891 31.6731 27.0591L31.7709 27.0211C32.1159 27.2669 32.0938 27.1443 32.3676 27.2658L32.3671 26.7284C32.3649 26.5817 32.3465 26.4674 32.3271 26.3229C32.515 26.3669 32.5399 26.3573 32.7224 26.2903L32.6101 26.1417C32.5501 25.781 32.2213 24.8953 32.0917 24.5161C31.7541 23.5084 31.4021 22.5059 31.0343 21.5089C30.7422 21.5067 28.7722 21.3755 28.4957 21.2678C27.2316 20.7757 25.6088 19.6627 24.4165 18.9305C24.3042 18.8614 24.3144 18.6094 24.3015 18.4678Z" fill="#616464"/>
<path d="M28.866 25.8621C28.0695 25.6107 23.0345 23.3641 22.7142 23.4533C22.6095 23.7504 22.387 24.3388 22.185 24.5811L22.1542 24.6824C22.3697 24.7716 23.3363 25.1524 23.4562 25.2663L23.4303 25.3727L23.4627 25.4101C23.6431 25.7333 24.6594 25.9983 25.0017 26.0082L25.0557 25.8896C25.7156 26.131 30.9202 28.308 31.1184 28.296C31.3711 27.9172 31.5337 27.4893 31.673 27.0592C31.5067 26.9193 30.8538 26.6601 30.559 26.4844C30.3041 26.5076 29.7776 26.6072 29.5238 26.6848C28.7866 26.8354 28.8034 26.4259 28.866 25.8621Z" fill="#FCCC93"/>
<path d="M23.4564 25.2666L23.4305 25.373L23.4629 25.4104C23.6433 25.7336 24.6596 25.9986 25.0019 26.0085L25.0559 25.8899C24.5256 25.6751 23.9921 25.4673 23.4564 25.2666Z" fill="#CC8A55"/>
<path d="M23.5309 22.7143C23.404 22.6986 23.1291 22.6568 23.0135 22.6633L22.8137 22.6713C22.7943 22.9016 22.7932 23.0095 22.7144 23.2327L22.6474 23.2839L22.6237 23.421L22.7144 23.4525C23.0346 23.3634 28.0697 25.61 28.8662 25.8613C28.8035 26.4252 28.7868 26.8346 29.5239 26.6841L29.2928 26.6396C29.168 26.4432 29.2291 25.8341 29.2636 25.5826C29.3047 25.2867 29.2696 25.2908 29.4634 25.1405L29.2782 25.1429V24.858C29.0881 24.7681 28.8051 24.6671 28.6048 24.5995C26.9481 24.0399 25.2173 23.1326 23.5309 22.7143Z" fill="#E5A86E"/>
<path d="M23.5309 22.7143C23.404 22.6986 23.1292 22.6568 23.0136 22.6633C23.1356 22.7502 29.2216 25.1398 29.2783 25.1429V24.858C29.0882 24.7681 28.8052 24.6671 28.6049 24.5995C26.9481 24.0399 25.2174 23.1326 23.5309 22.7143Z" fill="#FEE5BC"/>
<path d="M31.1359 24.7656C30.6153 24.915 29.9986 25.0895 29.4634 25.1403C29.2696 25.2906 29.3047 25.2865 29.2636 25.5824C29.2291 25.8339 29.1681 26.443 29.2928 26.6394L29.5239 26.6839C29.7777 26.6063 30.3042 26.5067 30.5591 26.4834C30.854 26.6591 31.5068 26.9183 31.6732 27.0583L31.7709 27.0203C32.116 27.266 32.0938 27.1435 32.3676 27.265L32.3671 26.7276C32.3649 26.5809 32.3466 26.4666 32.3271 26.3221L32.2845 26.2628C32.2369 26.1815 32.2542 26.2103 32.1651 26.1536L31.9772 26.1978C31.7909 26.1457 31.5884 25.9114 31.4399 25.7659L31.415 25.6571C31.3189 25.5219 31.1834 24.9477 31.1359 24.7656Z" fill="#CC8A55"/>
<path d="M31.4399 25.766C31.2422 25.7014 31.1045 25.7193 30.9004 25.7269L30.8691 25.7738C31.0176 25.9393 31.1564 26.0642 31.2071 26.2821L31.1834 26.367C30.9868 26.319 30.8653 26.3002 30.6687 26.2745L30.6844 26.3313C30.7983 26.383 30.821 26.3975 30.9495 26.4179L31.3443 26.4425L31.3994 26.4875C31.4701 26.5798 31.7498 26.9294 31.7709 27.0204C32.116 27.2661 32.0938 27.1436 32.3676 27.2651L32.3671 26.7277C32.3649 26.581 32.3466 26.4667 32.3271 26.3222L32.2845 26.2629C32.2369 26.1816 32.2542 26.2104 32.1651 26.1537L31.9772 26.1979C31.7909 26.1458 31.5884 25.9115 31.4399 25.766Z" fill="#B37A50"/>
<path d="M32.2844 26.2627C32.1721 26.3774 32.0997 26.9821 32.1332 27.1372C32.2801 27.0821 32.3303 26.8667 32.367 26.7274C32.3649 26.5808 32.3465 26.4664 32.3271 26.3219L32.2844 26.2627Z" fill="#6F564E"/>
<path d="M31.3993 26.4882C31.5143 26.2549 31.3733 25.9761 31.227 25.7876C31.193 25.9127 31.3058 26.2934 31.3442 26.4432L31.3993 26.4882Z" fill="#A4663C"/>
<path d="M31.1358 24.7663C30.9538 24.6876 30.7081 24.5789 30.5412 24.4731C30.2604 24.545 29.4855 24.7168 29.2781 24.8585V25.1435L29.4634 25.141C29.9985 25.0902 30.6152 24.9157 31.1358 24.7663Z" fill="#FCCC93"/>
<path d="M31.415 25.6572L31.4399 25.766C31.5884 25.9115 31.7909 26.1458 31.9772 26.1979L32.1651 26.1537C32.2542 26.2104 32.2369 26.1816 32.2844 26.2629L32.3271 26.3222C32.515 26.3662 32.5399 26.3565 32.7224 26.2896L32.6101 26.141C32.2153 25.9716 31.8168 25.8104 31.415 25.6572Z" fill="#FCCC93"/>
<path d="M13.0133 19.5089C12.6288 19.4269 11.2728 18.8646 10.8144 18.6896C8.08137 17.6466 5.30248 16.6112 2.59217 15.5195C2.09968 15.7526 1.58181 15.8925 1.29452 16.3229L1.58343 16.5643C1.77676 16.5857 1.9663 16.6315 2.14774 16.7006C2.82059 16.955 3.54961 17.2955 4.22894 17.5699L9.64794 19.7293L12.8972 20.9969C13.3119 21.159 14.129 21.4527 14.5026 21.6437L14.4913 21.8351C14.71 22.0967 15.6161 22.3011 15.9763 22.3698L16.0325 22.2751C16.9845 22.5805 17.9906 23.0714 18.9269 23.396C19.4734 23.5854 21.8506 24.7084 22.1675 24.5915L22.1854 24.5804C22.3873 24.338 22.6098 23.7496 22.7146 23.4525L22.6239 23.4209L22.6476 23.2839C21.6156 22.9283 20.4471 22.4495 19.421 22.0483L13.1256 19.5582C12.7935 19.9708 12.4198 20.3525 12.0553 20.7371C12.3275 20.2512 12.6509 19.925 13.0133 19.5089Z" fill="#FCCC93"/>
<path d="M14.5027 21.6436L14.4914 21.835C14.7101 22.0966 15.6162 22.301 15.9764 22.3697L16.0326 22.275C15.6276 22.0668 14.9666 21.8565 14.5027 21.6436Z" fill="#CC8A55"/>
<path d="M22.6239 23.4214C22.484 23.7588 22.1913 24.285 22.1675 24.5919L22.1854 24.5808C22.3873 24.3384 22.6098 23.7501 22.7146 23.4529L22.6239 23.4214Z" fill="#CC8A55"/>
<path d="M13.0934 12.2334C10.9328 12.8926 8.82133 13.6175 6.65265 14.2479C6.29895 14.3667 4.8744 14.8831 4.61412 14.756C4.55849 14.8455 4.59467 14.8717 4.47641 15.0204L4.38839 15.0174C4.29713 14.67 4.64004 14.1427 4.62816 13.7244C4.38839 14.1566 4.17832 14.5388 4.03522 15.0131C4.07248 15.1208 4.03738 15.0848 4.11892 15.142C5.11416 15.1649 11.3351 17.7795 12.7494 18.2528C12.8957 18.1047 13.467 15.9547 13.5864 15.5478C13.7889 14.7821 14.0897 13.6679 14.3543 12.9415C14.0422 12.8452 13.278 12.5602 13.0556 12.3595L13.0934 12.2334Z" fill="#676D6D"/>
<path d="M13.0934 12.2334C10.9328 12.8926 8.82133 13.6175 6.65265 14.2479C7.93302 14.5396 9.188 14.8715 10.4916 15.102C11.4263 15.2672 12.697 15.3196 13.5864 15.5478C13.7889 14.7821 14.0897 13.6679 14.3543 12.9415C14.0422 12.8452 13.278 12.5602 13.0556 12.3595L13.0934 12.2334Z" fill="#6F7978"/>
<path d="M6.8623 9.52694C6.7084 9.48427 6.59229 9.42421 6.45675 9.46029C6.03824 10.392 5.63108 11.3291 5.23633 12.2714C5.07973 12.639 4.7379 13.3811 4.62828 13.7246C4.64016 14.1429 4.29725 14.6702 4.38851 15.0176L4.47653 15.0206C4.59479 14.8719 4.55862 14.8457 4.61424 14.7563C4.87452 14.8833 6.29907 14.367 6.65278 14.2481C8.82146 13.6177 10.9329 12.8929 13.0935 12.2336L13.2031 12.151L13.269 12.1132C12.7047 11.8132 10.4156 10.9541 9.77511 10.7161C9.11198 10.3804 7.60859 9.83001 6.8623 9.52694Z" fill="#859890"/>
<path d="M6.86234 9.52694C6.70843 9.48427 6.59233 9.42421 6.45679 9.46029C6.03828 10.392 5.63111 11.3291 5.23637 12.2714C5.07976 12.639 4.73794 13.3811 4.62831 13.7246C4.64019 14.1429 4.29728 14.6702 4.38855 15.0176L4.47657 15.0206C4.59483 14.8719 4.55865 14.8457 4.61427 14.7563C5.07058 13.694 5.53283 12.6343 6.00101 11.5774C6.26616 10.9787 6.67603 10.123 6.86234 9.52694Z" fill="#494944"/>
<path d="M9.77511 10.7153L9.73839 10.7888C9.84478 10.8707 13.0341 12.1264 13.2031 12.1503L13.269 12.1125C12.7047 11.8125 10.4156 10.9534 9.77511 10.7153Z" fill="#676D6D"/>
<path d="M25.7169 16.887C25.563 16.7772 24.8809 16.5447 24.6703 16.4688C24.5602 16.9332 24.5035 17.2212 24.4446 17.6941C24.3906 17.8696 24.3134 18.2853 24.3015 18.4678C24.3145 18.6094 24.3042 18.8614 24.4165 18.9305C25.6089 19.6627 27.2316 20.7757 28.4958 21.2678C28.7723 21.3755 30.7422 21.5067 31.0344 21.5089C30.7622 20.6808 30.4792 19.8746 30.2184 19.0405C30.1228 18.8537 30.0791 18.7 30.0148 18.5023C28.6551 18.0721 27.1252 17.3621 25.7169 16.887Z" fill="#676D6D"/>
<path d="M25.717 16.887C25.5631 16.7772 24.881 16.5447 24.6704 16.4688C24.5603 16.9332 24.5036 17.2212 24.4447 17.6941L24.4928 17.766C24.6413 17.7579 25.8579 17.3218 26.1128 17.2327C26.0712 17.1474 25.8239 17.01 25.717 16.887Z" fill="#798B88"/>
<path d="M24.6704 16.4679C24.5419 16.4135 24.3605 16.3435 24.2411 16.2798C24.0106 17.9381 23.4473 20.7253 23.1525 22.4589C23.1692 22.4912 23.186 22.5236 23.2027 22.5559L23.4263 22.6362C23.6941 22.4138 23.7432 21.6547 23.808 21.2931C23.9776 20.3519 24.1423 19.4099 24.3016 18.4669C24.3135 18.2845 24.3907 17.8688 24.4447 17.6933C24.5036 17.2203 24.5603 16.9324 24.6704 16.4679Z" fill="#1A1618"/>
<path d="M12.7493 18.253C11.3351 17.7796 5.11414 15.165 4.1189 15.1421C4.22258 15.3275 8.1625 16.7858 8.68631 16.9948L11.2384 18.0051C11.5311 18.123 12.4264 18.5297 12.6932 18.5623C12.8017 18.4292 12.7666 18.5036 12.7947 18.3273L12.7493 18.253Z" fill="#FEEBC8"/>
<path d="M13.1258 19.5592C13.1966 19.3038 13.2338 19.0582 13.2884 18.8012C13.7344 16.7073 14.4888 14.6507 14.9851 12.5808L14.9219 12.5078C14.7464 12.5392 14.6584 12.538 14.4823 12.5406L14.4845 12.6301C14.6508 12.6994 14.7253 12.6932 14.7928 12.8243C14.7243 13.2484 14.5806 13.7444 14.4548 14.1622C13.9682 15.7797 13.5433 17.409 13.1026 19.0388C13.061 19.1913 13.0535 19.377 13.0135 19.5098C12.6512 19.9259 12.3277 20.2522 12.0555 20.7381C12.42 20.3534 12.7937 19.9717 13.1258 19.5592Z" fill="#C19D7E"/>
<path d="M14.4824 12.5404C14.1006 12.4401 13.7291 12.227 13.269 12.1133L13.2031 12.1511L13.0935 12.2337L13.0557 12.3598C13.2781 12.5606 14.0423 12.8456 14.3544 12.9419L14.4845 12.6299L14.4824 12.5404Z" fill="#61696B"/>
<path d="M22.8139 22.6709C22.6551 22.7687 22.6184 23.1108 22.6476 23.2835L22.7145 23.2323C22.7934 23.0091 22.7945 22.9012 22.8139 22.6709Z" fill="#B37A50"/>
<path d="M15.689 12.9894L15.4692 12.8965L15.4039 12.9311L14.3692 16.6754C14.2121 17.2344 13.8724 18.3313 13.7898 18.8383C13.8562 18.9463 14.1149 18.977 14.2483 18.9966L14.6128 19.1404C14.4405 19.1218 14.2904 19.0741 14.1559 19.1383C14.2591 19.2407 14.3924 19.2988 14.5258 19.3459C15.115 19.5534 16.0503 19.9241 16.5925 20.1105C17.4554 20.4074 21.5476 22.2018 22.0935 22.2479C22.1772 22.1267 22.1513 22.1952 22.147 22.0279C22.2075 21.2421 22.6573 19.1913 22.842 18.3748C22.97 17.5883 23.1811 16.6969 23.2745 15.9314L22.9214 15.8109C22.0082 15.4009 19.8984 14.602 18.9815 14.2982C18.7763 14.1757 16.1739 13.1712 15.8969 13.0881L15.689 12.9894Z" fill="#616464"/>
<path d="M18.9815 14.2989C18.7763 14.1764 16.1739 13.1719 15.8969 13.0889C15.6658 13.6814 15.2689 15.0798 15.0966 15.7315C15.1101 15.8141 15.1058 15.954 15.1798 15.9852C16.5897 16.5764 18.1628 16.9681 19.61 17.438C20.4632 17.7149 22.1276 17.9758 22.842 18.3756C22.97 17.589 23.1811 16.6977 23.2745 15.9322L22.9214 15.8116C22.0082 15.4016 19.8984 14.6028 18.9815 14.2989Z" fill="#6F7978"/>
<path d="M22.9214 15.8105C22.0083 15.4005 19.8985 14.6017 18.9815 14.2979C19.1884 14.6034 22.5499 15.8598 22.9214 15.8105Z" fill="#616464"/>
<path d="M15.6893 12.9894L15.4695 12.8965L15.4041 12.9311L14.3695 16.6754C14.2123 17.2344 13.8727 18.3313 13.79 18.8383C13.8565 18.9463 14.1151 18.977 14.2485 18.9966L14.1475 18.8776C14.4429 18.5614 14.9624 16.2983 15.0969 15.7307C15.2691 15.079 15.666 13.6807 15.8972 13.0881L15.6893 12.9894Z" fill="#6F564E"/>
<path d="M15.6893 12.9897C15.5823 13.2143 15.5002 13.4694 15.4365 13.7108C15.011 15.3196 14.5093 16.9151 14.1297 18.534C14.0995 18.6651 14.1027 18.7511 14.1475 18.8779C14.4429 18.5617 14.9624 16.2986 15.0969 15.731C15.2691 15.0793 15.666 13.681 15.8972 13.0884L15.6893 12.9897Z" fill="#1A1618"/>
<path d="M14.6128 19.1404C14.4405 19.1219 14.2904 19.0742 14.1559 19.1384C14.2591 19.2408 14.3925 19.2989 14.5258 19.346C15.115 19.5535 16.0503 19.9241 16.5925 20.1106C17.4554 20.4075 21.5476 22.2019 22.0936 22.2479C22.1773 22.1268 22.1513 22.1953 22.147 22.0279C20.2834 21.2702 18.3821 20.5637 16.5109 19.8223C15.8991 19.5798 15.2408 19.3246 14.6128 19.1404Z" fill="#FFEDCE"/>
<path d="M1.49857 19.5093L1.26367 19.588C0.790077 19.6942 0.342407 19.723 4.0509e-05 20.0826C0.0130008 20.6214 0.0416208 21.4517 0.121002 21.9814C0.722034 22.3075 1.32793 22.5655 1.9457 22.8554C2.06018 22.8847 2.20112 22.9255 2.31506 22.9452L2.44791 22.9259C2.46141 22.7127 2.43981 22.4827 2.42577 22.2682C2.40039 21.8702 2.37123 21.4724 2.33775 21.0751L2.29131 20.6066C2.23677 20.5567 2.07152 20.5072 1.99106 20.478C1.96838 20.2218 1.98944 19.9317 2.00132 19.6719C1.8161 19.5869 1.70161 19.5151 1.49857 19.5093Z" fill="#584345"/>
<path d="M1.49852 19.5093L1.26362 19.588C0.79003 19.6942 0.34236 19.723 -6.50381e-06 20.0826C0.110696 20.1368 0.466024 20.3215 0.562146 20.3558C0.932593 20.5157 1.559 20.7617 1.89867 20.9363L2.07688 20.7789C2.11198 20.7681 2.25562 20.6386 2.29126 20.6066C2.23672 20.5567 2.07147 20.5072 1.99101 20.478C1.96833 20.2218 1.98939 19.9317 2.00127 19.6719C1.81605 19.5869 1.70157 19.5151 1.49852 19.5093Z" fill="#A9786F"/>
<path d="M1.26373 19.5879C0.790144 19.6941 0.342474 19.7229 0.000107674 20.0826C0.11081 20.1367 0.466138 20.3214 0.56226 20.3557C0.810125 20.2188 0.937026 20.2572 1.18921 20.3438L1.20811 20.1078C1.25941 19.9444 1.25563 19.7616 1.26373 19.5879Z" fill="#9C6C62"/>
<path d="M1.49859 19.5093L1.26369 19.588C1.25559 19.7617 1.25937 19.9445 1.20806 20.1079C1.50345 20.2306 1.70811 20.3285 1.99108 20.478C1.9684 20.2218 1.98946 19.9317 2.00134 19.6719C1.81612 19.5869 1.70163 19.5151 1.49859 19.5093Z" fill="#C19D7E"/>
<path d="M1.208 20.1079L1.1891 20.3438C1.52444 20.6484 1.82361 20.4592 2.07688 20.7789C2.11198 20.7681 2.25562 20.6385 2.29126 20.6066C2.23672 20.5567 2.07147 20.5072 1.99101 20.478C1.70805 20.3284 1.50338 20.2306 1.208 20.1079Z" fill="#745650"/>
<path d="M2.29131 20.6074C2.25567 20.6393 2.11202 20.7689 2.07692 20.7797L1.89872 20.9371C1.89926 21.2876 1.98026 22.6759 1.9457 22.8562C2.06018 22.8855 2.20112 22.9263 2.31506 22.946L2.44791 22.9267C2.46141 22.7135 2.43981 22.4834 2.42577 22.269C2.40039 21.871 2.37123 21.4732 2.33775 21.0759L2.29131 20.6074Z" fill="#2B1E20"/>
<path d="M2.42577 22.2686C2.25513 22.327 2.31399 22.2733 2.23731 22.4275C2.24271 22.6495 2.26592 22.7355 2.31506 22.9456L2.44791 22.9263C2.46141 22.7131 2.43981 22.483 2.42577 22.2686Z" fill="#1A1618"/>
</svg>
