<svg width="50" height="28" viewBox="0 0 50 28" fill="none" xmlns="http://www.w3.org/2000/svg">
<path d="M22.0711 1.76079C21.6534 1.66657 21.0974 1.4077 20.597 1.2749C20.1279 1.37781 19.0422 1.83967 18.5414 2.04676C17.7632 2.36845 16.928 2.6692 16.1584 2.99082L16.1015 3.05743C15.7875 3.32757 15.8434 3.74096 15.8499 4.12208C15.3047 4.34565 14.7084 4.52775 14.1487 4.71912L10.7851 5.86472C10.4139 5.99445 9.53946 6.24801 9.24753 6.43831C9.19927 6.4832 7.30051 10.7689 7.15541 11.1809C6.84108 11.3297 6.51054 11.419 6.32718 11.6937C6.25997 12.0536 6.26411 12.4479 6.26583 12.8153C6.26721 13.107 6.20448 13.5498 6.45712 13.7272C6.58671 13.7309 6.65978 13.7767 6.778 13.831C6.77042 13.9968 6.75698 14.182 6.77145 14.3455C6.82281 14.3641 6.92828 14.3957 6.96309 14.4276L6.99273 14.7266C7.0141 14.9802 7.03271 15.234 7.04891 15.488C7.05787 15.6249 7.07166 15.7718 7.06304 15.9078C7.3629 16.1835 8.674 16.7619 9.10656 16.9563L9.19651 17.0162C9.29715 17.1234 9.38918 17.2247 9.50051 17.3211C9.6918 17.3157 9.8662 17.2748 10.0509 17.2307C10.012 18.3107 10.2071 19.237 10.966 20.0624C11.5806 20.7312 12.1579 20.8508 13.0113 20.6389C13.6268 20.464 14.4795 20.1957 14.7563 19.5825C16.4 20.2153 18.0503 20.9195 19.6964 21.5478L19.7843 21.5897C21.4969 22.3115 23.2395 22.9879 24.9549 23.701C25.5595 23.9522 26.3305 24.2261 26.906 24.4828L26.9883 24.5308L27.1774 24.6213C27.2845 24.6644 27.2919 24.6706 27.4273 24.6327C27.5973 24.5671 27.6432 24.5427 27.7975 24.4452C27.837 24.9902 27.9095 25.4831 28.1637 25.9752C28.7256 27.0632 29.6448 27.9625 30.9303 27.4583C32.2297 27.038 32.2284 27.0166 32.8848 25.9019L32.8974 25.8808C33.5735 26.0726 34.3295 26.4978 35.0691 26.5219C35.2072 26.5264 35.3495 26.4944 35.4712 26.4437C36.2667 26.1122 38.0682 25.4389 38.7804 25.1376C39.6357 24.7758 46.6178 22.1371 46.9371 21.8587C47.0631 21.6089 47.0108 21.1309 47.0197 20.8066C46.9964 20.5944 46.9694 20.5744 46.7866 20.476C46.6098 20.3803 46.3896 20.3198 46.1959 20.2584C46.2161 19.856 46.2448 18.7044 46.1757 18.3465L46.1464 18.0805C45.948 17.6927 45.6024 17.6218 45.2171 17.447L43.7954 16.8017L37.9489 14.1857L37.6232 14.1195C37.4963 13.8754 37.3861 13.6545 37.2339 13.4243L37.286 13.3747C37.4592 13.3166 37.63 13.2519 37.798 13.1805C37.8362 12.8582 37.8181 12.4982 37.8318 12.1665C37.7097 12.073 37.5617 12.0363 37.4146 11.9879C37.1643 12.0958 36.916 12.2072 36.6957 12.3714C36.6186 12.2833 36.2574 11.6249 36.1844 11.495L35.0974 9.54933C34.9798 9.3341 34.7909 8.92295 34.6295 8.77985C34.4047 8.61861 33.8248 8.42393 33.5426 8.30099C32.652 7.91311 31.6181 7.57109 30.75 7.14943C30.7495 7.10137 30.7144 6.95647 30.7025 6.90138C30.5595 6.65168 30.3386 6.26956 30.0536 6.1892L28.943 5.70355C28.9336 5.6981 28.8805 5.63674 28.8692 5.62405C28.886 5.35808 28.8887 4.90528 28.805 4.66241C28.5657 4.36475 27.6804 4.14821 27.2548 3.96229C27.0559 3.82336 26.7786 3.72338 26.5418 3.67449C26.3698 3.6303 25.7494 3.38642 25.5646 3.30378C24.9453 3.02637 24.3538 3.35039 23.6335 3.48412L23.5449 3.4673C23.4295 3.11128 23.5801 2.81765 23.2395 2.37748C23.0445 2.15301 22.9066 2.23348 22.7656 2.06679C22.6936 2.00036 22.6674 1.99329 22.5771 1.95071C22.3724 1.85263 22.2907 1.82371 22.0711 1.76079Z" fill="#F7C499"/>
<path d="M34.6295 8.78027C32.2384 9.79218 29.6455 10.6612 27.2373 11.657C26.5369 11.9466 25.5688 12.2728 24.9115 12.5878C24.968 12.6926 25.0046 12.7351 24.996 12.8531C24.8915 12.9708 24.8129 12.9403 24.7395 13.0966C24.7412 13.2083 24.7685 13.2488 24.8147 13.3514C24.806 13.388 24.8088 13.4048 24.7881 13.4282C24.9546 13.9606 25.1352 14.4752 25.3089 15.0037C25.5436 15.64 25.7683 16.2799 25.9838 16.923C26.0665 17.1651 26.2764 17.7304 26.3146 17.9606L26.3863 18.0555C26.2698 18.0982 26.254 18.1044 26.134 18.0763C26.1464 18.1685 26.1582 18.2415 26.1595 18.3351L26.1599 18.6781C25.9851 18.6006 25.9993 18.6787 25.779 18.5219L25.7166 18.5461C25.6277 18.8206 25.524 19.0937 25.3627 19.3355C25.2362 19.3431 21.9143 17.9537 21.4931 17.7996L21.4587 17.8753C21.2401 17.869 20.5915 17.6998 20.4764 17.4936L20.4557 17.4697L20.4722 17.4018C20.3957 17.3291 19.7788 17.086 19.6412 17.0291C19.6902 17.4107 19.6991 17.9248 19.7157 18.3159C19.7453 18.9741 19.7684 19.6325 19.7857 20.2911L19.7181 20.3075C18.8782 20.0239 17.7925 19.4937 16.9311 19.1837C16.5989 19.0642 15.0444 18.4542 14.8342 18.3079L14.8063 18.4812C14.7301 18.4725 14.6646 18.4579 14.5909 18.4718L14.565 18.4349C14.5216 18.6796 14.6329 19.2688 14.6832 19.5303L14.7563 19.5829C16.4 20.2157 18.0503 20.92 19.6964 21.5482L19.7843 21.5901C21.4969 22.3119 23.2395 22.9883 24.9549 23.7014C25.5595 23.9526 26.3305 24.2265 26.906 24.4832L26.9883 24.5313L27.1774 24.6217C27.2845 24.6649 27.2919 24.671 27.4273 24.6331C27.5973 24.5675 27.6432 24.5432 27.7975 24.4456C27.837 24.9906 27.9095 25.4835 28.1637 25.9756C28.7256 27.0636 29.6448 27.9629 30.9303 27.4587C32.2297 27.0384 32.2284 27.017 32.8848 25.9023L32.8974 25.8812C33.5735 26.073 34.3295 26.4982 35.0691 26.5223C35.2072 26.5268 35.3495 26.4948 35.4712 26.4441C36.2667 26.1126 38.0682 25.4393 38.7804 25.1381C39.6357 24.7762 46.6178 22.1375 46.9371 21.8591C47.0631 21.6093 47.0108 21.1314 47.0197 20.807C46.9964 20.5948 46.9694 20.5748 46.7866 20.4764C46.6098 20.3807 46.3896 20.3202 46.1959 20.2588C46.2161 19.8564 46.2448 18.7049 46.1757 18.347L46.1464 18.0809C45.948 17.6931 45.6024 17.6222 45.2171 17.4475L43.7954 16.8021L37.9489 14.1861L37.6232 14.12C37.4963 13.8759 37.3861 13.6549 37.2339 13.4247L37.286 13.3751C37.4592 13.3171 37.63 13.2523 37.798 13.181C37.8362 12.8587 37.8181 12.4986 37.8318 12.1669C37.7097 12.0735 37.5617 12.0368 37.4146 11.9884C37.1643 12.0963 36.916 12.2077 36.6957 12.3719C36.6186 12.2837 36.2574 11.6253 36.1844 11.4954L35.0974 9.54975C34.9798 9.33453 34.7909 8.92338 34.6295 8.78027Z" fill="#FEE5BC"/>
<path d="M19.6413 17.0283C19.6902 17.4099 19.6992 17.924 19.7157 18.3151C19.7454 18.9733 19.7685 19.6317 19.7857 20.2903L19.7182 20.3067C18.8782 20.0232 17.7925 19.4929 16.9312 19.183C16.5989 19.0635 15.0445 18.4535 14.8343 18.3071L14.8063 18.4804C14.7302 18.4717 14.6647 18.4571 14.5909 18.4711L14.5651 18.4342C14.5216 18.6788 14.633 19.2681 14.6833 19.5295L14.7564 19.5822C16.4001 20.2149 18.0503 20.9192 19.6964 21.5475L19.7843 21.5893C21.497 22.3112 23.2396 22.9876 24.955 23.7006C25.5595 23.9519 26.3306 24.2258 26.9061 24.4825L26.9884 24.5305L27.1775 24.6209C27.2846 24.6641 27.292 24.6702 27.4273 24.6324C27.5974 24.5667 27.6432 24.5424 27.7976 24.4448C27.8371 24.9899 27.9096 25.4827 28.1637 25.9748C28.7257 27.0629 29.6448 27.9621 30.9303 27.4579C32.2298 27.0376 32.2285 27.0162 32.8848 25.9016L32.8974 25.8805L32.8448 25.8044C32.7271 25.5276 32.685 25.2652 32.5867 24.9903C32.5458 24.8757 32.4438 24.7874 32.4635 24.6707C32.6338 24.6018 33.1111 24.8639 33.3725 24.9296L33.3461 24.7923L33.4149 24.7115L33.4944 24.7465C33.5935 24.7514 33.7779 24.7384 33.8492 24.7588C34.272 24.5025 34.4375 24.6179 34.8964 24.6853L34.971 24.6156C34.7895 24.5498 34.4423 24.5058 34.2193 24.4428C34.2727 24.3335 34.2155 23.1102 34.2445 22.8068L34.1769 22.753L34.1685 22.7339C34.453 22.7074 34.8243 22.8372 34.9969 22.7582L35.0243 22.6612C35.0339 22.4942 35.031 22.4548 35.1014 22.3007C34.5694 22.1332 33.3831 21.525 32.8147 21.2589L28.6419 19.3182C28.4113 19.2083 27.2049 18.5984 27.0473 18.5833C26.8593 18.5512 26.6566 18.5542 26.6463 18.794C26.7769 19.0638 27.0233 19.0214 27.0198 19.1526C26.8843 19.1291 26.6701 19.0151 26.537 18.9511C26.5118 18.8908 26.5115 18.921 26.5274 18.8599C26.4105 18.7835 26.3912 18.7731 26.2578 18.7346C26.2368 18.7266 26.182 18.6908 26.1599 18.6773C25.9852 18.5998 25.9993 18.678 25.7791 18.5212L25.7167 18.5454C25.6278 18.8198 25.524 19.093 25.3627 19.3348C25.2362 19.3424 21.9144 17.9529 21.4932 17.7988L21.4587 17.8745C21.2402 17.8682 20.5915 17.6991 20.4764 17.4928L20.4557 17.4689L20.4723 17.401C20.3958 17.3284 19.7788 17.0853 19.6413 17.0283Z" fill="#E5A86E"/>
<path d="M31.2302 23.897C31.0659 23.7359 30.9382 23.4848 30.6651 23.25C30.0762 22.7437 29.4663 22.3942 28.6739 22.4198C28.2225 22.5568 27.5642 22.8765 27.4426 23.3881L27.2144 23.4507C27.0765 23.6781 27.1813 24.3293 27.1774 24.6219C27.2845 24.665 27.2919 24.6712 27.4273 24.6333C27.5973 24.5677 27.6432 24.5433 27.7975 24.4458C27.837 24.9908 27.9095 25.4837 28.1636 25.9758C28.7256 27.0638 29.6447 27.9631 30.9303 27.4589C32.2297 27.0386 32.2284 27.0172 32.8848 25.9025L32.8973 25.8814L32.8447 25.8053L32.7505 25.8488C32.5786 25.8291 32.5224 25.8085 32.3594 25.7553L32.0514 25.6604L32.0157 25.6495C31.7379 24.9811 31.7489 24.8373 31.3684 24.1228L31.2302 23.897Z" fill="#423B44"/>
<path d="M31.2303 23.897C31.0659 23.7359 30.9383 23.4848 30.6652 23.25C30.0762 22.7437 29.4664 22.3942 28.674 22.4198C28.2226 22.5568 27.5643 22.8765 27.4427 23.3881L27.2145 23.4507C27.0766 23.6781 27.1814 24.3293 27.1775 24.6219C27.2846 24.665 27.292 24.6712 27.4274 24.6333C27.5974 24.5677 27.6433 24.5433 27.7976 24.4458C27.8841 23.8417 27.9147 23.3868 28.4554 22.9896C28.7414 22.7773 29.101 22.6898 29.4525 22.7468C30.6519 22.9411 31.3864 24.3434 31.5978 25.4302C31.6505 25.581 31.6256 25.5811 31.7331 25.6727C31.8585 25.6917 31.8909 25.679 32.0158 25.6495C31.738 24.9811 31.749 24.8373 31.3685 24.1228L31.2303 23.897Z" fill="#120E11"/>
<path d="M27.4426 23.3877L27.2144 23.4503C27.0765 23.6776 27.1813 24.3288 27.1774 24.6214C27.2845 24.6646 27.2919 24.6707 27.4273 24.6329C27.4393 24.1949 27.3396 23.8346 27.4426 23.3877Z" fill="#35262C"/>
<path d="M32.0157 25.649C31.8908 25.6785 31.8585 25.6912 31.733 25.6722C31.6255 25.5806 31.6504 25.5804 31.5977 25.4297C31.627 26.4529 31.4776 26.6485 30.9303 27.4584C32.2297 27.038 32.2284 27.0167 32.8848 25.902L32.8973 25.8809L32.8447 25.8048L32.7505 25.8483C32.5786 25.8286 32.5224 25.8079 32.3594 25.7548L32.0514 25.6599L32.0157 25.649Z" fill="#35262C"/>
<path d="M29.3939 23.5266C27.7576 23.4545 28.2694 26.5428 30.01 26.823C31.5395 26.7868 31.1556 23.9147 29.3939 23.5266Z" fill="#ECE3D7"/>
<path d="M29.5202 23.6627C28.578 23.598 28.4075 24.5914 28.6273 25.3116C28.7921 25.8519 29.3961 26.2157 29.8768 26.4657C30.021 26.4809 30.1835 26.4719 30.3304 26.4684C31.4472 25.6661 30.534 24.0546 29.5202 23.6627Z" fill="#CCC3BA"/>
<path d="M29.721 24.2148C29.6163 24.2296 29.5477 24.2465 29.451 24.2927C29.304 24.3634 29.1931 24.4925 29.1453 24.6486C28.9812 25.1802 29.3697 25.7228 29.8857 25.8758C30.3052 25.792 30.3987 25.5667 30.5155 25.1978C30.3926 24.703 30.2513 24.3365 29.721 24.2148Z" fill="#625A61"/>
<path d="M29.6687 24.3335L29.5923 24.3734C29.6218 24.4298 29.9344 24.6296 30.0228 24.697L30.037 24.7069L30.0711 24.6946C30.0188 24.5318 29.8118 24.4089 29.6687 24.3335Z" fill="#776B70"/>
<path d="M14.8342 18.3076L14.8063 18.4809C14.7301 18.4722 14.6646 18.4577 14.5909 18.4716L14.565 18.4347C14.5216 18.6793 14.6329 19.2686 14.6833 19.5301L14.7563 19.5827C16.4 20.2155 18.0503 20.9197 19.6964 21.548L19.7843 21.5899C21.4969 22.3117 23.2396 22.9881 24.955 23.7011C25.5595 23.9524 26.3305 24.2263 26.906 24.483L26.9884 24.531L27.1774 24.6215C27.1814 24.3289 27.0765 23.6777 27.2144 23.4503L27.1874 23.4506L27.0174 23.5004L27.0343 23.3357C26.9389 23.1972 20.5839 20.6558 19.8377 20.3597L19.7857 20.2909L19.7181 20.3072C18.8782 20.0237 17.7925 19.4935 16.9312 19.1835C16.5989 19.064 15.0445 18.454 14.8342 18.3076Z" fill="#6F564E"/>
<path d="M27.0343 23.3355C26.9389 23.1969 20.5839 20.6555 19.8377 20.3594L19.7812 20.5607C20.0025 20.549 26.7913 23.324 26.8927 23.4972L26.9765 23.5307L27.0174 23.5001L27.0343 23.3355Z" fill="#B37A50"/>
<path d="M14.8342 18.3076L14.8063 18.4809C16.0709 19.0239 18.2709 19.8939 19.624 20.4716C19.6385 20.4968 19.653 20.522 19.6674 20.5472C19.715 20.5035 19.7919 20.4113 19.8377 20.3597L19.7857 20.2909L19.7181 20.3072C18.8782 20.0237 17.7925 19.4935 16.9311 19.1835C16.5989 19.064 15.0445 18.454 14.8342 18.3076Z" fill="#B37A50"/>
<path d="M26.8926 23.4971C26.7913 23.3239 20.0024 20.5489 19.7811 20.5606L19.8018 20.6384C19.9617 20.7228 20.5315 20.9244 20.7414 21.0074L22.8728 21.8597C23.6669 22.1799 24.4565 22.5107 25.2417 22.8522C25.5584 22.9883 26.5848 23.4306 26.8926 23.4971Z" fill="#CEB3AA"/>
<path d="M14.8063 18.4809C14.7301 18.4722 14.6646 18.4577 14.5908 18.4716C14.788 18.6709 16.8477 19.4344 17.2599 19.5946C17.6012 19.7273 19.4162 20.5288 19.6674 20.5472C19.6529 20.522 19.6385 20.4968 19.624 20.4716C18.2708 19.894 16.0708 19.0239 14.8063 18.4809Z" fill="#CEB3AA"/>
<path d="M19.7844 21.5899C19.7799 21.4497 19.7471 20.7377 19.7065 20.6602C19.6682 20.9769 19.6848 21.2301 19.6965 21.548L19.7844 21.5899Z" fill="#35262C"/>
<path d="M26.974 23.5649C26.8572 23.6897 26.8805 23.9068 26.8863 24.0761C26.8914 24.2117 26.898 24.3472 26.906 24.4827L26.9883 24.5307C26.9627 24.2489 26.9734 23.857 26.974 23.5649Z" fill="#35262C"/>
<path d="M27.0473 18.5837C26.8593 18.5515 26.6566 18.5546 26.6463 18.7944C26.7769 19.0641 27.0233 19.0217 27.0198 19.153C26.8843 19.1294 26.67 19.0154 26.537 18.9514C26.5118 18.8911 26.5115 18.9214 26.5274 18.8602C26.4105 18.7838 26.3912 18.7735 26.2578 18.7349C26.2368 18.7269 26.182 18.6912 26.1599 18.6776C25.9852 18.6001 25.9993 18.6783 25.7791 18.5215L25.7167 18.5457C25.6278 18.8202 25.524 19.0933 25.3627 19.3351C25.5513 19.3972 25.826 19.481 25.98 19.5999C26.8859 20.1377 28.8323 20.86 29.8096 21.23C30.3928 21.4508 33.8397 22.7604 34.1685 22.7342C34.453 22.7077 34.8243 22.8376 34.9969 22.7586L35.0243 22.6616C35.0339 22.4945 35.031 22.4551 35.1014 22.301C34.5694 22.1335 33.3831 21.5253 32.8147 21.2593L28.6419 19.3185C28.4113 19.2087 27.2049 18.5987 27.0473 18.5837Z" fill="#FCCC93"/>
<path d="M25.7791 18.5215L25.7167 18.5457C25.6278 18.8202 25.524 19.0933 25.3627 19.3351C25.5512 19.3972 25.8259 19.481 25.98 19.5999C26.0634 19.5392 26.2199 18.8745 26.2578 18.7349C26.2368 18.7269 26.182 18.6912 26.1599 18.6776C25.9852 18.6001 25.9993 18.6783 25.7791 18.5215Z" fill="#C19D7E"/>
<path d="M31.9086 24.0215C31.456 23.1297 30.8439 22.4509 29.912 22.0369C28.8311 21.5568 27.5923 22.0586 27.1682 23.1695L27.2396 23.2814L27.1873 23.4511L27.2144 23.4508L27.4426 23.3882C27.5643 22.8766 28.2226 22.5569 28.674 22.4199C29.4663 22.3942 30.0762 22.7437 30.6651 23.2501C30.9383 23.4849 31.0659 23.736 31.2303 23.8971C31.4718 24.0691 31.61 24.0293 31.9086 24.0215Z" fill="#FDCE94"/>
<path d="M28.674 22.4189C27.9974 22.4258 27.5573 22.6943 27.2396 23.2804L27.1873 23.4502L27.2144 23.4499L27.4426 23.3873C27.5643 22.8757 28.2226 22.5559 28.674 22.4189Z" fill="#6F564E"/>
<path d="M32.1507 24.0871C32.1539 23.9686 32.1539 24.0064 32.0936 23.8893L32.0574 23.8829L32.0458 23.9331L32.1067 24.0252L32.0484 24.0468C31.9811 23.9451 31.952 23.8249 31.8847 23.8052C31.9082 23.8789 31.9262 23.9273 31.9561 23.9985C31.8571 24.0925 31.5221 24.1063 31.3684 24.1221C31.749 24.8367 31.738 24.9805 32.0158 25.6488L32.0515 25.6597L32.3595 25.7546C32.5224 25.8078 32.5787 25.8284 32.7506 25.8482L32.8448 25.8047C32.7271 25.5279 32.685 25.2655 32.5867 24.9905C32.5457 24.876 32.4438 24.7877 32.4635 24.6709C32.6338 24.602 33.1111 24.8642 33.3725 24.9299L33.3461 24.7926L33.4149 24.7118C33.1581 24.5611 32.7342 24.4895 32.457 24.3313C32.4168 24.2296 32.4054 24.1983 32.3133 24.1377L32.1507 24.0871Z" fill="#745650"/>
<path d="M32.1506 24.0871C32.1539 23.9686 32.1539 24.0064 32.0936 23.8893L32.0574 23.8829L32.0458 23.9331L32.1067 24.0252L32.0484 24.0468C31.9811 23.9451 31.952 23.8249 31.8846 23.8052C31.9082 23.8789 31.9262 23.9273 31.9561 23.9985C31.857 24.0925 31.5221 24.1063 31.3684 24.1221C31.7489 24.8367 31.7379 24.9805 32.0157 25.6488L32.0515 25.6597C32.209 25.6447 32.2244 25.6643 32.3169 25.5671C32.3882 25.3346 32.1974 24.8677 32.1226 24.5848C32.0948 24.4361 32.0532 24.2863 32.0765 24.1403L32.1506 24.0871Z" fill="#CC8A55"/>
<path d="M32.1506 24.0874L32.0765 24.1407C32.0532 24.2866 32.0948 24.4365 32.1226 24.5851C32.1512 24.5605 32.2614 24.4884 32.2982 24.4631C32.363 24.3271 32.3114 24.3572 32.3125 24.1835L32.3132 24.138L32.1506 24.0874Z" fill="#B37A50"/>
<path d="M32.7506 25.8478C32.6869 25.73 32.6122 25.3759 32.5416 25.3384C32.4944 25.5487 32.5156 25.5864 32.3595 25.7542C32.5225 25.8074 32.5787 25.8281 32.7506 25.8478Z" fill="#584345"/>
<path d="M20.4764 17.4933C20.3089 17.4872 20.2038 17.4575 20.0876 17.556C20.1141 17.7552 20.1062 17.8139 20.2661 17.9388C20.5277 18.023 21.153 18.2895 21.3446 18.3172C21.3329 18.2204 21.3118 18.1165 21.2946 18.0198L21.4787 17.9162L21.4587 17.8751C21.2402 17.8688 20.5915 17.6996 20.4764 17.4933Z" fill="#CCC3BA"/>
<path d="M20.4764 17.4933C20.3089 17.4872 20.2038 17.4575 20.0876 17.556C20.3003 17.6277 21.1905 18.0081 21.2946 18.0198L21.4787 17.9162L21.4587 17.8751C21.2402 17.8688 20.5915 17.6996 20.4764 17.4933Z" fill="#FDFBE5"/>
<path d="M21.4787 17.916L21.2946 18.0196C21.3119 18.1163 21.3329 18.2202 21.3446 18.317C21.153 18.2893 20.5278 18.0228 20.2662 17.9386C20.3796 18.1076 20.3985 18.1533 20.4719 18.3446C20.7549 18.3901 21.3805 18.435 21.5718 18.4804C21.5738 18.36 21.5852 18.1157 21.5618 18.0096L21.4787 17.916Z" fill="#CC8A55"/>
<path d="M21.4787 17.916L21.2947 18.0196C21.3119 18.1163 21.3329 18.2202 21.3446 18.317C21.3963 18.3163 21.4367 18.3027 21.4877 18.2906C21.5669 18.1752 21.5463 18.1587 21.5618 18.0096L21.4787 17.916Z" fill="#A4663C"/>
<path d="M34.1768 22.7534C34.0854 22.8994 34.0853 24.2163 34.1158 24.4148C34.1763 24.4429 34.1529 24.4379 34.2193 24.4432C34.2726 24.334 34.2154 23.1107 34.2444 22.8072L34.1768 22.7534Z" fill="#B64D45"/>
<path d="M27.1682 23.1685C27.1204 23.2557 27.1145 23.2834 27.0343 23.3352L27.0174 23.4998L27.1874 23.45L27.2396 23.2803L27.1682 23.1685Z" fill="#FCCC93"/>
<path d="M34.6295 8.78027C32.2384 9.79218 29.6456 10.6612 27.2374 11.657C26.537 11.9466 25.5689 12.2728 24.9116 12.5878C24.9681 12.6926 25.0046 12.7351 24.996 12.8531C24.8916 12.9708 24.813 12.9403 24.7396 13.0966C24.7413 13.2083 24.7685 13.2488 24.8147 13.3514C24.8061 13.388 24.8089 13.4048 24.7882 13.4282C24.9547 13.9606 25.1353 14.4752 25.309 15.0037C25.5437 15.64 25.7684 16.2799 25.9838 16.923C26.0666 17.1651 26.2765 17.7304 26.3147 17.9606L26.3864 18.0555C26.2699 18.0982 26.254 18.1044 26.1341 18.0763C26.1465 18.1685 26.1582 18.2415 26.1596 18.3351L26.16 18.6781C26.182 18.6916 26.2368 18.7273 26.2578 18.7353C26.3912 18.7739 26.4105 18.7843 26.5274 18.8607C26.5115 18.9218 26.5119 18.8915 26.537 18.9518C26.6701 19.0158 26.8843 19.1298 27.0198 19.1534C27.0233 19.0221 26.7769 19.0645 26.6463 18.7948C26.6566 18.555 26.8593 18.5519 27.0473 18.5841C26.9492 18.5269 26.937 18.5425 26.8999 18.4597C26.951 18.4115 28.2209 17.9947 28.392 17.9307C30.4498 17.1609 32.4834 16.3235 34.5344 15.5368L36.8076 14.6732C37.1519 14.5385 37.6412 14.3684 37.949 14.1861L37.6232 14.12C37.4964 13.8759 37.3861 13.6549 37.2339 13.4247L37.2861 13.3751C37.4592 13.3171 37.63 13.2523 37.7981 13.181C37.8362 12.8587 37.8182 12.4986 37.8319 12.1669C37.7098 12.0735 37.5617 12.0368 37.4146 11.9884C37.1644 12.0963 36.9161 12.2077 36.6958 12.3719C36.6186 12.2837 36.2575 11.6253 36.1845 11.4954L35.0975 9.54975C34.9799 9.33453 34.7909 8.92338 34.6295 8.78027Z" fill="#E7B78E"/>
<path d="M37.4146 11.9878C37.1644 12.0957 36.916 12.2071 36.6958 12.3713C36.8351 12.4855 36.8915 12.5557 37.0791 12.4885C36.9668 12.6809 36.9121 12.7778 36.9807 12.9895C37.0378 13.0256 37.0612 13.0429 37.1265 13.0667C37.1546 13.203 37.168 13.2991 37.2339 13.4241L37.286 13.3745C37.4592 13.3165 37.63 13.2517 37.7981 13.1804C37.8362 12.8581 37.8182 12.498 37.8318 12.1663C37.7098 12.0729 37.5617 12.0362 37.4146 11.9878Z" fill="#C19D7E"/>
<path d="M37.4146 11.9878C37.1644 12.0957 36.916 12.2071 36.6958 12.3713C36.8351 12.4855 36.8915 12.5557 37.0791 12.4885C37.3038 12.3923 37.641 12.2998 37.8318 12.1663C37.7098 12.0729 37.5617 12.0362 37.4146 11.9878Z" fill="#FCCC93"/>
<path d="M37.2861 13.3753C37.227 13.2184 37.3022 13.0921 37.2153 12.9596C37.0931 12.9296 37.1216 12.9438 36.9807 12.9903C37.0379 13.0264 37.0612 13.0437 37.1265 13.0675C37.1547 13.2038 37.1681 13.2999 37.2339 13.4249L37.2861 13.3753Z" fill="#B37A50"/>
<path d="M26.5274 18.8604L26.5884 18.794C26.6545 18.6001 26.5673 18.1632 26.3864 18.0552C26.2699 18.0979 26.254 18.1041 26.1341 18.076C26.1465 18.1682 26.1582 18.2412 26.1596 18.3348L26.1599 18.6778C26.182 18.6913 26.2368 18.7271 26.2578 18.7351C26.3912 18.7736 26.4105 18.784 26.5274 18.8604Z" fill="#CC8A55"/>
<path d="M34.5034 9.32515L34.459 9.28516C33.6539 9.58233 25.4445 12.7554 25.4173 12.7969L25.4224 12.8154L26.5867 16.0976C26.7004 16.4176 26.9788 17.2732 27.1137 17.5549L27.1546 17.5983C27.3191 17.5611 27.6392 17.408 27.8056 17.3344C29.1071 16.8956 30.5901 16.2332 31.8948 15.7331L34.1707 14.8557C34.4097 14.763 35.1538 14.4866 35.3503 14.3723C35.6092 14.3022 36.423 13.9702 36.71 13.8649C36.803 13.8335 36.8311 13.8187 36.9181 13.7717L36.9282 13.7157C36.3814 12.6948 35.8283 11.6773 35.2688 10.6634C35.1346 10.418 34.6436 9.48042 34.5034 9.32515Z" fill="#6F7978"/>
<path d="M34.5034 9.32568L34.4974 9.36723C34.4889 9.43097 34.4924 9.47055 34.4967 9.53388L34.4716 9.57325C34.3955 9.52802 34.353 9.49964 34.2829 9.44573C33.9079 9.55539 33.0129 9.92624 32.6139 10.085C32.0436 10.312 31.0762 10.6477 30.5613 10.9113C32.2149 11.6154 33.9213 12.2234 35.573 12.9371C35.7706 13.0224 35.9766 13.1028 36.1823 13.166L36.2391 13.106C36.3825 13.2746 36.3992 13.3133 36.4931 13.5136C36.5631 13.6323 36.6354 13.7496 36.71 13.8654C36.803 13.834 36.8311 13.8192 36.9181 13.7723L36.9282 13.7162C36.3814 12.6953 35.8283 11.6779 35.2688 10.6639C35.1346 10.4186 34.6436 9.48096 34.5034 9.32568Z" fill="#859890"/>
<path d="M34.5034 9.32568L34.4974 9.36723C34.4889 9.43097 34.4924 9.47055 34.4967 9.53388L34.4716 9.57325C34.3955 9.52802 34.353 9.49964 34.2829 9.44573C34.3766 9.70746 34.6044 10.0837 34.732 10.343C35.1757 11.2446 35.8192 12.209 36.2391 13.106C36.3825 13.2746 36.3992 13.3133 36.4931 13.5136C36.5631 13.6323 36.6354 13.7496 36.71 13.8654C36.803 13.834 36.8311 13.8192 36.9181 13.7723L36.9282 13.7162C36.3814 12.6953 35.8283 11.6779 35.2688 10.6639C35.1346 10.4186 34.6436 9.48096 34.5034 9.32568Z" fill="#616464"/>
<path d="M34.5034 9.32515L34.459 9.28516C33.6539 9.58233 25.4445 12.7554 25.4172 12.7969L25.4224 12.8154C25.643 12.8584 26.2582 12.5623 26.4967 12.4696L28.1265 11.854C28.7837 11.6054 29.9535 11.2004 30.5613 10.9107C31.0762 10.6472 32.0436 10.3115 32.6139 10.0845C33.0129 9.9257 33.9078 9.55485 34.2828 9.44519C34.353 9.49911 34.3955 9.52748 34.4715 9.57271L34.4967 9.53334C34.4924 9.47001 34.4888 9.43043 34.4974 9.36669L34.5034 9.32515Z" fill="#494944"/>
<path d="M36.493 13.5132C36.396 14.2976 35.6575 13.9695 35.3502 14.3724C35.609 14.3023 36.4229 13.9703 36.7099 13.865C36.6352 13.7492 36.5629 13.6319 36.493 13.5132Z" fill="#676D6D"/>
<path d="M27.8056 17.3347C27.6186 17.2286 27.326 17.3443 27.1552 17.4418C27.1339 17.4904 27.1233 17.5047 27.1137 17.5552L27.1546 17.5986C27.3191 17.5614 27.6392 17.4083 27.8056 17.3347Z" fill="#676D6D"/>
<path d="M46.1757 18.3466L46.1464 18.0806C45.7533 18.2267 45.2982 18.3938 44.9216 18.5688C44.6662 18.6744 44.5345 18.7253 44.2627 18.7976L44.1418 18.7299C42.7666 19.2852 41.3856 19.8261 39.9991 20.3527C39.1463 20.6808 38.2233 21.014 37.386 21.3756L37.3517 21.4405C37.1905 21.6264 36.8182 21.6777 36.5862 21.783L36.5247 21.8101L36.4829 21.8016C36.0458 21.9916 35.5537 22.1269 35.1013 22.3012C35.0309 22.4552 35.0338 22.4947 35.0242 22.6617L34.9969 22.7587C34.8242 22.8377 34.4529 22.7079 34.1684 22.7343L34.1769 22.7534L34.2444 22.8072C34.2154 23.1107 34.2726 24.334 34.2193 24.4433C34.4422 24.5063 34.7894 24.5502 34.9709 24.616L34.8963 24.6857C34.4374 24.6183 34.272 24.5029 33.8492 24.7593C33.7778 24.7388 33.5934 24.7518 33.4943 24.747L33.4149 24.712L33.346 24.7928L33.3724 24.93C33.111 24.8644 32.6337 24.6022 32.4635 24.6711C32.4437 24.7879 32.5457 24.8762 32.5866 24.9907C32.6849 25.2657 32.7271 25.5281 32.8447 25.8048L32.8974 25.8809C33.5735 26.0727 34.3295 26.4979 35.0691 26.522C35.2072 26.5265 35.3495 26.4945 35.4712 26.4438C36.2667 26.1123 38.0682 25.439 38.7804 25.1378C39.6357 24.7759 46.6178 22.1372 46.9371 21.8588C47.0631 21.609 47.0108 21.131 47.0197 20.8067C46.9964 20.5945 46.9694 20.5745 46.7866 20.4761C46.6098 20.3804 46.3896 20.3199 46.1959 20.2585C46.2161 19.8561 46.2448 18.7046 46.1757 18.3466Z" fill="#C19D7E"/>
<path d="M46.7866 20.4759C46.6098 20.3802 46.3896 20.3197 46.1959 20.2583L46.2224 20.4164C46.1953 20.5416 46.22 20.5233 46.125 20.5824C45.8314 20.7652 44.7068 21.0955 44.4894 21.2562C44.3169 21.3131 44.1802 21.3552 44.0168 21.4341L43.7957 21.5035L43.7542 21.3533C42.1634 21.9378 39.6619 23.002 37.9522 23.6036C37.9244 23.5955 37.8966 23.5873 37.8688 23.5791C37.8808 23.7146 37.8919 23.7589 37.8383 23.8885L37.7993 23.9082L37.6966 23.942C37.2815 24.0612 37.0977 24.1272 36.6891 24.2731C36.7854 24.2079 36.8717 24.1657 36.9251 24.066L36.9036 24.0434L36.8762 24.0615C36.5808 24.2537 36.152 24.4101 35.8247 24.5574C35.582 24.6666 35.2614 24.903 35.0236 24.9291C34.9871 24.8302 34.9715 24.7578 34.8963 24.6855C34.4374 24.6181 34.272 24.5027 33.8492 24.759C33.7778 24.7386 33.5934 24.7516 33.4943 24.7468L33.4149 24.7117L33.346 24.7926L33.3724 24.9298C33.111 24.8641 32.6337 24.602 32.4635 24.6709C32.4437 24.7876 32.5457 24.876 32.5866 24.9905C32.6849 25.2655 32.7271 25.5279 32.8447 25.8046L32.8974 25.8807C33.5735 26.0725 34.3295 26.4977 35.0691 26.5218C35.2072 26.5263 35.3495 26.4943 35.4712 26.4436C36.2667 26.1121 38.0682 25.4388 38.7804 25.1375C39.6357 24.7757 46.6178 22.137 46.9371 21.8586C47.0631 21.6088 47.0108 21.1308 47.0197 20.8065C46.9964 20.5943 46.9694 20.5743 46.7866 20.4759Z" fill="#4D3B40"/>
<path d="M46.7866 20.4759C46.6099 20.3802 46.3897 20.3197 46.196 20.2583L46.2225 20.4164C46.1954 20.5416 46.22 20.5233 46.1251 20.5824C45.8315 20.7652 44.7069 21.0955 44.4895 21.2562C44.317 21.3131 44.1803 21.3552 44.0168 21.4341L43.7958 21.5035L43.7542 21.3533C42.1635 21.9378 39.6619 23.002 37.9523 23.6036C37.9245 23.5955 37.8967 23.5873 37.8689 23.5791C37.8809 23.7146 37.8919 23.7589 37.8384 23.8885L37.7994 23.9082L37.6967 23.942C37.2816 24.0612 37.0978 24.1272 36.6892 24.2731C36.7855 24.2079 36.8718 24.1657 36.9252 24.066L36.9037 24.0434L36.8763 24.0615C36.5809 24.2537 36.1521 24.4101 35.8248 24.5574C35.582 24.6666 35.2615 24.903 35.0237 24.9291C34.9871 24.8302 34.9716 24.7578 34.8964 24.6855C34.4375 24.6181 34.2721 24.5027 33.8493 24.759C33.7779 24.7386 33.5935 24.7516 33.4944 24.7468C33.5133 24.8448 33.5026 24.8998 33.5818 24.9483C33.8902 25.1372 34.3943 25.1871 34.7203 25.3193C35.0344 25.6235 35.8644 25.1723 36.2408 25.024C36.9275 24.7541 37.6123 24.4797 38.2953 24.2007C38.4617 24.1764 39.644 23.653 39.8796 23.5612C40.5726 23.2911 41.317 23.0199 42.0075 22.7375C42.8265 22.4025 43.6169 22.0708 44.4469 21.7555C45.1389 21.4472 45.9276 21.1984 46.6272 20.8914C46.7582 20.8686 46.8899 20.8362 47.0198 20.8065C46.9964 20.5943 46.9695 20.5743 46.7866 20.4759Z" fill="#584345"/>
<path d="M43.7542 21.3535C42.1635 21.938 39.6619 23.0022 37.9523 23.6039C37.9244 23.5957 37.8966 23.5875 37.8688 23.5793C37.8808 23.7148 37.8919 23.7591 37.8383 23.8888L37.7994 23.9084L37.8298 23.9406C37.9068 23.953 38.3085 24.0077 38.3622 23.9885C40.1789 23.3383 41.9589 22.5616 43.7584 21.8599C43.8499 21.8242 43.9213 21.7907 43.986 21.7169C44.0258 21.5746 44.0533 21.5635 44.0168 21.4344L43.7957 21.5037L43.7542 21.3535Z" fill="#35262C"/>
<path d="M43.7542 21.3535C42.1635 21.938 39.6619 23.0022 37.9523 23.6039C37.9245 23.5957 37.8967 23.5875 37.8689 23.5793C37.8809 23.7148 37.8919 23.7591 37.8383 23.8888C38.0216 23.8506 38.7124 23.5449 38.9063 23.4579C40.4826 22.7505 42.2381 22.2291 43.7958 21.5037L43.7542 21.3535Z" fill="#B37A50"/>
<path d="M37.6967 23.9419C37.2816 24.0611 37.0978 24.1272 36.6892 24.273C36.7855 24.2078 36.8718 24.1656 36.9252 24.0659L36.9037 24.0434L36.8763 24.0614C36.5809 24.2536 36.1521 24.41 35.8248 24.5573C35.5821 24.6665 35.2615 24.9029 35.0237 24.929C34.9872 24.8301 34.9716 24.7577 34.8964 24.6854C34.4375 24.618 34.2721 24.5026 33.8493 24.759C33.7779 24.7385 33.5935 24.7515 33.4944 24.7467C33.5133 24.8447 33.5026 24.8997 33.5818 24.9482C33.8902 25.1371 34.3943 25.1871 34.7203 25.3192C35.1691 25.4268 35.3523 25.1788 35.6566 25.0973C36.0974 24.9793 37.7886 24.1424 38.1109 24.1651C38.1478 24.1255 38.1354 24.1426 38.1525 24.0881C37.9699 23.965 37.9131 24.0995 37.6967 23.9419Z" fill="#94563B"/>
<path d="M34.8964 24.6857C34.4375 24.6183 34.2721 24.5029 33.8493 24.7592C34.0655 24.8145 34.7777 25.0204 34.967 24.9776L35.0237 24.9293C34.9871 24.8304 34.9716 24.758 34.8964 24.6857Z" fill="#CC8A55"/>
<path d="M46.7866 20.4759C46.6099 20.3802 46.3897 20.3197 46.196 20.2583L46.2225 20.4164C46.1954 20.5416 46.22 20.5233 46.1251 20.5824C45.8315 20.7652 44.7069 21.0955 44.4895 21.2562C44.3969 21.4411 44.2011 21.5051 44.1256 21.6712C44.1969 21.7136 44.1967 21.6918 44.3086 21.6662C44.5751 21.5948 45.6863 21.1183 46.0394 20.9828C46.3038 21.0266 46.3805 20.8496 46.6272 20.8914C46.7582 20.8686 46.8899 20.8362 47.0198 20.8065C46.9964 20.5943 46.9695 20.5743 46.7866 20.4759Z" fill="#94563B"/>
<path d="M46.7866 20.4759C46.6099 20.3802 46.3897 20.3197 46.196 20.2583L46.2225 20.4164C46.2422 20.5552 46.2177 20.544 46.2958 20.6262L46.427 20.6627C46.2981 20.6626 46.2775 20.6628 46.1557 20.703C46.2108 20.7443 46.2673 20.7839 46.325 20.8216C46.2882 20.8832 46.1153 20.9478 46.0394 20.9828C46.3038 21.0266 46.3805 20.8496 46.6272 20.8914C46.7582 20.8686 46.8899 20.8362 47.0198 20.8065C46.9964 20.5943 46.9695 20.5743 46.7866 20.4759Z" fill="#745650"/>
<path d="M46.7866 20.4759C46.6099 20.3802 46.3896 20.3197 46.1959 20.2583L46.2224 20.4164C46.2421 20.5552 46.2176 20.544 46.2958 20.6262L46.4269 20.6627C46.6138 20.6672 46.6471 20.6066 46.7866 20.4759Z" fill="#584345"/>
<path d="M43.7684 21.305C43.8181 21.1833 43.8205 19.8188 43.7883 19.6584L43.7434 19.6343C43.4465 19.6653 38.2426 21.6898 37.9441 21.8661C37.8114 21.9835 37.8649 22.2596 37.8749 22.4342L37.8688 23.5791C37.8966 23.5873 37.9244 23.5955 37.9523 23.6037C39.6619 23.002 42.1635 21.9378 43.7542 21.3533L43.7684 21.305Z" fill="#423B44"/>
<path d="M43.7684 21.305C43.8181 21.1833 43.8205 19.8188 43.7883 19.6584L43.7434 19.6343C43.6864 19.7403 43.6512 19.7587 43.5466 19.8162C43.4956 19.9435 43.5064 21.0886 43.543 21.2325C43.6184 21.2558 43.6936 21.2799 43.7684 21.305Z" fill="#35262C"/>
<path d="M37.944 21.8662C37.8114 21.9835 37.8649 22.2597 37.8749 22.4343C37.9043 22.6011 37.9007 23.1238 37.9357 23.1976C37.9781 22.9509 38.0541 22.0391 37.944 21.8662Z" fill="#35262C"/>
<path d="M34.9995 22.9107C34.7127 22.8873 34.5274 22.859 34.2444 22.8071C34.2154 23.1106 34.2727 24.3338 34.2193 24.4431C34.4422 24.5062 34.7894 24.5501 34.9709 24.6159C35.032 24.4298 35.0031 23.1851 34.9995 22.9107Z" fill="#F9783B"/>
<path d="M44.9216 18.5688C44.6662 18.6744 44.5345 18.7254 44.2627 18.7977L44.1892 18.8581C44.1882 18.9491 44.1908 18.9873 44.204 19.0774C44.4027 19.1978 44.8767 18.8932 45.0958 18.8215C45.0271 18.7787 44.9935 18.8028 44.8892 18.8141C44.8577 18.7381 44.8965 18.6649 44.9216 18.5688Z" fill="#B37A50"/>
<path d="M37.2415 22.1831C36.751 22.3165 35.8881 22.693 35.4001 22.8942C35.4145 23.4377 35.4217 23.9814 35.4218 24.5251C35.9789 24.3231 36.8735 23.9446 37.3913 23.7982L37.4682 23.7381C37.5049 23.5594 37.5289 22.3434 37.4583 22.2256L37.2415 22.1831Z" fill="#FDFBE5"/>
<path d="M37.3913 23.7982L37.4682 23.7381C37.5049 23.5594 37.5289 22.3434 37.4583 22.2256L37.2415 22.1831C37.291 22.6504 37.1819 23.5143 37.3913 23.7982Z" fill="#FEE5BC"/>
<path d="M45.9049 18.876L45.6282 18.9043C45.1416 19.0688 44.6624 19.2897 44.1813 19.4766L44.1772 21.0871C44.6764 20.886 45.371 20.5827 45.8671 20.4135C45.939 20.2916 45.9069 19.0947 45.9049 18.876Z" fill="#FDFBE5"/>
<path d="M45.9049 18.876L45.6282 18.9043C45.7359 19.2326 45.6079 19.7932 45.6619 20.1434C45.6927 20.3433 45.7065 20.3159 45.8671 20.4135C45.939 20.2916 45.9069 19.0947 45.9049 18.876Z" fill="#FCCC93"/>
<path d="M37.4412 21.707C37.2058 21.7754 36.6955 22.0273 36.4944 21.9332L36.4398 21.944C36.442 22.0386 36.446 22.0588 36.467 22.1517C36.7973 22.0169 37.1533 21.9058 37.4412 21.707Z" fill="#B37A50"/>
<path d="M37.386 21.3753C37.1086 21.3385 36.1111 20.858 35.8033 20.7214C34.3289 20.0596 32.848 19.4123 31.3608 18.7797C30.9774 18.6134 29.8621 18.0706 29.4967 17.9873L29.4613 18.0186C29.5708 18.1097 37.0194 21.3739 37.3517 21.4402L37.386 21.3753Z" fill="#E5A86E"/>
<path d="M36.5863 21.7831C36.4375 21.5849 35.948 21.2597 35.7753 21.2334C35.8193 21.4153 36.3145 21.5827 36.4829 21.8016L36.5248 21.8101L36.5863 21.7831Z" fill="#FCCC93"/>
<path d="M37.8003 14.5586C37.5368 14.5479 32.7992 16.4513 32.162 16.6995L30.1122 17.512C29.7043 17.6707 29.1804 17.8398 28.8035 18.0398L28.8192 18.0664C29.0245 17.9937 29.258 18.0719 29.3104 18.0384C29.8218 17.7117 30.614 17.4758 31.1705 17.2557C32.5318 16.7099 33.897 16.174 35.266 15.6477C36.0667 15.338 37.0222 15.0159 37.7785 14.6571L37.8003 14.5586Z" fill="#CC8A55"/>
<path d="M22.0711 1.76079C21.6534 1.66657 21.0974 1.4077 20.597 1.2749C20.1279 1.37781 19.0422 1.83967 18.5414 2.04676C17.7631 2.36845 16.928 2.6692 16.1584 2.99082L16.1015 3.05743C15.7875 3.32757 15.8434 3.74096 15.8499 4.12208C15.3046 4.34565 14.7084 4.52775 14.1486 4.71912L10.7851 5.86472C10.4139 5.99445 9.53944 6.24801 9.24751 6.43831C10.4521 6.99194 12.1106 7.58467 13.3807 8.07925L21.0792 11.0777L23.6176 12.0549C23.9806 12.1963 24.5861 12.4146 24.9115 12.5874C25.5688 12.2724 26.5369 11.9461 27.2373 11.6566C29.6455 10.6607 32.2383 9.79175 34.6295 8.77985C34.4047 8.61861 33.8248 8.42393 33.5426 8.30099C32.6519 7.91311 31.6181 7.57109 30.7499 7.14942C30.7495 7.10137 30.7143 6.95647 30.7025 6.90138C30.5594 6.65168 30.3386 6.26956 30.0536 6.18919L28.943 5.70355C28.9336 5.6981 28.8805 5.63673 28.8691 5.62405C28.886 5.35807 28.8887 4.90528 28.805 4.66241C28.5657 4.36475 27.6804 4.14821 27.2548 3.96229C27.0559 3.82335 26.7785 3.72338 26.5418 3.67449C26.3698 3.6303 25.7494 3.38642 25.5646 3.30378C24.9453 3.02636 24.3538 3.35039 23.6335 3.48412L23.5449 3.4673C23.4294 3.11128 23.5801 2.81765 23.2395 2.37748C23.0444 2.15301 22.9066 2.23348 22.7656 2.06679C22.6936 2.00036 22.6674 1.99329 22.5771 1.95071C22.3723 1.85263 22.2907 1.82371 22.0711 1.76079Z" fill="#786C70"/>
<path d="M15.8499 4.12207C15.3046 4.34564 14.7084 4.52774 14.1486 4.71911L10.7851 5.86471C10.4139 5.99444 9.53944 6.248 9.24751 6.4383C10.4521 6.99193 12.1106 7.58466 13.3807 8.07924L21.0792 11.0777L23.6176 12.0549C23.9806 12.1963 24.5861 12.4146 24.9115 12.5874C25.5688 12.2723 26.5369 11.9461 27.2373 11.6566C29.6455 10.6607 32.2383 9.79174 34.6295 8.77984C34.4047 8.6186 33.8248 8.42392 33.5426 8.30098C32.6519 7.9131 31.6181 7.57108 30.7499 7.14941C30.7495 7.10136 30.7143 6.95646 30.7025 6.90137C30.5344 6.99028 30.4619 7.04106 30.2714 7.0534C30.2897 7.15331 30.3292 7.51826 30.3593 7.56004L30.4583 7.57077C30.4397 7.63213 30.3708 7.67023 30.3156 7.71225C30.1589 7.85932 29.596 7.84343 29.3352 8.01694C29.2095 8.10009 29.0927 8.17646 28.9726 8.26788C28.1584 8.48259 24.4162 10.1043 24.0488 9.95784C24.044 9.95595 24.0391 9.95422 24.0343 9.9524L23.9523 9.94385L23.6555 9.94474L23.5418 9.91303C23.4791 10.0088 23.4729 10.0136 23.4536 10.1238C23.5094 10.226 23.497 10.1818 23.4825 10.309C23.3633 10.4688 23.1833 10.4616 23.0014 10.4678C22.9097 10.5062 22.8993 10.5021 22.7973 10.5008C22.727 10.5084 22.6126 10.5276 22.5478 10.5122C22.3458 10.4216 22.0597 10.3343 21.8167 10.2274C21.8074 10.2065 21.7981 10.1859 21.7878 10.1655C21.6868 9.96367 20.8369 9.70073 20.5918 9.6072C19.8604 9.32571 19.1277 9.04829 18.3935 8.77501C17.6022 8.47328 16.8105 8.17208 16.0202 7.86835C15.6266 7.71701 15.2392 7.54632 14.8362 7.41973L14.9062 7.24036L14.8811 7.18899C14.7752 7.17051 14.6932 7.15772 14.5891 7.12504L14.5695 7.1187C14.4023 7.17444 14.2738 7.21999 14.0963 7.22074L14.0604 7.22005L14.0663 7.14879C14.1049 6.95615 14.2303 6.7462 14.3237 6.56862C14.2038 6.46119 14.0094 6.47705 13.8657 6.31698L13.8536 6.30943C13.7547 6.19667 13.3173 6.08124 13.1495 6.02626L13.1319 5.52547C13.2453 5.35114 13.3794 5.31976 13.5686 5.26905C13.6651 5.33741 13.7219 5.3703 13.8471 5.36923C14.4054 5.12732 15.1995 4.88645 15.8075 4.64081C15.863 4.56649 15.8582 4.47885 15.8665 4.38439L15.8499 4.12207Z" fill="#FEE5BC"/>
<path d="M30.75 7.14941C30.7495 7.10136 30.7144 6.95646 30.7025 6.90137C30.5344 6.99028 30.4619 7.04106 30.2714 7.0534C30.2898 7.15331 30.3292 7.51826 30.3594 7.56004L30.4584 7.57077C30.4397 7.63213 30.3708 7.67023 30.3156 7.71225C30.1589 7.85932 29.596 7.84343 29.3352 8.01694C29.2095 8.10009 29.0928 8.17646 28.9726 8.26788C28.1584 8.48259 24.4162 10.1043 24.0488 9.95784C24.044 9.95595 24.0392 9.95422 24.0344 9.9524L23.9523 9.94385L23.6556 9.94474L23.5418 9.91303C23.4791 10.0088 23.4729 10.0136 23.4536 10.1238L23.68 10.1558L23.7014 10.177C23.5622 10.2294 23.6121 10.2019 23.5018 10.3383L23.5136 10.408C23.9644 10.5 24.57 10.1392 24.7637 10.1752L24.7681 10.2105C25.2431 10.1067 25.8625 10.2308 26.2133 10.1107C27.6764 9.60972 29.1347 8.98248 30.5628 8.38696C30.9019 8.24558 30.9793 7.99446 31.3375 7.86877C31.1754 7.79802 30.7576 7.6683 30.6934 7.52026C30.7413 7.43073 30.7416 7.2586 30.75 7.14941Z" fill="#C19D7E"/>
<path d="M30.75 7.14941C30.7495 7.10136 30.7144 6.95646 30.7026 6.90137C30.5344 6.99028 30.4619 7.04106 30.2715 7.0534C30.2898 7.15331 30.3292 7.51826 30.3594 7.56004L30.4584 7.57077C30.4397 7.63213 30.3709 7.67023 30.3156 7.71225C30.1589 7.85932 29.5961 7.84343 29.3352 8.01694C29.2096 8.10009 29.0928 8.17646 28.9727 8.26788C29.4671 8.17301 29.6215 7.95682 30.3699 7.86504C30.4608 7.73707 30.5537 7.56832 30.6934 7.52026C30.7413 7.43073 30.7416 7.2586 30.75 7.14941Z" fill="#776B70"/>
<path d="M23.5419 9.91309C23.4791 10.0089 23.4729 10.0136 23.4536 10.1239L23.6801 10.1559C23.7697 10.1 23.8762 10.09 23.9492 10.0122C23.8386 9.96638 23.7724 9.96221 23.6556 9.9448L23.5419 9.91309Z" fill="#FEE5BC"/>
<path d="M13.8537 6.30957C13.7399 6.44295 13.4149 6.78267 13.4128 6.93943L13.4266 6.95294C13.6093 7.06867 13.8533 7.1489 14.0605 7.22019L14.0663 7.14893C14.1049 6.95629 14.2304 6.74633 14.3238 6.56875C14.2038 6.46133 14.0095 6.47719 13.8657 6.31712L13.8537 6.30957Z" fill="#776B70"/>
<path d="M14.0663 7.14915C13.8513 7.00495 13.682 6.84226 13.4266 6.95316C13.6093 7.0689 13.8533 7.14912 14.0605 7.22041L14.0663 7.14915Z" fill="#625A61"/>
<path d="M15.8665 4.38428C15.1097 4.70265 14.3435 4.99769 13.5687 5.26894C13.6652 5.3373 13.722 5.37019 13.8472 5.36912C14.4055 5.12721 15.1996 4.88633 15.8076 4.6407C15.8631 4.56637 15.8583 4.47874 15.8665 4.38428Z" fill="#CEB3AA"/>
<path d="M23.4536 10.1245C23.5094 10.2267 23.497 10.1824 23.4826 10.3096C23.3633 10.4694 23.1834 10.4623 23.0014 10.4684C22.9097 10.5068 22.8994 10.5028 22.7974 10.5015C23.9024 10.7772 23.6632 10.544 24.7682 10.2112L24.7637 10.1758C24.57 10.1399 23.9644 10.5006 23.5136 10.4087L23.5019 10.3389C23.6122 10.2026 23.5622 10.23 23.7014 10.1777L23.6801 10.1565L23.4536 10.1245Z" fill="#CEB3AA"/>
<path d="M14.5696 7.11914C14.4024 7.17489 14.2739 7.22043 14.0963 7.22119C14.39 7.264 14.5603 7.3061 14.8363 7.42018L14.9063 7.2408L14.8812 7.18943C14.7753 7.17096 14.6933 7.15817 14.5892 7.12548L14.5696 7.11914Z" fill="#776B70"/>
<path d="M26.5418 3.6745C26.3698 3.6303 25.7494 3.38643 25.5647 3.30379C24.9453 3.02637 24.3539 3.3504 23.6335 3.48413L23.545 3.46731C23.3912 3.59586 23.2558 3.56577 23.0907 3.65885C22.552 3.88959 20.1645 4.69065 19.9429 4.95421C20.0911 5.11889 20.1131 5.13592 20.332 5.15826C20.5695 5.24569 21.3677 5.58144 21.5318 5.60516L21.5359 5.63129C21.6748 5.67615 21.8778 5.7554 22.0164 5.74179L22.0398 5.73796L22.0512 5.81129C22.056 6.12335 22.0636 6.43539 22.0743 6.74735C22.2049 7.06866 22.0732 7.34546 22.2208 7.71937C22.1977 7.85399 22.2249 7.9176 22.2283 8.04771C22.2345 8.28631 22.1959 8.53925 22.5003 8.57835L22.5692 8.72042L22.7705 8.78999C23.0218 8.91648 23.0245 9.14808 23.2172 9.18183C23.1951 9.30187 23.1879 9.24575 23.2382 9.35627C23.4436 9.48007 23.6708 9.31442 23.8 9.47973L23.4578 9.49659C23.4229 9.66234 23.4819 9.76046 23.5419 9.91304L23.6556 9.94476L23.9523 9.94386L24.0344 9.95241C24.0392 9.95424 24.044 9.95596 24.0489 9.95786C24.4163 10.1043 28.1585 8.48261 28.9727 8.2679C29.0928 8.17647 29.2096 8.10011 29.3352 8.01696C29.5961 7.84345 30.1589 7.85934 30.3156 7.71227C30.3709 7.67024 30.4397 7.63215 30.4584 7.57078L30.3594 7.56006C30.3292 7.51828 30.2898 7.15333 30.2715 7.05342C30.4619 7.04108 30.5344 6.99029 30.7026 6.90138C30.5595 6.65168 30.3386 6.26956 30.0536 6.1892L28.9431 5.70355C28.9337 5.69811 28.8806 5.63674 28.8692 5.62405C28.8861 5.35808 28.8888 4.90529 28.805 4.66241C28.5658 4.36476 27.6805 4.14822 27.2549 3.9623C27.0559 3.82336 26.7786 3.72338 26.5418 3.6745Z" fill="#FCCC93"/>
<path d="M28.805 4.6626C28.7038 4.73972 27.8838 4.97618 27.6493 5.10281C27.6045 5.12249 27.5684 5.14121 27.5211 5.15338C27.353 5.18282 27.2003 5.24181 27.0391 5.29773C27.0725 5.60238 27.09 5.99102 27.0727 6.29767L27.0358 6.29874C26.6452 6.48591 25.5619 6.92267 25.1476 7.05385C25.0312 7.07008 24.8178 7.16241 24.7234 7.22657C24.732 7.40301 24.7506 7.76124 24.7347 7.92899C24.5889 8.33328 24.3728 8.39351 23.9627 8.3802L23.9289 8.36448L23.8496 8.36038C23.7693 8.52954 23.6425 8.83006 23.5815 8.94965C23.4381 8.92283 23.3792 8.83896 23.2375 8.79297C22.9956 8.71436 22.7453 8.64666 22.5003 8.57853L22.5692 8.7206L22.7705 8.79017C23.0218 8.91666 23.0245 9.14826 23.2172 9.18201C23.1951 9.30206 23.1879 9.24593 23.2382 9.35646C23.4436 9.48026 23.6708 9.31461 23.8 9.47991L23.4578 9.49677C23.4229 9.66253 23.4819 9.76064 23.5419 9.91323L23.6556 9.94494L23.9523 9.94405L24.0344 9.9526C24.0392 9.95443 24.044 9.95615 24.0489 9.95805C24.4163 10.1045 28.1585 8.4828 28.9727 8.26809C29.0928 8.17666 29.2096 8.1003 29.3352 8.01714C29.5961 7.84363 30.1589 7.85952 30.3156 7.71245C30.3709 7.67043 30.4397 7.63233 30.4584 7.57097L30.3594 7.56025C30.3292 7.51846 30.2898 7.15351 30.2715 7.0536C30.4619 7.04126 30.5344 6.99048 30.7026 6.90157C30.5595 6.65187 30.3386 6.26975 30.0536 6.18939L28.9431 5.70374C28.9337 5.69829 28.8806 5.63693 28.8692 5.62424C28.8861 5.35827 28.8888 4.90547 28.805 4.6626Z" fill="#625A61"/>
<path d="M28.805 4.6626C28.7038 4.73972 27.8838 4.97618 27.6493 5.10281C27.6045 5.12249 27.5684 5.14121 27.5211 5.15338C27.353 5.18282 27.2003 5.24181 27.0391 5.29773C27.0725 5.60238 27.09 5.99102 27.0727 6.29767L27.133 6.27054C27.1887 6.4486 27.1952 6.48673 27.3173 6.62646C27.3108 6.76229 27.2828 6.9065 27.3526 7.01117C27.4344 7.05312 27.4957 7.06129 27.5078 7.12862C27.5494 7.36053 27.5238 7.63271 27.5437 7.873C27.8834 7.69718 28.6818 7.573 28.8412 7.21191C28.99 7.29927 29.4679 7.17696 29.6216 7.26418C29.699 7.19247 29.675 7.21167 29.7027 7.08784L29.7148 6.90471L29.7355 6.91071C29.8773 6.93056 30.0088 6.93584 30.109 7.04543L30.2031 7.0031L30.2715 7.0536C30.4619 7.04126 30.5344 6.99048 30.7026 6.90157C30.5595 6.65187 30.3386 6.26975 30.0536 6.18939L28.9431 5.70374C28.9337 5.69829 28.8806 5.63693 28.8692 5.62424C28.8861 5.35827 28.8888 4.90547 28.805 4.6626Z" fill="#BD7A43"/>
<path d="M28.9431 5.70361C28.844 5.79239 28.8654 5.88285 28.8849 6.0122C28.8853 6.19033 28.8737 6.39945 28.9282 6.56535L28.9728 6.5972L28.9064 6.6686C28.9045 6.73938 28.9061 6.87483 28.888 6.93809C28.8746 7.02245 28.861 7.13101 28.8412 7.21179C28.99 7.29915 29.4679 7.17683 29.6216 7.26405C29.699 7.19234 29.675 7.21154 29.7027 7.08771L29.7148 6.90458L29.7355 6.91058C29.8773 6.93044 30.0088 6.93571 30.109 7.04531L30.2031 7.00297L30.2715 7.05348C30.4619 7.04114 30.5344 6.99035 30.7026 6.90144C30.5595 6.65174 30.3386 6.26962 30.0536 6.18926L28.9431 5.70361Z" fill="#584345"/>
<path d="M30.7026 6.90164C30.5595 6.65193 30.3386 6.26981 30.0536 6.18945C29.984 6.31429 29.8771 6.36472 29.7558 6.43884C29.8716 6.60532 30.0498 6.89219 30.2031 7.00317L30.2715 7.05367C30.4619 7.04133 30.5344 6.99055 30.7026 6.90164Z" fill="#968A8E"/>
<path d="M28.9431 5.70361C28.844 5.79239 28.8655 5.88285 28.8849 6.0122C29.1071 6.11231 29.5773 6.30992 29.7558 6.43865C29.8771 6.36453 29.984 6.31409 30.0536 6.18926L28.9431 5.70361Z" fill="#CEB3AA"/>
<path d="M29.3726 7.00632C29.1573 7.0099 29.0971 7.00104 28.888 6.93799C28.8747 7.02235 28.861 7.13091 28.8413 7.21168C28.9901 7.29904 29.4679 7.17673 29.6217 7.26395C29.699 7.19224 29.675 7.21144 29.7028 7.08761C29.6066 7.05431 29.4745 7.02907 29.3726 7.00632Z" fill="#6E6267"/>
<path d="M28.9727 6.59717L28.9064 6.66857C28.9044 6.73934 28.9061 6.87479 28.8879 6.93806C29.097 7.00111 29.1572 7.00997 29.3726 7.00638L29.2972 6.80002C29.2167 6.65364 29.1286 6.64654 28.9727 6.59717Z" fill="#FDFBE5"/>
<path d="M29.7148 6.90502C29.7299 6.86062 29.7246 6.85841 29.7255 6.80942C29.594 6.67542 29.4262 6.65959 29.2973 6.80049L29.3726 7.00686C29.4744 7.02961 29.6066 7.05485 29.7027 7.08815L29.7148 6.90502Z" fill="#423B44"/>
<path d="M28.805 4.6626C28.7038 4.73972 27.8838 4.97618 27.6492 5.10281C27.6044 5.12249 27.5684 5.14121 27.521 5.15338L27.5379 5.44128L27.5666 5.84791L27.6012 5.87742L27.5986 5.99002C27.7211 6.09362 28.5227 5.62262 28.8691 5.62424C28.886 5.35827 28.8887 4.90547 28.805 4.6626Z" fill="#CC8A55"/>
<path d="M27.5211 5.15332C27.353 5.18276 27.2003 5.24175 27.0391 5.29767C27.0725 5.60232 27.09 5.99096 27.0727 6.29761L27.133 6.27048C27.1887 6.44854 27.1953 6.48667 27.3174 6.6264L27.3438 6.62202C27.5011 6.59713 27.5168 6.58248 27.6432 6.49153C27.5925 6.22473 27.5397 6.12203 27.5667 5.84785L27.538 5.44122L27.5211 5.15332Z" fill="#94563B"/>
<path d="M27.5667 5.84804L27.538 5.44141C27.5327 5.68463 27.5313 5.92792 27.5335 6.17117C27.4162 6.19213 27.228 6.21285 27.133 6.27066C27.1887 6.44873 27.1953 6.48686 27.3174 6.62658L27.3438 6.62221C27.5011 6.59732 27.5168 6.58266 27.6432 6.49172C27.5925 6.22492 27.5397 6.12222 27.5667 5.84804Z" fill="#B64D45"/>
<path d="M27.6432 6.4917C27.5168 6.58264 27.5011 6.5973 27.3438 6.62219L27.3174 6.62656C27.3108 6.7624 27.2828 6.9066 27.3527 7.01127C27.4344 7.05323 27.4957 7.0614 27.5078 7.12873C27.5494 7.36064 27.5238 7.63282 27.5437 7.87311C27.8834 7.69729 28.6818 7.57311 28.8413 7.21202C28.861 7.13124 28.8747 7.02268 28.888 6.93832L28.869 6.94966C28.3776 7.24794 28.1765 7.39487 27.6199 7.62392C27.6051 7.54498 27.5501 7.42318 27.5595 7.33937C27.5993 6.98376 27.7127 6.86372 27.6432 6.4917Z" fill="#94563B"/>
<path d="M28.9064 6.66797C28.7734 6.70948 28.6402 6.74992 28.5066 6.78935C28.494 6.81559 28.4352 6.93398 28.4315 6.94925C28.3432 7.3091 27.64 7.21474 27.6198 7.62306C28.1764 7.39401 28.3775 7.24708 28.869 6.9488L28.8879 6.93746C28.9061 6.8742 28.9044 6.73875 28.9064 6.66797Z" fill="#A4663C"/>
<path d="M27.0357 6.29834C26.6452 6.4855 25.5619 6.92227 25.1476 7.05344C25.0311 7.06968 24.8177 7.162 24.7233 7.22616C24.7319 7.40261 24.7505 7.76083 24.7347 7.92859C24.5889 8.33288 24.3728 8.3931 23.9626 8.3798C23.9564 8.50466 23.9368 8.59923 23.9954 8.70531C24.4593 9.04485 25.8262 7.95582 26.6789 8.02963C26.8065 7.99057 26.9143 7.93907 27.0357 7.88518C27.0556 7.35689 27.043 6.82705 27.0357 6.29834Z" fill="#B37A50"/>
<path d="M24.7234 7.22656C24.732 7.40301 24.7506 7.76123 24.7347 7.92899C24.7554 8.04741 24.7506 8.07171 24.8278 8.15573L24.8688 8.13629C24.9222 7.95802 24.9026 7.7854 24.894 7.59975C24.8192 7.50457 24.8223 7.48361 24.7975 7.36022L24.7234 7.22656Z" fill="#94563B"/>
<path d="M25.1476 7.05371C25.0311 7.06995 24.8178 7.16227 24.7234 7.22643L24.7975 7.36009C24.8915 7.35381 25.0063 7.33465 25.1015 7.32165C25.1552 7.28318 25.1642 7.26308 25.2031 7.21002C25.1697 7.15038 25.1594 7.12345 25.1476 7.05371Z" fill="#C67B41"/>
<path d="M27.0727 6.29764L27.0358 6.29871C27.0431 6.82742 27.0556 7.35726 27.0358 7.88555C26.9144 7.93944 26.8065 7.99094 26.679 8.03C25.8263 7.95619 24.4594 9.04522 23.9954 8.70568C23.9368 8.5996 23.9565 8.50503 23.9627 8.38016L23.9289 8.36444L23.8496 8.36034C23.7693 8.52951 23.6425 8.83003 23.5815 8.94962C23.4381 8.9228 23.3792 8.83892 23.2375 8.79293C22.9956 8.71433 22.7453 8.64662 22.5003 8.5785L22.5692 8.72057L22.7705 8.79014C23.0218 8.91663 23.0245 9.14823 23.2172 9.18198C23.1951 9.30202 23.1879 9.2459 23.2382 9.35643C23.4436 9.48023 23.6708 9.31457 23.8 9.47988L23.8407 9.51008C24.0265 9.51677 29.3419 7.43969 29.6216 7.26414C29.4679 7.17692 28.99 7.29924 28.8413 7.21188C28.6818 7.57297 27.8834 7.69715 27.5437 7.87297C27.5238 7.63268 27.5494 7.3605 27.5078 7.12859C27.4957 7.06126 27.4344 7.05309 27.3526 7.01113C27.2828 6.90647 27.3108 6.76226 27.3174 6.62643C27.1952 6.4867 27.1887 6.44857 27.133 6.27051L27.0727 6.29764Z" fill="#938990"/>
<path d="M26.679 8.02997C25.8263 7.95616 24.4593 9.04519 23.9954 8.70564C23.9368 8.59956 23.9564 8.505 23.9627 8.38013L23.9289 8.36441L23.8496 8.36031C23.7693 8.52948 23.6425 8.82999 23.5815 8.94959C23.4381 8.92276 23.3791 8.83889 23.2375 8.7929C22.9955 8.7143 22.7453 8.64659 22.5002 8.57846L22.5692 8.72054L22.7705 8.79011C23.0217 8.91659 23.0245 9.1482 23.2171 9.18195C23.2389 9.1896 23.2609 9.19712 23.283 9.20446C23.3719 9.23383 23.5515 9.29106 23.6342 9.28051C24.146 9.21508 25.1848 8.8261 25.6205 8.60935C25.9379 8.31952 26.4932 8.23571 26.679 8.02997Z" fill="#94563B"/>
<path d="M27.0727 6.29764L27.0357 6.29871C27.043 6.82742 27.0556 7.35726 27.0357 7.88555C26.9143 7.93944 26.8065 7.99094 26.679 8.03C26.4932 8.23575 25.9379 8.31956 25.6205 8.60939C26.1854 8.45708 26.8762 8.01356 27.5437 7.87297C27.5237 7.63268 27.5494 7.3605 27.5078 7.12859C27.4957 7.06126 27.4343 7.05309 27.3526 7.01113C27.2828 6.90647 27.3107 6.76226 27.3173 6.62643C27.1952 6.4867 27.1887 6.44857 27.133 6.27051L27.0727 6.29764Z" fill="#7E3B23"/>
<path d="M29.3352 8.01695C29.2976 7.96927 29.276 7.94159 29.233 7.89746C28.6195 8.08118 24.3108 9.67333 24.0344 9.95241C24.0392 9.95423 24.044 9.95596 24.0488 9.95785C24.4163 10.1043 28.1585 8.4826 28.9727 8.26789C29.0928 8.17647 29.2095 8.1001 29.3352 8.01695Z" fill="#745650"/>
<path d="M30.203 7.00244L30.109 7.04478C30.0735 7.3534 30.1275 7.5105 29.8126 7.59417L29.828 7.62151L29.8589 7.57862L29.8314 7.58572C29.9445 7.75899 30.1312 7.73162 30.3156 7.7118C30.3708 7.66977 30.4397 7.63168 30.4583 7.57031L30.3593 7.55959C30.3292 7.51781 30.2897 7.15286 30.2714 7.05295L30.203 7.00244Z" fill="#423B44"/>
<path d="M23.8 9.47949L23.4577 9.49635C23.4229 9.66211 23.4819 9.76022 23.5418 9.91281L23.6556 9.94452L23.9523 9.94363L23.8407 9.50969L23.8 9.47949Z" fill="#584345"/>
<path d="M30.1089 7.04537C30.0087 6.93578 29.8772 6.9305 29.7354 6.91064C29.742 7.02472 29.7336 7.04827 29.804 7.1286C29.9395 7.16235 29.9966 7.12832 30.1089 7.04537Z" fill="#CEB3AA"/>
<path d="M26.5418 3.6745C26.3698 3.6303 25.7494 3.38643 25.5647 3.30379C24.9453 3.02637 24.3539 3.3504 23.6335 3.48413L23.5449 3.46731C23.3912 3.59586 23.2557 3.56577 23.0907 3.65885C22.5519 3.88959 20.1645 4.69065 19.9428 4.95421C20.091 5.11889 20.1131 5.13592 20.332 5.15826C20.5694 5.24569 21.3677 5.58144 21.5317 5.60516L21.5359 5.63129C21.6748 5.67615 21.8778 5.7554 22.0163 5.74179L22.0398 5.73796C22.8463 5.39145 24.3956 4.77814 25.21 4.51738C25.4919 4.58412 26.8828 5.08083 26.9793 5.30389L27.0391 5.29754C27.2003 5.24162 27.3529 5.18264 27.521 5.1532C27.5684 5.14103 27.6045 5.12231 27.6493 5.10262C27.8838 4.976 28.7038 4.73953 28.805 4.66241C28.5657 4.36476 27.6804 4.14822 27.2548 3.9623C27.0559 3.82336 26.7786 3.72338 26.5418 3.6745Z" fill="#F9783B"/>
<path d="M23.0907 3.65869C22.5519 3.88943 20.1645 4.69049 19.9428 4.95405C20.091 5.11874 20.1131 5.13577 20.332 5.15811C20.5694 5.24554 21.3677 5.58129 21.5317 5.60501L21.5441 5.55747C21.7344 5.39971 24.3087 4.44148 24.6971 4.29048C24.2174 4.06153 23.6011 3.87316 23.0907 3.65869Z" fill="#FCCC93"/>
<path d="M21.5441 5.55766L21.5176 5.49236C21.3711 5.3567 20.2958 4.89874 20.12 4.97169C20.1524 5.06573 20.232 5.09087 20.3319 5.1583C20.5694 5.24573 21.3677 5.58148 21.5317 5.6052L21.5441 5.55766Z" fill="#FEE5BC"/>
<path d="M27.2548 3.96211C27.0559 3.82318 26.7786 3.7232 26.5418 3.67432L26.4277 3.80298L26.2729 3.80411C26.2168 3.88658 26.274 3.83101 26.2657 3.92585C26.134 3.88499 26.1671 3.8751 26.0499 3.90199L25.9779 3.96808C25.8952 4.17675 25.6949 4.14173 25.6291 4.30069C25.6991 4.3303 25.6946 4.32906 25.7708 4.33103C25.8531 4.41487 27.5017 5.09386 27.6493 5.10244C27.8838 4.97581 28.7038 4.73935 28.805 4.66223C28.5657 4.36457 27.6804 4.14804 27.2548 3.96211Z" fill="#FCCC93"/>
<path d="M27.2548 3.96211C27.0559 3.82318 26.7786 3.7232 26.5418 3.67432L26.4277 3.80298L26.2729 3.80411C26.2168 3.88658 26.274 3.83101 26.2657 3.92585C26.134 3.88499 26.1671 3.8751 26.0499 3.90199L25.9779 3.96808C25.8952 4.17675 25.6949 4.14173 25.6291 4.30069C25.6991 4.33031 25.6946 4.32906 25.7708 4.33103C26.2743 4.29997 26.5873 4.15952 27.0546 3.9868L27.2548 3.96211Z" fill="#7E3B23"/>
<path d="M27.2548 3.96211C27.0559 3.82318 26.7786 3.7232 26.5418 3.67432L26.4277 3.80298L26.2729 3.80411C26.2168 3.88658 26.274 3.83101 26.2657 3.92585L26.294 4.06085C26.4697 4.12552 26.7865 3.95129 27.0546 3.9868L27.2548 3.96211Z" fill="#F9783B"/>
<path d="M26.5417 3.6745C26.3698 3.6303 25.7494 3.38643 25.5646 3.30379C24.9453 3.02637 24.3538 3.3504 23.6335 3.48413C23.984 3.68326 24.5355 3.86863 24.9232 3.99167L24.9659 3.97646L25.0338 4.06313C25.1917 4.1143 25.212 4.11705 25.3768 4.09799L25.3788 4.0611C25.4099 4.06982 25.4412 4.07748 25.4729 4.08406C25.707 4.13467 25.7611 4.06445 25.9675 3.92899L25.9779 3.96826L26.0499 3.90217C26.1671 3.87528 26.134 3.88518 26.2657 3.92603C26.2739 3.83119 26.2167 3.88676 26.2729 3.8043L26.4277 3.80316L26.5417 3.6745Z" fill="#FCCC93"/>
<path d="M25.9259 3.5498C25.6243 3.62368 25.1432 3.70608 24.966 3.97609L25.0339 4.06276C25.1918 4.11392 25.2121 4.11667 25.3769 4.09761L25.3789 4.06072C25.4099 4.06945 25.4413 4.0771 25.473 4.08368C25.707 4.13429 25.7612 4.06407 25.9676 3.92862L25.9779 3.96788L26.05 3.90179C26.1672 3.8749 26.1341 3.8848 26.2657 3.92565C26.274 3.83081 26.2168 3.88638 26.273 3.80392L26.4277 3.80278C26.2351 3.75752 26.0927 3.65437 25.9259 3.5498Z" fill="#C67B41"/>
<path d="M25.9676 3.92878C25.8321 3.82177 25.482 3.95388 25.3789 4.06089C25.4099 4.06961 25.4413 4.07726 25.473 4.08385C25.707 4.13446 25.7611 4.06423 25.9676 3.92878Z" fill="#E5A86E"/>
<path d="M25.3768 4.09763L25.3592 4.01878L25.2934 3.97852C25.1658 3.98924 25.1514 4.00351 25.0338 4.06277C25.1917 4.11393 25.212 4.11669 25.3768 4.09763Z" fill="#963938"/>
<path d="M23.6983 7.39665C23.1586 7.17456 22.6126 6.97433 22.0743 6.74707C22.2049 7.06838 22.0732 7.34518 22.2208 7.71909C22.1977 7.85371 22.2249 7.91732 22.2283 8.04743C22.2346 8.28603 22.1959 8.53897 22.5003 8.57807C22.7453 8.64619 22.9956 8.7139 23.2375 8.7925C23.3792 8.83849 23.4381 8.92237 23.5815 8.94919C23.6425 8.8296 23.7693 8.52908 23.8496 8.35991L23.9289 8.36401L23.9627 8.37973C24.3728 8.39304 24.589 8.33281 24.7347 7.92853C24.7506 7.76077 24.732 7.40254 24.7234 7.2261C24.3253 7.38813 24.1309 7.47259 23.6983 7.39665Z" fill="#CA8446"/>
<path d="M23.6983 7.39665C23.1586 7.17456 22.6126 6.97433 22.0743 6.74707C22.2049 7.06838 22.0732 7.34518 22.2208 7.71909C22.2449 7.47039 22.2439 7.29915 22.217 7.04883C22.5434 7.16732 23.5622 7.55764 23.841 7.71289L23.7614 8.16788C23.8193 8.22677 23.8931 8.29258 23.9289 8.36401L23.9627 8.37973C24.3728 8.39304 24.589 8.33281 24.7347 7.92853C24.7506 7.76077 24.732 7.40254 24.7234 7.2261C24.3253 7.38813 24.1309 7.47259 23.6983 7.39665Z" fill="#C67B41"/>
<path d="M23.4547 8.30176C23.3578 8.45831 23.3878 8.5417 23.4257 8.72504L23.4695 8.77193C23.6315 8.66878 23.5874 8.50623 23.7814 8.35213C23.6294 8.3613 23.5822 8.38243 23.4547 8.30176Z" fill="#CC8A55"/>
<path d="M23.7614 8.16797C23.6173 8.18255 23.5636 8.19762 23.4547 8.3017C23.5822 8.38237 23.6294 8.36123 23.7814 8.35206L23.8496 8.35999L23.9289 8.3641C23.8931 8.29266 23.8193 8.22685 23.7614 8.16797Z" fill="#E5A86E"/>
<path d="M27.0391 5.29785L26.9793 5.30419C26.5504 5.56727 25.7222 5.84393 25.2376 6.03665C24.8481 6.19151 24.379 6.40015 23.9985 6.53505C23.9041 6.55463 23.7735 6.56067 23.7359 6.64565C23.6497 6.83988 23.7118 7.16453 23.6983 7.39723C24.1309 7.47318 24.3253 7.38872 24.7234 7.22669C24.8178 7.16253 25.0311 7.07021 25.1476 7.05397C25.5619 6.92279 26.6452 6.48603 27.0357 6.29886L27.0727 6.2978C27.09 5.99114 27.0725 5.60251 27.0391 5.29785Z" fill="#CC8A55"/>
<path d="M22.0512 5.81104C22.056 6.1231 22.0636 6.43513 22.0743 6.7471C22.6126 6.97436 23.1586 7.17459 23.6983 7.39667C23.7118 7.16397 23.6497 6.83932 23.7359 6.64509C23.7735 6.56011 23.9041 6.55407 23.9985 6.53449C23.5577 6.51294 22.481 6.0194 22.0512 5.81104Z" fill="#E5A86E"/>
<path d="M22.0711 1.76079C21.6534 1.66657 21.0975 1.4077 20.597 1.2749C20.1279 1.37781 19.0422 1.83967 18.5414 2.04676C17.7632 2.36845 16.928 2.6692 16.1584 2.99082L16.1015 3.05743C16.2535 3.1985 17.3123 3.52311 17.6325 3.66446L17.6849 3.6748C17.8573 3.81394 17.8835 3.83428 18.1127 3.86248L18.1475 3.78223L18.2426 3.84407C18.5914 3.92506 18.7834 4.09722 18.9833 4.13842C18.8782 4.49872 18.8882 4.648 18.914 5.02546C19.0343 5.15784 18.9505 5.28085 19.037 5.27323C19.1839 5.2603 19.4586 5.11199 19.5871 5.04828C19.5844 5.11127 19.512 5.15864 19.4548 5.21462C19.5199 5.23362 19.5899 5.24775 19.6443 5.28588C19.7247 5.29285 19.825 5.27278 19.9066 5.26079C19.8791 5.11313 19.8863 5.09448 19.9428 4.9542C20.1644 4.69064 22.5519 3.88958 23.0907 3.65884C23.2557 3.56576 23.3912 3.59586 23.5449 3.4673C23.4295 3.11128 23.5801 2.81765 23.2395 2.37748C23.0445 2.15301 22.9066 2.23348 22.7656 2.06679C22.6936 2.00036 22.6674 1.99329 22.5771 1.95071C22.3724 1.85263 22.2907 1.82371 22.0711 1.76079Z" fill="#EB6C61"/>
<path d="M23.2395 2.37744C22.7739 2.54875 22.2962 2.81151 21.8037 2.99471C20.8803 3.33808 19.9559 3.71255 19.0339 4.06057C19.0302 4.06175 19.0264 4.06295 19.0226 4.06416L18.9833 4.13838C18.8782 4.49868 18.8882 4.64796 18.914 5.02542C19.0343 5.15781 18.9505 5.28081 19.037 5.27319C19.1839 5.26027 19.4586 5.11196 19.5871 5.04825C19.5844 5.11123 19.512 5.1586 19.4548 5.21459C19.5199 5.23358 19.5899 5.24772 19.6443 5.28585C19.7247 5.29281 19.825 5.27275 19.9066 5.26075C19.8791 5.11309 19.8863 5.09444 19.9428 4.95416C20.1644 4.6906 22.5519 3.88954 23.0907 3.6588C23.2557 3.56572 23.3912 3.59582 23.5449 3.46726C23.4295 3.11124 23.5801 2.81762 23.2395 2.37744Z" fill="#832928"/>
<path d="M22.5772 1.95066C22.3724 1.85258 22.2908 1.82366 22.0712 1.76074C21.7748 1.98014 21.5125 1.98328 21.214 2.19478C21.2812 2.24556 21.3333 2.27473 21.3733 2.3484C21.2178 2.38746 19.5683 2.91741 19.5607 2.92779L19.6472 2.95943C19.5807 3.04983 19.4924 3.06355 19.3746 3.11423L19.1078 3.19124L19.1622 3.29222C18.8534 3.40992 18.3754 3.55692 18.1475 3.78218L18.2427 3.84403C18.5915 3.92501 18.7835 4.09717 18.9834 4.13837L19.0227 4.06415C19.0264 4.06294 19.0302 4.06173 19.034 4.06056C19.956 3.71254 20.8804 3.33807 21.8037 2.9947C22.2963 2.8115 22.774 2.54874 23.2396 2.37743C23.0445 2.15296 22.9067 2.23343 22.7657 2.06674C22.6937 2.00031 22.6675 1.99324 22.5772 1.95066Z" fill="#EB6C61"/>
<path d="M22.5771 1.95066C22.3724 1.85258 22.2907 1.82366 22.0711 1.76074C21.7747 1.98014 21.5124 1.98328 21.2139 2.19478C21.2811 2.24556 21.3332 2.27473 21.3732 2.3484L21.4021 2.43214C21.7757 2.25428 22.1966 2.14165 22.5771 1.95066Z" fill="#E5A86E"/>
<path d="M21.3732 2.34814C21.2178 2.3872 19.5682 2.91715 19.5606 2.92753L19.6471 2.95918C19.5806 3.04957 19.4924 3.06329 19.3745 3.11397L19.1077 3.19099L19.1622 3.29196C19.289 3.23367 19.643 3.11228 19.7946 3.05309C20.3289 2.84207 20.8648 2.63498 21.4022 2.43188L21.3732 2.34814Z" fill="#E5A86E"/>
<path d="M22.7657 2.06627C22.6936 1.99984 22.6674 1.99277 22.5771 1.9502C22.1966 2.14119 21.7758 2.25382 21.4022 2.43167C20.8648 2.63476 20.3289 2.84185 19.7946 3.05288C19.643 3.11207 19.289 3.23345 19.1622 3.29175C18.8534 3.40945 18.3753 3.55645 18.1475 3.78171L18.2426 3.84356L18.2947 3.70728C18.3674 3.6707 18.6635 3.54542 18.7345 3.52825C19.553 3.32995 22.0687 2.02711 22.7657 2.06627Z" fill="#963938"/>
<path d="M18.2947 3.70752L18.2427 3.8438C18.5915 3.92478 18.7834 4.09695 18.9834 4.13815L19.0226 4.06392L18.9933 3.9837C18.8613 3.8992 18.4608 3.76744 18.2947 3.70752Z" fill="#F8A3A1"/>
<path d="M21.214 2.19514C21.033 2.25092 21.0544 2.28864 20.879 2.20962C20.474 2.02714 19.6017 2.42347 19.3052 2.67031L19.268 2.70189C19.1881 2.77487 19.1788 2.82217 19.1171 2.88909L19.0716 3.02054L19.1026 3.06929C19.1932 3.08297 19.2842 3.09807 19.3745 3.11459C19.4924 3.06391 19.5806 3.05019 19.6472 2.95979L19.5606 2.92815C19.5682 2.91777 21.2178 2.38782 21.3732 2.34876C21.3332 2.27509 21.2812 2.24592 21.214 2.19514Z" fill="#963938"/>
<path d="M19.268 2.70163L19.237 2.80172C19.4172 2.97026 20.4471 2.46917 20.6042 2.31028L20.5967 2.26704C20.2868 2.2304 19.6154 2.55291 19.3052 2.67006L19.268 2.70163Z" fill="#EB6C61"/>
<path d="M19.1077 3.19209C19.0012 3.11942 18.9571 3.10973 18.8361 3.07129C18.6362 3.16465 17.891 3.44051 17.787 3.52849L17.6849 3.6756C17.8573 3.81474 17.8835 3.83508 18.1127 3.86328L18.1475 3.78302C18.3753 3.55776 18.8534 3.41076 19.1622 3.29307L19.1077 3.19209Z" fill="#E5A86E"/>
<path d="M17.7869 3.5276C17.3147 3.3966 16.624 3.05847 16.1584 2.99072L16.1015 3.05733C16.2535 3.1984 17.3123 3.52302 17.6325 3.66436L17.6849 3.6747L17.7869 3.5276Z" fill="#F8A3A1"/>
<path d="M19.117 2.88887C18.9309 2.84905 18.8172 2.81065 18.6324 2.85136L18.5932 2.89842C18.6504 3.00205 18.7252 3.01964 18.8361 3.07059C18.9571 3.10903 19.0012 3.11872 19.1077 3.19139L19.3745 3.11437C19.2842 3.09786 19.1932 3.08276 19.1026 3.06907L19.0715 3.02033L19.117 2.88887Z" fill="#B64D45"/>
<path d="M16.1015 3.05713C15.7875 3.32727 15.8433 3.74066 15.8499 4.12178L15.8664 4.3841C15.8582 4.47856 15.863 4.5662 15.8075 4.64053C15.8571 4.76357 15.8744 4.97807 15.8268 5.10432L15.8092 5.118C15.8747 5.25614 15.8671 5.53691 15.8716 5.70042L15.8747 5.90817C16.5196 6.07699 17.019 6.34648 17.6101 6.50482C17.6242 6.63131 17.6473 6.69078 17.5784 6.79217C17.7435 6.85692 17.9051 6.91697 18.0626 6.99851L18.1977 7.02078C18.4849 7.1674 19.0677 7.36942 19.3855 7.48698C19.5623 7.39483 19.7088 7.35835 19.9011 7.31216L19.8694 7.17319C19.8559 7.10986 19.8497 7.02157 19.8428 6.95486C19.6591 6.89743 19.6657 6.87853 19.644 6.70033L19.6895 6.71816C19.8208 6.64472 19.9114 6.32111 19.8421 6.17004L19.8459 6.15311C19.9207 6.05641 19.9018 6.02993 19.9162 5.89507C19.9331 5.66678 19.9197 5.48726 19.9066 5.26049C19.8249 5.27249 19.7246 5.29255 19.6443 5.28559C19.5899 5.24746 19.5199 5.23332 19.4547 5.21433C19.512 5.15834 19.5843 5.11097 19.5871 5.04798C19.4585 5.11169 19.1838 5.26001 19.037 5.27293C18.9505 5.28055 19.0343 5.15755 18.914 5.02516C18.8881 4.6477 18.8781 4.49842 18.9832 4.13812C18.7833 4.09693 18.5914 3.92476 18.2426 3.84378L18.1474 3.78193L18.1126 3.86219C17.8834 3.83399 17.8572 3.81365 17.6849 3.6745L17.6325 3.66416C17.3123 3.52282 16.2535 3.1982 16.1015 3.05713Z" fill="#622122"/>
<path d="M16.1015 3.05713C15.7875 3.32727 15.8434 3.74066 15.8499 4.12178L15.8665 4.3841C15.8582 4.47856 15.863 4.5662 15.8075 4.64053C15.8572 4.76357 15.8744 4.97807 15.8268 5.10432L15.8093 5.118C15.8747 5.25614 15.8672 5.53691 15.8716 5.70042L15.8747 5.90817C16.5196 6.07699 17.019 6.34648 17.6101 6.50482L17.6156 5.84587C17.7694 5.85997 17.7914 5.85808 17.9445 5.83277C17.9028 5.72404 17.9131 5.54191 17.9117 5.41831C17.7876 5.41145 17.6725 5.36802 17.5526 5.33113C17.5226 5.16251 17.4909 5.12662 17.5681 4.96535V4.94356L17.6229 4.85841C17.5995 4.47763 17.6215 4.04942 17.6325 3.66416C17.3123 3.52282 16.2535 3.1982 16.1015 3.05713Z" fill="#963938"/>
<path d="M16.1016 3.05713C15.7876 3.32727 15.8434 3.74066 15.85 4.12178L15.8665 4.3841C15.8813 4.33211 15.8941 4.30905 15.9175 4.26006L15.982 4.27399C16.5555 4.43871 17.0694 4.63556 17.6229 4.85841C17.5995 4.47763 17.6215 4.04942 17.6326 3.66416C17.3124 3.52282 16.2536 3.1982 16.1016 3.05713Z" fill="#B64D45"/>
<path d="M17.5526 5.33105C17.4612 5.64147 17.5429 5.60603 17.6156 5.8458C17.7694 5.8599 17.7914 5.858 17.9445 5.8327C17.9028 5.72396 17.9131 5.54183 17.9117 5.41824C17.7876 5.41138 17.6725 5.36794 17.5526 5.33105Z" fill="#94563B"/>
<path d="M15.9819 4.2749V4.33558C16.5089 4.50947 17.0759 4.80788 17.5681 4.94447L17.6229 4.85932C17.0693 4.63647 16.5554 4.43962 15.9819 4.2749Z" fill="#622122"/>
<path d="M18.914 5.02539C18.8891 5.38124 18.8812 5.17901 18.7623 5.30836C18.7761 5.42292 18.752 6.36384 18.7482 6.53767C18.8116 6.59331 18.8585 6.59951 18.9374 6.61827C18.9805 6.70811 18.957 6.77237 18.9402 6.87359C18.7747 7.04762 18.3911 6.79595 18.1629 6.73931C18.2171 6.86032 18.2088 6.89983 18.2439 7.00266L18.1978 7.021C18.4849 7.16763 19.0677 7.36965 19.3855 7.48721C19.5623 7.39506 19.7088 7.35858 19.9011 7.31239L19.8694 7.17342C19.8559 7.11009 19.8497 7.0218 19.8428 6.95509C19.6591 6.89765 19.6657 6.87876 19.644 6.70056L19.6895 6.71838C19.8208 6.64495 19.9114 6.32134 19.8421 6.17027L19.8459 6.15334C19.9207 6.05664 19.9018 6.03016 19.9162 5.8953C19.9331 5.667 19.9197 5.48749 19.9066 5.26072C19.8249 5.27271 19.7246 5.29278 19.6443 5.28581C19.5899 5.24768 19.5199 5.23355 19.4547 5.21455C19.512 5.15857 19.5843 5.1112 19.5871 5.04821C19.4585 5.11192 19.1838 5.26023 19.037 5.27316C18.9505 5.28078 19.0343 5.15777 18.914 5.02539Z" fill="#682021"/>
<path d="M19.9066 5.26123C19.8249 5.27323 19.7246 5.29329 19.6443 5.28633C19.6236 5.54482 19.5385 5.9338 19.6736 6.12821C19.7322 6.13865 19.7863 6.14965 19.8459 6.15385C19.9207 6.05715 19.9018 6.03068 19.9162 5.89581C19.9331 5.66752 19.9197 5.48801 19.9066 5.26123Z" fill="#4C1313"/>
<path d="M19.8422 6.17011C19.6875 6.1728 19.7302 6.14867 19.642 6.23493C19.5985 6.39758 19.6447 6.533 19.644 6.70041L19.6895 6.71823C19.8209 6.6448 19.9115 6.32118 19.8422 6.17011Z" fill="#7E3B23"/>
<path d="M18.407 5.27871L18.5021 5.22506C18.4215 5.1114 18.3239 5.09668 18.1799 5.03076C18.1258 5.57409 18.1833 6.19091 18.163 6.73954C18.3912 6.79619 18.7748 7.04785 18.9402 6.87382C18.9571 6.77261 18.9805 6.70835 18.9374 6.6185C18.8585 6.59975 18.8116 6.59354 18.7482 6.5379C18.752 6.36408 18.7761 5.42316 18.7624 5.3086C18.6038 5.37013 18.5604 5.33917 18.407 5.27871Z" fill="#963938"/>
<path d="M18.7624 5.30821C18.6038 5.36975 18.5604 5.33879 18.407 5.27832C18.4322 5.62803 18.3671 6.19121 18.4894 6.4413C18.6028 6.53738 18.5835 6.50997 18.7483 6.53752C18.752 6.36369 18.7762 5.42277 18.7624 5.30821Z" fill="#94563B"/>
<path d="M18.2426 3.84407L18.1475 3.78223L18.1127 3.86248L18.1199 3.89458C18.204 4.13535 18.1109 4.90183 18.1799 5.0306C18.3239 5.09651 18.4215 5.11123 18.5021 5.2249L18.407 5.27854C18.5604 5.33901 18.6038 5.36997 18.7623 5.30843C18.8813 5.17908 18.8892 5.38131 18.914 5.02546C18.8881 4.648 18.8782 4.49872 18.9833 4.13842C18.7834 4.09722 18.5914 3.92506 18.2426 3.84407Z" fill="#B64D45"/>
<path d="M17.6849 3.67489L17.6325 3.66455C17.6215 4.04981 17.5995 4.47802 17.6229 4.8588L17.5681 4.94395V4.96574C17.7118 5.02072 17.8393 5.09464 17.9769 5.05558C18.1406 4.88027 18.0306 4.55517 18.072 4.23556L18.0772 4.19719C18.0806 4.05846 18.0844 4.02867 18.1199 3.89467L18.1127 3.86257C17.8835 3.83437 17.8573 3.81403 17.6849 3.67489Z" fill="#B37A50"/>
<path d="M18.0627 6.99923C18.0617 6.79117 18.0717 6.0239 18.0241 5.8629L17.9445 5.8335C17.7914 5.8588 17.7694 5.8607 17.6157 5.8466L17.6102 6.50555C17.6243 6.63204 17.6474 6.69151 17.5784 6.7929C17.7435 6.85764 17.9052 6.9177 18.0627 6.99923Z" fill="#955838"/>
<path d="M18.0772 4.19775L18.072 4.23612C18.0307 4.55574 18.1406 4.88084 17.9769 5.05615C17.8394 5.09521 17.7118 5.02129 17.5681 4.9663C17.4909 5.12758 17.5226 5.16347 17.5526 5.33208C17.6726 5.36897 17.7877 5.41241 17.9118 5.41927C17.9204 5.35166 17.9393 5.21339 17.9824 5.16791L18.0189 5.29044L18.0648 5.29199C18.1103 5.05163 18.081 4.47124 18.0772 4.19775Z" fill="#B64D45"/>
<path d="M19.9429 4.9541C19.8863 5.09438 19.8791 5.11303 19.9067 5.26069C19.9198 5.48746 19.9332 5.66697 19.9163 5.89527C19.9018 6.03013 19.9208 6.05661 19.846 6.15331L19.8422 6.17024C19.9115 6.32131 19.8209 6.64492 19.6895 6.71836L19.644 6.70053C19.6658 6.87873 19.6592 6.89762 19.8429 6.95506C19.8498 7.02177 19.856 7.11006 19.8695 7.17339L19.9012 7.31236C19.9315 7.47263 19.999 7.63029 20.0156 7.72168C20.1893 7.79559 20.3599 7.87151 20.5398 7.92877C20.8776 8.06512 21.2164 8.19881 21.5562 8.32988L22.0467 8.51126C22.2352 8.59968 22.3965 8.64488 22.5692 8.72031L22.5003 8.57824C22.1959 8.53915 22.2345 8.2862 22.2283 8.0476C22.2249 7.9175 22.1977 7.85389 22.2208 7.71926C22.0732 7.34535 22.2049 7.06855 22.0743 6.74724C22.0636 6.43528 22.056 6.12325 22.0512 5.81118L22.0398 5.73785L22.0164 5.74168C21.8778 5.7553 21.6748 5.67604 21.5359 5.63119L21.5318 5.60506C21.3677 5.58134 20.5695 5.24559 20.332 5.15816C20.1131 5.13582 20.0911 5.11879 19.9429 4.9541Z" fill="#C67B41"/>
<path d="M21.5359 5.63135C21.5094 5.90922 21.5276 6.26341 21.5342 6.54983C21.5028 6.72741 21.4673 6.83938 21.5459 6.98928C21.6434 7.03261 21.6862 7.03106 21.7941 7.0434L21.8003 7.22167C21.8013 7.3714 21.8334 7.473 21.7551 7.5606C21.702 7.55925 21.6093 7.55436 21.56 7.5577L21.569 7.64472C21.568 7.84736 21.5749 8.13485 21.5562 8.33004L22.0467 8.51141C22.2352 8.59984 22.3965 8.64504 22.5692 8.72047L22.5003 8.5784C22.1959 8.53931 22.2345 8.28636 22.2283 8.04776C22.2249 7.91765 22.1977 7.85405 22.2208 7.71942C22.0732 7.34551 22.2049 7.06871 22.0743 6.7474C22.0636 6.43544 22.056 6.12341 22.0512 5.81134L22.0398 5.73801L22.0164 5.74184C21.8778 5.75546 21.6748 5.6762 21.5359 5.63135Z" fill="#7E3B23"/>
<path d="M21.5358 5.63135C21.5093 5.90922 21.5276 6.26341 21.5341 6.54983C21.5027 6.72741 21.4672 6.83938 21.5458 6.98928C21.6434 7.03261 21.6861 7.03106 21.794 7.0434C22.1697 6.74802 21.8512 6.22121 22.0163 5.74184C21.8777 5.75546 21.6747 5.6762 21.5358 5.63135Z" fill="#B64D45"/>
<path d="M21.569 7.64502C21.5679 7.84766 21.5748 8.13515 21.5562 8.33035L22.0467 8.51172L22.0556 8.48796C22.0374 8.42374 21.9822 7.79843 21.9688 7.67753C21.8151 7.65098 21.7241 7.6496 21.569 7.64502Z" fill="#94563B"/>
<path d="M19.9429 4.9541C19.8864 5.09438 19.8791 5.11303 19.9067 5.26069C19.9198 5.48746 19.9332 5.66697 19.9163 5.89527L19.9494 5.93991C20.4251 6.09615 21.0916 6.42908 21.5342 6.54967C21.5276 6.26325 21.5094 5.90906 21.5359 5.63119L21.5318 5.60506C21.3677 5.58134 20.5695 5.24559 20.332 5.15816C20.1131 5.13582 20.0911 5.11879 19.9429 4.9541Z" fill="#E5A86E"/>
<path d="M19.8695 7.17343L19.9012 7.31239C19.9315 7.47267 19.9991 7.63032 20.0156 7.72171C20.1893 7.79563 20.3599 7.87154 20.5398 7.92881C20.5747 7.78291 20.544 7.78087 20.4881 7.61381L20.4085 7.15088C20.2045 7.1766 20.0766 7.17529 19.8695 7.17343Z" fill="#94563B"/>
<path d="M21.5386 7.56806C21.5231 7.74154 21.5038 7.91467 21.4811 8.08728C21.2205 7.90781 20.8644 7.89795 20.6146 7.74422C20.5911 7.72988 20.5649 7.65576 20.4881 7.61336C20.5439 7.78042 20.5746 7.78246 20.5398 7.92835C20.8775 8.0647 21.2163 8.1984 21.5562 8.32947C21.5748 8.13427 21.5679 7.84679 21.5689 7.64414L21.56 7.55713L21.5386 7.56806Z" fill="#A4663C"/>
<path d="M19.9494 5.94015L19.9163 5.89551C19.9018 6.03037 19.9208 6.05685 19.846 6.15355L19.8422 6.17048C19.9115 6.32155 19.8208 6.64516 19.6895 6.7186L19.644 6.70077C19.6657 6.87897 19.6592 6.89787 19.8429 6.9553L19.8708 6.94972L19.9166 6.84088C19.9938 6.66764 19.9225 6.19861 19.9494 5.94015Z" fill="#622122"/>
<path d="M21.8002 7.22118C21.7103 7.18453 21.6358 7.15388 21.5428 7.12451L21.4969 7.16095C21.4911 7.29609 21.5179 7.43396 21.5386 7.56814L21.56 7.55721C21.6093 7.55386 21.702 7.55876 21.7551 7.5601C21.8333 7.4725 21.8013 7.3709 21.8002 7.22118Z" fill="#94563B"/>
<path d="M19.8708 6.94945C19.978 7.08142 20.2479 7.05273 20.3651 6.92518L20.3202 6.8704C20.1631 6.81113 20.0841 6.82751 19.9166 6.84061L19.8708 6.94945Z" fill="#E5A86E"/>
<path d="M15.8075 4.64111C15.1995 4.88675 14.4054 5.12762 13.8471 5.36953C13.722 5.3706 13.6651 5.33771 13.5686 5.26935C13.3794 5.32006 13.2453 5.35143 13.1319 5.52577C13.4207 5.62344 13.8509 5.78382 14.1342 5.85797C14.7994 6.17525 16.0309 6.59853 16.7647 6.88174L22.3892 9.06169L22.4137 9.06938C22.5705 9.1062 22.5771 9.1021 22.6957 9.03856C22.7622 8.93362 22.7573 8.91828 22.7704 8.79027L22.5692 8.7207C22.3965 8.64527 22.2352 8.60007 22.0467 8.51164L21.5562 8.33027C21.2164 8.1992 20.8775 8.06551 20.5398 7.92916C20.3599 7.87189 20.1893 7.79598 20.0155 7.72207C19.999 7.63067 19.9314 7.47302 19.9011 7.31275C19.7088 7.35894 19.5623 7.39542 19.3855 7.48757C19.0677 7.37001 18.4849 7.16799 18.1978 7.02136L18.0627 6.99909C17.9052 6.91756 17.7435 6.85751 17.5784 6.79276C17.6473 6.69137 17.6243 6.6319 17.6101 6.50541C17.019 6.34707 16.5196 6.07758 15.8747 5.90876L15.8716 5.70101C15.8672 5.5375 15.8747 5.25673 15.8093 5.11859L15.8268 5.1049C15.8744 4.97866 15.8572 4.76415 15.8075 4.64111Z" fill="#CCC3BA"/>
<path d="M22.3893 9.06096C22.5085 9.033 22.4927 9.05547 22.5661 8.98142L22.5378 8.9313C22.0222 8.70748 21.3932 8.4874 20.8569 8.28027L17.5185 7.00043L15.0169 6.07777C14.6629 5.94532 13.5414 5.45223 13.2432 5.48929C13.479 5.58054 13.9974 5.6749 14.1342 5.85724C14.7994 6.17451 16.0309 6.59779 16.7647 6.88101L22.3893 9.06096Z" fill="#E6DCDE"/>
<path d="M15.8075 4.64111C15.1995 4.88675 14.4054 5.12762 13.847 5.36953C13.9401 5.40108 14.4871 5.62258 14.5378 5.6171C14.9541 5.4469 15.3891 5.28548 15.8092 5.11859L15.8268 5.1049C15.8744 4.97866 15.8571 4.76415 15.8075 4.64111Z" fill="#35262C"/>
<path d="M15.8093 5.11865C15.3892 5.28555 14.9542 5.44696 14.5379 5.61716C14.6712 5.70876 15.1358 5.86314 15.2992 5.89396C15.5036 5.81632 15.6584 5.75758 15.8717 5.70107C15.8672 5.53756 15.8748 5.25679 15.8093 5.11865Z" fill="#FEE5BC"/>
<path d="M15.8747 5.90869L15.9188 6.09565C16.1449 6.29322 17.2299 6.65642 17.5784 6.7927C17.6473 6.69131 17.6242 6.63184 17.6101 6.50535C17.019 6.347 16.5196 6.07751 15.8747 5.90869Z" fill="#622122"/>
<path d="M15.8717 5.70068C15.6583 5.75719 15.5036 5.81593 15.2992 5.89357C15.4715 5.98648 15.7252 6.14989 15.9189 6.09539L15.8748 5.90843L15.8717 5.70068Z" fill="#776B70"/>
<path d="M20.0156 7.72231C19.9991 7.63092 19.9315 7.47326 19.9012 7.31299C19.7088 7.35918 19.5624 7.39566 19.3855 7.48781C19.5834 7.56372 19.8164 7.66019 20.0156 7.72231Z" fill="#616464"/>
<path d="M23.2171 9.18188C23.0245 9.14813 23.0217 8.91653 22.7704 8.79004C22.7573 8.91804 22.7622 8.93339 22.6956 9.03833C22.5771 9.10187 22.5705 9.10597 22.4137 9.06915L22.585 9.24149C22.5957 9.32588 22.6329 9.80636 22.6153 9.87169C22.6415 9.94364 22.6481 9.9444 22.6974 9.99959L22.6936 10.0684C22.6867 10.1721 22.7436 10.3165 22.6988 10.3992C22.6212 10.2485 22.5795 10.1424 22.4458 10.0337C22.5447 10.2356 22.6081 10.3027 22.5478 10.5123C22.6126 10.5276 22.727 10.5085 22.7973 10.5009C22.8993 10.5022 22.9097 10.5062 23.0014 10.4678C23.1834 10.4617 23.3633 10.4688 23.4825 10.309C23.497 10.1818 23.5094 10.2261 23.4536 10.1239C23.4729 10.0136 23.4791 10.0089 23.5418 9.91309C23.4818 9.76051 23.4229 9.66239 23.4577 9.49664L23.8 9.47978C23.6707 9.31447 23.4436 9.48012 23.2382 9.35632C23.1878 9.2458 23.1951 9.30192 23.2171 9.18188Z" fill="#756B74"/>
<path d="M23.2171 9.18188C23.0245 9.14813 23.0217 8.91653 22.7704 8.79004C22.7573 8.91804 22.7622 8.93339 22.6956 9.03833C22.5771 9.10187 22.5705 9.10597 22.4137 9.06915L22.585 9.24149C22.7332 9.40383 22.8752 9.60375 23.0083 9.78123C23.172 9.69242 23.305 9.63312 23.4381 9.50108L23.4577 9.49664L23.8 9.47978C23.6707 9.31447 23.4436 9.48012 23.2382 9.35632C23.1878 9.2458 23.1951 9.30192 23.2171 9.18188Z" fill="#A89DA3"/>
<path d="M22.6936 10.0684C22.6867 10.1721 22.7436 10.3166 22.6988 10.3992C22.6212 10.2486 22.5795 10.1425 22.4458 10.0337C22.5447 10.2357 22.6081 10.3028 22.5478 10.5123C22.6126 10.5277 22.727 10.5085 22.7973 10.5009C22.8994 10.5022 22.9097 10.5063 23.0014 10.4679C23.1603 10.3925 23.4419 10.2008 23.5994 10.099C23.2837 10.1787 23.1062 10.3794 22.8425 10.3176C22.7439 10.2565 22.7339 10.1817 22.6936 10.0684Z" fill="#625A61"/>
<path d="M14.5692 6.61701C14.5482 6.54703 14.5447 6.55492 14.5006 6.4929C14.39 6.48863 14.4313 6.48187 14.3238 6.56871C14.2304 6.74629 14.105 6.95624 14.0663 7.14889L14.0605 7.22015L14.0963 7.22084C14.2738 7.22008 14.4024 7.17454 14.5696 7.11879C14.5761 7.03205 14.5754 6.92591 14.5775 6.83731L14.5692 6.61701Z" fill="#35262C"/>
<path d="M22.6154 9.87194C22.5172 9.7169 22.429 9.47927 22.2159 9.45703C22.1663 9.61555 22.3349 9.9292 22.4458 10.0339C22.5796 10.1427 22.6213 10.2488 22.6988 10.3994C22.7436 10.3168 22.6868 10.1724 22.6937 10.0687L22.6974 9.99984C22.6482 9.94465 22.6416 9.94389 22.6154 9.87194Z" fill="#423B44"/>
<path d="M14.5847 6.58357L14.5702 6.48911C14.4496 6.352 14.027 6.24554 13.8657 6.31667C14.0095 6.47673 14.2039 6.46087 14.3238 6.5683C14.4313 6.48146 14.39 6.48821 14.5006 6.49249C14.5447 6.55451 14.5482 6.54661 14.5692 6.6166L14.5847 6.58357Z" fill="#625A61"/>
<path d="M15.1703 6.74557C15.0235 6.69783 14.7243 6.58682 14.5847 6.58447L14.5692 6.6175L14.5775 6.83779C14.7619 6.83097 14.9855 6.78077 15.1703 6.74557Z" fill="#CCC3BA"/>
<path d="M15.496 6.91089C15.363 6.88693 15.0235 7.00494 14.877 7.0491C17.0091 7.89646 19.2384 8.67332 21.3863 9.52754L21.8261 9.68302L21.7623 9.31041C19.6778 8.55079 17.5919 7.67979 15.496 6.91089Z" fill="#FEE5BC"/>
<path d="M6.32723 11.6934C6.26002 12.0533 6.26416 12.4476 6.26588 12.815C6.26726 13.1067 6.20453 13.5495 6.45717 13.7269C6.58676 13.7305 6.65983 13.7764 6.77805 13.8307C6.77047 13.9965 6.75703 14.1817 6.7715 14.3452C6.82286 14.3638 6.92833 14.3954 6.96314 14.4273L6.99278 14.7263C7.01415 14.9799 7.03276 15.2337 7.04896 15.4877C7.05792 15.6246 7.07171 15.7715 7.06309 15.9075C7.36295 16.1832 8.67405 16.7616 9.10661 16.956L9.19656 17.0159C9.29721 17.1231 9.38923 17.2244 9.50056 17.3208C9.69185 17.3154 9.86625 17.2745 10.051 17.2304C10.012 18.3104 10.2071 19.2367 10.9661 20.0621C11.5806 20.7309 12.1579 20.8505 13.0113 20.6386C13.6269 20.4637 14.4796 20.1954 14.7564 19.5822L14.6833 19.5296C14.633 19.2681 14.5216 18.6788 14.5651 18.4342L14.5909 18.4711C14.6647 18.4572 14.7302 18.4717 14.8063 18.4804L14.8342 18.3071C15.0445 18.4535 16.5989 19.0635 16.9312 19.183C17.7925 19.493 18.8782 20.0232 19.7181 20.3067L19.7857 20.2904C19.7685 19.6317 19.7454 18.9733 19.7157 18.3151C19.6992 17.9241 19.6902 17.4099 19.6413 17.0283L19.6609 16.9637L19.6496 16.9708C19.4472 17.0454 17.93 16.3287 17.5812 16.2078C16.9836 16.0006 16.3415 15.6873 15.7338 15.4924L15.698 15.5528C15.4681 15.509 14.8897 15.3786 14.7501 15.2116L14.7574 15.0894C14.5189 14.9675 13.9974 14.7801 13.7327 14.6766L11.6589 13.8676L8.20014 12.4893C7.76655 12.3141 7.30125 12.0968 6.8718 11.9344C6.75599 11.8903 6.63502 11.8611 6.51163 11.8475L6.32723 11.6934Z" fill="#E5A86E"/>
<path d="M13.0113 20.639C13.0913 20.5234 13.2571 20.4159 13.3281 20.3066C14.0471 19.2036 13.5938 17.5768 12.7725 16.6707C12.1866 16.0246 11.2146 15.5887 10.4984 16.2449C10.2313 16.4898 10.0665 16.8723 10.051 17.2307C10.0121 18.3108 10.2072 19.2371 10.9661 20.0624C11.5806 20.7312 12.158 20.8508 13.0113 20.639Z" fill="#423B44"/>
<path d="M12.9748 18.2072C12.7883 17.5036 12.0349 16.5351 11.2159 16.7529C10.9967 16.8108 10.811 16.9567 10.7024 17.156C10.4429 17.6249 10.56 18.7193 10.9285 19.0789C11.0395 19.2694 11.1212 19.3614 11.2649 19.5314C11.3028 19.6749 11.4307 19.7706 11.5413 19.8764L11.4751 19.8414C11.7329 20.0424 12.2386 20.3177 12.5139 20.0134L12.5201 19.8931C13.1219 19.5637 13.1157 18.7858 12.9748 18.2072Z" fill="#CCC3BA"/>
<path d="M12.9748 18.2075C12.8093 18.5808 13.144 19.2684 12.5398 19.5832C12.0431 19.842 11.3438 19.0522 10.9716 19.0501L10.9285 19.0792C11.0395 19.2697 11.1212 19.3616 11.2649 19.5317C11.3028 19.6752 11.4307 19.7709 11.5413 19.8767L11.4751 19.8417C11.7329 20.0427 12.2386 20.318 12.5139 20.0137L12.5201 19.8934C13.1219 19.564 13.1157 18.786 12.9748 18.2075Z" fill="#FDFBE5"/>
<path d="M11.2649 19.5317C11.3028 19.6752 11.4307 19.7709 11.5413 19.8767L11.4752 19.8418C11.733 20.0427 12.2386 20.318 12.514 20.0137L12.5202 19.8934C11.9353 20.0262 11.723 19.8839 11.2649 19.5317Z" fill="#655459"/>
<path d="M12.576 18.6804C12.7769 18.4915 12.5794 18.2316 12.7066 18.0233C12.7666 18.0902 12.7597 18.1289 12.8072 18.1976C12.7286 17.9604 12.3981 17.2606 12.1575 17.186L12.1468 17.2172C12.2203 17.2927 12.2923 17.3697 12.3626 17.448L12.353 17.4943C12.1134 17.4803 11.8852 17.1333 11.5778 17.4459C10.7344 18.1681 11.859 19.7573 12.576 18.6804Z" fill="#625A61"/>
<path d="M12.576 18.6804C12.7769 18.4915 12.5794 18.2316 12.7066 18.0233C12.7666 18.0902 12.7597 18.1289 12.8072 18.1976C12.7286 17.9604 12.3981 17.2606 12.1575 17.186L12.1468 17.2172C12.2203 17.2927 12.2923 17.3697 12.3626 17.448L12.353 17.4943C12.1134 17.4803 11.8852 17.1333 11.5778 17.4459C12.3499 17.1686 12.6342 18.0692 12.576 18.6804Z" fill="#CEB3AA"/>
<path d="M13.2612 17.0592C12.6598 16.217 11.4838 15.2308 10.3867 15.6592C10.1068 15.7684 9.89519 15.8679 9.75836 16.1454C9.59327 16.1001 9.55294 16.0496 9.42576 15.9352C9.21414 16.1679 9.26066 16.8625 9.19656 17.0167C9.2972 17.1239 9.38923 17.2252 9.50055 17.3216C9.69184 17.3162 9.86624 17.2753 10.051 17.2312C10.0665 16.8727 10.2312 16.4902 10.4984 16.2454C11.2146 15.5891 12.1865 16.025 12.7725 16.6711C13.5938 17.5773 14.047 19.2041 13.3281 20.307C13.2571 20.4163 13.0913 20.5238 13.0113 20.6394C13.6269 20.4645 14.4796 20.1962 14.7563 19.583L14.6833 19.5303C14.5175 19.4649 14.3141 19.4084 14.2369 19.2477C14.0453 18.6735 13.9774 18.2868 13.6913 17.7405C13.6348 17.6689 13.3439 17.1836 13.2612 17.0592Z" fill="#1A1618"/>
<path d="M9.42576 15.9346C9.21414 16.1672 9.26066 16.8618 9.19656 17.016C9.2972 17.1232 9.38923 17.2246 9.50055 17.3209C9.51744 16.9702 9.54191 16.4268 9.75836 16.1447C9.59327 16.0994 9.55294 16.0489 9.42576 15.9346Z" fill="#625A61"/>
<path d="M9.61737 15.5279C9.66114 15.4073 9.68871 15.3514 9.69733 15.2218C9.55291 15.2082 9.60496 15.3983 9.41815 15.4493C8.81188 15.1586 7.45115 14.7777 6.9631 14.4277L6.99274 14.7267C7.01411 14.9803 7.03272 15.2342 7.04892 15.4882C7.05788 15.6251 7.07167 15.7719 7.06306 15.908C7.36291 16.1837 8.67402 16.7621 9.10657 16.9564L9.19653 17.0164C9.26064 16.8622 9.21411 16.1676 9.42573 15.9349C9.47605 15.807 9.55533 15.6544 9.61737 15.5279Z" fill="#6F564E"/>
<path d="M9.61737 15.5279C9.66114 15.4073 9.68871 15.3514 9.69733 15.2218C9.55291 15.2082 9.60496 15.3983 9.41815 15.4493C8.81188 15.1586 7.45115 14.7777 6.9631 14.4277L6.99274 14.7267C7.15749 14.8474 9.19481 15.7442 9.29338 15.7388L9.33439 15.7088C9.33301 15.7432 9.11277 16.9385 9.10657 16.9564L9.19653 17.0164C9.26064 16.8622 9.21411 16.1676 9.42573 15.9349C9.47605 15.807 9.55533 15.6544 9.61737 15.5279Z" fill="#745650"/>
<path d="M13.815 16.8215C13.7533 16.7603 13.6785 16.6363 13.6272 16.5617C12.6793 15.1916 11.0549 14.1204 9.61733 15.5273C9.55529 15.6538 9.47602 15.8064 9.4257 15.9344C9.55288 16.0487 9.5932 16.0992 9.7583 16.1445C9.89513 15.867 10.1068 15.7675 10.3866 15.6583C11.4837 15.2299 12.6597 16.2161 13.2611 17.0583C13.4817 17.0378 13.7616 17.0635 13.815 16.8215Z" fill="#FCCC93"/>
<path d="M14.8342 18.3071C14.5692 17.8432 14.3007 16.851 13.9446 16.4873L13.9016 16.4937C14.279 16.9851 14.108 17.413 14.4334 17.9247C14.4716 17.9849 14.4699 18.0536 14.4417 18.1179C14.0198 18.1701 14.1742 18.3296 14.1249 18.6561C14.097 18.5998 14.0808 18.57 14.0732 18.5068C14.0443 18.2668 13.9088 18.0683 13.833 17.817L13.8802 17.7783L13.6913 17.7397C13.9774 18.2859 14.0453 18.6726 14.2369 19.2468C14.3141 19.4076 14.5175 19.464 14.6833 19.5295C14.6329 19.2681 14.5216 18.6788 14.565 18.4341L14.5909 18.471C14.6647 18.4571 14.7301 18.4717 14.8063 18.4804L14.8342 18.3071Z" fill="#B37A50"/>
<path d="M14.5651 18.4351C14.4627 18.3765 14.4496 18.3701 14.3331 18.3844C14.1253 18.566 14.2886 18.9743 14.2369 19.2478C14.3142 19.4085 14.5175 19.465 14.6833 19.5305C14.633 19.269 14.5216 18.6797 14.5651 18.4351Z" fill="#584345"/>
<path d="M6.32717 11.6934C6.25996 12.0533 6.2641 12.4476 6.26582 12.815C6.2672 13.1067 6.20447 13.5495 6.45711 13.7269C6.5867 13.7305 6.65977 13.7764 6.77799 13.8307C6.81487 13.6937 6.77592 12.2326 6.77179 11.9867C6.64978 11.9449 6.60325 11.9392 6.51157 11.8475L6.32717 11.6934Z" fill="#F9783B"/>
<path d="M14.7501 15.212C14.575 15.1472 14.5058 15.1629 14.3241 15.1833C14.1745 15.6462 14.95 15.7873 15.2847 15.9003L15.4695 15.9439L15.5112 15.91L15.4826 15.673L15.6718 15.6L15.698 15.5533C15.4681 15.5095 14.8897 15.379 14.7501 15.212Z" fill="#CCC3BA"/>
<path d="M14.7501 15.212C14.575 15.1472 14.5058 15.1629 14.3241 15.1833C14.4548 15.3041 15.3009 15.6404 15.4826 15.673L15.6718 15.6L15.698 15.5533C15.4681 15.5095 14.8897 15.379 14.7501 15.212Z" fill="#FDFBE5"/>
<path d="M19.6413 17.0283C19.5341 17.1989 19.7185 19.2033 19.6775 19.5781C19.6668 19.6741 19.6995 20.19 19.7181 20.3067L19.7857 20.2903C19.7685 19.6317 19.7454 18.9733 19.7157 18.3151C19.6992 17.924 19.6902 17.4099 19.6413 17.0283Z" fill="#A4663C"/>
<path d="M15.6718 15.5996L15.4826 15.6726L15.5112 15.9096L15.4695 15.9435L15.2847 15.9C15.2827 15.912 15.2968 15.938 15.303 15.9529C15.4919 16.0293 15.6459 16.0697 15.7455 15.8561C15.7383 15.7305 15.728 15.713 15.6718 15.5996Z" fill="#B37A50"/>
<path d="M13.3766 15.1353C13.3452 15.3959 13.7175 16.0944 13.844 16.3628C13.8881 16.2433 13.4559 15.3221 13.3766 15.1353Z" fill="#B37A50"/>
<path d="M21.0117 13.0625C20.91 13.6643 20.8049 14.2656 20.6967 14.8663C20.6553 15.0971 20.624 15.5816 20.453 15.7235L20.5199 15.7733C20.4389 15.7633 20.2634 15.7366 20.1897 15.7407L20.0622 15.7458C20.0497 15.8928 20.0491 15.9617 19.9987 16.1042L19.956 16.1368L19.9408 16.2243L19.9987 16.2444C19.9319 16.4341 19.7899 16.8096 19.661 16.9643L19.6413 17.0289C19.7788 17.0859 20.3958 17.3289 20.4723 17.4016L20.4558 17.4695L20.4764 17.4934C20.5916 17.6997 21.2402 17.8688 21.4587 17.8751L21.4932 17.7994C21.9144 17.9535 25.2363 19.343 25.3628 19.3353C25.5241 19.0936 25.6278 18.8204 25.7167 18.5459L25.7791 18.5217C25.9994 18.6786 25.9852 18.6004 26.16 18.6779L26.1596 18.3349C26.1582 18.2413 26.1465 18.1683 26.1341 18.0761C26.2541 18.1042 26.2699 18.098 26.3864 18.0553L26.3147 17.9605C26.2765 17.7302 26.0666 17.1649 25.9838 16.9229C25.7684 16.2797 25.5437 15.6398 25.309 15.0035C25.1225 15.0021 23.8652 14.9184 23.6887 14.8496C22.8819 14.5356 21.8461 13.8252 21.0851 13.3578C21.0134 13.3138 21.02 13.1529 21.0117 13.0625Z" fill="#616464"/>
<path d="M23.925 17.7818C23.4167 17.6213 20.203 16.1874 19.9986 16.2443C19.9318 16.434 19.7898 16.8095 19.6609 16.9642L19.6412 17.0288C19.7787 17.0858 20.3957 17.3288 20.4722 17.4015L20.4556 17.4694L20.4763 17.4933C20.5914 17.6995 21.2401 17.8687 21.4586 17.875L21.4931 17.7993C21.9143 17.9534 25.2362 19.3429 25.3626 19.3352C25.5239 19.0935 25.6277 18.8203 25.7166 18.5458C25.6105 18.4565 25.1938 18.2911 25.0056 18.179C24.8429 18.1938 24.5068 18.2573 24.3448 18.3069C23.8744 18.403 23.8851 18.1416 23.925 17.7818Z" fill="#FCCC93"/>
<path d="M20.4722 17.4019L20.4557 17.4697L20.4764 17.4936C20.5915 17.6999 21.2401 17.8691 21.4587 17.8754L21.4931 17.7997C21.1547 17.6626 20.8141 17.53 20.4722 17.4019Z" fill="#CC8A55"/>
<path d="M20.5198 15.7728C20.4388 15.7628 20.2634 15.7361 20.1896 15.7402L20.0621 15.7453C20.0497 15.8923 20.049 15.9612 19.9987 16.1036L19.9559 16.1363L19.9408 16.2238L19.9987 16.2439C20.2031 16.187 23.4167 17.6209 23.9251 17.7814C23.8851 18.1412 23.8744 18.4026 24.3449 18.3065L24.1974 18.2781C24.1178 18.1527 24.1567 17.764 24.1788 17.6034C24.205 17.4146 24.1826 17.4172 24.3063 17.3213L24.1881 17.3228V17.141C24.0668 17.0836 23.8862 17.0191 23.7583 16.976C22.7009 16.6188 21.5962 16.0397 20.5198 15.7728Z" fill="#E5A86E"/>
<path d="M20.5198 15.7728C20.4388 15.7628 20.2634 15.7361 20.1897 15.7402C20.2675 15.7957 24.1519 17.3208 24.1881 17.3228V17.141C24.0668 17.0836 23.8862 17.0191 23.7583 16.976C22.7009 16.6188 21.5962 16.0397 20.5198 15.7728Z" fill="#FEE5BC"/>
<path d="M25.3738 17.082C25.0415 17.1774 24.6479 17.2887 24.3064 17.3211C24.1826 17.4171 24.205 17.4145 24.1788 17.6033C24.1568 17.7638 24.1178 18.1526 24.1975 18.278L24.345 18.3064C24.507 18.2568 24.843 18.1933 25.0057 18.1784C25.1939 18.2906 25.6106 18.456 25.7167 18.5453L25.7791 18.5211C25.9994 18.6779 25.9852 18.5998 26.16 18.6773L26.1596 18.3343C26.1582 18.2407 26.1465 18.1677 26.1341 18.0755L26.1069 18.0376C26.0766 17.9857 26.0876 18.0041 26.0307 17.9679L25.9108 17.9961C25.7919 17.9629 25.6626 17.8133 25.5678 17.7204L25.552 17.651C25.4906 17.5647 25.4041 17.1982 25.3738 17.082Z" fill="#CC8A55"/>
<path d="M25.5678 17.7206C25.4417 17.6793 25.3538 17.6908 25.2235 17.6956L25.2035 17.7256C25.2983 17.8312 25.3869 17.9109 25.4193 18.05L25.4041 18.1042C25.2787 18.0735 25.2011 18.0615 25.0757 18.0451L25.0857 18.0814C25.1584 18.1144 25.1729 18.1237 25.2549 18.1367L25.5068 18.1524L25.542 18.1811C25.5871 18.24 25.7657 18.4631 25.7791 18.5212C25.9994 18.6781 25.9852 18.5999 26.16 18.6774L26.1596 18.3344C26.1582 18.2408 26.1465 18.1678 26.1341 18.0756L26.1069 18.0378C26.0766 17.9858 26.0876 18.0042 26.0307 17.968L25.9108 17.9963C25.7919 17.963 25.6626 17.8134 25.5678 17.7206Z" fill="#B37A50"/>
<path d="M26.1069 18.0376C26.0352 18.1108 25.989 18.4967 26.0104 18.5957C26.1041 18.5606 26.1362 18.4231 26.1596 18.3342C26.1582 18.2406 26.1465 18.1676 26.1341 18.0754L26.1069 18.0376Z" fill="#6F564E"/>
<path d="M25.5419 18.1815C25.6153 18.0327 25.5254 17.8547 25.432 17.7344C25.4102 17.8143 25.4823 18.0572 25.5067 18.1528L25.5419 18.1815Z" fill="#A4663C"/>
<path d="M25.3737 17.0826C25.2576 17.0324 25.1007 16.963 24.9942 16.8955C24.815 16.9414 24.3204 17.051 24.1881 17.1415V17.3233L24.3063 17.3218C24.6479 17.2893 25.0415 17.178 25.3737 17.0826Z" fill="#FCCC93"/>
<path d="M25.552 17.6514L25.5678 17.7208C25.6626 17.8136 25.7919 17.9632 25.9108 17.9965L26.0307 17.9682C26.0876 18.0044 26.0766 17.986 26.1069 18.038L26.1341 18.0758C26.2541 18.1039 26.2699 18.0977 26.3864 18.055L26.3147 17.9602C26.0628 17.852 25.8084 17.7491 25.552 17.6514Z" fill="#FCCC93"/>
<path d="M13.8068 13.7269C13.5614 13.6745 12.6959 13.3157 12.4033 13.204C10.659 12.5383 8.88532 11.8774 7.15544 11.1807C6.84111 11.3294 6.51057 11.4187 6.32721 11.6934L6.51161 11.8475C6.635 11.8612 6.75598 11.8904 6.87179 11.9345C7.30124 12.0968 7.76654 12.3142 8.20012 12.4893L11.6588 13.8676L13.7327 14.6766C13.9974 14.7801 14.5189 14.9675 14.7574 15.0894L14.7501 15.2116C14.8897 15.3786 15.4681 15.5091 15.698 15.5529L15.7338 15.4925C16.3414 15.6874 16.9836 16.0007 17.5812 16.2079C17.93 16.3288 19.4472 17.0455 19.6495 16.9709L19.6609 16.9638C19.7898 16.8091 19.9318 16.4336 19.9987 16.2439L19.9408 16.2238L19.9559 16.1363C19.2973 15.9094 18.5514 15.6038 17.8966 15.3477L13.8785 13.7584C13.6665 14.0217 13.428 14.2653 13.1953 14.5108C13.3691 14.2007 13.5755 13.9925 13.8068 13.7269Z" fill="#FCCC93"/>
<path d="M14.7573 15.0894L14.7501 15.2115C14.8897 15.3785 15.468 15.509 15.6979 15.5528L15.7338 15.4924C15.4753 15.3595 15.0534 15.2253 14.7573 15.0894Z" fill="#CC8A55"/>
<path d="M19.9408 16.2241C19.8515 16.4395 19.6647 16.7753 19.6495 16.9712L19.6609 16.9641C19.7898 16.8094 19.9318 16.4339 19.9987 16.2443L19.9408 16.2241Z" fill="#CC8A55"/>
<path d="M13.8578 9.08301C12.4788 9.50377 11.1311 9.96639 9.74696 10.3687C9.5212 10.4446 8.61198 10.7742 8.44585 10.6931C8.41035 10.7502 8.43344 10.7669 8.35796 10.8618L8.30178 10.8599C8.24353 10.6382 8.46239 10.3016 8.45481 10.0346C8.30178 10.3105 8.1677 10.5544 8.07636 10.8572C8.10015 10.9259 8.07774 10.9029 8.12979 10.9394C8.76501 10.954 12.7355 12.6228 13.6382 12.925C13.7316 12.8304 14.0963 11.4581 14.1725 11.1985C14.3017 10.7097 14.4937 9.99859 14.6626 9.53497C14.4634 9.4735 13.9756 9.29161 13.8336 9.16347L13.8578 9.08301Z" fill="#676D6D"/>
<path d="M13.8578 9.08301C12.4788 9.50377 11.1311 9.96639 9.74696 10.3687C10.5642 10.5549 11.3652 10.7668 12.1972 10.9139C12.7938 11.0194 13.6048 11.0528 14.1725 11.1985C14.3017 10.7097 14.4937 9.99859 14.6626 9.53497C14.4634 9.4735 13.9756 9.29161 13.8336 9.16347L13.8578 9.08301Z" fill="#6F7978"/>
<path d="M9.88074 7.35576C9.78252 7.32852 9.70841 7.29019 9.6219 7.31322C9.35479 7.90791 9.09491 8.50601 8.84296 9.10743C8.74301 9.34203 8.52483 9.81571 8.45487 10.0349C8.46245 10.3019 8.24358 10.6385 8.30183 10.8602L8.35801 10.8621C8.4335 10.7672 8.4104 10.7505 8.4459 10.6934C8.61203 10.7745 9.52126 10.445 9.74701 10.3691C11.1312 9.96671 12.4788 9.5041 13.8578 9.08333L13.9278 9.03058L13.9698 9.00645C13.6097 8.81498 12.1486 8.26665 11.7399 8.11472C11.3166 7.9005 10.3571 7.5492 9.88074 7.35576Z" fill="#859890"/>
<path d="M9.88068 7.35576C9.78245 7.32852 9.70834 7.29019 9.62183 7.31322C9.35472 7.90791 9.09484 8.50601 8.84289 9.10743C8.74294 9.34203 8.52477 9.81571 8.4548 10.0349C8.46238 10.3019 8.24352 10.6385 8.30176 10.8602L8.35795 10.8621C8.43343 10.7672 8.41034 10.7505 8.44584 10.6934C8.73708 10.0154 9.03211 9.33906 9.33093 8.66449C9.50016 8.28234 9.76177 7.73619 9.88068 7.35576Z" fill="#494944"/>
<path d="M11.7399 8.11426L11.7164 8.16114C11.7843 8.21341 13.8199 9.01488 13.9278 9.03012L13.9698 9.00599C13.6097 8.81451 12.1486 8.26619 11.7399 8.11426Z" fill="#676D6D"/>
<path d="M21.915 12.0536C21.8168 11.9835 21.3815 11.8351 21.2471 11.7866C21.1768 12.0831 21.1406 12.2669 21.103 12.5687C21.0685 12.6807 21.0193 12.946 21.0117 13.0625C21.0199 13.1529 21.0134 13.3138 21.0851 13.3578C21.8461 13.8252 22.8818 14.5356 23.6887 14.8496C23.8652 14.9184 25.1225 15.0021 25.309 15.0035C25.1352 14.475 24.9546 13.9604 24.7882 13.428C24.7272 13.3088 24.6992 13.2107 24.6582 13.0846C23.7904 12.8099 22.8139 12.3568 21.915 12.0536Z" fill="#676D6D"/>
<path d="M21.9151 12.0536C21.8168 11.9835 21.3815 11.8351 21.2471 11.7866C21.1768 12.0831 21.1406 12.2669 21.103 12.5687L21.1337 12.6146C21.2285 12.6094 22.005 12.3311 22.1677 12.2742C22.1412 12.2198 21.9833 12.1321 21.9151 12.0536Z" fill="#798B88"/>
<path d="M21.2471 11.7861C21.165 11.7513 21.0492 11.7067 20.9731 11.666C20.8259 12.7245 20.4664 14.5034 20.2782 15.6099C20.2889 15.6305 20.2996 15.6511 20.3103 15.6718L20.453 15.723C20.6239 15.5811 20.6553 15.0966 20.6966 14.8658C20.8049 14.2651 20.91 13.6638 21.0117 13.062C21.0192 12.9455 21.0685 12.6802 21.103 12.5682C21.1406 12.2663 21.1768 12.0825 21.2471 11.7861Z" fill="#1A1618"/>
<path d="M13.6382 12.925C12.7355 12.6229 8.76498 10.9541 8.12976 10.9395C8.19593 11.0578 10.7106 11.9886 11.0449 12.122L12.6738 12.7668C12.8606 12.8421 13.4321 13.1016 13.6023 13.1224C13.6716 13.0375 13.6492 13.0849 13.6671 12.9724L13.6382 12.925Z" fill="#FEEBC8"/>
<path d="M13.8785 13.7589C13.9237 13.5959 13.9474 13.4391 13.9823 13.2751C14.2669 11.9387 14.7484 10.626 15.0652 9.30488L15.0249 9.2583C14.9128 9.27837 14.8567 9.27757 14.7443 9.27923L14.7457 9.33635C14.8518 9.38058 14.8994 9.37662 14.9425 9.46032C14.8987 9.73099 14.807 10.0476 14.7267 10.3142C14.4162 11.3466 14.1449 12.3865 13.8637 13.4267C13.8371 13.5241 13.8323 13.6426 13.8068 13.7274C13.5755 13.9929 13.3691 14.2012 13.1954 14.5113C13.428 14.2658 13.6665 14.0222 13.8785 13.7589Z" fill="#C19D7E"/>
<path d="M14.7443 9.27894C14.5006 9.21492 14.2635 9.07895 13.9699 9.00635L13.9278 9.03048L13.8578 9.08323L13.8337 9.16369C13.9757 9.29183 14.4634 9.47372 14.6626 9.53519L14.7457 9.33607L14.7443 9.27894Z" fill="#61696B"/>
<path d="M20.0621 15.7451C19.9608 15.8075 19.9373 16.0259 19.9559 16.1361L19.9987 16.1035C20.049 15.961 20.0497 15.8921 20.0621 15.7451Z" fill="#B37A50"/>
<path d="M15.5146 9.56568L15.3743 9.50635L15.3326 9.52845L14.6722 11.9182C14.5719 12.2751 14.3552 12.9752 14.3024 13.2987C14.3448 13.3677 14.5099 13.3873 14.595 13.3998L14.8277 13.4915C14.7177 13.4797 14.6219 13.4493 14.5361 13.4902C14.6019 13.5556 14.6871 13.5927 14.7722 13.6227C15.1482 13.7552 15.7452 13.9917 16.0912 14.1107C16.642 14.3003 19.2539 15.4455 19.6023 15.4749C19.6558 15.3976 19.6392 15.4413 19.6364 15.3345C19.6751 14.833 19.9622 13.5241 20.08 13.0029C20.1617 12.5009 20.2965 11.932 20.3561 11.4434L20.1307 11.3665C19.5479 11.1048 18.2013 10.5949 17.616 10.401C17.4851 10.3228 15.8241 9.68169 15.6473 9.62866L15.5146 9.56568Z" fill="#616464"/>
<path d="M17.616 10.4012C17.4851 10.3231 15.8241 9.68193 15.6473 9.62891C15.4998 10.0071 15.2465 10.8996 15.1365 11.3156C15.1451 11.3683 15.1424 11.4576 15.1896 11.4775C16.0895 11.8548 17.0935 12.1048 18.0172 12.4048C18.5618 12.5815 19.624 12.748 20.08 13.0032C20.1617 12.5011 20.2965 11.9322 20.3561 11.4437L20.1307 11.3667C19.5479 11.105 18.2013 10.5952 17.616 10.4012Z" fill="#6F7978"/>
<path d="M20.1307 11.3663C19.5479 11.1046 18.2013 10.5948 17.6161 10.4009C17.7481 10.5959 19.8936 11.3978 20.1307 11.3663Z" fill="#616464"/>
<path d="M15.5146 9.56568L15.3744 9.50635L15.3327 9.52845L14.6723 11.9182C14.572 12.2751 14.3552 12.9752 14.3025 13.2987C14.3448 13.3677 14.5099 13.3873 14.5951 13.3998L14.5306 13.3238C14.7192 13.122 15.0507 11.6776 15.1365 11.3153C15.2465 10.8994 15.4998 10.0069 15.6473 9.62866L15.5146 9.56568Z" fill="#6F564E"/>
<path d="M15.5146 9.56592C15.4464 9.70923 15.394 9.87209 15.3533 10.0262C15.0817 11.053 14.7616 12.0713 14.5193 13.1046C14.5 13.1882 14.502 13.2431 14.5306 13.3241C14.7192 13.1222 15.0507 11.6778 15.1365 11.3156C15.2465 10.8996 15.4998 10.0071 15.6473 9.6289L15.5146 9.56592Z" fill="#1A1618"/>
<path d="M14.8277 13.4917C14.7177 13.4799 14.6219 13.4495 14.5361 13.4904C14.6019 13.5558 14.6871 13.5929 14.7722 13.6229C15.1482 13.7554 15.7452 13.9919 16.0912 14.1109C16.642 14.3004 19.2539 15.4457 19.6023 15.4751C19.6558 15.3978 19.6392 15.4415 19.6364 15.3347C18.447 14.851 17.2334 14.4002 16.0392 13.9269C15.6487 13.7722 15.2285 13.6093 14.8277 13.4917Z" fill="#FFEDCE"/>
<path d="M6.45715 13.7271L6.30722 13.7773C6.00495 13.8451 5.71922 13.8634 5.5007 14.093C5.50898 14.4369 5.52724 14.9668 5.57791 15.3049C5.96152 15.513 6.34824 15.6777 6.74253 15.8627C6.8156 15.8814 6.90556 15.9075 6.97828 15.92L7.06307 15.9077C7.07169 15.7717 7.0579 15.6248 7.04894 15.4879C7.03274 15.2339 7.01413 14.98 6.99276 14.7264L6.96312 14.4274C6.92831 14.3956 6.82284 14.364 6.77148 14.3454C6.75701 14.1818 6.77045 13.9967 6.77803 13.8309C6.65981 13.7766 6.58674 13.7307 6.45715 13.7271Z" fill="#584345"/>
<path d="M6.45713 13.7271L6.30721 13.7773C6.00494 13.8451 5.71921 13.8634 5.50069 14.093C5.57135 14.1276 5.79814 14.2454 5.85949 14.2673C6.09593 14.3694 6.49574 14.5264 6.71253 14.6378L6.82627 14.5374C6.84868 14.5305 6.94036 14.4478 6.9631 14.4274C6.92829 14.3956 6.82282 14.364 6.77147 14.3454C6.75699 14.1818 6.77044 13.9967 6.77802 13.8309C6.6598 13.7766 6.58673 13.7307 6.45713 13.7271Z" fill="#A9786F"/>
<path d="M6.30725 13.7773C6.00498 13.8451 5.71925 13.8635 5.50073 14.0931C5.57139 14.1276 5.79818 14.2455 5.85953 14.2674C6.01773 14.18 6.09873 14.2045 6.25969 14.2598L6.27175 14.1092C6.30449 14.0049 6.30208 13.8882 6.30725 13.7773Z" fill="#9C6C62"/>
<path d="M6.45716 13.7271L6.30723 13.7773C6.30206 13.8882 6.30447 14.0048 6.27173 14.1091C6.46026 14.1875 6.59089 14.2499 6.77149 14.3454C6.75702 14.1818 6.77046 13.9967 6.77805 13.8309C6.65983 13.7766 6.58675 13.7307 6.45716 13.7271Z" fill="#C19D7E"/>
<path d="M6.2717 14.1094L6.25964 14.26C6.47368 14.4544 6.66463 14.3336 6.82627 14.5377C6.84868 14.5307 6.94036 14.4481 6.9631 14.4277C6.92829 14.3958 6.82282 14.3642 6.77147 14.3456C6.59086 14.2501 6.46024 14.1877 6.2717 14.1094Z" fill="#745650"/>
<path d="M6.96312 14.4277C6.94037 14.4481 6.84869 14.5308 6.82629 14.5377L6.71255 14.6381C6.71289 14.8619 6.76459 15.748 6.74253 15.863C6.8156 15.8817 6.90556 15.9077 6.97828 15.9203L7.06307 15.908C7.07169 15.7719 7.0579 15.6251 7.04894 15.4882C7.03274 15.2342 7.01413 14.9803 6.99276 14.7267L6.96312 14.4277Z" fill="#2B1E20"/>
<path d="M7.04894 15.4883C6.94003 15.5256 6.97759 15.4913 6.92865 15.5897C6.9321 15.7314 6.94692 15.7863 6.97828 15.9204L7.06307 15.9081C7.07169 15.772 7.0579 15.6252 7.04894 15.4883Z" fill="#1A1618"/>
</svg>
